*
%FSLAX26Y26*%
%MOIN*%
%ADD10R,0.019690X0.019690*%
%ADD11R,0.035430X0.035430*%
%ADD12R,0.009840X0.009840*%
%ADD13R,0.102360X0.102360*%
%ADD14R,0.021650X0.021650*%
%ADD15R,0.033470X0.033470*%
%ADD16R,0.036000X0.036000*%
%ADD17C,0.039370*%
%ADD18R,0.031500X0.031500*%
%ADD19R,0.023620X0.023620*%
%ADD20C,0.004000*%
%ADD21C,0.003937*%
%IPPOS*%
%LNpz02c05521a0.gbp*%
%LPD*%
G75*
G54D10*
X688173Y250485D02*
X692103D01*
X648793D02*
X652723D01*
X606803Y282485D02*
X610733D01*
X646173D02*
X650103D01*
X656803Y314485D02*
X660733D01*
X696173D02*
X700103D01*
X916803Y321485D02*
X920733D01*
X956173D02*
X960103D01*
X1233303Y532615D02*
X1237233D01*
X1193933D02*
X1197863D01*
X936943Y268615D02*
X940873D01*
X976313D02*
X980243D01*
X820313Y157615D02*
X824243D01*
X780943D02*
X784873D01*
X723173Y183485D02*
X727103D01*
X683803D02*
X687733D01*
X648803Y216485D02*
X652733D01*
X688173D02*
X692103D01*
G54D11*
X949088Y164615D03*
X884088D03*
G54D10*
X935458Y354150D02*
Y358080D01*
Y393520D02*
Y397450D01*
X1295458Y552200D02*
Y556130D01*
Y512830D02*
Y516760D01*
Y589830D02*
Y593760D01*
Y629200D02*
Y633130D01*
X1282458Y664830D02*
Y668760D01*
Y704200D02*
Y708130D01*
X1182458Y383830D02*
Y387760D01*
Y423200D02*
Y427130D01*
Y354200D02*
Y358130D01*
Y314830D02*
Y318760D01*
X1098458Y210830D02*
Y214760D01*
Y250200D02*
Y254130D01*
X1031458Y208830D02*
Y212760D01*
Y248200D02*
Y252130D01*
X1065458Y210830D02*
Y214760D01*
Y250200D02*
Y254130D01*
X725588Y214970D02*
Y218900D01*
Y254330D02*
Y258260D01*
G36*
X1035358Y778305D02*
X1052058Y795005D01*
X1065978Y781085D01*
X1049278Y764385D01*
X1035358Y778305D01*
G37*
G36*
X1063198Y806145D02*
X1079898Y822845D01*
X1093818Y808925D01*
X1077118Y792225D01*
X1063198Y806145D01*
G37*
G36*
X1087198Y782145D02*
X1103898Y798845D01*
X1117818Y784925D01*
X1101118Y768225D01*
X1087198Y782145D01*
G37*
G36*
X1059358Y754305D02*
X1076058Y771005D01*
X1089978Y757085D01*
X1073278Y740385D01*
X1059358Y754305D01*
G37*
G36*
X1083358Y731305D02*
X1100058Y748005D01*
X1113978Y734085D01*
X1097278Y717385D01*
X1083358Y731305D01*
G37*
G36*
X1111198Y759145D02*
X1127898Y775845D01*
X1141818Y761925D01*
X1125118Y745225D01*
X1111198Y759145D01*
G37*
G36*
X1127058Y723785D02*
X1143758Y707085D01*
X1134018Y697345D01*
X1117318Y714045D01*
X1127058Y723785D01*
G37*
G36*
X1145158Y741885D02*
X1161858Y725185D01*
X1152118Y715445D01*
X1135418Y732145D01*
X1145158Y741885D01*
G37*
G54D12*
X1098508Y456670D02*
Y480300D01*
X1118198Y305090D02*
Y328720D01*
X1098508Y305090D02*
Y328720D01*
X1078828Y305090D02*
Y328720D01*
X1059138Y305090D02*
Y328720D01*
X1039458Y305090D02*
Y328720D01*
X1019768Y305090D02*
Y328720D01*
Y456670D02*
Y480300D01*
X1039458Y456670D02*
Y480300D01*
X1059138Y456670D02*
Y480300D01*
X1078828Y456670D02*
Y480300D01*
X1118198Y456670D02*
Y480300D01*
X981383Y343485D02*
X1005013D01*
X981383Y363165D02*
X1005013D01*
X981383Y382855D02*
X1005013D01*
X981383Y402535D02*
X1005013D01*
X981383Y422225D02*
X1005013D01*
X981383Y441905D02*
X1005013D01*
X1132953D02*
X1156583D01*
X1132953Y422225D02*
X1156583D01*
X1132953Y402535D02*
X1156583D01*
X1132953Y382855D02*
X1156583D01*
X1132953Y363165D02*
X1156583D01*
X1132953Y343485D02*
X1156583D01*
G54D13*
X1068978Y392695D03*
G54D14*
X876168Y354060D02*
Y363910D01*
Y417050D02*
Y426900D01*
X840738Y417050D02*
Y426900D01*
Y354060D02*
Y363910D01*
X685738Y622050D02*
Y631900D01*
Y685040D02*
Y694890D01*
X721168Y685040D02*
Y694890D01*
Y622050D02*
Y631900D01*
X1008178Y631070D02*
Y640920D01*
Y694060D02*
Y703910D01*
X972748Y694060D02*
Y703910D01*
Y631070D02*
Y640920D01*
G36*
X977938Y764285D02*
X922258Y819965D01*
X961238Y858945D01*
X1016918Y803265D01*
X977938Y764285D01*
G37*
G36*
X1100428Y886775D02*
X1044748Y942455D01*
X1083728Y981435D01*
X1139408Y925755D01*
X1100428Y886775D01*
G37*
G54D15*
X485573Y367485D02*
X499343D01*
X485573Y487555D02*
X499343D01*
G54D16*
X1200958Y657485D02*
Y671485D01*
X1240958Y569485D02*
Y583485D01*
X1165958Y569485D02*
Y583485D01*
G54D17*
X616538Y786185D03*
X852758D03*
X695278D03*
X774018D03*
X598458Y113485D03*
X421258Y445375D03*
Y287895D03*
Y366635D03*
Y524115D03*
G54D18*
X773618Y468995D02*
Y484735D01*
Y642225D02*
Y657965D01*
X919288Y468995D02*
Y484735D01*
Y642225D02*
Y657965D01*
G54D19*
X747048Y559545D02*
Y567425D01*
X945868Y559545D02*
Y567425D01*
G54D20*
X1257858Y185475D02*
G03X1274888Y186205I8165J8530D01*
G03X1409788Y471025I-428428J377274D01*
X1409778Y471015D02*
G03X1398128Y484745I-11662J1912D01*
X1380368Y496555D02*
G03X1392178Y484745I11810J0D01*
Y642225D02*
G03X1380368Y630415I0J-11810D01*
X1398128Y642225D02*
G03X1409778Y655945I-2J11808D01*
X1409788D02*
G03X938918Y1126815I-563330J-92460D01*
Y1126805D02*
G03X925198Y1115155I-1907J-11658D01*
X913388Y1097395D02*
G03X925198Y1109205I0J11810D01*
X767718D02*
G03X779528Y1097395I11810J0D01*
X767718Y1115155D02*
G03X753988Y1126805I-11809J-1D01*
X753998Y1126815D02*
G03X469178Y991915I92456J-563332D01*
G03X468448Y974885I7810J-8865D01*
X435048Y941485D02*
G03X468448Y974885I16330J17070D01*
X435048Y941485D02*
G03X418028Y940755I-8160J-8530D01*
G03X283128Y655945I428427J-377277D01*
G03X294778Y642225I11658J-1907D01*
X312538Y630415D02*
G03X300728Y642225I-11810J0D01*
Y484745D02*
G03X312538Y496555I0J11810D01*
X294778Y484745D02*
G03X283128Y471015I1J-11809D01*
Y471025D02*
G03X753998Y155I563330J92460D01*
X753988D02*
G03X767718Y11805I1912J11662D01*
X779528Y29565D02*
G03X767718Y17755I0J-11810D01*
X925198D02*
G03X913388Y29565I-11810J0D01*
X925198Y11805D02*
G03X938918Y155I11808J2D01*
G03X1223728Y135055I-92467J563327D01*
G03X1224458Y152075I-7810J8861D01*
X1257858Y185475D02*
G03X1224458Y152075I-16330J-17070D01*
X1392178Y484745D02*
G01X1398128D01*
X1380368Y496555D02*
Y630415D01*
X1392178Y642225D02*
X1398128D01*
X925198Y1109205D02*
Y1115155D01*
X779528Y1097395D02*
X913388D01*
X767718Y1109205D02*
Y1115155D01*
X294778Y642225D02*
X300728D01*
X312538Y496555D02*
Y630415D01*
X294778Y484745D02*
X300728D01*
X767718Y11805D02*
Y17755D01*
X779528Y29565D02*
X913388D01*
X925198Y11805D02*
Y17755D01*
G54D10*
X688173Y1470958D02*
X692103D01*
X648793D02*
X652723D01*
X606803Y1502958D02*
X610733D01*
X646173D02*
X650103D01*
X656803Y1534958D02*
X660733D01*
X696173D02*
X700103D01*
X916803Y1541958D02*
X920733D01*
X956173D02*
X960103D01*
X1233303Y1753088D02*
X1237233D01*
X1193933D02*
X1197863D01*
X936943Y1489088D02*
X940873D01*
X976313D02*
X980243D01*
X820313Y1378088D02*
X824243D01*
X780943D02*
X784873D01*
X723173Y1403958D02*
X727103D01*
X683803D02*
X687733D01*
X648803Y1436958D02*
X652733D01*
X688173D02*
X692103D01*
G54D11*
X949088Y1385088D03*
X884088D03*
G54D10*
X935458Y1574623D02*
Y1578553D01*
Y1613993D02*
Y1617923D01*
X1295458Y1772673D02*
Y1776603D01*
Y1733303D02*
Y1737233D01*
Y1810303D02*
Y1814233D01*
Y1849673D02*
Y1853603D01*
X1282458Y1885303D02*
Y1889233D01*
Y1924673D02*
Y1928603D01*
X1182458Y1604303D02*
Y1608233D01*
Y1643673D02*
Y1647603D01*
Y1574673D02*
Y1578603D01*
Y1535303D02*
Y1539233D01*
X1098458Y1431303D02*
Y1435233D01*
Y1470673D02*
Y1474603D01*
X1031458Y1429303D02*
Y1433233D01*
Y1468673D02*
Y1472603D01*
X1065458Y1431303D02*
Y1435233D01*
Y1470673D02*
Y1474603D01*
X725588Y1435443D02*
Y1439373D01*
Y1474803D02*
Y1478733D01*
G36*
X1035358Y1998778D02*
X1052058Y2015478D01*
X1065978Y2001558D01*
X1049278Y1984858D01*
X1035358Y1998778D01*
G37*
G36*
X1063198Y2026618D02*
X1079898Y2043318D01*
X1093818Y2029398D01*
X1077118Y2012698D01*
X1063198Y2026618D01*
G37*
G36*
X1087198Y2002618D02*
X1103898Y2019318D01*
X1117818Y2005398D01*
X1101118Y1988698D01*
X1087198Y2002618D01*
G37*
G36*
X1059358Y1974778D02*
X1076058Y1991478D01*
X1089978Y1977558D01*
X1073278Y1960858D01*
X1059358Y1974778D01*
G37*
G36*
X1083358Y1951778D02*
X1100058Y1968478D01*
X1113978Y1954558D01*
X1097278Y1937858D01*
X1083358Y1951778D01*
G37*
G36*
X1111198Y1979618D02*
X1127898Y1996318D01*
X1141818Y1982398D01*
X1125118Y1965698D01*
X1111198Y1979618D01*
G37*
G36*
X1127058Y1944258D02*
X1143758Y1927558D01*
X1134018Y1917818D01*
X1117318Y1934518D01*
X1127058Y1944258D01*
G37*
G36*
X1145158Y1962358D02*
X1161858Y1945658D01*
X1152118Y1935918D01*
X1135418Y1952618D01*
X1145158Y1962358D01*
G37*
G54D12*
X1098508Y1677143D02*
Y1700773D01*
X1118198Y1525563D02*
Y1549193D01*
X1098508Y1525563D02*
Y1549193D01*
X1078828Y1525563D02*
Y1549193D01*
X1059138Y1525563D02*
Y1549193D01*
X1039458Y1525563D02*
Y1549193D01*
X1019768Y1525563D02*
Y1549193D01*
Y1677143D02*
Y1700773D01*
X1039458Y1677143D02*
Y1700773D01*
X1059138Y1677143D02*
Y1700773D01*
X1078828Y1677143D02*
Y1700773D01*
X1118198Y1677143D02*
Y1700773D01*
X981383Y1563958D02*
X1005013D01*
X981383Y1583638D02*
X1005013D01*
X981383Y1603328D02*
X1005013D01*
X981383Y1623008D02*
X1005013D01*
X981383Y1642698D02*
X1005013D01*
X981383Y1662378D02*
X1005013D01*
X1132953D02*
X1156583D01*
X1132953Y1642698D02*
X1156583D01*
X1132953Y1623008D02*
X1156583D01*
X1132953Y1603328D02*
X1156583D01*
X1132953Y1583638D02*
X1156583D01*
X1132953Y1563958D02*
X1156583D01*
G54D13*
X1068978Y1613168D03*
G54D14*
X876168Y1574533D02*
Y1584383D01*
Y1637523D02*
Y1647373D01*
X840738Y1637523D02*
Y1647373D01*
Y1574533D02*
Y1584383D01*
X685738Y1842523D02*
Y1852373D01*
Y1905513D02*
Y1915363D01*
X721168Y1905513D02*
Y1915363D01*
Y1842523D02*
Y1852373D01*
X1008178Y1851543D02*
Y1861393D01*
Y1914533D02*
Y1924383D01*
X972748Y1914533D02*
Y1924383D01*
Y1851543D02*
Y1861393D01*
G36*
X977938Y1984758D02*
X922258Y2040438D01*
X961238Y2079418D01*
X1016918Y2023738D01*
X977938Y1984758D01*
G37*
G36*
X1100428Y2107248D02*
X1044748Y2162928D01*
X1083728Y2201908D01*
X1139408Y2146228D01*
X1100428Y2107248D01*
G37*
G54D15*
X485573Y1587958D02*
X499343D01*
X485573Y1708028D02*
X499343D01*
G54D16*
X1200958Y1877958D02*
Y1891958D01*
X1240958Y1789958D02*
Y1803958D01*
X1165958Y1789958D02*
Y1803958D01*
G54D17*
X616538Y2006658D03*
X852758D03*
X695278D03*
X774018D03*
X598458Y1333958D03*
X421258Y1665848D03*
Y1508368D03*
Y1587108D03*
Y1744588D03*
G54D18*
X773618Y1689468D02*
Y1705208D01*
Y1862698D02*
Y1878438D01*
X919288Y1689468D02*
Y1705208D01*
Y1862698D02*
Y1878438D01*
G54D19*
X747048Y1780018D02*
Y1787898D01*
X945868Y1780018D02*
Y1787898D01*
G54D20*
X1257858Y1405948D02*
G03X1274888Y1406678I8165J8530D01*
G03X1409788Y1691498I-428428J377274D01*
X1409778Y1691488D02*
G03X1398128Y1705218I-11662J1912D01*
X1380368Y1717028D02*
G03X1392178Y1705218I11810J0D01*
Y1862698D02*
G03X1380368Y1850888I0J-11810D01*
X1398128Y1862698D02*
G03X1409778Y1876418I-2J11808D01*
X1409788D02*
G03X938918Y2347288I-563330J-92460D01*
Y2347278D02*
G03X925198Y2335628I-1907J-11658D01*
X913388Y2317868D02*
G03X925198Y2329678I0J11810D01*
X767718D02*
G03X779528Y2317868I11810J0D01*
X767718Y2335628D02*
G03X753988Y2347278I-11809J-1D01*
X753998Y2347288D02*
G03X469178Y2212388I92456J-563332D01*
G03X468448Y2195358I7810J-8865D01*
X435048Y2161958D02*
G03X468448Y2195358I16330J17070D01*
X435048Y2161958D02*
G03X418028Y2161228I-8160J-8530D01*
G03X283128Y1876418I428427J-377277D01*
G03X294778Y1862698I11658J-1907D01*
X312538Y1850888D02*
G03X300728Y1862698I-11810J0D01*
Y1705218D02*
G03X312538Y1717028I0J11810D01*
X294778Y1705218D02*
G03X283128Y1691488I1J-11809D01*
Y1691498D02*
G03X753998Y1220628I563330J92460D01*
X753988D02*
G03X767718Y1232278I1912J11662D01*
X779528Y1250038D02*
G03X767718Y1238228I0J-11810D01*
X925198D02*
G03X913388Y1250038I-11810J0D01*
X925198Y1232278D02*
G03X938918Y1220628I11808J2D01*
G03X1223728Y1355528I-92467J563327D01*
G03X1224458Y1372548I-7810J8861D01*
X1257858Y1405948D02*
G03X1224458Y1372548I-16330J-17070D01*
X1392178Y1705218D02*
G01X1398128D01*
X1380368Y1717028D02*
Y1850888D01*
X1392178Y1862698D02*
X1398128D01*
X925198Y2329678D02*
Y2335628D01*
X779528Y2317868D02*
X913388D01*
X767718Y2329678D02*
Y2335628D01*
X294778Y1862698D02*
X300728D01*
X312538Y1717028D02*
Y1850888D01*
X294778Y1705218D02*
X300728D01*
X767718Y1232278D02*
Y1238228D01*
X779528Y1250038D02*
X913388D01*
X925198Y1232278D02*
Y1238228D01*
G54D10*
X688173Y2691430D02*
X692103D01*
X648793D02*
X652723D01*
X606803Y2723430D02*
X610733D01*
X646173D02*
X650103D01*
X656803Y2755430D02*
X660733D01*
X696173D02*
X700103D01*
X916803Y2762430D02*
X920733D01*
X956173D02*
X960103D01*
X1233303Y2973560D02*
X1237233D01*
X1193933D02*
X1197863D01*
X936943Y2709560D02*
X940873D01*
X976313D02*
X980243D01*
X820313Y2598560D02*
X824243D01*
X780943D02*
X784873D01*
X723173Y2624430D02*
X727103D01*
X683803D02*
X687733D01*
X648803Y2657430D02*
X652733D01*
X688173D02*
X692103D01*
G54D11*
X949088Y2605560D03*
X884088D03*
G54D10*
X935458Y2795095D02*
Y2799025D01*
Y2834465D02*
Y2838395D01*
X1295458Y2993145D02*
Y2997075D01*
Y2953775D02*
Y2957705D01*
Y3030775D02*
Y3034705D01*
Y3070145D02*
Y3074075D01*
X1282458Y3105775D02*
Y3109705D01*
Y3145145D02*
Y3149075D01*
X1182458Y2824775D02*
Y2828705D01*
Y2864145D02*
Y2868075D01*
Y2795145D02*
Y2799075D01*
Y2755775D02*
Y2759705D01*
X1098458Y2651775D02*
Y2655705D01*
Y2691145D02*
Y2695075D01*
X1031458Y2649775D02*
Y2653705D01*
Y2689145D02*
Y2693075D01*
X1065458Y2651775D02*
Y2655705D01*
Y2691145D02*
Y2695075D01*
X725588Y2655915D02*
Y2659845D01*
Y2695275D02*
Y2699205D01*
G36*
X1035358Y3219250D02*
X1052058Y3235950D01*
X1065978Y3222030D01*
X1049278Y3205330D01*
X1035358Y3219250D01*
G37*
G36*
X1063198Y3247090D02*
X1079898Y3263790D01*
X1093818Y3249870D01*
X1077118Y3233170D01*
X1063198Y3247090D01*
G37*
G36*
X1087198Y3223090D02*
X1103898Y3239790D01*
X1117818Y3225870D01*
X1101118Y3209170D01*
X1087198Y3223090D01*
G37*
G36*
X1059358Y3195250D02*
X1076058Y3211950D01*
X1089978Y3198030D01*
X1073278Y3181330D01*
X1059358Y3195250D01*
G37*
G36*
X1083358Y3172250D02*
X1100058Y3188950D01*
X1113978Y3175030D01*
X1097278Y3158330D01*
X1083358Y3172250D01*
G37*
G36*
X1111198Y3200090D02*
X1127898Y3216790D01*
X1141818Y3202870D01*
X1125118Y3186170D01*
X1111198Y3200090D01*
G37*
G36*
X1127058Y3164730D02*
X1143758Y3148030D01*
X1134018Y3138290D01*
X1117318Y3154990D01*
X1127058Y3164730D01*
G37*
G36*
X1145158Y3182830D02*
X1161858Y3166130D01*
X1152118Y3156390D01*
X1135418Y3173090D01*
X1145158Y3182830D01*
G37*
G54D12*
X1098508Y2897615D02*
Y2921245D01*
X1118198Y2746035D02*
Y2769665D01*
X1098508Y2746035D02*
Y2769665D01*
X1078828Y2746035D02*
Y2769665D01*
X1059138Y2746035D02*
Y2769665D01*
X1039458Y2746035D02*
Y2769665D01*
X1019768Y2746035D02*
Y2769665D01*
Y2897615D02*
Y2921245D01*
X1039458Y2897615D02*
Y2921245D01*
X1059138Y2897615D02*
Y2921245D01*
X1078828Y2897615D02*
Y2921245D01*
X1118198Y2897615D02*
Y2921245D01*
X981383Y2784430D02*
X1005013D01*
X981383Y2804110D02*
X1005013D01*
X981383Y2823800D02*
X1005013D01*
X981383Y2843480D02*
X1005013D01*
X981383Y2863170D02*
X1005013D01*
X981383Y2882850D02*
X1005013D01*
X1132953D02*
X1156583D01*
X1132953Y2863170D02*
X1156583D01*
X1132953Y2843480D02*
X1156583D01*
X1132953Y2823800D02*
X1156583D01*
X1132953Y2804110D02*
X1156583D01*
X1132953Y2784430D02*
X1156583D01*
G54D13*
X1068978Y2833640D03*
G54D14*
X876168Y2795005D02*
Y2804855D01*
Y2857995D02*
Y2867845D01*
X840738Y2857995D02*
Y2867845D01*
Y2795005D02*
Y2804855D01*
X685738Y3062995D02*
Y3072845D01*
Y3125985D02*
Y3135835D01*
X721168Y3125985D02*
Y3135835D01*
Y3062995D02*
Y3072845D01*
X1008178Y3072015D02*
Y3081865D01*
Y3135005D02*
Y3144855D01*
X972748Y3135005D02*
Y3144855D01*
Y3072015D02*
Y3081865D01*
G36*
X977938Y3205230D02*
X922258Y3260910D01*
X961238Y3299890D01*
X1016918Y3244210D01*
X977938Y3205230D01*
G37*
G36*
X1100428Y3327720D02*
X1044748Y3383400D01*
X1083728Y3422380D01*
X1139408Y3366700D01*
X1100428Y3327720D01*
G37*
G54D15*
X485573Y2808430D02*
X499343D01*
X485573Y2928500D02*
X499343D01*
G54D16*
X1200958Y3098430D02*
Y3112430D01*
X1240958Y3010430D02*
Y3024430D01*
X1165958Y3010430D02*
Y3024430D01*
G54D17*
X616538Y3227130D03*
X852758D03*
X695278D03*
X774018D03*
X598458Y2554430D03*
X421258Y2886320D03*
Y2728840D03*
Y2807580D03*
Y2965060D03*
G54D18*
X773618Y2909940D02*
Y2925680D01*
Y3083170D02*
Y3098910D01*
X919288Y2909940D02*
Y2925680D01*
Y3083170D02*
Y3098910D01*
G54D19*
X747048Y3000490D02*
Y3008370D01*
X945868Y3000490D02*
Y3008370D01*
G54D20*
X1257858Y2626420D02*
G03X1274888Y2627150I8165J8530D01*
G03X1409788Y2911970I-428428J377274D01*
X1409778Y2911960D02*
G03X1398128Y2925690I-11662J1912D01*
X1380368Y2937500D02*
G03X1392178Y2925690I11810J0D01*
Y3083170D02*
G03X1380368Y3071360I0J-11810D01*
X1398128Y3083170D02*
G03X1409778Y3096890I-2J11808D01*
X1409788D02*
G03X938918Y3567760I-563330J-92460D01*
Y3567750D02*
G03X925198Y3556100I-1907J-11658D01*
X913388Y3538340D02*
G03X925198Y3550150I0J11810D01*
X767718D02*
G03X779528Y3538340I11810J0D01*
X767718Y3556100D02*
G03X753988Y3567750I-11809J-1D01*
X753998Y3567760D02*
G03X469178Y3432860I92456J-563332D01*
G03X468448Y3415830I7810J-8865D01*
X435048Y3382430D02*
G03X468448Y3415830I16330J17070D01*
X435048Y3382430D02*
G03X418028Y3381700I-8160J-8530D01*
G03X283128Y3096890I428427J-377277D01*
G03X294778Y3083170I11658J-1907D01*
X312538Y3071360D02*
G03X300728Y3083170I-11810J0D01*
Y2925690D02*
G03X312538Y2937500I0J11810D01*
X294778Y2925690D02*
G03X283128Y2911960I1J-11809D01*
Y2911970D02*
G03X753998Y2441100I563330J92460D01*
X753988D02*
G03X767718Y2452750I1912J11662D01*
X779528Y2470510D02*
G03X767718Y2458700I0J-11810D01*
X925198D02*
G03X913388Y2470510I-11810J0D01*
X925198Y2452750D02*
G03X938918Y2441100I11808J2D01*
G03X1223728Y2576000I-92467J563327D01*
G03X1224458Y2593020I-7810J8861D01*
X1257858Y2626420D02*
G03X1224458Y2593020I-16330J-17070D01*
X1392178Y2925690D02*
G01X1398128D01*
X1380368Y2937500D02*
Y3071360D01*
X1392178Y3083170D02*
X1398128D01*
X925198Y3550150D02*
Y3556100D01*
X779528Y3538340D02*
X913388D01*
X767718Y3550150D02*
Y3556100D01*
X294778Y3083170D02*
X300728D01*
X312538Y2937500D02*
Y3071360D01*
X294778Y2925690D02*
X300728D01*
X767718Y2452750D02*
Y2458700D01*
X779528Y2470510D02*
X913388D01*
X925198Y2452750D02*
Y2458700D01*
G54D10*
X688173Y3911903D02*
X692103D01*
X648793D02*
X652723D01*
X606803Y3943903D02*
X610733D01*
X646173D02*
X650103D01*
X656803Y3975903D02*
X660733D01*
X696173D02*
X700103D01*
X916803Y3982903D02*
X920733D01*
X956173D02*
X960103D01*
X1233303Y4194033D02*
X1237233D01*
X1193933D02*
X1197863D01*
X936943Y3930033D02*
X940873D01*
X976313D02*
X980243D01*
X820313Y3819033D02*
X824243D01*
X780943D02*
X784873D01*
X723173Y3844903D02*
X727103D01*
X683803D02*
X687733D01*
X648803Y3877903D02*
X652733D01*
X688173D02*
X692103D01*
G54D11*
X949088Y3826033D03*
X884088D03*
G54D10*
X935458Y4015568D02*
Y4019498D01*
Y4054938D02*
Y4058868D01*
X1295458Y4213618D02*
Y4217548D01*
Y4174248D02*
Y4178178D01*
Y4251248D02*
Y4255178D01*
Y4290618D02*
Y4294548D01*
X1282458Y4326248D02*
Y4330178D01*
Y4365618D02*
Y4369548D01*
X1182458Y4045248D02*
Y4049178D01*
Y4084618D02*
Y4088548D01*
Y4015618D02*
Y4019548D01*
Y3976248D02*
Y3980178D01*
X1098458Y3872248D02*
Y3876178D01*
Y3911618D02*
Y3915548D01*
X1031458Y3870248D02*
Y3874178D01*
Y3909618D02*
Y3913548D01*
X1065458Y3872248D02*
Y3876178D01*
Y3911618D02*
Y3915548D01*
X725588Y3876388D02*
Y3880318D01*
Y3915748D02*
Y3919678D01*
G36*
X1035358Y4439723D02*
X1052058Y4456423D01*
X1065978Y4442503D01*
X1049278Y4425803D01*
X1035358Y4439723D01*
G37*
G36*
X1063198Y4467563D02*
X1079898Y4484263D01*
X1093818Y4470343D01*
X1077118Y4453643D01*
X1063198Y4467563D01*
G37*
G36*
X1087198Y4443563D02*
X1103898Y4460263D01*
X1117818Y4446343D01*
X1101118Y4429643D01*
X1087198Y4443563D01*
G37*
G36*
X1059358Y4415723D02*
X1076058Y4432423D01*
X1089978Y4418503D01*
X1073278Y4401803D01*
X1059358Y4415723D01*
G37*
G36*
X1083358Y4392723D02*
X1100058Y4409423D01*
X1113978Y4395503D01*
X1097278Y4378803D01*
X1083358Y4392723D01*
G37*
G36*
X1111198Y4420563D02*
X1127898Y4437263D01*
X1141818Y4423343D01*
X1125118Y4406643D01*
X1111198Y4420563D01*
G37*
G36*
X1127058Y4385203D02*
X1143758Y4368503D01*
X1134018Y4358763D01*
X1117318Y4375463D01*
X1127058Y4385203D01*
G37*
G36*
X1145158Y4403303D02*
X1161858Y4386603D01*
X1152118Y4376863D01*
X1135418Y4393563D01*
X1145158Y4403303D01*
G37*
G54D12*
X1098508Y4118088D02*
Y4141718D01*
X1118198Y3966508D02*
Y3990138D01*
X1098508Y3966508D02*
Y3990138D01*
X1078828Y3966508D02*
Y3990138D01*
X1059138Y3966508D02*
Y3990138D01*
X1039458Y3966508D02*
Y3990138D01*
X1019768Y3966508D02*
Y3990138D01*
Y4118088D02*
Y4141718D01*
X1039458Y4118088D02*
Y4141718D01*
X1059138Y4118088D02*
Y4141718D01*
X1078828Y4118088D02*
Y4141718D01*
X1118198Y4118088D02*
Y4141718D01*
X981383Y4004903D02*
X1005013D01*
X981383Y4024583D02*
X1005013D01*
X981383Y4044273D02*
X1005013D01*
X981383Y4063953D02*
X1005013D01*
X981383Y4083643D02*
X1005013D01*
X981383Y4103323D02*
X1005013D01*
X1132953D02*
X1156583D01*
X1132953Y4083643D02*
X1156583D01*
X1132953Y4063953D02*
X1156583D01*
X1132953Y4044273D02*
X1156583D01*
X1132953Y4024583D02*
X1156583D01*
X1132953Y4004903D02*
X1156583D01*
G54D13*
X1068978Y4054113D03*
G54D14*
X876168Y4015478D02*
Y4025328D01*
Y4078468D02*
Y4088318D01*
X840738Y4078468D02*
Y4088318D01*
Y4015478D02*
Y4025328D01*
X685738Y4283468D02*
Y4293318D01*
Y4346458D02*
Y4356308D01*
X721168Y4346458D02*
Y4356308D01*
Y4283468D02*
Y4293318D01*
X1008178Y4292488D02*
Y4302338D01*
Y4355478D02*
Y4365328D01*
X972748Y4355478D02*
Y4365328D01*
Y4292488D02*
Y4302338D01*
G36*
X977938Y4425703D02*
X922258Y4481383D01*
X961238Y4520363D01*
X1016918Y4464683D01*
X977938Y4425703D01*
G37*
G36*
X1100428Y4548193D02*
X1044748Y4603873D01*
X1083728Y4642853D01*
X1139408Y4587173D01*
X1100428Y4548193D01*
G37*
G54D15*
X485573Y4028903D02*
X499343D01*
X485573Y4148973D02*
X499343D01*
G54D16*
X1200958Y4318903D02*
Y4332903D01*
X1240958Y4230903D02*
Y4244903D01*
X1165958Y4230903D02*
Y4244903D01*
G54D17*
X616538Y4447603D03*
X852758D03*
X695278D03*
X774018D03*
X598458Y3774903D03*
X421258Y4106793D03*
Y3949313D03*
Y4028053D03*
Y4185533D03*
G54D18*
X773618Y4130413D02*
Y4146153D01*
Y4303643D02*
Y4319383D01*
X919288Y4130413D02*
Y4146153D01*
Y4303643D02*
Y4319383D01*
G54D19*
X747048Y4220963D02*
Y4228843D01*
X945868Y4220963D02*
Y4228843D01*
G54D20*
X1257858Y3846893D02*
G03X1274888Y3847623I8165J8530D01*
G03X1409788Y4132443I-428428J377274D01*
X1409778Y4132433D02*
G03X1398128Y4146163I-11662J1912D01*
X1380368Y4157973D02*
G03X1392178Y4146163I11810J0D01*
Y4303643D02*
G03X1380368Y4291833I0J-11810D01*
X1398128Y4303643D02*
G03X1409778Y4317363I-2J11808D01*
X1409788D02*
G03X938918Y4788233I-563330J-92460D01*
Y4788223D02*
G03X925198Y4776573I-1907J-11658D01*
X913388Y4758813D02*
G03X925198Y4770623I0J11810D01*
X767718D02*
G03X779528Y4758813I11810J0D01*
X767718Y4776573D02*
G03X753988Y4788223I-11809J-1D01*
X753998Y4788233D02*
G03X469178Y4653333I92456J-563332D01*
G03X468448Y4636303I7810J-8865D01*
X435048Y4602903D02*
G03X468448Y4636303I16330J17070D01*
X435048Y4602903D02*
G03X418028Y4602173I-8160J-8530D01*
G03X283128Y4317363I428427J-377277D01*
G03X294778Y4303643I11658J-1907D01*
X312538Y4291833D02*
G03X300728Y4303643I-11810J0D01*
Y4146163D02*
G03X312538Y4157973I0J11810D01*
X294778Y4146163D02*
G03X283128Y4132433I1J-11809D01*
Y4132443D02*
G03X753998Y3661573I563330J92460D01*
X753988D02*
G03X767718Y3673223I1912J11662D01*
X779528Y3690983D02*
G03X767718Y3679173I0J-11810D01*
X925198D02*
G03X913388Y3690983I-11810J0D01*
X925198Y3673223D02*
G03X938918Y3661573I11808J2D01*
G03X1223728Y3796473I-92467J563327D01*
G03X1224458Y3813493I-7810J8861D01*
X1257858Y3846893D02*
G03X1224458Y3813493I-16330J-17070D01*
X1392178Y4146163D02*
G01X1398128D01*
X1380368Y4157973D02*
Y4291833D01*
X1392178Y4303643D02*
X1398128D01*
X925198Y4770623D02*
Y4776573D01*
X779528Y4758813D02*
X913388D01*
X767718Y4770623D02*
Y4776573D01*
X294778Y4303643D02*
X300728D01*
X312538Y4157973D02*
Y4291833D01*
X294778Y4146163D02*
X300728D01*
X767718Y3673223D02*
Y3679173D01*
X779528Y3690983D02*
X913388D01*
X925198Y3673223D02*
Y3679173D01*
G54D10*
X688173Y5132375D02*
X692103D01*
X648793D02*
X652723D01*
X606803Y5164375D02*
X610733D01*
X646173D02*
X650103D01*
X656803Y5196375D02*
X660733D01*
X696173D02*
X700103D01*
X916803Y5203375D02*
X920733D01*
X956173D02*
X960103D01*
X1233303Y5414505D02*
X1237233D01*
X1193933D02*
X1197863D01*
X936943Y5150505D02*
X940873D01*
X976313D02*
X980243D01*
X820313Y5039505D02*
X824243D01*
X780943D02*
X784873D01*
X723173Y5065375D02*
X727103D01*
X683803D02*
X687733D01*
X648803Y5098375D02*
X652733D01*
X688173D02*
X692103D01*
G54D11*
X949088Y5046505D03*
X884088D03*
G54D10*
X935458Y5236040D02*
Y5239970D01*
Y5275410D02*
Y5279340D01*
X1295458Y5434090D02*
Y5438020D01*
Y5394720D02*
Y5398650D01*
Y5471720D02*
Y5475650D01*
Y5511090D02*
Y5515020D01*
X1282458Y5546720D02*
Y5550650D01*
Y5586090D02*
Y5590020D01*
X1182458Y5265720D02*
Y5269650D01*
Y5305090D02*
Y5309020D01*
Y5236090D02*
Y5240020D01*
Y5196720D02*
Y5200650D01*
X1098458Y5092720D02*
Y5096650D01*
Y5132090D02*
Y5136020D01*
X1031458Y5090720D02*
Y5094650D01*
Y5130090D02*
Y5134020D01*
X1065458Y5092720D02*
Y5096650D01*
Y5132090D02*
Y5136020D01*
X725588Y5096860D02*
Y5100790D01*
Y5136220D02*
Y5140150D01*
G36*
X1035358Y5660195D02*
X1052058Y5676895D01*
X1065978Y5662975D01*
X1049278Y5646275D01*
X1035358Y5660195D01*
G37*
G36*
X1063198Y5688035D02*
X1079898Y5704735D01*
X1093818Y5690815D01*
X1077118Y5674115D01*
X1063198Y5688035D01*
G37*
G36*
X1087198Y5664035D02*
X1103898Y5680735D01*
X1117818Y5666815D01*
X1101118Y5650115D01*
X1087198Y5664035D01*
G37*
G36*
X1059358Y5636195D02*
X1076058Y5652895D01*
X1089978Y5638975D01*
X1073278Y5622275D01*
X1059358Y5636195D01*
G37*
G36*
X1083358Y5613195D02*
X1100058Y5629895D01*
X1113978Y5615975D01*
X1097278Y5599275D01*
X1083358Y5613195D01*
G37*
G36*
X1111198Y5641035D02*
X1127898Y5657735D01*
X1141818Y5643815D01*
X1125118Y5627115D01*
X1111198Y5641035D01*
G37*
G36*
X1127058Y5605675D02*
X1143758Y5588975D01*
X1134018Y5579235D01*
X1117318Y5595935D01*
X1127058Y5605675D01*
G37*
G36*
X1145158Y5623775D02*
X1161858Y5607075D01*
X1152118Y5597335D01*
X1135418Y5614035D01*
X1145158Y5623775D01*
G37*
G54D12*
X1098508Y5338560D02*
Y5362190D01*
X1118198Y5186980D02*
Y5210610D01*
X1098508Y5186980D02*
Y5210610D01*
X1078828Y5186980D02*
Y5210610D01*
X1059138Y5186980D02*
Y5210610D01*
X1039458Y5186980D02*
Y5210610D01*
X1019768Y5186980D02*
Y5210610D01*
Y5338560D02*
Y5362190D01*
X1039458Y5338560D02*
Y5362190D01*
X1059138Y5338560D02*
Y5362190D01*
X1078828Y5338560D02*
Y5362190D01*
X1118198Y5338560D02*
Y5362190D01*
X981383Y5225375D02*
X1005013D01*
X981383Y5245055D02*
X1005013D01*
X981383Y5264745D02*
X1005013D01*
X981383Y5284425D02*
X1005013D01*
X981383Y5304115D02*
X1005013D01*
X981383Y5323795D02*
X1005013D01*
X1132953D02*
X1156583D01*
X1132953Y5304115D02*
X1156583D01*
X1132953Y5284425D02*
X1156583D01*
X1132953Y5264745D02*
X1156583D01*
X1132953Y5245055D02*
X1156583D01*
X1132953Y5225375D02*
X1156583D01*
G54D13*
X1068978Y5274585D03*
G54D14*
X876168Y5235950D02*
Y5245800D01*
Y5298940D02*
Y5308790D01*
X840738Y5298940D02*
Y5308790D01*
Y5235950D02*
Y5245800D01*
X685738Y5503940D02*
Y5513790D01*
Y5566930D02*
Y5576780D01*
X721168Y5566930D02*
Y5576780D01*
Y5503940D02*
Y5513790D01*
X1008178Y5512960D02*
Y5522810D01*
Y5575950D02*
Y5585800D01*
X972748Y5575950D02*
Y5585800D01*
Y5512960D02*
Y5522810D01*
G36*
X977938Y5646175D02*
X922258Y5701855D01*
X961238Y5740835D01*
X1016918Y5685155D01*
X977938Y5646175D01*
G37*
G36*
X1100428Y5768665D02*
X1044748Y5824345D01*
X1083728Y5863325D01*
X1139408Y5807645D01*
X1100428Y5768665D01*
G37*
G54D15*
X485573Y5249375D02*
X499343D01*
X485573Y5369445D02*
X499343D01*
G54D16*
X1200958Y5539375D02*
Y5553375D01*
X1240958Y5451375D02*
Y5465375D01*
X1165958Y5451375D02*
Y5465375D01*
G54D17*
X616538Y5668075D03*
X852758D03*
X695278D03*
X774018D03*
X598458Y4995375D03*
X421258Y5327265D03*
Y5169785D03*
Y5248525D03*
Y5406005D03*
G54D18*
X773618Y5350885D02*
Y5366625D01*
Y5524115D02*
Y5539855D01*
X919288Y5350885D02*
Y5366625D01*
Y5524115D02*
Y5539855D01*
G54D19*
X747048Y5441435D02*
Y5449315D01*
X945868Y5441435D02*
Y5449315D01*
G54D20*
X1257858Y5067365D02*
G03X1274888Y5068095I8165J8530D01*
G03X1409788Y5352915I-428428J377274D01*
X1409778Y5352905D02*
G03X1398128Y5366635I-11662J1912D01*
X1380368Y5378445D02*
G03X1392178Y5366635I11810J0D01*
Y5524115D02*
G03X1380368Y5512305I0J-11810D01*
X1398128Y5524115D02*
G03X1409778Y5537835I-2J11808D01*
X1409788D02*
G03X938918Y6008705I-563330J-92460D01*
Y6008695D02*
G03X925198Y5997045I-1907J-11658D01*
X913388Y5979285D02*
G03X925198Y5991095I0J11810D01*
X767718D02*
G03X779528Y5979285I11810J0D01*
X767718Y5997045D02*
G03X753988Y6008695I-11809J-1D01*
X753998Y6008705D02*
G03X469178Y5873805I92456J-563332D01*
G03X468448Y5856775I7810J-8865D01*
X435048Y5823375D02*
G03X468448Y5856775I16330J17070D01*
X435048Y5823375D02*
G03X418028Y5822645I-8160J-8530D01*
G03X283128Y5537835I428427J-377277D01*
G03X294778Y5524115I11658J-1907D01*
X312538Y5512305D02*
G03X300728Y5524115I-11810J0D01*
Y5366635D02*
G03X312538Y5378445I0J11810D01*
X294778Y5366635D02*
G03X283128Y5352905I1J-11809D01*
Y5352915D02*
G03X753998Y4882045I563330J92460D01*
X753988D02*
G03X767718Y4893695I1912J11662D01*
X779528Y4911455D02*
G03X767718Y4899645I0J-11810D01*
X925198D02*
G03X913388Y4911455I-11810J0D01*
X925198Y4893695D02*
G03X938918Y4882045I11808J2D01*
G03X1223728Y5016945I-92467J563327D01*
G03X1224458Y5033965I-7810J8861D01*
X1257858Y5067365D02*
G03X1224458Y5033965I-16330J-17070D01*
X1392178Y5366635D02*
G01X1398128D01*
X1380368Y5378445D02*
Y5512305D01*
X1392178Y5524115D02*
X1398128D01*
X925198Y5991095D02*
Y5997045D01*
X779528Y5979285D02*
X913388D01*
X767718Y5991095D02*
Y5997045D01*
X294778Y5524115D02*
X300728D01*
X312538Y5378445D02*
Y5512305D01*
X294778Y5366635D02*
X300728D01*
X767718Y4893695D02*
Y4899645D01*
X779528Y4911455D02*
X913388D01*
X925198Y4893695D02*
Y4899645D01*
G54D10*
X1908645Y250485D02*
X1912575D01*
X1869265D02*
X1873195D01*
X1827275Y282485D02*
X1831205D01*
X1866645D02*
X1870575D01*
X1877275Y314485D02*
X1881205D01*
X1916645D02*
X1920575D01*
X2137275Y321485D02*
X2141205D01*
X2176645D02*
X2180575D01*
X2453775Y532615D02*
X2457705D01*
X2414406D02*
X2418335D01*
X2157415Y268615D02*
X2161345D01*
X2196785D02*
X2200715D01*
X2040785Y157615D02*
X2044715D01*
X2001415D02*
X2005345D01*
X1943645Y183485D02*
X1947575D01*
X1904275D02*
X1908205D01*
X1869275Y216485D02*
X1873205D01*
X1908645D02*
X1912575D01*
G54D11*
X2169560Y164615D03*
X2104560D03*
G54D10*
X2155930Y354150D02*
Y358080D01*
Y393520D02*
Y397450D01*
X2515930Y552200D02*
Y556130D01*
Y512830D02*
Y516760D01*
Y589830D02*
Y593760D01*
Y629200D02*
Y633130D01*
X2502930Y664830D02*
Y668760D01*
Y704200D02*
Y708130D01*
X2402930Y383830D02*
Y387760D01*
Y423200D02*
Y427130D01*
Y354200D02*
Y358130D01*
Y314830D02*
Y318760D01*
X2318930Y210830D02*
Y214760D01*
Y250200D02*
Y254130D01*
X2251930Y208830D02*
Y212760D01*
Y248200D02*
Y252130D01*
X2285930Y210830D02*
Y214760D01*
Y250200D02*
Y254130D01*
X1946060Y214970D02*
Y218900D01*
Y254330D02*
Y258260D01*
G36*
X2255830Y778305D02*
X2272530Y795005D01*
X2286450Y781085D01*
X2269750Y764385D01*
X2255830Y778305D01*
G37*
G36*
X2283670Y806145D02*
X2300370Y822845D01*
X2314290Y808925D01*
X2297590Y792225D01*
X2283670Y806145D01*
G37*
G36*
X2307670Y782145D02*
X2324370Y798845D01*
X2338290Y784925D01*
X2321590Y768225D01*
X2307670Y782145D01*
G37*
G36*
X2279830Y754305D02*
X2296530Y771005D01*
X2310450Y757085D01*
X2293750Y740385D01*
X2279830Y754305D01*
G37*
G36*
X2303830Y731305D02*
X2320530Y748005D01*
X2334450Y734085D01*
X2317750Y717385D01*
X2303830Y731305D01*
G37*
G36*
X2331670Y759145D02*
X2348370Y775845D01*
X2362290Y761925D01*
X2345590Y745225D01*
X2331670Y759145D01*
G37*
G36*
X2347530Y723785D02*
X2364230Y707085D01*
X2354490Y697345D01*
X2337790Y714045D01*
X2347530Y723785D01*
G37*
G36*
X2365630Y741885D02*
X2382330Y725185D01*
X2372590Y715445D01*
X2355890Y732145D01*
X2365630Y741885D01*
G37*
G54D12*
X2318980Y456670D02*
Y480300D01*
X2338670Y305090D02*
Y328720D01*
X2318980Y305090D02*
Y328720D01*
X2299300Y305090D02*
Y328720D01*
X2279610Y305090D02*
Y328720D01*
X2259930Y305090D02*
Y328720D01*
X2240240Y305090D02*
Y328720D01*
Y456670D02*
Y480300D01*
X2259930Y456670D02*
Y480300D01*
X2279610Y456670D02*
Y480300D01*
X2299300Y456670D02*
Y480300D01*
X2338670Y456670D02*
Y480300D01*
X2201856Y343485D02*
X2225485D01*
X2201856Y363165D02*
X2225485D01*
X2201856Y382855D02*
X2225485D01*
X2201856Y402535D02*
X2225485D01*
X2201856Y422225D02*
X2225485D01*
X2201856Y441905D02*
X2225485D01*
X2353425D02*
X2377055D01*
X2353425Y422225D02*
X2377055D01*
X2353425Y402535D02*
X2377055D01*
X2353425Y382855D02*
X2377055D01*
X2353425Y363165D02*
X2377055D01*
X2353425Y343485D02*
X2377055D01*
G54D13*
X2289450Y392695D03*
G54D14*
X2096640Y354060D02*
Y363910D01*
Y417050D02*
Y426900D01*
X2061210Y417050D02*
Y426900D01*
Y354060D02*
Y363910D01*
X1906210Y622050D02*
Y631900D01*
Y685040D02*
Y694890D01*
X1941640Y685040D02*
Y694890D01*
Y622050D02*
Y631900D01*
X2228650Y631070D02*
Y640920D01*
Y694060D02*
Y703910D01*
X2193220Y694060D02*
Y703910D01*
Y631070D02*
Y640920D01*
G36*
X2198410Y764285D02*
X2142730Y819965D01*
X2181710Y858945D01*
X2237390Y803265D01*
X2198410Y764285D01*
G37*
G36*
X2320900Y886775D02*
X2265220Y942455D01*
X2304200Y981435D01*
X2359880Y925755D01*
X2320900Y886775D01*
G37*
G54D15*
X1706045Y367485D02*
X1719815D01*
X1706045Y487555D02*
X1719815D01*
G54D16*
X2421430Y657485D02*
Y671485D01*
X2461430Y569485D02*
Y583485D01*
X2386430Y569485D02*
Y583485D01*
G54D17*
X1837010Y786185D03*
X2073230D03*
X1915750D03*
X1994490D03*
X1818930Y113485D03*
X1641730Y445375D03*
Y287895D03*
Y366635D03*
Y524115D03*
G54D18*
X1994090Y468995D02*
Y484735D01*
Y642225D02*
Y657965D01*
X2139760Y468995D02*
Y484735D01*
Y642225D02*
Y657965D01*
G54D19*
X1967520Y559545D02*
Y567425D01*
X2166340Y559545D02*
Y567425D01*
G54D20*
X2478330Y185475D02*
G03X2495360Y186205I8165J8530D01*
G03X2630260Y471025I-428428J377274D01*
X2630250Y471015D02*
G03X2618600Y484745I-11662J1912D01*
X2600840Y496555D02*
G03X2612650Y484745I11810J0D01*
Y642225D02*
G03X2600840Y630415I0J-11810D01*
X2618600Y642225D02*
G03X2630250Y655945I-2J11808D01*
X2630260D02*
G03X2159390Y1126815I-563330J-92460D01*
Y1126805D02*
G03X2145670Y1115155I-1907J-11658D01*
X2133860Y1097395D02*
G03X2145670Y1109205I0J11810D01*
X1988190D02*
G03X2000000Y1097395I11810J0D01*
X1988190Y1115155D02*
G03X1974460Y1126805I-11809J-1D01*
X1974470Y1126815D02*
G03X1689650Y991915I92456J-563332D01*
G03X1688920Y974885I7810J-8865D01*
X1655520Y941485D02*
G03X1688920Y974885I16330J17070D01*
X1655520Y941485D02*
G03X1638500Y940755I-8160J-8530D01*
G03X1503600Y655945I428427J-377277D01*
G03X1515250Y642225I11658J-1907D01*
X1533010Y630415D02*
G03X1521200Y642225I-11810J0D01*
Y484745D02*
G03X1533010Y496555I0J11810D01*
X1515250Y484745D02*
G03X1503600Y471015I1J-11809D01*
Y471025D02*
G03X1974470Y155I563330J92460D01*
X1974460D02*
G03X1988190Y11805I1912J11662D01*
X2000000Y29565D02*
G03X1988190Y17755I0J-11810D01*
X2145670D02*
G03X2133860Y29565I-11810J0D01*
X2145670Y11805D02*
G03X2159390Y155I11808J2D01*
G03X2444200Y135055I-92467J563327D01*
G03X2444930Y152075I-7810J8861D01*
X2478330Y185475D02*
G03X2444930Y152075I-16330J-17070D01*
X2612650Y484745D02*
G01X2618600D01*
X2600840Y496555D02*
Y630415D01*
X2612650Y642225D02*
X2618600D01*
X2145670Y1109205D02*
Y1115155D01*
X2000000Y1097395D02*
X2133860D01*
X1988190Y1109205D02*
Y1115155D01*
X1515250Y642225D02*
X1521200D01*
X1533010Y496555D02*
Y630415D01*
X1515250Y484745D02*
X1521200D01*
X1988190Y11805D02*
Y17755D01*
X2000000Y29565D02*
X2133860D01*
X2145670Y11805D02*
Y17755D01*
G54D10*
X1908645Y1470958D02*
X1912575D01*
X1869265D02*
X1873195D01*
X1827275Y1502958D02*
X1831205D01*
X1866645D02*
X1870575D01*
X1877275Y1534958D02*
X1881205D01*
X1916645D02*
X1920575D01*
X2137275Y1541958D02*
X2141205D01*
X2176645D02*
X2180575D01*
X2453775Y1753088D02*
X2457705D01*
X2414406D02*
X2418335D01*
X2157415Y1489088D02*
X2161345D01*
X2196785D02*
X2200715D01*
X2040785Y1378088D02*
X2044715D01*
X2001415D02*
X2005345D01*
X1943645Y1403958D02*
X1947575D01*
X1904275D02*
X1908205D01*
X1869275Y1436958D02*
X1873205D01*
X1908645D02*
X1912575D01*
G54D11*
X2169560Y1385088D03*
X2104560D03*
G54D10*
X2155930Y1574623D02*
Y1578553D01*
Y1613993D02*
Y1617923D01*
X2515930Y1772673D02*
Y1776603D01*
Y1733303D02*
Y1737233D01*
Y1810303D02*
Y1814233D01*
Y1849673D02*
Y1853603D01*
X2502930Y1885303D02*
Y1889233D01*
Y1924673D02*
Y1928603D01*
X2402930Y1604303D02*
Y1608233D01*
Y1643673D02*
Y1647603D01*
Y1574673D02*
Y1578603D01*
Y1535303D02*
Y1539233D01*
X2318930Y1431303D02*
Y1435233D01*
Y1470673D02*
Y1474603D01*
X2251930Y1429303D02*
Y1433233D01*
Y1468673D02*
Y1472603D01*
X2285930Y1431303D02*
Y1435233D01*
Y1470673D02*
Y1474603D01*
X1946060Y1435443D02*
Y1439373D01*
Y1474803D02*
Y1478733D01*
G36*
X2255830Y1998778D02*
X2272530Y2015478D01*
X2286450Y2001558D01*
X2269750Y1984858D01*
X2255830Y1998778D01*
G37*
G36*
X2283670Y2026618D02*
X2300370Y2043318D01*
X2314290Y2029398D01*
X2297590Y2012698D01*
X2283670Y2026618D01*
G37*
G36*
X2307670Y2002618D02*
X2324370Y2019318D01*
X2338290Y2005398D01*
X2321590Y1988698D01*
X2307670Y2002618D01*
G37*
G36*
X2279830Y1974778D02*
X2296530Y1991478D01*
X2310450Y1977558D01*
X2293750Y1960858D01*
X2279830Y1974778D01*
G37*
G36*
X2303830Y1951778D02*
X2320530Y1968478D01*
X2334450Y1954558D01*
X2317750Y1937858D01*
X2303830Y1951778D01*
G37*
G36*
X2331670Y1979618D02*
X2348370Y1996318D01*
X2362290Y1982398D01*
X2345590Y1965698D01*
X2331670Y1979618D01*
G37*
G36*
X2347530Y1944258D02*
X2364230Y1927558D01*
X2354490Y1917818D01*
X2337790Y1934518D01*
X2347530Y1944258D01*
G37*
G36*
X2365630Y1962358D02*
X2382330Y1945658D01*
X2372590Y1935918D01*
X2355890Y1952618D01*
X2365630Y1962358D01*
G37*
G54D12*
X2318980Y1677143D02*
Y1700773D01*
X2338670Y1525563D02*
Y1549193D01*
X2318980Y1525563D02*
Y1549193D01*
X2299300Y1525563D02*
Y1549193D01*
X2279610Y1525563D02*
Y1549193D01*
X2259930Y1525563D02*
Y1549193D01*
X2240240Y1525563D02*
Y1549193D01*
Y1677143D02*
Y1700773D01*
X2259930Y1677143D02*
Y1700773D01*
X2279610Y1677143D02*
Y1700773D01*
X2299300Y1677143D02*
Y1700773D01*
X2338670Y1677143D02*
Y1700773D01*
X2201856Y1563958D02*
X2225485D01*
X2201856Y1583638D02*
X2225485D01*
X2201856Y1603328D02*
X2225485D01*
X2201856Y1623008D02*
X2225485D01*
X2201856Y1642698D02*
X2225485D01*
X2201856Y1662378D02*
X2225485D01*
X2353425D02*
X2377055D01*
X2353425Y1642698D02*
X2377055D01*
X2353425Y1623008D02*
X2377055D01*
X2353425Y1603328D02*
X2377055D01*
X2353425Y1583638D02*
X2377055D01*
X2353425Y1563958D02*
X2377055D01*
G54D13*
X2289450Y1613168D03*
G54D14*
X2096640Y1574533D02*
Y1584383D01*
Y1637523D02*
Y1647373D01*
X2061210Y1637523D02*
Y1647373D01*
Y1574533D02*
Y1584383D01*
X1906210Y1842523D02*
Y1852373D01*
Y1905513D02*
Y1915363D01*
X1941640Y1905513D02*
Y1915363D01*
Y1842523D02*
Y1852373D01*
X2228650Y1851543D02*
Y1861393D01*
Y1914533D02*
Y1924383D01*
X2193220Y1914533D02*
Y1924383D01*
Y1851543D02*
Y1861393D01*
G36*
X2198410Y1984758D02*
X2142730Y2040438D01*
X2181710Y2079418D01*
X2237390Y2023738D01*
X2198410Y1984758D01*
G37*
G36*
X2320900Y2107248D02*
X2265220Y2162928D01*
X2304200Y2201908D01*
X2359880Y2146228D01*
X2320900Y2107248D01*
G37*
G54D15*
X1706045Y1587958D02*
X1719815D01*
X1706045Y1708028D02*
X1719815D01*
G54D16*
X2421430Y1877958D02*
Y1891958D01*
X2461430Y1789958D02*
Y1803958D01*
X2386430Y1789958D02*
Y1803958D01*
G54D17*
X1837010Y2006658D03*
X2073230D03*
X1915750D03*
X1994490D03*
X1818930Y1333958D03*
X1641730Y1665848D03*
Y1508368D03*
Y1587108D03*
Y1744588D03*
G54D18*
X1994090Y1689468D02*
Y1705208D01*
Y1862698D02*
Y1878438D01*
X2139760Y1689468D02*
Y1705208D01*
Y1862698D02*
Y1878438D01*
G54D19*
X1967520Y1780018D02*
Y1787898D01*
X2166340Y1780018D02*
Y1787898D01*
G54D20*
X2478330Y1405948D02*
G03X2495360Y1406678I8165J8530D01*
G03X2630260Y1691498I-428428J377274D01*
X2630250Y1691488D02*
G03X2618600Y1705218I-11662J1912D01*
X2600840Y1717028D02*
G03X2612650Y1705218I11810J0D01*
Y1862698D02*
G03X2600840Y1850888I0J-11810D01*
X2618600Y1862698D02*
G03X2630250Y1876418I-2J11808D01*
X2630260D02*
G03X2159390Y2347288I-563330J-92460D01*
Y2347278D02*
G03X2145670Y2335628I-1907J-11658D01*
X2133860Y2317868D02*
G03X2145670Y2329678I0J11810D01*
X1988190D02*
G03X2000000Y2317868I11810J0D01*
X1988190Y2335628D02*
G03X1974460Y2347278I-11809J-1D01*
X1974470Y2347288D02*
G03X1689650Y2212388I92456J-563332D01*
G03X1688920Y2195358I7810J-8865D01*
X1655520Y2161958D02*
G03X1688920Y2195358I16330J17070D01*
X1655520Y2161958D02*
G03X1638500Y2161228I-8160J-8530D01*
G03X1503600Y1876418I428427J-377277D01*
G03X1515250Y1862698I11658J-1907D01*
X1533010Y1850888D02*
G03X1521200Y1862698I-11810J0D01*
Y1705218D02*
G03X1533010Y1717028I0J11810D01*
X1515250Y1705218D02*
G03X1503600Y1691488I1J-11809D01*
Y1691498D02*
G03X1974470Y1220628I563330J92460D01*
X1974460D02*
G03X1988190Y1232278I1912J11662D01*
X2000000Y1250038D02*
G03X1988190Y1238228I0J-11810D01*
X2145670D02*
G03X2133860Y1250038I-11810J0D01*
X2145670Y1232278D02*
G03X2159390Y1220628I11808J2D01*
G03X2444200Y1355528I-92467J563327D01*
G03X2444930Y1372548I-7810J8861D01*
X2478330Y1405948D02*
G03X2444930Y1372548I-16330J-17070D01*
X2612650Y1705218D02*
G01X2618600D01*
X2600840Y1717028D02*
Y1850888D01*
X2612650Y1862698D02*
X2618600D01*
X2145670Y2329678D02*
Y2335628D01*
X2000000Y2317868D02*
X2133860D01*
X1988190Y2329678D02*
Y2335628D01*
X1515250Y1862698D02*
X1521200D01*
X1533010Y1717028D02*
Y1850888D01*
X1515250Y1705218D02*
X1521200D01*
X1988190Y1232278D02*
Y1238228D01*
X2000000Y1250038D02*
X2133860D01*
X2145670Y1232278D02*
Y1238228D01*
G54D10*
X1908645Y2691430D02*
X1912575D01*
X1869265D02*
X1873195D01*
X1827275Y2723430D02*
X1831205D01*
X1866645D02*
X1870575D01*
X1877275Y2755430D02*
X1881205D01*
X1916645D02*
X1920575D01*
X2137275Y2762430D02*
X2141205D01*
X2176645D02*
X2180575D01*
X2453775Y2973560D02*
X2457705D01*
X2414406D02*
X2418335D01*
X2157415Y2709560D02*
X2161345D01*
X2196785D02*
X2200715D01*
X2040785Y2598560D02*
X2044715D01*
X2001415D02*
X2005345D01*
X1943645Y2624430D02*
X1947575D01*
X1904275D02*
X1908205D01*
X1869275Y2657430D02*
X1873205D01*
X1908645D02*
X1912575D01*
G54D11*
X2169560Y2605560D03*
X2104560D03*
G54D10*
X2155930Y2795095D02*
Y2799025D01*
Y2834465D02*
Y2838395D01*
X2515930Y2993145D02*
Y2997075D01*
Y2953775D02*
Y2957705D01*
Y3030775D02*
Y3034705D01*
Y3070145D02*
Y3074075D01*
X2502930Y3105775D02*
Y3109705D01*
Y3145145D02*
Y3149075D01*
X2402930Y2824775D02*
Y2828705D01*
Y2864145D02*
Y2868075D01*
Y2795145D02*
Y2799075D01*
Y2755775D02*
Y2759705D01*
X2318930Y2651775D02*
Y2655705D01*
Y2691145D02*
Y2695075D01*
X2251930Y2649775D02*
Y2653705D01*
Y2689145D02*
Y2693075D01*
X2285930Y2651775D02*
Y2655705D01*
Y2691145D02*
Y2695075D01*
X1946060Y2655915D02*
Y2659845D01*
Y2695275D02*
Y2699205D01*
G36*
X2255830Y3219250D02*
X2272530Y3235950D01*
X2286450Y3222030D01*
X2269750Y3205330D01*
X2255830Y3219250D01*
G37*
G36*
X2283670Y3247090D02*
X2300370Y3263790D01*
X2314290Y3249870D01*
X2297590Y3233170D01*
X2283670Y3247090D01*
G37*
G36*
X2307670Y3223090D02*
X2324370Y3239790D01*
X2338290Y3225870D01*
X2321590Y3209170D01*
X2307670Y3223090D01*
G37*
G36*
X2279830Y3195250D02*
X2296530Y3211950D01*
X2310450Y3198030D01*
X2293750Y3181330D01*
X2279830Y3195250D01*
G37*
G36*
X2303830Y3172250D02*
X2320530Y3188950D01*
X2334450Y3175030D01*
X2317750Y3158330D01*
X2303830Y3172250D01*
G37*
G36*
X2331670Y3200090D02*
X2348370Y3216790D01*
X2362290Y3202870D01*
X2345590Y3186170D01*
X2331670Y3200090D01*
G37*
G36*
X2347530Y3164730D02*
X2364230Y3148030D01*
X2354490Y3138290D01*
X2337790Y3154990D01*
X2347530Y3164730D01*
G37*
G36*
X2365630Y3182830D02*
X2382330Y3166130D01*
X2372590Y3156390D01*
X2355890Y3173090D01*
X2365630Y3182830D01*
G37*
G54D12*
X2318980Y2897615D02*
Y2921245D01*
X2338670Y2746035D02*
Y2769665D01*
X2318980Y2746035D02*
Y2769665D01*
X2299300Y2746035D02*
Y2769665D01*
X2279610Y2746035D02*
Y2769665D01*
X2259930Y2746035D02*
Y2769665D01*
X2240240Y2746035D02*
Y2769665D01*
Y2897615D02*
Y2921245D01*
X2259930Y2897615D02*
Y2921245D01*
X2279610Y2897615D02*
Y2921245D01*
X2299300Y2897615D02*
Y2921245D01*
X2338670Y2897615D02*
Y2921245D01*
X2201856Y2784430D02*
X2225485D01*
X2201856Y2804110D02*
X2225485D01*
X2201856Y2823800D02*
X2225485D01*
X2201856Y2843480D02*
X2225485D01*
X2201856Y2863170D02*
X2225485D01*
X2201856Y2882850D02*
X2225485D01*
X2353425D02*
X2377055D01*
X2353425Y2863170D02*
X2377055D01*
X2353425Y2843480D02*
X2377055D01*
X2353425Y2823800D02*
X2377055D01*
X2353425Y2804110D02*
X2377055D01*
X2353425Y2784430D02*
X2377055D01*
G54D13*
X2289450Y2833640D03*
G54D14*
X2096640Y2795005D02*
Y2804855D01*
Y2857995D02*
Y2867845D01*
X2061210Y2857995D02*
Y2867845D01*
Y2795005D02*
Y2804855D01*
X1906210Y3062995D02*
Y3072845D01*
Y3125985D02*
Y3135835D01*
X1941640Y3125985D02*
Y3135835D01*
Y3062995D02*
Y3072845D01*
X2228650Y3072015D02*
Y3081865D01*
Y3135005D02*
Y3144855D01*
X2193220Y3135005D02*
Y3144855D01*
Y3072015D02*
Y3081865D01*
G36*
X2198410Y3205230D02*
X2142730Y3260910D01*
X2181710Y3299890D01*
X2237390Y3244210D01*
X2198410Y3205230D01*
G37*
G36*
X2320900Y3327720D02*
X2265220Y3383400D01*
X2304200Y3422380D01*
X2359880Y3366700D01*
X2320900Y3327720D01*
G37*
G54D15*
X1706045Y2808430D02*
X1719815D01*
X1706045Y2928500D02*
X1719815D01*
G54D16*
X2421430Y3098430D02*
Y3112430D01*
X2461430Y3010430D02*
Y3024430D01*
X2386430Y3010430D02*
Y3024430D01*
G54D17*
X1837010Y3227130D03*
X2073230D03*
X1915750D03*
X1994490D03*
X1818930Y2554430D03*
X1641730Y2886320D03*
Y2728840D03*
Y2807580D03*
Y2965060D03*
G54D18*
X1994090Y2909940D02*
Y2925680D01*
Y3083170D02*
Y3098910D01*
X2139760Y2909940D02*
Y2925680D01*
Y3083170D02*
Y3098910D01*
G54D19*
X1967520Y3000490D02*
Y3008370D01*
X2166340Y3000490D02*
Y3008370D01*
G54D20*
X2478330Y2626420D02*
G03X2495360Y2627150I8165J8530D01*
G03X2630260Y2911970I-428428J377274D01*
X2630250Y2911960D02*
G03X2618600Y2925690I-11662J1912D01*
X2600840Y2937500D02*
G03X2612650Y2925690I11810J0D01*
Y3083170D02*
G03X2600840Y3071360I0J-11810D01*
X2618600Y3083170D02*
G03X2630250Y3096890I-2J11808D01*
X2630260D02*
G03X2159390Y3567760I-563330J-92460D01*
Y3567750D02*
G03X2145670Y3556100I-1907J-11658D01*
X2133860Y3538340D02*
G03X2145670Y3550150I0J11810D01*
X1988190D02*
G03X2000000Y3538340I11810J0D01*
X1988190Y3556100D02*
G03X1974460Y3567750I-11809J-1D01*
X1974470Y3567760D02*
G03X1689650Y3432860I92456J-563332D01*
G03X1688920Y3415830I7810J-8865D01*
X1655520Y3382430D02*
G03X1688920Y3415830I16330J17070D01*
X1655520Y3382430D02*
G03X1638500Y3381700I-8160J-8530D01*
G03X1503600Y3096890I428427J-377277D01*
G03X1515250Y3083170I11658J-1907D01*
X1533010Y3071360D02*
G03X1521200Y3083170I-11810J0D01*
Y2925690D02*
G03X1533010Y2937500I0J11810D01*
X1515250Y2925690D02*
G03X1503600Y2911960I1J-11809D01*
Y2911970D02*
G03X1974470Y2441100I563330J92460D01*
X1974460D02*
G03X1988190Y2452750I1912J11662D01*
X2000000Y2470510D02*
G03X1988190Y2458700I0J-11810D01*
X2145670D02*
G03X2133860Y2470510I-11810J0D01*
X2145670Y2452750D02*
G03X2159390Y2441100I11808J2D01*
G03X2444200Y2576000I-92467J563327D01*
G03X2444930Y2593020I-7810J8861D01*
X2478330Y2626420D02*
G03X2444930Y2593020I-16330J-17070D01*
X2612650Y2925690D02*
G01X2618600D01*
X2600840Y2937500D02*
Y3071360D01*
X2612650Y3083170D02*
X2618600D01*
X2145670Y3550150D02*
Y3556100D01*
X2000000Y3538340D02*
X2133860D01*
X1988190Y3550150D02*
Y3556100D01*
X1515250Y3083170D02*
X1521200D01*
X1533010Y2937500D02*
Y3071360D01*
X1515250Y2925690D02*
X1521200D01*
X1988190Y2452750D02*
Y2458700D01*
X2000000Y2470510D02*
X2133860D01*
X2145670Y2452750D02*
Y2458700D01*
G54D10*
X1908645Y3911903D02*
X1912575D01*
X1869265D02*
X1873195D01*
X1827275Y3943903D02*
X1831205D01*
X1866645D02*
X1870575D01*
X1877275Y3975903D02*
X1881205D01*
X1916645D02*
X1920575D01*
X2137275Y3982903D02*
X2141205D01*
X2176645D02*
X2180575D01*
X2453775Y4194033D02*
X2457705D01*
X2414406D02*
X2418335D01*
X2157415Y3930033D02*
X2161345D01*
X2196785D02*
X2200715D01*
X2040785Y3819033D02*
X2044715D01*
X2001415D02*
X2005345D01*
X1943645Y3844903D02*
X1947575D01*
X1904275D02*
X1908205D01*
X1869275Y3877903D02*
X1873205D01*
X1908645D02*
X1912575D01*
G54D11*
X2169560Y3826033D03*
X2104560D03*
G54D10*
X2155930Y4015568D02*
Y4019498D01*
Y4054938D02*
Y4058868D01*
X2515930Y4213618D02*
Y4217548D01*
Y4174248D02*
Y4178178D01*
Y4251248D02*
Y4255178D01*
Y4290618D02*
Y4294548D01*
X2502930Y4326248D02*
Y4330178D01*
Y4365618D02*
Y4369548D01*
X2402930Y4045248D02*
Y4049178D01*
Y4084618D02*
Y4088548D01*
Y4015618D02*
Y4019548D01*
Y3976248D02*
Y3980178D01*
X2318930Y3872248D02*
Y3876178D01*
Y3911618D02*
Y3915548D01*
X2251930Y3870248D02*
Y3874178D01*
Y3909618D02*
Y3913548D01*
X2285930Y3872248D02*
Y3876178D01*
Y3911618D02*
Y3915548D01*
X1946060Y3876388D02*
Y3880318D01*
Y3915748D02*
Y3919678D01*
G36*
X2255830Y4439723D02*
X2272530Y4456423D01*
X2286450Y4442503D01*
X2269750Y4425803D01*
X2255830Y4439723D01*
G37*
G36*
X2283670Y4467563D02*
X2300370Y4484263D01*
X2314290Y4470343D01*
X2297590Y4453643D01*
X2283670Y4467563D01*
G37*
G36*
X2307670Y4443563D02*
X2324370Y4460263D01*
X2338290Y4446343D01*
X2321590Y4429643D01*
X2307670Y4443563D01*
G37*
G36*
X2279830Y4415723D02*
X2296530Y4432423D01*
X2310450Y4418503D01*
X2293750Y4401803D01*
X2279830Y4415723D01*
G37*
G36*
X2303830Y4392723D02*
X2320530Y4409423D01*
X2334450Y4395503D01*
X2317750Y4378803D01*
X2303830Y4392723D01*
G37*
G36*
X2331670Y4420563D02*
X2348370Y4437263D01*
X2362290Y4423343D01*
X2345590Y4406643D01*
X2331670Y4420563D01*
G37*
G36*
X2347530Y4385203D02*
X2364230Y4368503D01*
X2354490Y4358763D01*
X2337790Y4375463D01*
X2347530Y4385203D01*
G37*
G36*
X2365630Y4403303D02*
X2382330Y4386603D01*
X2372590Y4376863D01*
X2355890Y4393563D01*
X2365630Y4403303D01*
G37*
G54D12*
X2318980Y4118088D02*
Y4141718D01*
X2338670Y3966508D02*
Y3990138D01*
X2318980Y3966508D02*
Y3990138D01*
X2299300Y3966508D02*
Y3990138D01*
X2279610Y3966508D02*
Y3990138D01*
X2259930Y3966508D02*
Y3990138D01*
X2240240Y3966508D02*
Y3990138D01*
Y4118088D02*
Y4141718D01*
X2259930Y4118088D02*
Y4141718D01*
X2279610Y4118088D02*
Y4141718D01*
X2299300Y4118088D02*
Y4141718D01*
X2338670Y4118088D02*
Y4141718D01*
X2201856Y4004903D02*
X2225485D01*
X2201856Y4024583D02*
X2225485D01*
X2201856Y4044273D02*
X2225485D01*
X2201856Y4063953D02*
X2225485D01*
X2201856Y4083643D02*
X2225485D01*
X2201856Y4103323D02*
X2225485D01*
X2353425D02*
X2377055D01*
X2353425Y4083643D02*
X2377055D01*
X2353425Y4063953D02*
X2377055D01*
X2353425Y4044273D02*
X2377055D01*
X2353425Y4024583D02*
X2377055D01*
X2353425Y4004903D02*
X2377055D01*
G54D13*
X2289450Y4054113D03*
G54D14*
X2096640Y4015478D02*
Y4025328D01*
Y4078468D02*
Y4088318D01*
X2061210Y4078468D02*
Y4088318D01*
Y4015478D02*
Y4025328D01*
X1906210Y4283468D02*
Y4293318D01*
Y4346458D02*
Y4356308D01*
X1941640Y4346458D02*
Y4356308D01*
Y4283468D02*
Y4293318D01*
X2228650Y4292488D02*
Y4302338D01*
Y4355478D02*
Y4365328D01*
X2193220Y4355478D02*
Y4365328D01*
Y4292488D02*
Y4302338D01*
G36*
X2198410Y4425703D02*
X2142730Y4481383D01*
X2181710Y4520363D01*
X2237390Y4464683D01*
X2198410Y4425703D01*
G37*
G36*
X2320900Y4548193D02*
X2265220Y4603873D01*
X2304200Y4642853D01*
X2359880Y4587173D01*
X2320900Y4548193D01*
G37*
G54D15*
X1706045Y4028903D02*
X1719815D01*
X1706045Y4148973D02*
X1719815D01*
G54D16*
X2421430Y4318903D02*
Y4332903D01*
X2461430Y4230903D02*
Y4244903D01*
X2386430Y4230903D02*
Y4244903D01*
G54D17*
X1837010Y4447603D03*
X2073230D03*
X1915750D03*
X1994490D03*
X1818930Y3774903D03*
X1641730Y4106793D03*
Y3949313D03*
Y4028053D03*
Y4185533D03*
G54D18*
X1994090Y4130413D02*
Y4146153D01*
Y4303643D02*
Y4319383D01*
X2139760Y4130413D02*
Y4146153D01*
Y4303643D02*
Y4319383D01*
G54D19*
X1967520Y4220963D02*
Y4228843D01*
X2166340Y4220963D02*
Y4228843D01*
G54D20*
X2478330Y3846893D02*
G03X2495360Y3847623I8165J8530D01*
G03X2630260Y4132443I-428428J377274D01*
X2630250Y4132433D02*
G03X2618600Y4146163I-11662J1912D01*
X2600840Y4157973D02*
G03X2612650Y4146163I11810J0D01*
Y4303643D02*
G03X2600840Y4291833I0J-11810D01*
X2618600Y4303643D02*
G03X2630250Y4317363I-2J11808D01*
X2630260D02*
G03X2159390Y4788233I-563330J-92460D01*
Y4788223D02*
G03X2145670Y4776573I-1907J-11658D01*
X2133860Y4758813D02*
G03X2145670Y4770623I0J11810D01*
X1988190D02*
G03X2000000Y4758813I11810J0D01*
X1988190Y4776573D02*
G03X1974460Y4788223I-11809J-1D01*
X1974470Y4788233D02*
G03X1689650Y4653333I92456J-563332D01*
G03X1688920Y4636303I7810J-8865D01*
X1655520Y4602903D02*
G03X1688920Y4636303I16330J17070D01*
X1655520Y4602903D02*
G03X1638500Y4602173I-8160J-8530D01*
G03X1503600Y4317363I428427J-377277D01*
G03X1515250Y4303643I11658J-1907D01*
X1533010Y4291833D02*
G03X1521200Y4303643I-11810J0D01*
Y4146163D02*
G03X1533010Y4157973I0J11810D01*
X1515250Y4146163D02*
G03X1503600Y4132433I1J-11809D01*
Y4132443D02*
G03X1974470Y3661573I563330J92460D01*
X1974460D02*
G03X1988190Y3673223I1912J11662D01*
X2000000Y3690983D02*
G03X1988190Y3679173I0J-11810D01*
X2145670D02*
G03X2133860Y3690983I-11810J0D01*
X2145670Y3673223D02*
G03X2159390Y3661573I11808J2D01*
G03X2444200Y3796473I-92467J563327D01*
G03X2444930Y3813493I-7810J8861D01*
X2478330Y3846893D02*
G03X2444930Y3813493I-16330J-17070D01*
X2612650Y4146163D02*
G01X2618600D01*
X2600840Y4157973D02*
Y4291833D01*
X2612650Y4303643D02*
X2618600D01*
X2145670Y4770623D02*
Y4776573D01*
X2000000Y4758813D02*
X2133860D01*
X1988190Y4770623D02*
Y4776573D01*
X1515250Y4303643D02*
X1521200D01*
X1533010Y4157973D02*
Y4291833D01*
X1515250Y4146163D02*
X1521200D01*
X1988190Y3673223D02*
Y3679173D01*
X2000000Y3690983D02*
X2133860D01*
X2145670Y3673223D02*
Y3679173D01*
G54D10*
X1908645Y5132375D02*
X1912575D01*
X1869265D02*
X1873195D01*
X1827275Y5164375D02*
X1831205D01*
X1866645D02*
X1870575D01*
X1877275Y5196375D02*
X1881205D01*
X1916645D02*
X1920575D01*
X2137275Y5203375D02*
X2141205D01*
X2176645D02*
X2180575D01*
X2453775Y5414505D02*
X2457705D01*
X2414406D02*
X2418335D01*
X2157415Y5150505D02*
X2161345D01*
X2196785D02*
X2200715D01*
X2040785Y5039505D02*
X2044715D01*
X2001415D02*
X2005345D01*
X1943645Y5065375D02*
X1947575D01*
X1904275D02*
X1908205D01*
X1869275Y5098375D02*
X1873205D01*
X1908645D02*
X1912575D01*
G54D11*
X2169560Y5046505D03*
X2104560D03*
G54D10*
X2155930Y5236040D02*
Y5239970D01*
Y5275410D02*
Y5279340D01*
X2515930Y5434090D02*
Y5438020D01*
Y5394720D02*
Y5398650D01*
Y5471720D02*
Y5475650D01*
Y5511090D02*
Y5515020D01*
X2502930Y5546720D02*
Y5550650D01*
Y5586090D02*
Y5590020D01*
X2402930Y5265720D02*
Y5269650D01*
Y5305090D02*
Y5309020D01*
Y5236090D02*
Y5240020D01*
Y5196720D02*
Y5200650D01*
X2318930Y5092720D02*
Y5096650D01*
Y5132090D02*
Y5136020D01*
X2251930Y5090720D02*
Y5094650D01*
Y5130090D02*
Y5134020D01*
X2285930Y5092720D02*
Y5096650D01*
Y5132090D02*
Y5136020D01*
X1946060Y5096860D02*
Y5100790D01*
Y5136220D02*
Y5140150D01*
G36*
X2255830Y5660195D02*
X2272530Y5676895D01*
X2286450Y5662975D01*
X2269750Y5646275D01*
X2255830Y5660195D01*
G37*
G36*
X2283670Y5688035D02*
X2300370Y5704735D01*
X2314290Y5690815D01*
X2297590Y5674115D01*
X2283670Y5688035D01*
G37*
G36*
X2307670Y5664035D02*
X2324370Y5680735D01*
X2338290Y5666815D01*
X2321590Y5650115D01*
X2307670Y5664035D01*
G37*
G36*
X2279830Y5636195D02*
X2296530Y5652895D01*
X2310450Y5638975D01*
X2293750Y5622275D01*
X2279830Y5636195D01*
G37*
G36*
X2303830Y5613195D02*
X2320530Y5629895D01*
X2334450Y5615975D01*
X2317750Y5599275D01*
X2303830Y5613195D01*
G37*
G36*
X2331670Y5641035D02*
X2348370Y5657735D01*
X2362290Y5643815D01*
X2345590Y5627115D01*
X2331670Y5641035D01*
G37*
G36*
X2347530Y5605675D02*
X2364230Y5588975D01*
X2354490Y5579235D01*
X2337790Y5595935D01*
X2347530Y5605675D01*
G37*
G36*
X2365630Y5623775D02*
X2382330Y5607075D01*
X2372590Y5597335D01*
X2355890Y5614035D01*
X2365630Y5623775D01*
G37*
G54D12*
X2318980Y5338560D02*
Y5362190D01*
X2338670Y5186980D02*
Y5210610D01*
X2318980Y5186980D02*
Y5210610D01*
X2299300Y5186980D02*
Y5210610D01*
X2279610Y5186980D02*
Y5210610D01*
X2259930Y5186980D02*
Y5210610D01*
X2240240Y5186980D02*
Y5210610D01*
Y5338560D02*
Y5362190D01*
X2259930Y5338560D02*
Y5362190D01*
X2279610Y5338560D02*
Y5362190D01*
X2299300Y5338560D02*
Y5362190D01*
X2338670Y5338560D02*
Y5362190D01*
X2201856Y5225375D02*
X2225485D01*
X2201856Y5245055D02*
X2225485D01*
X2201856Y5264745D02*
X2225485D01*
X2201856Y5284425D02*
X2225485D01*
X2201856Y5304115D02*
X2225485D01*
X2201856Y5323795D02*
X2225485D01*
X2353425D02*
X2377055D01*
X2353425Y5304115D02*
X2377055D01*
X2353425Y5284425D02*
X2377055D01*
X2353425Y5264745D02*
X2377055D01*
X2353425Y5245055D02*
X2377055D01*
X2353425Y5225375D02*
X2377055D01*
G54D13*
X2289450Y5274585D03*
G54D14*
X2096640Y5235950D02*
Y5245800D01*
Y5298940D02*
Y5308790D01*
X2061210Y5298940D02*
Y5308790D01*
Y5235950D02*
Y5245800D01*
X1906210Y5503940D02*
Y5513790D01*
Y5566930D02*
Y5576780D01*
X1941640Y5566930D02*
Y5576780D01*
Y5503940D02*
Y5513790D01*
X2228650Y5512960D02*
Y5522810D01*
Y5575950D02*
Y5585800D01*
X2193220Y5575950D02*
Y5585800D01*
Y5512960D02*
Y5522810D01*
G36*
X2198410Y5646175D02*
X2142730Y5701855D01*
X2181710Y5740835D01*
X2237390Y5685155D01*
X2198410Y5646175D01*
G37*
G36*
X2320900Y5768665D02*
X2265220Y5824345D01*
X2304200Y5863325D01*
X2359880Y5807645D01*
X2320900Y5768665D01*
G37*
G54D15*
X1706045Y5249375D02*
X1719815D01*
X1706045Y5369445D02*
X1719815D01*
G54D16*
X2421430Y5539375D02*
Y5553375D01*
X2461430Y5451375D02*
Y5465375D01*
X2386430Y5451375D02*
Y5465375D01*
G54D17*
X1837010Y5668075D03*
X2073230D03*
X1915750D03*
X1994490D03*
X1818930Y4995375D03*
X1641730Y5327265D03*
Y5169785D03*
Y5248525D03*
Y5406005D03*
G54D18*
X1994090Y5350885D02*
Y5366625D01*
Y5524115D02*
Y5539855D01*
X2139760Y5350885D02*
Y5366625D01*
Y5524115D02*
Y5539855D01*
G54D19*
X1967520Y5441435D02*
Y5449315D01*
X2166340Y5441435D02*
Y5449315D01*
G54D20*
X2478330Y5067365D02*
G03X2495360Y5068095I8165J8530D01*
G03X2630260Y5352915I-428428J377274D01*
X2630250Y5352905D02*
G03X2618600Y5366635I-11662J1912D01*
X2600840Y5378445D02*
G03X2612650Y5366635I11810J0D01*
Y5524115D02*
G03X2600840Y5512305I0J-11810D01*
X2618600Y5524115D02*
G03X2630250Y5537835I-2J11808D01*
X2630260D02*
G03X2159390Y6008705I-563330J-92460D01*
Y6008695D02*
G03X2145670Y5997045I-1907J-11658D01*
X2133860Y5979285D02*
G03X2145670Y5991095I0J11810D01*
X1988190D02*
G03X2000000Y5979285I11810J0D01*
X1988190Y5997045D02*
G03X1974460Y6008695I-11809J-1D01*
X1974470Y6008705D02*
G03X1689650Y5873805I92456J-563332D01*
G03X1688920Y5856775I7810J-8865D01*
X1655520Y5823375D02*
G03X1688920Y5856775I16330J17070D01*
X1655520Y5823375D02*
G03X1638500Y5822645I-8160J-8530D01*
G03X1503600Y5537835I428427J-377277D01*
G03X1515250Y5524115I11658J-1907D01*
X1533010Y5512305D02*
G03X1521200Y5524115I-11810J0D01*
Y5366635D02*
G03X1533010Y5378445I0J11810D01*
X1515250Y5366635D02*
G03X1503600Y5352905I1J-11809D01*
Y5352915D02*
G03X1974470Y4882045I563330J92460D01*
X1974460D02*
G03X1988190Y4893695I1912J11662D01*
X2000000Y4911455D02*
G03X1988190Y4899645I0J-11810D01*
X2145670D02*
G03X2133860Y4911455I-11810J0D01*
X2145670Y4893695D02*
G03X2159390Y4882045I11808J2D01*
G03X2444200Y5016945I-92467J563327D01*
G03X2444930Y5033965I-7810J8861D01*
X2478330Y5067365D02*
G03X2444930Y5033965I-16330J-17070D01*
X2612650Y5366635D02*
G01X2618600D01*
X2600840Y5378445D02*
Y5512305D01*
X2612650Y5524115D02*
X2618600D01*
X2145670Y5991095D02*
Y5997045D01*
X2000000Y5979285D02*
X2133860D01*
X1988190Y5991095D02*
Y5997045D01*
X1515250Y5524115D02*
X1521200D01*
X1533010Y5378445D02*
Y5512305D01*
X1515250Y5366635D02*
X1521200D01*
X1988190Y4893695D02*
Y4899645D01*
X2000000Y4911455D02*
X2133860D01*
X2145670Y4893695D02*
Y4899645D01*
G54D10*
X3129118Y250485D02*
X3133048D01*
X3089738D02*
X3093668D01*
X3047748Y282485D02*
X3051678D01*
X3087118D02*
X3091048D01*
X3097748Y314485D02*
X3101678D01*
X3137118D02*
X3141048D01*
X3357748Y321485D02*
X3361678D01*
X3397118D02*
X3401048D01*
X3674248Y532615D02*
X3678178D01*
X3634878D02*
X3638808D01*
X3377888Y268615D02*
X3381818D01*
X3417258D02*
X3421188D01*
X3261258Y157615D02*
X3265188D01*
X3221888D02*
X3225818D01*
X3164118Y183485D02*
X3168048D01*
X3124748D02*
X3128678D01*
X3089748Y216485D02*
X3093678D01*
X3129118D02*
X3133048D01*
G54D11*
X3390033Y164615D03*
X3325033D03*
G54D10*
X3376403Y354150D02*
Y358080D01*
Y393520D02*
Y397450D01*
X3736403Y552200D02*
Y556130D01*
Y512830D02*
Y516760D01*
Y589830D02*
Y593760D01*
Y629200D02*
Y633130D01*
X3723403Y664830D02*
Y668760D01*
Y704200D02*
Y708130D01*
X3623403Y383830D02*
Y387760D01*
Y423200D02*
Y427130D01*
Y354200D02*
Y358130D01*
Y314830D02*
Y318760D01*
X3539403Y210830D02*
Y214760D01*
Y250200D02*
Y254130D01*
X3472403Y208830D02*
Y212760D01*
Y248200D02*
Y252130D01*
X3506403Y210830D02*
Y214760D01*
Y250200D02*
Y254130D01*
X3166533Y214970D02*
Y218900D01*
Y254330D02*
Y258260D01*
G36*
X3476303Y778305D02*
X3493003Y795005D01*
X3506923Y781085D01*
X3490223Y764385D01*
X3476303Y778305D01*
G37*
G36*
X3504143Y806145D02*
X3520843Y822845D01*
X3534763Y808925D01*
X3518063Y792225D01*
X3504143Y806145D01*
G37*
G36*
X3528143Y782145D02*
X3544843Y798845D01*
X3558763Y784925D01*
X3542063Y768225D01*
X3528143Y782145D01*
G37*
G36*
X3500303Y754305D02*
X3517003Y771005D01*
X3530923Y757085D01*
X3514223Y740385D01*
X3500303Y754305D01*
G37*
G36*
X3524303Y731305D02*
X3541003Y748005D01*
X3554923Y734085D01*
X3538223Y717385D01*
X3524303Y731305D01*
G37*
G36*
X3552143Y759145D02*
X3568843Y775845D01*
X3582763Y761925D01*
X3566063Y745225D01*
X3552143Y759145D01*
G37*
G36*
X3568003Y723785D02*
X3584703Y707085D01*
X3574963Y697345D01*
X3558263Y714045D01*
X3568003Y723785D01*
G37*
G36*
X3586103Y741885D02*
X3602803Y725185D01*
X3593063Y715445D01*
X3576363Y732145D01*
X3586103Y741885D01*
G37*
G54D12*
X3539453Y456670D02*
Y480300D01*
X3559143Y305090D02*
Y328720D01*
X3539453Y305090D02*
Y328720D01*
X3519773Y305090D02*
Y328720D01*
X3500083Y305090D02*
Y328720D01*
X3480403Y305090D02*
Y328720D01*
X3460713Y305090D02*
Y328720D01*
Y456670D02*
Y480300D01*
X3480403Y456670D02*
Y480300D01*
X3500083Y456670D02*
Y480300D01*
X3519773Y456670D02*
Y480300D01*
X3559143Y456670D02*
Y480300D01*
X3422328Y343485D02*
X3445958D01*
X3422328Y363165D02*
X3445958D01*
X3422328Y382855D02*
X3445958D01*
X3422328Y402535D02*
X3445958D01*
X3422328Y422225D02*
X3445958D01*
X3422328Y441905D02*
X3445958D01*
X3573898D02*
X3597528D01*
X3573898Y422225D02*
X3597528D01*
X3573898Y402535D02*
X3597528D01*
X3573898Y382855D02*
X3597528D01*
X3573898Y363165D02*
X3597528D01*
X3573898Y343485D02*
X3597528D01*
G54D13*
X3509923Y392695D03*
G54D14*
X3317113Y354060D02*
Y363910D01*
Y417050D02*
Y426900D01*
X3281683Y417050D02*
Y426900D01*
Y354060D02*
Y363910D01*
X3126683Y622050D02*
Y631900D01*
Y685040D02*
Y694890D01*
X3162113Y685040D02*
Y694890D01*
Y622050D02*
Y631900D01*
X3449123Y631070D02*
Y640920D01*
Y694060D02*
Y703910D01*
X3413693Y694060D02*
Y703910D01*
Y631070D02*
Y640920D01*
G36*
X3418883Y764285D02*
X3363203Y819965D01*
X3402183Y858945D01*
X3457863Y803265D01*
X3418883Y764285D01*
G37*
G36*
X3541373Y886775D02*
X3485693Y942455D01*
X3524673Y981435D01*
X3580353Y925755D01*
X3541373Y886775D01*
G37*
G54D15*
X2926518Y367485D02*
X2940288D01*
X2926518Y487555D02*
X2940288D01*
G54D16*
X3641903Y657485D02*
Y671485D01*
X3681903Y569485D02*
Y583485D01*
X3606903Y569485D02*
Y583485D01*
G54D17*
X3057483Y786185D03*
X3293703D03*
X3136223D03*
X3214963D03*
X3039403Y113485D03*
X2862203Y445375D03*
Y287895D03*
Y366635D03*
Y524115D03*
G54D18*
X3214563Y468995D02*
Y484735D01*
Y642225D02*
Y657965D01*
X3360233Y468995D02*
Y484735D01*
Y642225D02*
Y657965D01*
G54D19*
X3187993Y559545D02*
Y567425D01*
X3386813Y559545D02*
Y567425D01*
G54D20*
X3698803Y185475D02*
G03X3715833Y186205I8165J8530D01*
G03X3850733Y471025I-428428J377274D01*
X3850723Y471015D02*
G03X3839073Y484745I-11662J1912D01*
X3821313Y496555D02*
G03X3833123Y484745I11810J0D01*
Y642225D02*
G03X3821313Y630415I0J-11810D01*
X3839073Y642225D02*
G03X3850723Y655945I-2J11808D01*
X3850733D02*
G03X3379863Y1126815I-563330J-92460D01*
Y1126805D02*
G03X3366143Y1115155I-1907J-11658D01*
X3354333Y1097395D02*
G03X3366143Y1109205I0J11810D01*
X3208663D02*
G03X3220473Y1097395I11810J0D01*
X3208663Y1115155D02*
G03X3194933Y1126805I-11809J-1D01*
X3194943Y1126815D02*
G03X2910123Y991915I92456J-563332D01*
G03X2909393Y974885I7810J-8865D01*
X2875993Y941485D02*
G03X2909393Y974885I16330J17070D01*
X2875993Y941485D02*
G03X2858973Y940755I-8160J-8530D01*
G03X2724073Y655945I428427J-377277D01*
G03X2735723Y642225I11658J-1907D01*
X2753483Y630415D02*
G03X2741673Y642225I-11810J0D01*
Y484745D02*
G03X2753483Y496555I0J11810D01*
X2735723Y484745D02*
G03X2724073Y471015I1J-11809D01*
Y471025D02*
G03X3194943Y155I563330J92460D01*
X3194933D02*
G03X3208663Y11805I1912J11662D01*
X3220473Y29565D02*
G03X3208663Y17755I0J-11810D01*
X3366143D02*
G03X3354333Y29565I-11810J0D01*
X3366143Y11805D02*
G03X3379863Y155I11808J2D01*
G03X3664673Y135055I-92467J563327D01*
G03X3665403Y152075I-7810J8861D01*
X3698803Y185475D02*
G03X3665403Y152075I-16330J-17070D01*
X3833123Y484745D02*
G01X3839073D01*
X3821313Y496555D02*
Y630415D01*
X3833123Y642225D02*
X3839073D01*
X3366143Y1109205D02*
Y1115155D01*
X3220473Y1097395D02*
X3354333D01*
X3208663Y1109205D02*
Y1115155D01*
X2735723Y642225D02*
X2741673D01*
X2753483Y496555D02*
Y630415D01*
X2735723Y484745D02*
X2741673D01*
X3208663Y11805D02*
Y17755D01*
X3220473Y29565D02*
X3354333D01*
X3366143Y11805D02*
Y17755D01*
G54D10*
X3129118Y1470958D02*
X3133048D01*
X3089738D02*
X3093668D01*
X3047748Y1502958D02*
X3051678D01*
X3087118D02*
X3091048D01*
X3097748Y1534958D02*
X3101678D01*
X3137118D02*
X3141048D01*
X3357748Y1541958D02*
X3361678D01*
X3397118D02*
X3401048D01*
X3674248Y1753088D02*
X3678178D01*
X3634878D02*
X3638808D01*
X3377888Y1489088D02*
X3381818D01*
X3417258D02*
X3421188D01*
X3261258Y1378088D02*
X3265188D01*
X3221888D02*
X3225818D01*
X3164118Y1403958D02*
X3168048D01*
X3124748D02*
X3128678D01*
X3089748Y1436958D02*
X3093678D01*
X3129118D02*
X3133048D01*
G54D11*
X3390033Y1385088D03*
X3325033D03*
G54D10*
X3376403Y1574623D02*
Y1578553D01*
Y1613993D02*
Y1617923D01*
X3736403Y1772673D02*
Y1776603D01*
Y1733303D02*
Y1737233D01*
Y1810303D02*
Y1814233D01*
Y1849673D02*
Y1853603D01*
X3723403Y1885303D02*
Y1889233D01*
Y1924673D02*
Y1928603D01*
X3623403Y1604303D02*
Y1608233D01*
Y1643673D02*
Y1647603D01*
Y1574673D02*
Y1578603D01*
Y1535303D02*
Y1539233D01*
X3539403Y1431303D02*
Y1435233D01*
Y1470673D02*
Y1474603D01*
X3472403Y1429303D02*
Y1433233D01*
Y1468673D02*
Y1472603D01*
X3506403Y1431303D02*
Y1435233D01*
Y1470673D02*
Y1474603D01*
X3166533Y1435443D02*
Y1439373D01*
Y1474803D02*
Y1478733D01*
G36*
X3476303Y1998778D02*
X3493003Y2015478D01*
X3506923Y2001558D01*
X3490223Y1984858D01*
X3476303Y1998778D01*
G37*
G36*
X3504143Y2026618D02*
X3520843Y2043318D01*
X3534763Y2029398D01*
X3518063Y2012698D01*
X3504143Y2026618D01*
G37*
G36*
X3528143Y2002618D02*
X3544843Y2019318D01*
X3558763Y2005398D01*
X3542063Y1988698D01*
X3528143Y2002618D01*
G37*
G36*
X3500303Y1974778D02*
X3517003Y1991478D01*
X3530923Y1977558D01*
X3514223Y1960858D01*
X3500303Y1974778D01*
G37*
G36*
X3524303Y1951778D02*
X3541003Y1968478D01*
X3554923Y1954558D01*
X3538223Y1937858D01*
X3524303Y1951778D01*
G37*
G36*
X3552143Y1979618D02*
X3568843Y1996318D01*
X3582763Y1982398D01*
X3566063Y1965698D01*
X3552143Y1979618D01*
G37*
G36*
X3568003Y1944258D02*
X3584703Y1927558D01*
X3574963Y1917818D01*
X3558263Y1934518D01*
X3568003Y1944258D01*
G37*
G36*
X3586103Y1962358D02*
X3602803Y1945658D01*
X3593063Y1935918D01*
X3576363Y1952618D01*
X3586103Y1962358D01*
G37*
G54D12*
X3539453Y1677143D02*
Y1700773D01*
X3559143Y1525563D02*
Y1549193D01*
X3539453Y1525563D02*
Y1549193D01*
X3519773Y1525563D02*
Y1549193D01*
X3500083Y1525563D02*
Y1549193D01*
X3480403Y1525563D02*
Y1549193D01*
X3460713Y1525563D02*
Y1549193D01*
Y1677143D02*
Y1700773D01*
X3480403Y1677143D02*
Y1700773D01*
X3500083Y1677143D02*
Y1700773D01*
X3519773Y1677143D02*
Y1700773D01*
X3559143Y1677143D02*
Y1700773D01*
X3422328Y1563958D02*
X3445958D01*
X3422328Y1583638D02*
X3445958D01*
X3422328Y1603328D02*
X3445958D01*
X3422328Y1623008D02*
X3445958D01*
X3422328Y1642698D02*
X3445958D01*
X3422328Y1662378D02*
X3445958D01*
X3573898D02*
X3597528D01*
X3573898Y1642698D02*
X3597528D01*
X3573898Y1623008D02*
X3597528D01*
X3573898Y1603328D02*
X3597528D01*
X3573898Y1583638D02*
X3597528D01*
X3573898Y1563958D02*
X3597528D01*
G54D13*
X3509923Y1613168D03*
G54D14*
X3317113Y1574533D02*
Y1584383D01*
Y1637523D02*
Y1647373D01*
X3281683Y1637523D02*
Y1647373D01*
Y1574533D02*
Y1584383D01*
X3126683Y1842523D02*
Y1852373D01*
Y1905513D02*
Y1915363D01*
X3162113Y1905513D02*
Y1915363D01*
Y1842523D02*
Y1852373D01*
X3449123Y1851543D02*
Y1861393D01*
Y1914533D02*
Y1924383D01*
X3413693Y1914533D02*
Y1924383D01*
Y1851543D02*
Y1861393D01*
G36*
X3418883Y1984758D02*
X3363203Y2040438D01*
X3402183Y2079418D01*
X3457863Y2023738D01*
X3418883Y1984758D01*
G37*
G36*
X3541373Y2107248D02*
X3485693Y2162928D01*
X3524673Y2201908D01*
X3580353Y2146228D01*
X3541373Y2107248D01*
G37*
G54D15*
X2926518Y1587958D02*
X2940288D01*
X2926518Y1708028D02*
X2940288D01*
G54D16*
X3641903Y1877958D02*
Y1891958D01*
X3681903Y1789958D02*
Y1803958D01*
X3606903Y1789958D02*
Y1803958D01*
G54D17*
X3057483Y2006658D03*
X3293703D03*
X3136223D03*
X3214963D03*
X3039403Y1333958D03*
X2862203Y1665848D03*
Y1508368D03*
Y1587108D03*
Y1744588D03*
G54D18*
X3214563Y1689468D02*
Y1705208D01*
Y1862698D02*
Y1878438D01*
X3360233Y1689468D02*
Y1705208D01*
Y1862698D02*
Y1878438D01*
G54D19*
X3187993Y1780018D02*
Y1787898D01*
X3386813Y1780018D02*
Y1787898D01*
G54D20*
X3698803Y1405948D02*
G03X3715833Y1406678I8165J8530D01*
G03X3850733Y1691498I-428428J377274D01*
X3850723Y1691488D02*
G03X3839073Y1705218I-11662J1912D01*
X3821313Y1717028D02*
G03X3833123Y1705218I11810J0D01*
Y1862698D02*
G03X3821313Y1850888I0J-11810D01*
X3839073Y1862698D02*
G03X3850723Y1876418I-2J11808D01*
X3850733D02*
G03X3379863Y2347288I-563330J-92460D01*
Y2347278D02*
G03X3366143Y2335628I-1907J-11658D01*
X3354333Y2317868D02*
G03X3366143Y2329678I0J11810D01*
X3208663D02*
G03X3220473Y2317868I11810J0D01*
X3208663Y2335628D02*
G03X3194933Y2347278I-11809J-1D01*
X3194943Y2347288D02*
G03X2910123Y2212388I92456J-563332D01*
G03X2909393Y2195358I7810J-8865D01*
X2875993Y2161958D02*
G03X2909393Y2195358I16330J17070D01*
X2875993Y2161958D02*
G03X2858973Y2161228I-8160J-8530D01*
G03X2724073Y1876418I428427J-377277D01*
G03X2735723Y1862698I11658J-1907D01*
X2753483Y1850888D02*
G03X2741673Y1862698I-11810J0D01*
Y1705218D02*
G03X2753483Y1717028I0J11810D01*
X2735723Y1705218D02*
G03X2724073Y1691488I1J-11809D01*
Y1691498D02*
G03X3194943Y1220628I563330J92460D01*
X3194933D02*
G03X3208663Y1232278I1912J11662D01*
X3220473Y1250038D02*
G03X3208663Y1238228I0J-11810D01*
X3366143D02*
G03X3354333Y1250038I-11810J0D01*
X3366143Y1232278D02*
G03X3379863Y1220628I11808J2D01*
G03X3664673Y1355528I-92467J563327D01*
G03X3665403Y1372548I-7810J8861D01*
X3698803Y1405948D02*
G03X3665403Y1372548I-16330J-17070D01*
X3833123Y1705218D02*
G01X3839073D01*
X3821313Y1717028D02*
Y1850888D01*
X3833123Y1862698D02*
X3839073D01*
X3366143Y2329678D02*
Y2335628D01*
X3220473Y2317868D02*
X3354333D01*
X3208663Y2329678D02*
Y2335628D01*
X2735723Y1862698D02*
X2741673D01*
X2753483Y1717028D02*
Y1850888D01*
X2735723Y1705218D02*
X2741673D01*
X3208663Y1232278D02*
Y1238228D01*
X3220473Y1250038D02*
X3354333D01*
X3366143Y1232278D02*
Y1238228D01*
G54D10*
X3129118Y2691430D02*
X3133048D01*
X3089738D02*
X3093668D01*
X3047748Y2723430D02*
X3051678D01*
X3087118D02*
X3091048D01*
X3097748Y2755430D02*
X3101678D01*
X3137118D02*
X3141048D01*
X3357748Y2762430D02*
X3361678D01*
X3397118D02*
X3401048D01*
X3674248Y2973560D02*
X3678178D01*
X3634878D02*
X3638808D01*
X3377888Y2709560D02*
X3381818D01*
X3417258D02*
X3421188D01*
X3261258Y2598560D02*
X3265188D01*
X3221888D02*
X3225818D01*
X3164118Y2624430D02*
X3168048D01*
X3124748D02*
X3128678D01*
X3089748Y2657430D02*
X3093678D01*
X3129118D02*
X3133048D01*
G54D11*
X3390033Y2605560D03*
X3325033D03*
G54D10*
X3376403Y2795095D02*
Y2799025D01*
Y2834465D02*
Y2838395D01*
X3736403Y2993145D02*
Y2997075D01*
Y2953775D02*
Y2957705D01*
Y3030775D02*
Y3034705D01*
Y3070145D02*
Y3074075D01*
X3723403Y3105775D02*
Y3109705D01*
Y3145145D02*
Y3149075D01*
X3623403Y2824775D02*
Y2828705D01*
Y2864145D02*
Y2868075D01*
Y2795145D02*
Y2799075D01*
Y2755775D02*
Y2759705D01*
X3539403Y2651775D02*
Y2655705D01*
Y2691145D02*
Y2695075D01*
X3472403Y2649775D02*
Y2653705D01*
Y2689145D02*
Y2693075D01*
X3506403Y2651775D02*
Y2655705D01*
Y2691145D02*
Y2695075D01*
X3166533Y2655915D02*
Y2659845D01*
Y2695275D02*
Y2699205D01*
G36*
X3476303Y3219250D02*
X3493003Y3235950D01*
X3506923Y3222030D01*
X3490223Y3205330D01*
X3476303Y3219250D01*
G37*
G36*
X3504143Y3247090D02*
X3520843Y3263790D01*
X3534763Y3249870D01*
X3518063Y3233170D01*
X3504143Y3247090D01*
G37*
G36*
X3528143Y3223090D02*
X3544843Y3239790D01*
X3558763Y3225870D01*
X3542063Y3209170D01*
X3528143Y3223090D01*
G37*
G36*
X3500303Y3195250D02*
X3517003Y3211950D01*
X3530923Y3198030D01*
X3514223Y3181330D01*
X3500303Y3195250D01*
G37*
G36*
X3524303Y3172250D02*
X3541003Y3188950D01*
X3554923Y3175030D01*
X3538223Y3158330D01*
X3524303Y3172250D01*
G37*
G36*
X3552143Y3200090D02*
X3568843Y3216790D01*
X3582763Y3202870D01*
X3566063Y3186170D01*
X3552143Y3200090D01*
G37*
G36*
X3568003Y3164730D02*
X3584703Y3148030D01*
X3574963Y3138290D01*
X3558263Y3154990D01*
X3568003Y3164730D01*
G37*
G36*
X3586103Y3182830D02*
X3602803Y3166130D01*
X3593063Y3156390D01*
X3576363Y3173090D01*
X3586103Y3182830D01*
G37*
G54D12*
X3539453Y2897615D02*
Y2921245D01*
X3559143Y2746035D02*
Y2769665D01*
X3539453Y2746035D02*
Y2769665D01*
X3519773Y2746035D02*
Y2769665D01*
X3500083Y2746035D02*
Y2769665D01*
X3480403Y2746035D02*
Y2769665D01*
X3460713Y2746035D02*
Y2769665D01*
Y2897615D02*
Y2921245D01*
X3480403Y2897615D02*
Y2921245D01*
X3500083Y2897615D02*
Y2921245D01*
X3519773Y2897615D02*
Y2921245D01*
X3559143Y2897615D02*
Y2921245D01*
X3422328Y2784430D02*
X3445958D01*
X3422328Y2804110D02*
X3445958D01*
X3422328Y2823800D02*
X3445958D01*
X3422328Y2843480D02*
X3445958D01*
X3422328Y2863170D02*
X3445958D01*
X3422328Y2882850D02*
X3445958D01*
X3573898D02*
X3597528D01*
X3573898Y2863170D02*
X3597528D01*
X3573898Y2843480D02*
X3597528D01*
X3573898Y2823800D02*
X3597528D01*
X3573898Y2804110D02*
X3597528D01*
X3573898Y2784430D02*
X3597528D01*
G54D13*
X3509923Y2833640D03*
G54D14*
X3317113Y2795005D02*
Y2804855D01*
Y2857995D02*
Y2867845D01*
X3281683Y2857995D02*
Y2867845D01*
Y2795005D02*
Y2804855D01*
X3126683Y3062995D02*
Y3072845D01*
Y3125985D02*
Y3135835D01*
X3162113Y3125985D02*
Y3135835D01*
Y3062995D02*
Y3072845D01*
X3449123Y3072015D02*
Y3081865D01*
Y3135005D02*
Y3144855D01*
X3413693Y3135005D02*
Y3144855D01*
Y3072015D02*
Y3081865D01*
G36*
X3418883Y3205230D02*
X3363203Y3260910D01*
X3402183Y3299890D01*
X3457863Y3244210D01*
X3418883Y3205230D01*
G37*
G36*
X3541373Y3327720D02*
X3485693Y3383400D01*
X3524673Y3422380D01*
X3580353Y3366700D01*
X3541373Y3327720D01*
G37*
G54D15*
X2926518Y2808430D02*
X2940288D01*
X2926518Y2928500D02*
X2940288D01*
G54D16*
X3641903Y3098430D02*
Y3112430D01*
X3681903Y3010430D02*
Y3024430D01*
X3606903Y3010430D02*
Y3024430D01*
G54D17*
X3057483Y3227130D03*
X3293703D03*
X3136223D03*
X3214963D03*
X3039403Y2554430D03*
X2862203Y2886320D03*
Y2728840D03*
Y2807580D03*
Y2965060D03*
G54D18*
X3214563Y2909940D02*
Y2925680D01*
Y3083170D02*
Y3098910D01*
X3360233Y2909940D02*
Y2925680D01*
Y3083170D02*
Y3098910D01*
G54D19*
X3187993Y3000490D02*
Y3008370D01*
X3386813Y3000490D02*
Y3008370D01*
G54D20*
X3698803Y2626420D02*
G03X3715833Y2627150I8165J8530D01*
G03X3850733Y2911970I-428428J377274D01*
X3850723Y2911960D02*
G03X3839073Y2925690I-11662J1912D01*
X3821313Y2937500D02*
G03X3833123Y2925690I11810J0D01*
Y3083170D02*
G03X3821313Y3071360I0J-11810D01*
X3839073Y3083170D02*
G03X3850723Y3096890I-2J11808D01*
X3850733D02*
G03X3379863Y3567760I-563330J-92460D01*
Y3567750D02*
G03X3366143Y3556100I-1907J-11658D01*
X3354333Y3538340D02*
G03X3366143Y3550150I0J11810D01*
X3208663D02*
G03X3220473Y3538340I11810J0D01*
X3208663Y3556100D02*
G03X3194933Y3567750I-11809J-1D01*
X3194943Y3567760D02*
G03X2910123Y3432860I92456J-563332D01*
G03X2909393Y3415830I7810J-8865D01*
X2875993Y3382430D02*
G03X2909393Y3415830I16330J17070D01*
X2875993Y3382430D02*
G03X2858973Y3381700I-8160J-8530D01*
G03X2724073Y3096890I428427J-377277D01*
G03X2735723Y3083170I11658J-1907D01*
X2753483Y3071360D02*
G03X2741673Y3083170I-11810J0D01*
Y2925690D02*
G03X2753483Y2937500I0J11810D01*
X2735723Y2925690D02*
G03X2724073Y2911960I1J-11809D01*
Y2911970D02*
G03X3194943Y2441100I563330J92460D01*
X3194933D02*
G03X3208663Y2452750I1912J11662D01*
X3220473Y2470510D02*
G03X3208663Y2458700I0J-11810D01*
X3366143D02*
G03X3354333Y2470510I-11810J0D01*
X3366143Y2452750D02*
G03X3379863Y2441100I11808J2D01*
G03X3664673Y2576000I-92467J563327D01*
G03X3665403Y2593020I-7810J8861D01*
X3698803Y2626420D02*
G03X3665403Y2593020I-16330J-17070D01*
X3833123Y2925690D02*
G01X3839073D01*
X3821313Y2937500D02*
Y3071360D01*
X3833123Y3083170D02*
X3839073D01*
X3366143Y3550150D02*
Y3556100D01*
X3220473Y3538340D02*
X3354333D01*
X3208663Y3550150D02*
Y3556100D01*
X2735723Y3083170D02*
X2741673D01*
X2753483Y2937500D02*
Y3071360D01*
X2735723Y2925690D02*
X2741673D01*
X3208663Y2452750D02*
Y2458700D01*
X3220473Y2470510D02*
X3354333D01*
X3366143Y2452750D02*
Y2458700D01*
G54D10*
X3129118Y3911903D02*
X3133048D01*
X3089738D02*
X3093668D01*
X3047748Y3943903D02*
X3051678D01*
X3087118D02*
X3091048D01*
X3097748Y3975903D02*
X3101678D01*
X3137118D02*
X3141048D01*
X3357748Y3982903D02*
X3361678D01*
X3397118D02*
X3401048D01*
X3674248Y4194033D02*
X3678178D01*
X3634878D02*
X3638808D01*
X3377888Y3930033D02*
X3381818D01*
X3417258D02*
X3421188D01*
X3261258Y3819033D02*
X3265188D01*
X3221888D02*
X3225818D01*
X3164118Y3844903D02*
X3168048D01*
X3124748D02*
X3128678D01*
X3089748Y3877903D02*
X3093678D01*
X3129118D02*
X3133048D01*
G54D11*
X3390033Y3826033D03*
X3325033D03*
G54D10*
X3376403Y4015568D02*
Y4019498D01*
Y4054938D02*
Y4058868D01*
X3736403Y4213618D02*
Y4217548D01*
Y4174248D02*
Y4178178D01*
Y4251248D02*
Y4255178D01*
Y4290618D02*
Y4294548D01*
X3723403Y4326248D02*
Y4330178D01*
Y4365618D02*
Y4369548D01*
X3623403Y4045248D02*
Y4049178D01*
Y4084618D02*
Y4088548D01*
Y4015618D02*
Y4019548D01*
Y3976248D02*
Y3980178D01*
X3539403Y3872248D02*
Y3876178D01*
Y3911618D02*
Y3915548D01*
X3472403Y3870248D02*
Y3874178D01*
Y3909618D02*
Y3913548D01*
X3506403Y3872248D02*
Y3876178D01*
Y3911618D02*
Y3915548D01*
X3166533Y3876388D02*
Y3880318D01*
Y3915748D02*
Y3919678D01*
G36*
X3476303Y4439723D02*
X3493003Y4456423D01*
X3506923Y4442503D01*
X3490223Y4425803D01*
X3476303Y4439723D01*
G37*
G36*
X3504143Y4467563D02*
X3520843Y4484263D01*
X3534763Y4470343D01*
X3518063Y4453643D01*
X3504143Y4467563D01*
G37*
G36*
X3528143Y4443563D02*
X3544843Y4460263D01*
X3558763Y4446343D01*
X3542063Y4429643D01*
X3528143Y4443563D01*
G37*
G36*
X3500303Y4415723D02*
X3517003Y4432423D01*
X3530923Y4418503D01*
X3514223Y4401803D01*
X3500303Y4415723D01*
G37*
G36*
X3524303Y4392723D02*
X3541003Y4409423D01*
X3554923Y4395503D01*
X3538223Y4378803D01*
X3524303Y4392723D01*
G37*
G36*
X3552143Y4420563D02*
X3568843Y4437263D01*
X3582763Y4423343D01*
X3566063Y4406643D01*
X3552143Y4420563D01*
G37*
G36*
X3568003Y4385203D02*
X3584703Y4368503D01*
X3574963Y4358763D01*
X3558263Y4375463D01*
X3568003Y4385203D01*
G37*
G36*
X3586103Y4403303D02*
X3602803Y4386603D01*
X3593063Y4376863D01*
X3576363Y4393563D01*
X3586103Y4403303D01*
G37*
G54D12*
X3539453Y4118088D02*
Y4141718D01*
X3559143Y3966508D02*
Y3990138D01*
X3539453Y3966508D02*
Y3990138D01*
X3519773Y3966508D02*
Y3990138D01*
X3500083Y3966508D02*
Y3990138D01*
X3480403Y3966508D02*
Y3990138D01*
X3460713Y3966508D02*
Y3990138D01*
Y4118088D02*
Y4141718D01*
X3480403Y4118088D02*
Y4141718D01*
X3500083Y4118088D02*
Y4141718D01*
X3519773Y4118088D02*
Y4141718D01*
X3559143Y4118088D02*
Y4141718D01*
X3422328Y4004903D02*
X3445958D01*
X3422328Y4024583D02*
X3445958D01*
X3422328Y4044273D02*
X3445958D01*
X3422328Y4063953D02*
X3445958D01*
X3422328Y4083643D02*
X3445958D01*
X3422328Y4103323D02*
X3445958D01*
X3573898D02*
X3597528D01*
X3573898Y4083643D02*
X3597528D01*
X3573898Y4063953D02*
X3597528D01*
X3573898Y4044273D02*
X3597528D01*
X3573898Y4024583D02*
X3597528D01*
X3573898Y4004903D02*
X3597528D01*
G54D13*
X3509923Y4054113D03*
G54D14*
X3317113Y4015478D02*
Y4025328D01*
Y4078468D02*
Y4088318D01*
X3281683Y4078468D02*
Y4088318D01*
Y4015478D02*
Y4025328D01*
X3126683Y4283468D02*
Y4293318D01*
Y4346458D02*
Y4356308D01*
X3162113Y4346458D02*
Y4356308D01*
Y4283468D02*
Y4293318D01*
X3449123Y4292488D02*
Y4302338D01*
Y4355478D02*
Y4365328D01*
X3413693Y4355478D02*
Y4365328D01*
Y4292488D02*
Y4302338D01*
G36*
X3418883Y4425703D02*
X3363203Y4481383D01*
X3402183Y4520363D01*
X3457863Y4464683D01*
X3418883Y4425703D01*
G37*
G36*
X3541373Y4548193D02*
X3485693Y4603873D01*
X3524673Y4642853D01*
X3580353Y4587173D01*
X3541373Y4548193D01*
G37*
G54D15*
X2926518Y4028903D02*
X2940288D01*
X2926518Y4148973D02*
X2940288D01*
G54D16*
X3641903Y4318903D02*
Y4332903D01*
X3681903Y4230903D02*
Y4244903D01*
X3606903Y4230903D02*
Y4244903D01*
G54D17*
X3057483Y4447603D03*
X3293703D03*
X3136223D03*
X3214963D03*
X3039403Y3774903D03*
X2862203Y4106793D03*
Y3949313D03*
Y4028053D03*
Y4185533D03*
G54D18*
X3214563Y4130413D02*
Y4146153D01*
Y4303643D02*
Y4319383D01*
X3360233Y4130413D02*
Y4146153D01*
Y4303643D02*
Y4319383D01*
G54D19*
X3187993Y4220963D02*
Y4228843D01*
X3386813Y4220963D02*
Y4228843D01*
G54D20*
X3698803Y3846893D02*
G03X3715833Y3847623I8165J8530D01*
G03X3850733Y4132443I-428428J377274D01*
X3850723Y4132433D02*
G03X3839073Y4146163I-11662J1912D01*
X3821313Y4157973D02*
G03X3833123Y4146163I11810J0D01*
Y4303643D02*
G03X3821313Y4291833I0J-11810D01*
X3839073Y4303643D02*
G03X3850723Y4317363I-2J11808D01*
X3850733D02*
G03X3379863Y4788233I-563330J-92460D01*
Y4788223D02*
G03X3366143Y4776573I-1907J-11658D01*
X3354333Y4758813D02*
G03X3366143Y4770623I0J11810D01*
X3208663D02*
G03X3220473Y4758813I11810J0D01*
X3208663Y4776573D02*
G03X3194933Y4788223I-11809J-1D01*
X3194943Y4788233D02*
G03X2910123Y4653333I92456J-563332D01*
G03X2909393Y4636303I7810J-8865D01*
X2875993Y4602903D02*
G03X2909393Y4636303I16330J17070D01*
X2875993Y4602903D02*
G03X2858973Y4602173I-8160J-8530D01*
G03X2724073Y4317363I428427J-377277D01*
G03X2735723Y4303643I11658J-1907D01*
X2753483Y4291833D02*
G03X2741673Y4303643I-11810J0D01*
Y4146163D02*
G03X2753483Y4157973I0J11810D01*
X2735723Y4146163D02*
G03X2724073Y4132433I1J-11809D01*
Y4132443D02*
G03X3194943Y3661573I563330J92460D01*
X3194933D02*
G03X3208663Y3673223I1912J11662D01*
X3220473Y3690983D02*
G03X3208663Y3679173I0J-11810D01*
X3366143D02*
G03X3354333Y3690983I-11810J0D01*
X3366143Y3673223D02*
G03X3379863Y3661573I11808J2D01*
G03X3664673Y3796473I-92467J563327D01*
G03X3665403Y3813493I-7810J8861D01*
X3698803Y3846893D02*
G03X3665403Y3813493I-16330J-17070D01*
X3833123Y4146163D02*
G01X3839073D01*
X3821313Y4157973D02*
Y4291833D01*
X3833123Y4303643D02*
X3839073D01*
X3366143Y4770623D02*
Y4776573D01*
X3220473Y4758813D02*
X3354333D01*
X3208663Y4770623D02*
Y4776573D01*
X2735723Y4303643D02*
X2741673D01*
X2753483Y4157973D02*
Y4291833D01*
X2735723Y4146163D02*
X2741673D01*
X3208663Y3673223D02*
Y3679173D01*
X3220473Y3690983D02*
X3354333D01*
X3366143Y3673223D02*
Y3679173D01*
G54D10*
X3129118Y5132375D02*
X3133048D01*
X3089738D02*
X3093668D01*
X3047748Y5164375D02*
X3051678D01*
X3087118D02*
X3091048D01*
X3097748Y5196375D02*
X3101678D01*
X3137118D02*
X3141048D01*
X3357748Y5203375D02*
X3361678D01*
X3397118D02*
X3401048D01*
X3674248Y5414505D02*
X3678178D01*
X3634878D02*
X3638808D01*
X3377888Y5150505D02*
X3381818D01*
X3417258D02*
X3421188D01*
X3261258Y5039505D02*
X3265188D01*
X3221888D02*
X3225818D01*
X3164118Y5065375D02*
X3168048D01*
X3124748D02*
X3128678D01*
X3089748Y5098375D02*
X3093678D01*
X3129118D02*
X3133048D01*
G54D11*
X3390033Y5046505D03*
X3325033D03*
G54D10*
X3376403Y5236040D02*
Y5239970D01*
Y5275410D02*
Y5279340D01*
X3736403Y5434090D02*
Y5438020D01*
Y5394720D02*
Y5398650D01*
Y5471720D02*
Y5475650D01*
Y5511090D02*
Y5515020D01*
X3723403Y5546720D02*
Y5550650D01*
Y5586090D02*
Y5590020D01*
X3623403Y5265720D02*
Y5269650D01*
Y5305090D02*
Y5309020D01*
Y5236090D02*
Y5240020D01*
Y5196720D02*
Y5200650D01*
X3539403Y5092720D02*
Y5096650D01*
Y5132090D02*
Y5136020D01*
X3472403Y5090720D02*
Y5094650D01*
Y5130090D02*
Y5134020D01*
X3506403Y5092720D02*
Y5096650D01*
Y5132090D02*
Y5136020D01*
X3166533Y5096860D02*
Y5100790D01*
Y5136220D02*
Y5140150D01*
G36*
X3476303Y5660195D02*
X3493003Y5676895D01*
X3506923Y5662975D01*
X3490223Y5646275D01*
X3476303Y5660195D01*
G37*
G36*
X3504143Y5688035D02*
X3520843Y5704735D01*
X3534763Y5690815D01*
X3518063Y5674115D01*
X3504143Y5688035D01*
G37*
G36*
X3528143Y5664035D02*
X3544843Y5680735D01*
X3558763Y5666815D01*
X3542063Y5650115D01*
X3528143Y5664035D01*
G37*
G36*
X3500303Y5636195D02*
X3517003Y5652895D01*
X3530923Y5638975D01*
X3514223Y5622275D01*
X3500303Y5636195D01*
G37*
G36*
X3524303Y5613195D02*
X3541003Y5629895D01*
X3554923Y5615975D01*
X3538223Y5599275D01*
X3524303Y5613195D01*
G37*
G36*
X3552143Y5641035D02*
X3568843Y5657735D01*
X3582763Y5643815D01*
X3566063Y5627115D01*
X3552143Y5641035D01*
G37*
G36*
X3568003Y5605675D02*
X3584703Y5588975D01*
X3574963Y5579235D01*
X3558263Y5595935D01*
X3568003Y5605675D01*
G37*
G36*
X3586103Y5623775D02*
X3602803Y5607075D01*
X3593063Y5597335D01*
X3576363Y5614035D01*
X3586103Y5623775D01*
G37*
G54D12*
X3539453Y5338560D02*
Y5362190D01*
X3559143Y5186980D02*
Y5210610D01*
X3539453Y5186980D02*
Y5210610D01*
X3519773Y5186980D02*
Y5210610D01*
X3500083Y5186980D02*
Y5210610D01*
X3480403Y5186980D02*
Y5210610D01*
X3460713Y5186980D02*
Y5210610D01*
Y5338560D02*
Y5362190D01*
X3480403Y5338560D02*
Y5362190D01*
X3500083Y5338560D02*
Y5362190D01*
X3519773Y5338560D02*
Y5362190D01*
X3559143Y5338560D02*
Y5362190D01*
X3422328Y5225375D02*
X3445958D01*
X3422328Y5245055D02*
X3445958D01*
X3422328Y5264745D02*
X3445958D01*
X3422328Y5284425D02*
X3445958D01*
X3422328Y5304115D02*
X3445958D01*
X3422328Y5323795D02*
X3445958D01*
X3573898D02*
X3597528D01*
X3573898Y5304115D02*
X3597528D01*
X3573898Y5284425D02*
X3597528D01*
X3573898Y5264745D02*
X3597528D01*
X3573898Y5245055D02*
X3597528D01*
X3573898Y5225375D02*
X3597528D01*
G54D13*
X3509923Y5274585D03*
G54D14*
X3317113Y5235950D02*
Y5245800D01*
Y5298940D02*
Y5308790D01*
X3281683Y5298940D02*
Y5308790D01*
Y5235950D02*
Y5245800D01*
X3126683Y5503940D02*
Y5513790D01*
Y5566930D02*
Y5576780D01*
X3162113Y5566930D02*
Y5576780D01*
Y5503940D02*
Y5513790D01*
X3449123Y5512960D02*
Y5522810D01*
Y5575950D02*
Y5585800D01*
X3413693Y5575950D02*
Y5585800D01*
Y5512960D02*
Y5522810D01*
G36*
X3418883Y5646175D02*
X3363203Y5701855D01*
X3402183Y5740835D01*
X3457863Y5685155D01*
X3418883Y5646175D01*
G37*
G36*
X3541373Y5768665D02*
X3485693Y5824345D01*
X3524673Y5863325D01*
X3580353Y5807645D01*
X3541373Y5768665D01*
G37*
G54D15*
X2926518Y5249375D02*
X2940288D01*
X2926518Y5369445D02*
X2940288D01*
G54D16*
X3641903Y5539375D02*
Y5553375D01*
X3681903Y5451375D02*
Y5465375D01*
X3606903Y5451375D02*
Y5465375D01*
G54D17*
X3057483Y5668075D03*
X3293703D03*
X3136223D03*
X3214963D03*
X3039403Y4995375D03*
X2862203Y5327265D03*
Y5169785D03*
Y5248525D03*
Y5406005D03*
G54D18*
X3214563Y5350885D02*
Y5366625D01*
Y5524115D02*
Y5539855D01*
X3360233Y5350885D02*
Y5366625D01*
Y5524115D02*
Y5539855D01*
G54D19*
X3187993Y5441435D02*
Y5449315D01*
X3386813Y5441435D02*
Y5449315D01*
G54D20*
X3698803Y5067365D02*
G03X3715833Y5068095I8165J8530D01*
G03X3850733Y5352915I-428428J377274D01*
X3850723Y5352905D02*
G03X3839073Y5366635I-11662J1912D01*
X3821313Y5378445D02*
G03X3833123Y5366635I11810J0D01*
Y5524115D02*
G03X3821313Y5512305I0J-11810D01*
X3839073Y5524115D02*
G03X3850723Y5537835I-2J11808D01*
X3850733D02*
G03X3379863Y6008705I-563330J-92460D01*
Y6008695D02*
G03X3366143Y5997045I-1907J-11658D01*
X3354333Y5979285D02*
G03X3366143Y5991095I0J11810D01*
X3208663D02*
G03X3220473Y5979285I11810J0D01*
X3208663Y5997045D02*
G03X3194933Y6008695I-11809J-1D01*
X3194943Y6008705D02*
G03X2910123Y5873805I92456J-563332D01*
G03X2909393Y5856775I7810J-8865D01*
X2875993Y5823375D02*
G03X2909393Y5856775I16330J17070D01*
X2875993Y5823375D02*
G03X2858973Y5822645I-8160J-8530D01*
G03X2724073Y5537835I428427J-377277D01*
G03X2735723Y5524115I11658J-1907D01*
X2753483Y5512305D02*
G03X2741673Y5524115I-11810J0D01*
Y5366635D02*
G03X2753483Y5378445I0J11810D01*
X2735723Y5366635D02*
G03X2724073Y5352905I1J-11809D01*
Y5352915D02*
G03X3194943Y4882045I563330J92460D01*
X3194933D02*
G03X3208663Y4893695I1912J11662D01*
X3220473Y4911455D02*
G03X3208663Y4899645I0J-11810D01*
X3366143D02*
G03X3354333Y4911455I-11810J0D01*
X3366143Y4893695D02*
G03X3379863Y4882045I11808J2D01*
G03X3664673Y5016945I-92467J563327D01*
G03X3665403Y5033965I-7810J8861D01*
X3698803Y5067365D02*
G03X3665403Y5033965I-16330J-17070D01*
X3833123Y5366635D02*
G01X3839073D01*
X3821313Y5378445D02*
Y5512305D01*
X3833123Y5524115D02*
X3839073D01*
X3366143Y5991095D02*
Y5997045D01*
X3220473Y5979285D02*
X3354333D01*
X3208663Y5991095D02*
Y5997045D01*
X2735723Y5524115D02*
X2741673D01*
X2753483Y5378445D02*
Y5512305D01*
X2735723Y5366635D02*
X2741673D01*
X3208663Y4893695D02*
Y4899645D01*
X3220473Y4911455D02*
X3354333D01*
X3366143Y4893695D02*
Y4899645D01*
G54D10*
X4349590Y250485D02*
X4353520D01*
X4310210D02*
X4314140D01*
X4268220Y282485D02*
X4272150D01*
X4307590D02*
X4311520D01*
X4318220Y314485D02*
X4322150D01*
X4357590D02*
X4361520D01*
X4578220Y321485D02*
X4582150D01*
X4617590D02*
X4621520D01*
X4894720Y532615D02*
X4898650D01*
X4855350D02*
X4859280D01*
X4598360Y268615D02*
X4602290D01*
X4637730D02*
X4641660D01*
X4481730Y157615D02*
X4485660D01*
X4442360D02*
X4446290D01*
X4384590Y183485D02*
X4388520D01*
X4345220D02*
X4349150D01*
X4310220Y216485D02*
X4314150D01*
X4349590D02*
X4353520D01*
G54D11*
X4610505Y164615D03*
X4545505D03*
G54D10*
X4596875Y354150D02*
Y358080D01*
Y393520D02*
Y397450D01*
X4956875Y552200D02*
Y556130D01*
Y512830D02*
Y516760D01*
Y589830D02*
Y593760D01*
Y629200D02*
Y633130D01*
X4943875Y664830D02*
Y668760D01*
Y704200D02*
Y708130D01*
X4843875Y383830D02*
Y387760D01*
Y423200D02*
Y427130D01*
Y354200D02*
Y358130D01*
Y314830D02*
Y318760D01*
X4759875Y210830D02*
Y214760D01*
Y250200D02*
Y254130D01*
X4692875Y208830D02*
Y212760D01*
Y248200D02*
Y252130D01*
X4726875Y210830D02*
Y214760D01*
Y250200D02*
Y254130D01*
X4387005Y214970D02*
Y218900D01*
Y254330D02*
Y258260D01*
G36*
X4696775Y778305D02*
X4713475Y795005D01*
X4727395Y781085D01*
X4710695Y764385D01*
X4696775Y778305D01*
G37*
G36*
X4724615Y806145D02*
X4741315Y822845D01*
X4755235Y808925D01*
X4738535Y792225D01*
X4724615Y806145D01*
G37*
G36*
X4748615Y782145D02*
X4765315Y798845D01*
X4779235Y784925D01*
X4762535Y768225D01*
X4748615Y782145D01*
G37*
G36*
X4720775Y754305D02*
X4737475Y771005D01*
X4751395Y757085D01*
X4734695Y740385D01*
X4720775Y754305D01*
G37*
G36*
X4744775Y731305D02*
X4761475Y748005D01*
X4775395Y734085D01*
X4758695Y717385D01*
X4744775Y731305D01*
G37*
G36*
X4772615Y759145D02*
X4789315Y775845D01*
X4803235Y761925D01*
X4786535Y745225D01*
X4772615Y759145D01*
G37*
G36*
X4788475Y723785D02*
X4805175Y707085D01*
X4795435Y697345D01*
X4778735Y714045D01*
X4788475Y723785D01*
G37*
G36*
X4806575Y741885D02*
X4823275Y725185D01*
X4813535Y715445D01*
X4796835Y732145D01*
X4806575Y741885D01*
G37*
G54D12*
X4759925Y456670D02*
Y480300D01*
X4779615Y305090D02*
Y328720D01*
X4759925Y305090D02*
Y328720D01*
X4740245Y305090D02*
Y328720D01*
X4720555Y305090D02*
Y328720D01*
X4700875Y305090D02*
Y328720D01*
X4681185Y305090D02*
Y328720D01*
Y456670D02*
Y480300D01*
X4700875Y456670D02*
Y480300D01*
X4720555Y456670D02*
Y480300D01*
X4740245Y456670D02*
Y480300D01*
X4779615Y456670D02*
Y480300D01*
X4642800Y343485D02*
X4666430D01*
X4642800Y363165D02*
X4666430D01*
X4642800Y382855D02*
X4666430D01*
X4642800Y402535D02*
X4666430D01*
X4642800Y422225D02*
X4666430D01*
X4642800Y441905D02*
X4666430D01*
X4794370D02*
X4818000D01*
X4794370Y422225D02*
X4818000D01*
X4794370Y402535D02*
X4818000D01*
X4794370Y382855D02*
X4818000D01*
X4794370Y363165D02*
X4818000D01*
X4794370Y343485D02*
X4818000D01*
G54D13*
X4730395Y392695D03*
G54D14*
X4537585Y354060D02*
Y363910D01*
Y417050D02*
Y426900D01*
X4502155Y417050D02*
Y426900D01*
Y354060D02*
Y363910D01*
X4347155Y622050D02*
Y631900D01*
Y685040D02*
Y694890D01*
X4382585Y685040D02*
Y694890D01*
Y622050D02*
Y631900D01*
X4669595Y631070D02*
Y640920D01*
Y694060D02*
Y703910D01*
X4634165Y694060D02*
Y703910D01*
Y631070D02*
Y640920D01*
G36*
X4639355Y764285D02*
X4583675Y819965D01*
X4622655Y858945D01*
X4678335Y803265D01*
X4639355Y764285D01*
G37*
G36*
X4761845Y886775D02*
X4706165Y942455D01*
X4745145Y981435D01*
X4800825Y925755D01*
X4761845Y886775D01*
G37*
G54D15*
X4146990Y367485D02*
X4160760D01*
X4146990Y487555D02*
X4160760D01*
G54D16*
X4862375Y657485D02*
Y671485D01*
X4902375Y569485D02*
Y583485D01*
X4827375Y569485D02*
Y583485D01*
G54D17*
X4277955Y786185D03*
X4514175D03*
X4356695D03*
X4435435D03*
X4259875Y113485D03*
X4082675Y445375D03*
Y287895D03*
Y366635D03*
Y524115D03*
G54D18*
X4435035Y468995D02*
Y484735D01*
Y642225D02*
Y657965D01*
X4580705Y468995D02*
Y484735D01*
Y642225D02*
Y657965D01*
G54D19*
X4408465Y559545D02*
Y567425D01*
X4607285Y559545D02*
Y567425D01*
G54D20*
X4919275Y185475D02*
G03X4936305Y186205I8165J8530D01*
G03X5071205Y471025I-428428J377274D01*
X5071195Y471015D02*
G03X5059545Y484745I-11662J1912D01*
X5041785Y496555D02*
G03X5053595Y484745I11810J0D01*
Y642225D02*
G03X5041785Y630415I0J-11810D01*
X5059545Y642225D02*
G03X5071195Y655945I-2J11808D01*
X5071205D02*
G03X4600335Y1126815I-563330J-92460D01*
Y1126805D02*
G03X4586615Y1115155I-1907J-11658D01*
X4574805Y1097395D02*
G03X4586615Y1109205I0J11810D01*
X4429135D02*
G03X4440945Y1097395I11810J0D01*
X4429135Y1115155D02*
G03X4415405Y1126805I-11809J-1D01*
X4415415Y1126815D02*
G03X4130595Y991915I92456J-563332D01*
G03X4129865Y974885I7810J-8865D01*
X4096465Y941485D02*
G03X4129865Y974885I16330J17070D01*
X4096465Y941485D02*
G03X4079445Y940755I-8160J-8530D01*
G03X3944545Y655945I428427J-377277D01*
G03X3956195Y642225I11658J-1907D01*
X3973955Y630415D02*
G03X3962145Y642225I-11810J0D01*
Y484745D02*
G03X3973955Y496555I0J11810D01*
X3956195Y484745D02*
G03X3944545Y471015I1J-11809D01*
Y471025D02*
G03X4415415Y155I563330J92460D01*
X4415405D02*
G03X4429135Y11805I1912J11662D01*
X4440945Y29565D02*
G03X4429135Y17755I0J-11810D01*
X4586615D02*
G03X4574805Y29565I-11810J0D01*
X4586615Y11805D02*
G03X4600335Y155I11808J2D01*
G03X4885145Y135055I-92467J563327D01*
G03X4885875Y152075I-7810J8861D01*
X4919275Y185475D02*
G03X4885875Y152075I-16330J-17070D01*
X5053595Y484745D02*
G01X5059545D01*
X5041785Y496555D02*
Y630415D01*
X5053595Y642225D02*
X5059545D01*
X4586615Y1109205D02*
Y1115155D01*
X4440945Y1097395D02*
X4574805D01*
X4429135Y1109205D02*
Y1115155D01*
X3956195Y642225D02*
X3962145D01*
X3973955Y496555D02*
Y630415D01*
X3956195Y484745D02*
X3962145D01*
X4429135Y11805D02*
Y17755D01*
X4440945Y29565D02*
X4574805D01*
X4586615Y11805D02*
Y17755D01*
G54D10*
X4349590Y1470958D02*
X4353520D01*
X4310210D02*
X4314140D01*
X4268220Y1502958D02*
X4272150D01*
X4307590D02*
X4311520D01*
X4318220Y1534958D02*
X4322150D01*
X4357590D02*
X4361520D01*
X4578220Y1541958D02*
X4582150D01*
X4617590D02*
X4621520D01*
X4894720Y1753088D02*
X4898650D01*
X4855350D02*
X4859280D01*
X4598360Y1489088D02*
X4602290D01*
X4637730D02*
X4641660D01*
X4481730Y1378088D02*
X4485660D01*
X4442360D02*
X4446290D01*
X4384590Y1403958D02*
X4388520D01*
X4345220D02*
X4349150D01*
X4310220Y1436958D02*
X4314150D01*
X4349590D02*
X4353520D01*
G54D11*
X4610505Y1385088D03*
X4545505D03*
G54D10*
X4596875Y1574623D02*
Y1578553D01*
Y1613993D02*
Y1617923D01*
X4956875Y1772673D02*
Y1776603D01*
Y1733303D02*
Y1737233D01*
Y1810303D02*
Y1814233D01*
Y1849673D02*
Y1853603D01*
X4943875Y1885303D02*
Y1889233D01*
Y1924673D02*
Y1928603D01*
X4843875Y1604303D02*
Y1608233D01*
Y1643673D02*
Y1647603D01*
Y1574673D02*
Y1578603D01*
Y1535303D02*
Y1539233D01*
X4759875Y1431303D02*
Y1435233D01*
Y1470673D02*
Y1474603D01*
X4692875Y1429303D02*
Y1433233D01*
Y1468673D02*
Y1472603D01*
X4726875Y1431303D02*
Y1435233D01*
Y1470673D02*
Y1474603D01*
X4387005Y1435443D02*
Y1439373D01*
Y1474803D02*
Y1478733D01*
G36*
X4696775Y1998778D02*
X4713475Y2015478D01*
X4727395Y2001558D01*
X4710695Y1984858D01*
X4696775Y1998778D01*
G37*
G36*
X4724615Y2026618D02*
X4741315Y2043318D01*
X4755235Y2029398D01*
X4738535Y2012698D01*
X4724615Y2026618D01*
G37*
G36*
X4748615Y2002618D02*
X4765315Y2019318D01*
X4779235Y2005398D01*
X4762535Y1988698D01*
X4748615Y2002618D01*
G37*
G36*
X4720775Y1974778D02*
X4737475Y1991478D01*
X4751395Y1977558D01*
X4734695Y1960858D01*
X4720775Y1974778D01*
G37*
G36*
X4744775Y1951778D02*
X4761475Y1968478D01*
X4775395Y1954558D01*
X4758695Y1937858D01*
X4744775Y1951778D01*
G37*
G36*
X4772615Y1979618D02*
X4789315Y1996318D01*
X4803235Y1982398D01*
X4786535Y1965698D01*
X4772615Y1979618D01*
G37*
G36*
X4788475Y1944258D02*
X4805175Y1927558D01*
X4795435Y1917818D01*
X4778735Y1934518D01*
X4788475Y1944258D01*
G37*
G36*
X4806575Y1962358D02*
X4823275Y1945658D01*
X4813535Y1935918D01*
X4796835Y1952618D01*
X4806575Y1962358D01*
G37*
G54D12*
X4759925Y1677143D02*
Y1700773D01*
X4779615Y1525563D02*
Y1549193D01*
X4759925Y1525563D02*
Y1549193D01*
X4740245Y1525563D02*
Y1549193D01*
X4720555Y1525563D02*
Y1549193D01*
X4700875Y1525563D02*
Y1549193D01*
X4681185Y1525563D02*
Y1549193D01*
Y1677143D02*
Y1700773D01*
X4700875Y1677143D02*
Y1700773D01*
X4720555Y1677143D02*
Y1700773D01*
X4740245Y1677143D02*
Y1700773D01*
X4779615Y1677143D02*
Y1700773D01*
X4642800Y1563958D02*
X4666430D01*
X4642800Y1583638D02*
X4666430D01*
X4642800Y1603328D02*
X4666430D01*
X4642800Y1623008D02*
X4666430D01*
X4642800Y1642698D02*
X4666430D01*
X4642800Y1662378D02*
X4666430D01*
X4794370D02*
X4818000D01*
X4794370Y1642698D02*
X4818000D01*
X4794370Y1623008D02*
X4818000D01*
X4794370Y1603328D02*
X4818000D01*
X4794370Y1583638D02*
X4818000D01*
X4794370Y1563958D02*
X4818000D01*
G54D13*
X4730395Y1613168D03*
G54D14*
X4537585Y1574533D02*
Y1584383D01*
Y1637523D02*
Y1647373D01*
X4502155Y1637523D02*
Y1647373D01*
Y1574533D02*
Y1584383D01*
X4347155Y1842523D02*
Y1852373D01*
Y1905513D02*
Y1915363D01*
X4382585Y1905513D02*
Y1915363D01*
Y1842523D02*
Y1852373D01*
X4669595Y1851543D02*
Y1861393D01*
Y1914533D02*
Y1924383D01*
X4634165Y1914533D02*
Y1924383D01*
Y1851543D02*
Y1861393D01*
G36*
X4639355Y1984758D02*
X4583675Y2040438D01*
X4622655Y2079418D01*
X4678335Y2023738D01*
X4639355Y1984758D01*
G37*
G36*
X4761845Y2107248D02*
X4706165Y2162928D01*
X4745145Y2201908D01*
X4800825Y2146228D01*
X4761845Y2107248D01*
G37*
G54D15*
X4146990Y1587958D02*
X4160760D01*
X4146990Y1708028D02*
X4160760D01*
G54D16*
X4862375Y1877958D02*
Y1891958D01*
X4902375Y1789958D02*
Y1803958D01*
X4827375Y1789958D02*
Y1803958D01*
G54D17*
X4277955Y2006658D03*
X4514175D03*
X4356695D03*
X4435435D03*
X4259875Y1333958D03*
X4082675Y1665848D03*
Y1508368D03*
Y1587108D03*
Y1744588D03*
G54D18*
X4435035Y1689468D02*
Y1705208D01*
Y1862698D02*
Y1878438D01*
X4580705Y1689468D02*
Y1705208D01*
Y1862698D02*
Y1878438D01*
G54D19*
X4408465Y1780018D02*
Y1787898D01*
X4607285Y1780018D02*
Y1787898D01*
G54D20*
X4919275Y1405948D02*
G03X4936305Y1406678I8165J8530D01*
G03X5071205Y1691498I-428428J377274D01*
X5071195Y1691488D02*
G03X5059545Y1705218I-11662J1912D01*
X5041785Y1717028D02*
G03X5053595Y1705218I11810J0D01*
Y1862698D02*
G03X5041785Y1850888I0J-11810D01*
X5059545Y1862698D02*
G03X5071195Y1876418I-2J11808D01*
X5071205D02*
G03X4600335Y2347288I-563330J-92460D01*
Y2347278D02*
G03X4586615Y2335628I-1907J-11658D01*
X4574805Y2317868D02*
G03X4586615Y2329678I0J11810D01*
X4429135D02*
G03X4440945Y2317868I11810J0D01*
X4429135Y2335628D02*
G03X4415405Y2347278I-11809J-1D01*
X4415415Y2347288D02*
G03X4130595Y2212388I92456J-563332D01*
G03X4129865Y2195358I7810J-8865D01*
X4096465Y2161958D02*
G03X4129865Y2195358I16330J17070D01*
X4096465Y2161958D02*
G03X4079445Y2161228I-8160J-8530D01*
G03X3944545Y1876418I428427J-377277D01*
G03X3956195Y1862698I11658J-1907D01*
X3973955Y1850888D02*
G03X3962145Y1862698I-11810J0D01*
Y1705218D02*
G03X3973955Y1717028I0J11810D01*
X3956195Y1705218D02*
G03X3944545Y1691488I1J-11809D01*
Y1691498D02*
G03X4415415Y1220628I563330J92460D01*
X4415405D02*
G03X4429135Y1232278I1912J11662D01*
X4440945Y1250038D02*
G03X4429135Y1238228I0J-11810D01*
X4586615D02*
G03X4574805Y1250038I-11810J0D01*
X4586615Y1232278D02*
G03X4600335Y1220628I11808J2D01*
G03X4885145Y1355528I-92467J563327D01*
G03X4885875Y1372548I-7810J8861D01*
X4919275Y1405948D02*
G03X4885875Y1372548I-16330J-17070D01*
X5053595Y1705218D02*
G01X5059545D01*
X5041785Y1717028D02*
Y1850888D01*
X5053595Y1862698D02*
X5059545D01*
X4586615Y2329678D02*
Y2335628D01*
X4440945Y2317868D02*
X4574805D01*
X4429135Y2329678D02*
Y2335628D01*
X3956195Y1862698D02*
X3962145D01*
X3973955Y1717028D02*
Y1850888D01*
X3956195Y1705218D02*
X3962145D01*
X4429135Y1232278D02*
Y1238228D01*
X4440945Y1250038D02*
X4574805D01*
X4586615Y1232278D02*
Y1238228D01*
G54D10*
X4349590Y2691430D02*
X4353520D01*
X4310210D02*
X4314140D01*
X4268220Y2723430D02*
X4272150D01*
X4307590D02*
X4311520D01*
X4318220Y2755430D02*
X4322150D01*
X4357590D02*
X4361520D01*
X4578220Y2762430D02*
X4582150D01*
X4617590D02*
X4621520D01*
X4894720Y2973560D02*
X4898650D01*
X4855350D02*
X4859280D01*
X4598360Y2709560D02*
X4602290D01*
X4637730D02*
X4641660D01*
X4481730Y2598560D02*
X4485660D01*
X4442360D02*
X4446290D01*
X4384590Y2624430D02*
X4388520D01*
X4345220D02*
X4349150D01*
X4310220Y2657430D02*
X4314150D01*
X4349590D02*
X4353520D01*
G54D11*
X4610505Y2605560D03*
X4545505D03*
G54D10*
X4596875Y2795095D02*
Y2799025D01*
Y2834465D02*
Y2838395D01*
X4956875Y2993145D02*
Y2997075D01*
Y2953775D02*
Y2957705D01*
Y3030775D02*
Y3034705D01*
Y3070145D02*
Y3074075D01*
X4943875Y3105775D02*
Y3109705D01*
Y3145145D02*
Y3149075D01*
X4843875Y2824775D02*
Y2828705D01*
Y2864145D02*
Y2868075D01*
Y2795145D02*
Y2799075D01*
Y2755775D02*
Y2759705D01*
X4759875Y2651775D02*
Y2655705D01*
Y2691145D02*
Y2695075D01*
X4692875Y2649775D02*
Y2653705D01*
Y2689145D02*
Y2693075D01*
X4726875Y2651775D02*
Y2655705D01*
Y2691145D02*
Y2695075D01*
X4387005Y2655915D02*
Y2659845D01*
Y2695275D02*
Y2699205D01*
G36*
X4696775Y3219250D02*
X4713475Y3235950D01*
X4727395Y3222030D01*
X4710695Y3205330D01*
X4696775Y3219250D01*
G37*
G36*
X4724615Y3247090D02*
X4741315Y3263790D01*
X4755235Y3249870D01*
X4738535Y3233170D01*
X4724615Y3247090D01*
G37*
G36*
X4748615Y3223090D02*
X4765315Y3239790D01*
X4779235Y3225870D01*
X4762535Y3209170D01*
X4748615Y3223090D01*
G37*
G36*
X4720775Y3195250D02*
X4737475Y3211950D01*
X4751395Y3198030D01*
X4734695Y3181330D01*
X4720775Y3195250D01*
G37*
G36*
X4744775Y3172250D02*
X4761475Y3188950D01*
X4775395Y3175030D01*
X4758695Y3158330D01*
X4744775Y3172250D01*
G37*
G36*
X4772615Y3200090D02*
X4789315Y3216790D01*
X4803235Y3202870D01*
X4786535Y3186170D01*
X4772615Y3200090D01*
G37*
G36*
X4788475Y3164730D02*
X4805175Y3148030D01*
X4795435Y3138290D01*
X4778735Y3154990D01*
X4788475Y3164730D01*
G37*
G36*
X4806575Y3182830D02*
X4823275Y3166130D01*
X4813535Y3156390D01*
X4796835Y3173090D01*
X4806575Y3182830D01*
G37*
G54D12*
X4759925Y2897615D02*
Y2921245D01*
X4779615Y2746035D02*
Y2769665D01*
X4759925Y2746035D02*
Y2769665D01*
X4740245Y2746035D02*
Y2769665D01*
X4720555Y2746035D02*
Y2769665D01*
X4700875Y2746035D02*
Y2769665D01*
X4681185Y2746035D02*
Y2769665D01*
Y2897615D02*
Y2921245D01*
X4700875Y2897615D02*
Y2921245D01*
X4720555Y2897615D02*
Y2921245D01*
X4740245Y2897615D02*
Y2921245D01*
X4779615Y2897615D02*
Y2921245D01*
X4642800Y2784430D02*
X4666430D01*
X4642800Y2804110D02*
X4666430D01*
X4642800Y2823800D02*
X4666430D01*
X4642800Y2843480D02*
X4666430D01*
X4642800Y2863170D02*
X4666430D01*
X4642800Y2882850D02*
X4666430D01*
X4794370D02*
X4818000D01*
X4794370Y2863170D02*
X4818000D01*
X4794370Y2843480D02*
X4818000D01*
X4794370Y2823800D02*
X4818000D01*
X4794370Y2804110D02*
X4818000D01*
X4794370Y2784430D02*
X4818000D01*
G54D13*
X4730395Y2833640D03*
G54D14*
X4537585Y2795005D02*
Y2804855D01*
Y2857995D02*
Y2867845D01*
X4502155Y2857995D02*
Y2867845D01*
Y2795005D02*
Y2804855D01*
X4347155Y3062995D02*
Y3072845D01*
Y3125985D02*
Y3135835D01*
X4382585Y3125985D02*
Y3135835D01*
Y3062995D02*
Y3072845D01*
X4669595Y3072015D02*
Y3081865D01*
Y3135005D02*
Y3144855D01*
X4634165Y3135005D02*
Y3144855D01*
Y3072015D02*
Y3081865D01*
G36*
X4639355Y3205230D02*
X4583675Y3260910D01*
X4622655Y3299890D01*
X4678335Y3244210D01*
X4639355Y3205230D01*
G37*
G36*
X4761845Y3327720D02*
X4706165Y3383400D01*
X4745145Y3422380D01*
X4800825Y3366700D01*
X4761845Y3327720D01*
G37*
G54D15*
X4146990Y2808430D02*
X4160760D01*
X4146990Y2928500D02*
X4160760D01*
G54D16*
X4862375Y3098430D02*
Y3112430D01*
X4902375Y3010430D02*
Y3024430D01*
X4827375Y3010430D02*
Y3024430D01*
G54D17*
X4277955Y3227130D03*
X4514175D03*
X4356695D03*
X4435435D03*
X4259875Y2554430D03*
X4082675Y2886320D03*
Y2728840D03*
Y2807580D03*
Y2965060D03*
G54D18*
X4435035Y2909940D02*
Y2925680D01*
Y3083170D02*
Y3098910D01*
X4580705Y2909940D02*
Y2925680D01*
Y3083170D02*
Y3098910D01*
G54D19*
X4408465Y3000490D02*
Y3008370D01*
X4607285Y3000490D02*
Y3008370D01*
G54D20*
X4919275Y2626420D02*
G03X4936305Y2627150I8165J8530D01*
G03X5071205Y2911970I-428428J377274D01*
X5071195Y2911960D02*
G03X5059545Y2925690I-11662J1912D01*
X5041785Y2937500D02*
G03X5053595Y2925690I11810J0D01*
Y3083170D02*
G03X5041785Y3071360I0J-11810D01*
X5059545Y3083170D02*
G03X5071195Y3096890I-2J11808D01*
X5071205D02*
G03X4600335Y3567760I-563330J-92460D01*
Y3567750D02*
G03X4586615Y3556100I-1907J-11658D01*
X4574805Y3538340D02*
G03X4586615Y3550150I0J11810D01*
X4429135D02*
G03X4440945Y3538340I11810J0D01*
X4429135Y3556100D02*
G03X4415405Y3567750I-11809J-1D01*
X4415415Y3567760D02*
G03X4130595Y3432860I92456J-563332D01*
G03X4129865Y3415830I7810J-8865D01*
X4096465Y3382430D02*
G03X4129865Y3415830I16330J17070D01*
X4096465Y3382430D02*
G03X4079445Y3381700I-8160J-8530D01*
G03X3944545Y3096890I428427J-377277D01*
G03X3956195Y3083170I11658J-1907D01*
X3973955Y3071360D02*
G03X3962145Y3083170I-11810J0D01*
Y2925690D02*
G03X3973955Y2937500I0J11810D01*
X3956195Y2925690D02*
G03X3944545Y2911960I1J-11809D01*
Y2911970D02*
G03X4415415Y2441100I563330J92460D01*
X4415405D02*
G03X4429135Y2452750I1912J11662D01*
X4440945Y2470510D02*
G03X4429135Y2458700I0J-11810D01*
X4586615D02*
G03X4574805Y2470510I-11810J0D01*
X4586615Y2452750D02*
G03X4600335Y2441100I11808J2D01*
G03X4885145Y2576000I-92467J563327D01*
G03X4885875Y2593020I-7810J8861D01*
X4919275Y2626420D02*
G03X4885875Y2593020I-16330J-17070D01*
X5053595Y2925690D02*
G01X5059545D01*
X5041785Y2937500D02*
Y3071360D01*
X5053595Y3083170D02*
X5059545D01*
X4586615Y3550150D02*
Y3556100D01*
X4440945Y3538340D02*
X4574805D01*
X4429135Y3550150D02*
Y3556100D01*
X3956195Y3083170D02*
X3962145D01*
X3973955Y2937500D02*
Y3071360D01*
X3956195Y2925690D02*
X3962145D01*
X4429135Y2452750D02*
Y2458700D01*
X4440945Y2470510D02*
X4574805D01*
X4586615Y2452750D02*
Y2458700D01*
G54D10*
X4349590Y3911903D02*
X4353520D01*
X4310210D02*
X4314140D01*
X4268220Y3943903D02*
X4272150D01*
X4307590D02*
X4311520D01*
X4318220Y3975903D02*
X4322150D01*
X4357590D02*
X4361520D01*
X4578220Y3982903D02*
X4582150D01*
X4617590D02*
X4621520D01*
X4894720Y4194033D02*
X4898650D01*
X4855350D02*
X4859280D01*
X4598360Y3930033D02*
X4602290D01*
X4637730D02*
X4641660D01*
X4481730Y3819033D02*
X4485660D01*
X4442360D02*
X4446290D01*
X4384590Y3844903D02*
X4388520D01*
X4345220D02*
X4349150D01*
X4310220Y3877903D02*
X4314150D01*
X4349590D02*
X4353520D01*
G54D11*
X4610505Y3826033D03*
X4545505D03*
G54D10*
X4596875Y4015568D02*
Y4019498D01*
Y4054938D02*
Y4058868D01*
X4956875Y4213618D02*
Y4217548D01*
Y4174248D02*
Y4178178D01*
Y4251248D02*
Y4255178D01*
Y4290618D02*
Y4294548D01*
X4943875Y4326248D02*
Y4330178D01*
Y4365618D02*
Y4369548D01*
X4843875Y4045248D02*
Y4049178D01*
Y4084618D02*
Y4088548D01*
Y4015618D02*
Y4019548D01*
Y3976248D02*
Y3980178D01*
X4759875Y3872248D02*
Y3876178D01*
Y3911618D02*
Y3915548D01*
X4692875Y3870248D02*
Y3874178D01*
Y3909618D02*
Y3913548D01*
X4726875Y3872248D02*
Y3876178D01*
Y3911618D02*
Y3915548D01*
X4387005Y3876388D02*
Y3880318D01*
Y3915748D02*
Y3919678D01*
G36*
X4696775Y4439723D02*
X4713475Y4456423D01*
X4727395Y4442503D01*
X4710695Y4425803D01*
X4696775Y4439723D01*
G37*
G36*
X4724615Y4467563D02*
X4741315Y4484263D01*
X4755235Y4470343D01*
X4738535Y4453643D01*
X4724615Y4467563D01*
G37*
G36*
X4748615Y4443563D02*
X4765315Y4460263D01*
X4779235Y4446343D01*
X4762535Y4429643D01*
X4748615Y4443563D01*
G37*
G36*
X4720775Y4415723D02*
X4737475Y4432423D01*
X4751395Y4418503D01*
X4734695Y4401803D01*
X4720775Y4415723D01*
G37*
G36*
X4744775Y4392723D02*
X4761475Y4409423D01*
X4775395Y4395503D01*
X4758695Y4378803D01*
X4744775Y4392723D01*
G37*
G36*
X4772615Y4420563D02*
X4789315Y4437263D01*
X4803235Y4423343D01*
X4786535Y4406643D01*
X4772615Y4420563D01*
G37*
G36*
X4788475Y4385203D02*
X4805175Y4368503D01*
X4795435Y4358763D01*
X4778735Y4375463D01*
X4788475Y4385203D01*
G37*
G36*
X4806575Y4403303D02*
X4823275Y4386603D01*
X4813535Y4376863D01*
X4796835Y4393563D01*
X4806575Y4403303D01*
G37*
G54D12*
X4759925Y4118088D02*
Y4141718D01*
X4779615Y3966508D02*
Y3990138D01*
X4759925Y3966508D02*
Y3990138D01*
X4740245Y3966508D02*
Y3990138D01*
X4720555Y3966508D02*
Y3990138D01*
X4700875Y3966508D02*
Y3990138D01*
X4681185Y3966508D02*
Y3990138D01*
Y4118088D02*
Y4141718D01*
X4700875Y4118088D02*
Y4141718D01*
X4720555Y4118088D02*
Y4141718D01*
X4740245Y4118088D02*
Y4141718D01*
X4779615Y4118088D02*
Y4141718D01*
X4642800Y4004903D02*
X4666430D01*
X4642800Y4024583D02*
X4666430D01*
X4642800Y4044273D02*
X4666430D01*
X4642800Y4063953D02*
X4666430D01*
X4642800Y4083643D02*
X4666430D01*
X4642800Y4103323D02*
X4666430D01*
X4794370D02*
X4818000D01*
X4794370Y4083643D02*
X4818000D01*
X4794370Y4063953D02*
X4818000D01*
X4794370Y4044273D02*
X4818000D01*
X4794370Y4024583D02*
X4818000D01*
X4794370Y4004903D02*
X4818000D01*
G54D13*
X4730395Y4054113D03*
G54D14*
X4537585Y4015478D02*
Y4025328D01*
Y4078468D02*
Y4088318D01*
X4502155Y4078468D02*
Y4088318D01*
Y4015478D02*
Y4025328D01*
X4347155Y4283468D02*
Y4293318D01*
Y4346458D02*
Y4356308D01*
X4382585Y4346458D02*
Y4356308D01*
Y4283468D02*
Y4293318D01*
X4669595Y4292488D02*
Y4302338D01*
Y4355478D02*
Y4365328D01*
X4634165Y4355478D02*
Y4365328D01*
Y4292488D02*
Y4302338D01*
G36*
X4639355Y4425703D02*
X4583675Y4481383D01*
X4622655Y4520363D01*
X4678335Y4464683D01*
X4639355Y4425703D01*
G37*
G36*
X4761845Y4548193D02*
X4706165Y4603873D01*
X4745145Y4642853D01*
X4800825Y4587173D01*
X4761845Y4548193D01*
G37*
G54D15*
X4146990Y4028903D02*
X4160760D01*
X4146990Y4148973D02*
X4160760D01*
G54D16*
X4862375Y4318903D02*
Y4332903D01*
X4902375Y4230903D02*
Y4244903D01*
X4827375Y4230903D02*
Y4244903D01*
G54D17*
X4277955Y4447603D03*
X4514175D03*
X4356695D03*
X4435435D03*
X4259875Y3774903D03*
X4082675Y4106793D03*
Y3949313D03*
Y4028053D03*
Y4185533D03*
G54D18*
X4435035Y4130413D02*
Y4146153D01*
Y4303643D02*
Y4319383D01*
X4580705Y4130413D02*
Y4146153D01*
Y4303643D02*
Y4319383D01*
G54D19*
X4408465Y4220963D02*
Y4228843D01*
X4607285Y4220963D02*
Y4228843D01*
G54D20*
X4919275Y3846893D02*
G03X4936305Y3847623I8165J8530D01*
G03X5071205Y4132443I-428428J377274D01*
X5071195Y4132433D02*
G03X5059545Y4146163I-11662J1912D01*
X5041785Y4157973D02*
G03X5053595Y4146163I11810J0D01*
Y4303643D02*
G03X5041785Y4291833I0J-11810D01*
X5059545Y4303643D02*
G03X5071195Y4317363I-2J11808D01*
X5071205D02*
G03X4600335Y4788233I-563330J-92460D01*
Y4788223D02*
G03X4586615Y4776573I-1907J-11658D01*
X4574805Y4758813D02*
G03X4586615Y4770623I0J11810D01*
X4429135D02*
G03X4440945Y4758813I11810J0D01*
X4429135Y4776573D02*
G03X4415405Y4788223I-11809J-1D01*
X4415415Y4788233D02*
G03X4130595Y4653333I92456J-563332D01*
G03X4129865Y4636303I7810J-8865D01*
X4096465Y4602903D02*
G03X4129865Y4636303I16330J17070D01*
X4096465Y4602903D02*
G03X4079445Y4602173I-8160J-8530D01*
G03X3944545Y4317363I428427J-377277D01*
G03X3956195Y4303643I11658J-1907D01*
X3973955Y4291833D02*
G03X3962145Y4303643I-11810J0D01*
Y4146163D02*
G03X3973955Y4157973I0J11810D01*
X3956195Y4146163D02*
G03X3944545Y4132433I1J-11809D01*
Y4132443D02*
G03X4415415Y3661573I563330J92460D01*
X4415405D02*
G03X4429135Y3673223I1912J11662D01*
X4440945Y3690983D02*
G03X4429135Y3679173I0J-11810D01*
X4586615D02*
G03X4574805Y3690983I-11810J0D01*
X4586615Y3673223D02*
G03X4600335Y3661573I11808J2D01*
G03X4885145Y3796473I-92467J563327D01*
G03X4885875Y3813493I-7810J8861D01*
X4919275Y3846893D02*
G03X4885875Y3813493I-16330J-17070D01*
X5053595Y4146163D02*
G01X5059545D01*
X5041785Y4157973D02*
Y4291833D01*
X5053595Y4303643D02*
X5059545D01*
X4586615Y4770623D02*
Y4776573D01*
X4440945Y4758813D02*
X4574805D01*
X4429135Y4770623D02*
Y4776573D01*
X3956195Y4303643D02*
X3962145D01*
X3973955Y4157973D02*
Y4291833D01*
X3956195Y4146163D02*
X3962145D01*
X4429135Y3673223D02*
Y3679173D01*
X4440945Y3690983D02*
X4574805D01*
X4586615Y3673223D02*
Y3679173D01*
G54D10*
X4349590Y5132375D02*
X4353520D01*
X4310210D02*
X4314140D01*
X4268220Y5164375D02*
X4272150D01*
X4307590D02*
X4311520D01*
X4318220Y5196375D02*
X4322150D01*
X4357590D02*
X4361520D01*
X4578220Y5203375D02*
X4582150D01*
X4617590D02*
X4621520D01*
X4894720Y5414505D02*
X4898650D01*
X4855350D02*
X4859280D01*
X4598360Y5150505D02*
X4602290D01*
X4637730D02*
X4641660D01*
X4481730Y5039505D02*
X4485660D01*
X4442360D02*
X4446290D01*
X4384590Y5065375D02*
X4388520D01*
X4345220D02*
X4349150D01*
X4310220Y5098375D02*
X4314150D01*
X4349590D02*
X4353520D01*
G54D11*
X4610505Y5046505D03*
X4545505D03*
G54D10*
X4596875Y5236040D02*
Y5239970D01*
Y5275410D02*
Y5279340D01*
X4956875Y5434090D02*
Y5438020D01*
Y5394720D02*
Y5398650D01*
Y5471720D02*
Y5475650D01*
Y5511090D02*
Y5515020D01*
X4943875Y5546720D02*
Y5550650D01*
Y5586090D02*
Y5590020D01*
X4843875Y5265720D02*
Y5269650D01*
Y5305090D02*
Y5309020D01*
Y5236090D02*
Y5240020D01*
Y5196720D02*
Y5200650D01*
X4759875Y5092720D02*
Y5096650D01*
Y5132090D02*
Y5136020D01*
X4692875Y5090720D02*
Y5094650D01*
Y5130090D02*
Y5134020D01*
X4726875Y5092720D02*
Y5096650D01*
Y5132090D02*
Y5136020D01*
X4387005Y5096860D02*
Y5100790D01*
Y5136220D02*
Y5140150D01*
G36*
X4696775Y5660195D02*
X4713475Y5676895D01*
X4727395Y5662975D01*
X4710695Y5646275D01*
X4696775Y5660195D01*
G37*
G36*
X4724615Y5688035D02*
X4741315Y5704735D01*
X4755235Y5690815D01*
X4738535Y5674115D01*
X4724615Y5688035D01*
G37*
G36*
X4748615Y5664035D02*
X4765315Y5680735D01*
X4779235Y5666815D01*
X4762535Y5650115D01*
X4748615Y5664035D01*
G37*
G36*
X4720775Y5636195D02*
X4737475Y5652895D01*
X4751395Y5638975D01*
X4734695Y5622275D01*
X4720775Y5636195D01*
G37*
G36*
X4744775Y5613195D02*
X4761475Y5629895D01*
X4775395Y5615975D01*
X4758695Y5599275D01*
X4744775Y5613195D01*
G37*
G36*
X4772615Y5641035D02*
X4789315Y5657735D01*
X4803235Y5643815D01*
X4786535Y5627115D01*
X4772615Y5641035D01*
G37*
G36*
X4788475Y5605675D02*
X4805175Y5588975D01*
X4795435Y5579235D01*
X4778735Y5595935D01*
X4788475Y5605675D01*
G37*
G36*
X4806575Y5623775D02*
X4823275Y5607075D01*
X4813535Y5597335D01*
X4796835Y5614035D01*
X4806575Y5623775D01*
G37*
G54D12*
X4759925Y5338560D02*
Y5362190D01*
X4779615Y5186980D02*
Y5210610D01*
X4759925Y5186980D02*
Y5210610D01*
X4740245Y5186980D02*
Y5210610D01*
X4720555Y5186980D02*
Y5210610D01*
X4700875Y5186980D02*
Y5210610D01*
X4681185Y5186980D02*
Y5210610D01*
Y5338560D02*
Y5362190D01*
X4700875Y5338560D02*
Y5362190D01*
X4720555Y5338560D02*
Y5362190D01*
X4740245Y5338560D02*
Y5362190D01*
X4779615Y5338560D02*
Y5362190D01*
X4642800Y5225375D02*
X4666430D01*
X4642800Y5245055D02*
X4666430D01*
X4642800Y5264745D02*
X4666430D01*
X4642800Y5284425D02*
X4666430D01*
X4642800Y5304115D02*
X4666430D01*
X4642800Y5323795D02*
X4666430D01*
X4794370D02*
X4818000D01*
X4794370Y5304115D02*
X4818000D01*
X4794370Y5284425D02*
X4818000D01*
X4794370Y5264745D02*
X4818000D01*
X4794370Y5245055D02*
X4818000D01*
X4794370Y5225375D02*
X4818000D01*
G54D13*
X4730395Y5274585D03*
G54D14*
X4537585Y5235950D02*
Y5245800D01*
Y5298940D02*
Y5308790D01*
X4502155Y5298940D02*
Y5308790D01*
Y5235950D02*
Y5245800D01*
X4347155Y5503940D02*
Y5513790D01*
Y5566930D02*
Y5576780D01*
X4382585Y5566930D02*
Y5576780D01*
Y5503940D02*
Y5513790D01*
X4669595Y5512960D02*
Y5522810D01*
Y5575950D02*
Y5585800D01*
X4634165Y5575950D02*
Y5585800D01*
Y5512960D02*
Y5522810D01*
G36*
X4639355Y5646175D02*
X4583675Y5701855D01*
X4622655Y5740835D01*
X4678335Y5685155D01*
X4639355Y5646175D01*
G37*
G36*
X4761845Y5768665D02*
X4706165Y5824345D01*
X4745145Y5863325D01*
X4800825Y5807645D01*
X4761845Y5768665D01*
G37*
G54D15*
X4146990Y5249375D02*
X4160760D01*
X4146990Y5369445D02*
X4160760D01*
G54D16*
X4862375Y5539375D02*
Y5553375D01*
X4902375Y5451375D02*
Y5465375D01*
X4827375Y5451375D02*
Y5465375D01*
G54D17*
X4277955Y5668075D03*
X4514175D03*
X4356695D03*
X4435435D03*
X4259875Y4995375D03*
X4082675Y5327265D03*
Y5169785D03*
Y5248525D03*
Y5406005D03*
G54D18*
X4435035Y5350885D02*
Y5366625D01*
Y5524115D02*
Y5539855D01*
X4580705Y5350885D02*
Y5366625D01*
Y5524115D02*
Y5539855D01*
G54D19*
X4408465Y5441435D02*
Y5449315D01*
X4607285Y5441435D02*
Y5449315D01*
G54D20*
X4919275Y5067365D02*
G03X4936305Y5068095I8165J8530D01*
G03X5071205Y5352915I-428428J377274D01*
X5071195Y5352905D02*
G03X5059545Y5366635I-11662J1912D01*
X5041785Y5378445D02*
G03X5053595Y5366635I11810J0D01*
Y5524115D02*
G03X5041785Y5512305I0J-11810D01*
X5059545Y5524115D02*
G03X5071195Y5537835I-2J11808D01*
X5071205D02*
G03X4600335Y6008705I-563330J-92460D01*
Y6008695D02*
G03X4586615Y5997045I-1907J-11658D01*
X4574805Y5979285D02*
G03X4586615Y5991095I0J11810D01*
X4429135D02*
G03X4440945Y5979285I11810J0D01*
X4429135Y5997045D02*
G03X4415405Y6008695I-11809J-1D01*
X4415415Y6008705D02*
G03X4130595Y5873805I92456J-563332D01*
G03X4129865Y5856775I7810J-8865D01*
X4096465Y5823375D02*
G03X4129865Y5856775I16330J17070D01*
X4096465Y5823375D02*
G03X4079445Y5822645I-8160J-8530D01*
G03X3944545Y5537835I428427J-377277D01*
G03X3956195Y5524115I11658J-1907D01*
X3973955Y5512305D02*
G03X3962145Y5524115I-11810J0D01*
Y5366635D02*
G03X3973955Y5378445I0J11810D01*
X3956195Y5366635D02*
G03X3944545Y5352905I1J-11809D01*
Y5352915D02*
G03X4415415Y4882045I563330J92460D01*
X4415405D02*
G03X4429135Y4893695I1912J11662D01*
X4440945Y4911455D02*
G03X4429135Y4899645I0J-11810D01*
X4586615D02*
G03X4574805Y4911455I-11810J0D01*
X4586615Y4893695D02*
G03X4600335Y4882045I11808J2D01*
G03X4885145Y5016945I-92467J563327D01*
G03X4885875Y5033965I-7810J8861D01*
X4919275Y5067365D02*
G03X4885875Y5033965I-16330J-17070D01*
X5053595Y5366635D02*
G01X5059545D01*
X5041785Y5378445D02*
Y5512305D01*
X5053595Y5524115D02*
X5059545D01*
X4586615Y5991095D02*
Y5997045D01*
X4440945Y5979285D02*
X4574805D01*
X4429135Y5991095D02*
Y5997045D01*
X3956195Y5524115D02*
X3962145D01*
X3973955Y5378445D02*
Y5512305D01*
X3956195Y5366635D02*
X3962145D01*
X4429135Y4893695D02*
Y4899645D01*
X4440945Y4911455D02*
X4574805D01*
X4586615Y4893695D02*
Y4899645D01*
G54D21*
X256700Y1511606D02*
G03X326212Y1548942I34756J18667D01*
X450778Y1372465D02*
G03X392319Y1319470I-29229J-26497D01*
X209077Y1909398D02*
G03X256700Y1511606I637381J-125440D01*
X1391413Y1613924D02*
G03X1453724Y1569554I36767J-14305D01*
X1353535Y1377930D02*
G03X1289085Y1423450I-32225J22760D01*
X1333983Y1354652D02*
G01X1353535Y1377930D01*
X1300667Y2129765D02*
G03X1366575Y2173146I32954J21691D01*
X1455891Y1982024D02*
G03X1396653Y1936191I-22025J-32731D01*
X296642Y1937551D02*
G03X222281Y1963940I-37180J13194D01*
X327232Y2174329D02*
G03X393039Y2130796I32904J-21766D01*
X358932Y2213263D02*
G01X327232Y2174330D01*
X392320Y1319470D02*
G03X545053Y1208506I454138J464487D01*
X1148024Y1208593D02*
G03X1275766Y1296434I-301570J575363D01*
G03X1299897Y1330514I-59847J67960D01*
Y1330515D02*
G03X1333983Y1354652I-33874J83973D01*
X1366575Y2173146D02*
G03X1148025Y2359325I-520118J-389189D01*
X544892Y2359322D02*
G03X358933Y2213263I301572J-575362D01*
X222283Y1963940D02*
G03X205433Y1889205I624173J-179992D01*
X1477172Y1511606D02*
G03X1546684Y1548942I34756J18667D01*
X1671250Y1372465D02*
G03X1612791Y1319470I-29229J-26497D01*
X1453726Y1569554D02*
G03X1477172Y1511606I613206J214399D01*
X2611886Y1613924D02*
G03X2674197Y1569554I36767J-14305D01*
X2574007Y1377930D02*
G03X2509557Y1423450I-32225J22760D01*
X2554456Y1354652D02*
G01X2574007Y1377930D01*
X2521140Y2129765D02*
G03X2587047Y2173146I32954J21691D01*
X2676363Y1982024D02*
G03X2617125Y1936191I-22025J-32731D01*
X1517114Y1937551D02*
G03X1455891Y1982024I-37180J13194D01*
X1547705Y2174329D02*
G03X1613512Y2130796I32904J-21766D01*
X1579405Y2213263D02*
G01X1547705Y2174330D01*
X1612793Y1319470D02*
G03X1765363Y1208591I454139J464486D01*
X2368496Y1208593D02*
G03X2496238Y1296434I-301570J575363D01*
G03X2520369Y1330514I-59847J67960D01*
Y1330515D02*
G03X2554456Y1354652I-33874J83973D01*
X2587047Y2173146D02*
G03X2368497Y2359325I-520118J-389189D01*
X1765364Y2359322D02*
G03X1579406Y2213263I301572J-575362D01*
X2697645Y1511606D02*
G03X2767157Y1548942I34756J18667D01*
X2891722Y1372465D02*
G03X2833264Y1319470I-29229J-26497D01*
X2674198Y1569554D02*
G03X2697645Y1511606I613206J214399D01*
X3832358Y1613924D02*
G03X3894669Y1569554I36767J-14305D01*
X3794480Y1377930D02*
G03X3730030Y1423450I-32225J22760D01*
X3774928Y1354652D02*
G01X3794480Y1377930D01*
X3741612Y2129765D02*
G03X3807520Y2173146I32954J21691D01*
X3896836Y1982024D02*
G03X3837598Y1936191I-22025J-32731D01*
X2737587Y1937551D02*
G03X2676363Y1982024I-37180J13194D01*
X2768177Y2174329D02*
G03X2833984Y2130796I32904J-21766D01*
X2799877Y2213263D02*
G01X2768177Y2174330D01*
X2833265Y1319470D02*
G03X2985836Y1208591I454139J464486D01*
X3588969Y1208593D02*
G03X3716711Y1296434I-301570J575363D01*
G03X3740842Y1330514I-59847J67960D01*
Y1330515D02*
G03X3774928Y1354652I-33874J83973D01*
X3807520Y2173146D02*
G03X3588970Y2359325I-520118J-389189D01*
X2985837Y2359322D02*
G03X2799878Y2213263I301572J-575362D01*
X256700Y2732079D02*
G03X326212Y2769414I34756J18667D01*
X450778Y2592937D02*
G03X392319Y2539943I-29229J-26497D01*
X209077Y3129871D02*
G03X256700Y2732079I637381J-125440D01*
X1391413Y2834396D02*
G03X1453724Y2790026I36767J-14305D01*
X1353535Y2598403D02*
G03X1289085Y2643922I-32225J22760D01*
X1333983Y2575125D02*
G01X1353535Y2598403D01*
X1300667Y3350237D02*
G03X1366575Y3393619I32954J21691D01*
X1455891Y3202496D02*
G03X1396653Y3156663I-22025J-32731D01*
X296642Y3158024D02*
G03X222281Y3184412I-37180J13194D01*
X327232Y3394801D02*
G03X393039Y3351269I32904J-21766D01*
X358932Y3433735D02*
G01X327232Y3394802D01*
X392320Y2539943D02*
G03X544891Y2429063I454139J464486D01*
X1148024Y2429066D02*
G03X1275766Y2516906I-301570J575363D01*
G03X1299897Y2550986I-59847J67960D01*
Y2550987D02*
G03X1333983Y2575125I-33874J83973D01*
X1366575Y3393619D02*
G03X1148025Y3579797I-520117J-389189D01*
X544892Y3579794D02*
G03X358933Y3433735I301572J-575362D01*
X222283Y3184412D02*
G03X205433Y3109677I624173J-179992D01*
X1477172Y2732079D02*
G03X1546684Y2769414I34756J18667D01*
X1671250Y2592937D02*
G03X1612791Y2539943I-29229J-26497D01*
X1453726Y2790026D02*
G03X1477172Y2732079I613206J214399D01*
X2611886Y2834396D02*
G03X2674197Y2790026I36767J-14305D01*
X2574007Y2598403D02*
G03X2509557Y2643922I-32225J22760D01*
X2554456Y2575125D02*
G01X2574007Y2598403D01*
X2521140Y3350237D02*
G03X2587047Y3393619I32954J21691D01*
X2676363Y3202496D02*
G03X2617125Y3156663I-22025J-32731D01*
X1517114Y3158024D02*
G03X1455891Y3202496I-37180J13194D01*
X1547705Y3394801D02*
G03X1613512Y3351269I32904J-21766D01*
X1579405Y3433735D02*
G01X1547705Y3394802D01*
X1612793Y2539943D02*
G03X1765363Y2429063I454139J464486D01*
X2368496Y2429066D02*
G03X2496238Y2516906I-301570J575363D01*
G03X2520369Y2550986I-59847J67960D01*
Y2550987D02*
G03X2554456Y2575125I-33874J83973D01*
X2587047Y3393619D02*
G03X2368497Y3579797I-520117J-389189D01*
X1765364Y3579794D02*
G03X1579406Y3433735I301572J-575362D01*
X2697645Y2732079D02*
G03X2767157Y2769414I34756J18667D01*
X2891722Y2592937D02*
G03X2833264Y2539943I-29229J-26497D01*
X2674198Y2790026D02*
G03X2697645Y2732079I613206J214399D01*
X3832358Y2834396D02*
G03X3894669Y2790026I36767J-14305D01*
X3794480Y2598403D02*
G03X3730030Y2643922I-32225J22760D01*
X3774928Y2575125D02*
G01X3794480Y2598403D01*
X3741612Y3350237D02*
G03X3807520Y3393619I32954J21691D01*
X3896836Y3202496D02*
G03X3837598Y3156663I-22025J-32731D01*
X2737587Y3158024D02*
G03X2676363Y3202496I-37180J13194D01*
X2768177Y3394801D02*
G03X2833984Y3351269I32904J-21766D01*
X2799877Y3433735D02*
G01X2768177Y3394802D01*
X2833265Y2539943D02*
G03X2985836Y2429063I454139J464486D01*
X3588969Y2429066D02*
G03X3716711Y2516906I-301570J575363D01*
G03X3740842Y2550986I-59847J67960D01*
Y2550987D02*
G03X3774928Y2575125I-33874J83973D01*
X3807520Y3393619D02*
G03X3588970Y3579797I-520117J-389189D01*
X2985837Y3579794D02*
G03X2799878Y3433735I301572J-575362D01*
X256700Y3952551D02*
G03X326212Y3989887I34756J18667D01*
X450778Y3813409D02*
G03X392319Y3760415I-29229J-26497D01*
X209077Y4350344D02*
G03X256700Y3952551I637381J-125441D01*
X1391413Y4054869D02*
G03X1453724Y4010499I36766J-14305D01*
X1353535Y3818875D02*
G03X1289085Y3864395I-32225J22760D01*
X1333983Y3795598D02*
G01X1353535Y3818875D01*
X1300667Y4570710D02*
G03X1366575Y4614092I32954J21691D01*
X1455891Y4422969D02*
G03X1396653Y4377136I-22025J-32731D01*
X296642Y4378496D02*
G03X222281Y4404885I-37180J13194D01*
X327232Y4615274D02*
G03X393039Y4571741I32904J-21766D01*
X358932Y4654208D02*
G01X327232Y4615275D01*
X392320Y3760415D02*
G03X544891Y3649535I454139J464486D01*
X1148024Y3649539D02*
G03X1275766Y3737379I-301570J575363D01*
G03X1299897Y3771459I-59847J67960D01*
Y3771460D02*
G03X1333983Y3795598I-33874J83973D01*
X1366575Y4614092D02*
G03X1148025Y4800270I-520117J-389189D01*
X544892Y4800267D02*
G03X358933Y4654208I301571J-575363D01*
X222283Y4404885D02*
G03X205433Y4330150I624173J-179991D01*
X1477172Y3952551D02*
G03X1546684Y3989887I34756J18667D01*
X1671250Y3813409D02*
G03X1612791Y3760415I-29229J-26497D01*
X1453726Y4010499D02*
G03X1477172Y3952551I613207J214397D01*
X2611886Y4054869D02*
G03X2674197Y4010499I36766J-14305D01*
X2574007Y3818875D02*
G03X2509557Y3864395I-32225J22760D01*
X2554456Y3795598D02*
G01X2574007Y3818875D01*
X2521140Y4570710D02*
G03X2587047Y4614092I32954J21691D01*
X2676363Y4422969D02*
G03X2617125Y4377136I-22025J-32731D01*
X1517114Y4378496D02*
G03X1455891Y4422969I-37180J13194D01*
X1547705Y4615274D02*
G03X1613512Y4571741I32904J-21766D01*
X1579405Y4654208D02*
G01X1547705Y4615275D01*
X1612793Y3760415D02*
G03X1765363Y3649535I454139J464486D01*
X2368496Y3649539D02*
G03X2496238Y3737379I-301570J575363D01*
G03X2520369Y3771459I-59847J67960D01*
Y3771460D02*
G03X2554456Y3795598I-33874J83973D01*
X2587047Y4614092D02*
G03X2368497Y4800270I-520117J-389189D01*
X1765364Y4800267D02*
G03X1579406Y4654208I301571J-575363D01*
X2697645Y3952551D02*
G03X2767157Y3989887I34756J18667D01*
X2891722Y3813409D02*
G03X2833264Y3760415I-29229J-26497D01*
X2674198Y4010499D02*
G03X2697645Y3952551I613207J214397D01*
X3832358Y4054869D02*
G03X3894669Y4010499I36766J-14305D01*
X3794480Y3818875D02*
G03X3730030Y3864395I-32225J22760D01*
X3774928Y3795598D02*
G01X3794480Y3818875D01*
X3741612Y4570710D02*
G03X3807520Y4614092I32954J21691D01*
X3896836Y4422969D02*
G03X3837598Y4377136I-22025J-32731D01*
X2737587Y4378496D02*
G03X2676363Y4422969I-37180J13194D01*
X2768177Y4615274D02*
G03X2833984Y4571741I32904J-21766D01*
X2799877Y4654208D02*
G01X2768177Y4615275D01*
X2833265Y3760415D02*
G03X2985836Y3649535I454139J464486D01*
X3588969Y3649539D02*
G03X3716711Y3737379I-301570J575363D01*
G03X3740842Y3771459I-59847J67960D01*
Y3771460D02*
G03X3774928Y3795598I-33874J83973D01*
X3807520Y4614092D02*
G03X3588970Y4800270I-520117J-389189D01*
X2985837Y4800267D02*
G03X2799878Y4654208I301571J-575363D01*
X2368497Y3649537D02*
G03X2368498Y3579796I18278J-34870D01*
X544892Y3579795D02*
G03X544891Y3649537I-18278J34870D01*
X1148025Y3649537D02*
G03X1148026Y3579796I18278J-34870D01*
X1765364Y3579795D02*
G03X1765363Y3649537I-18278J34870D01*
X2985837Y3579795D02*
G03X2985836Y3649537I-18278J34870D01*
X3588970Y3649537D02*
G03X3588970Y3579796I18278J-34870D01*
X3588970Y2429065D02*
G03X3588970Y2359324I18278J-34870D01*
X2985837Y2359323D02*
G03X2985836Y2429064I-18278J34870D01*
X2368497Y2429065D02*
G03X2368498Y2359324I18278J-34870D01*
X1765364Y2359323D02*
G03X1765363Y2429064I-18278J34870D01*
X1148025Y2429065D02*
G03X1148026Y2359324I18278J-34870D01*
X544892Y2359323D02*
G03X544891Y2429064I-18278J34870D01*
X256700Y291134D02*
G03X326212Y328470I34756J18667D01*
X209077Y688926D02*
G03X256700Y291134I637381J-125441D01*
X1391413Y393452D02*
G03X1444889Y343407I36767J-14306D01*
X1300667Y909293D02*
G03X1366575Y952674I32954J21691D01*
X1455891Y761551D02*
G03X1396653Y715719I-22025J-32731D01*
X296642Y717079D02*
G03X222281Y743467I-37180J13194D01*
X327232Y953856D02*
G03X393039Y910324I32904J-21766D01*
X358932Y992790D02*
G01X327232Y953857D01*
X1366575Y952674D02*
G03X1148025Y1138852I-520118J-389189D01*
X544892Y1138849D02*
G03X358933Y992790I301572J-575362D01*
X222283Y743467D02*
G03X205433Y668732I624173J-179992D01*
X1464497Y341713D02*
G03X1521842Y392726I22589J32345D01*
X2611886Y393452D02*
G03X2665361Y343407I36767J-14306D01*
X2521140Y909293D02*
G03X2587047Y952674I32954J21691D01*
X2676363Y761551D02*
G03X2617125Y715719I-22025J-32731D01*
X1517114Y717079D02*
G03X1455891Y761551I-37180J13194D01*
X1547705Y953856D02*
G03X1613512Y910324I32904J-21766D01*
X1579405Y992790D02*
G01X1547705Y953857D01*
X2587047Y952674D02*
G03X2368497Y1138852I-520118J-389189D01*
X1765364Y1138849D02*
G03X1579406Y992790I301572J-575362D01*
X3741612Y909293D02*
G03X3807520Y952674I32954J21691D01*
X3896836Y761551D02*
G03X3837598Y715719I-22025J-32731D01*
X2737587Y717079D02*
G03X2676363Y761551I-37180J13194D01*
X2768177Y953856D02*
G03X2833984Y910324I32904J-21766D01*
X2799877Y992790D02*
G01X2768177Y953857D01*
X3807520Y952674D02*
G03X3588970Y1138852I-520118J-389189D01*
X2985837Y1138849D02*
G03X2799878Y992790I301572J-575362D01*
X3588970Y1208593D02*
G03X3588970Y1138852I18278J-34870D01*
X2985837Y1138850D02*
G03X2985836Y1208592I-18278J34870D01*
X2368497Y1208593D02*
G03X2368498Y1138852I18278J-34870D01*
X1765364Y1138850D02*
G03X1765363Y1208592I-18278J34870D01*
X1148025Y1208593D02*
G03X1148026Y1138852I18278J-34870D01*
X544892Y1138850D02*
G03X544891Y1208592I-18278J34870D01*
X256700Y5173024D02*
G03X326212Y5210359I34756J18667D01*
X450778Y5033882D02*
G03X392319Y4980888I-29229J-26497D01*
X209077Y5570816D02*
G03X256700Y5173024I637381J-125440D01*
X1391413Y5275341D02*
G03X1453724Y5230972I36766J-14305D01*
X1353535Y5039348D02*
G03X1289085Y5084867I-32225J22760D01*
X1333983Y5016070D02*
G01X1353535Y5039348D01*
X1455891Y5643441D02*
G03X1396653Y5597608I-22025J-32731D01*
X296642Y5598969D02*
G03X222281Y5625357I-37180J13194D01*
X392320Y4980888D02*
G03X544891Y4870008I454139J464486D01*
X1148024Y4870011D02*
G03X1275766Y4957852I-301570J575363D01*
G03X1299897Y4991931I-59847J67960D01*
Y4991932D02*
G03X1333983Y5016070I-33875J83973D01*
X222283Y5625357D02*
G03X205433Y5550622I624173J-179991D01*
X1477172Y5173024D02*
G03X1546684Y5210359I34756J18667D01*
X1671250Y5033882D02*
G03X1612791Y4980888I-29229J-26497D01*
X1453726Y5230972D02*
G03X1477172Y5173024I613207J214397D01*
X2611886Y5275341D02*
G03X2674197Y5230972I36766J-14305D01*
X2574007Y5039348D02*
G03X2509557Y5084867I-32225J22760D01*
X2554456Y5016070D02*
G01X2574007Y5039348D01*
X2676363Y5643441D02*
G03X2617125Y5597608I-22025J-32731D01*
X1517114Y5598969D02*
G03X1455891Y5643441I-37180J13194D01*
X1612793Y4980888D02*
G03X1765363Y4870008I454139J464486D01*
X2368496Y4870011D02*
G03X2496238Y4957852I-301570J575363D01*
G03X2520369Y4991931I-59847J67960D01*
Y4991932D02*
G03X2554456Y5016070I-33875J83973D01*
X2697645Y5173024D02*
G03X2767157Y5210359I34756J18667D01*
X2891722Y5033882D02*
G03X2833264Y4980888I-29229J-26497D01*
X2674198Y5230972D02*
G03X2697645Y5173024I613207J214397D01*
X3832358Y5275341D02*
G03X3894669Y5230972I36766J-14305D01*
X3794480Y5039348D02*
G03X3730030Y5084867I-32225J22760D01*
X3774928Y5016070D02*
G01X3794480Y5039348D01*
X3896836Y5643441D02*
G03X3837598Y5597608I-22025J-32731D01*
X2737587Y5598969D02*
G03X2676363Y5643441I-37180J13194D01*
X2833265Y4980888D02*
G03X2985836Y4870008I454139J464486D01*
X3588969Y4870011D02*
G03X3716711Y4957852I-301570J575363D01*
G03X3740842Y4991931I-59847J67960D01*
Y4991932D02*
G03X3774928Y5016070I-33875J83973D01*
X2368497Y4870010D02*
G03X2368498Y4800269I18278J-34870D01*
X544892Y4800268D02*
G03X544891Y4870009I-18278J34870D01*
X1148025Y4870010D02*
G03X1148026Y4800269I18278J-34870D01*
X1765364Y4800268D02*
G03X1765363Y4870009I-18278J34870D01*
X2985837Y4800268D02*
G03X2985836Y4870009I-18278J34870D01*
X3588970Y4870010D02*
G03X3588970Y4800269I18278J-34870D01*
X0Y39370D02*
G01Y5969485D01*
X196850Y6008855D02*
X39370D01*
X3832358Y4054869D02*
G03X3894669Y4010499I36766J-14305D01*
X3896836Y4422969D02*
G03X3837598Y4377136I-22025J-32731D01*
X3832358Y2834396D02*
G03X3894669Y2790026I36767J-14305D01*
X3896836Y3202496D02*
G03X3837598Y3156663I-22025J-32731D01*
X3832358Y1613924D02*
G03X3894669Y1569554I36767J-14305D01*
X3896836Y1982024D02*
G03X3837598Y1936191I-22025J-32731D01*
X3832358Y393452D02*
G03X3885834Y343407I36767J-14306D01*
X3896836Y761551D02*
G03X3837598Y715719I-22025J-32731D01*
X196850Y0D02*
G01X39370D01*
X3918117Y1511606D02*
G03X3987629Y1548942I34756J18667D01*
X4112195Y1372465D02*
G03X4053736Y1319470I-29229J-26497D01*
X3894670Y1569554D02*
G03X3918117Y1511606I613206J214399D01*
X5052831Y1613924D02*
G03X5115142Y1569554I36767J-14305D01*
X5014952Y1377930D02*
G03X4950502Y1423450I-32225J22760D01*
X4995401Y1354652D02*
G01X5014952Y1377930D01*
X4962085Y2129765D02*
G03X5027992Y2173146I32954J21691D01*
X5117308Y1982024D02*
G03X5058070Y1936191I-22025J-32731D01*
X3958059Y1937551D02*
G03X3896836Y1982024I-37180J13194D01*
X3988650Y2174329D02*
G03X4054457Y2130796I32904J-21766D01*
X4020350Y2213263D02*
G01X3988650Y2174330D01*
X4053737Y1319470D02*
G03X4206308Y1208591I454139J464486D01*
X4809441Y1208593D02*
G03X4937183Y1296434I-301570J575363D01*
G03X4961314Y1330514I-59847J67960D01*
Y1330515D02*
G03X4995401Y1354652I-33874J83973D01*
X5027992Y2173146D02*
G03X4809442Y2359325I-520118J-389189D01*
X4206309Y2359322D02*
G03X4020350Y2213263I301572J-575362D01*
X3918117Y2732079D02*
G03X3987629Y2769414I34756J18667D01*
X4112195Y2592937D02*
G03X4053736Y2539943I-29229J-26497D01*
X3894670Y2790026D02*
G03X3918117Y2732079I613206J214399D01*
X5052831Y2834396D02*
G03X5115142Y2790026I36767J-14305D01*
X5014952Y2598403D02*
G03X4950502Y2643922I-32225J22760D01*
X4995401Y2575125D02*
G01X5014952Y2598403D01*
X4962085Y3350237D02*
G03X5027992Y3393619I32954J21691D01*
X5117308Y3202496D02*
G03X5058070Y3156663I-22025J-32731D01*
X3958059Y3158024D02*
G03X3896836Y3202496I-37180J13194D01*
X3988650Y3394801D02*
G03X4054457Y3351269I32904J-21766D01*
X4020350Y3433735D02*
G01X3988650Y3394802D01*
X4053737Y2539943D02*
G03X4206308Y2429063I454139J464486D01*
X4809441Y2429066D02*
G03X4937183Y2516906I-301570J575363D01*
G03X4961314Y2550986I-59847J67960D01*
Y2550987D02*
G03X4995401Y2575125I-33874J83973D01*
X5027992Y3393619D02*
G03X4809442Y3579797I-520117J-389189D01*
X4206309Y3579794D02*
G03X4020350Y3433735I301572J-575362D01*
X3918117Y3952551D02*
G03X3987629Y3989887I34756J18667D01*
X4112195Y3813409D02*
G03X4053736Y3760415I-29229J-26497D01*
X3894670Y4010499D02*
G03X3918117Y3952551I613207J214397D01*
X5052831Y4054869D02*
G03X5115142Y4010499I36766J-14305D01*
X5014952Y3818875D02*
G03X4950502Y3864395I-32225J22760D01*
X4995401Y3795598D02*
G01X5014952Y3818875D01*
X4962085Y4570710D02*
G03X5027992Y4614092I32954J21691D01*
X5117308Y4422969D02*
G03X5058070Y4377136I-22025J-32731D01*
X3958059Y4378496D02*
G03X3896836Y4422969I-37180J13194D01*
X3988650Y4615274D02*
G03X4054457Y4571741I32904J-21766D01*
X4020350Y4654208D02*
G01X3988650Y4615275D01*
X4053737Y3760415D02*
G03X4206308Y3649535I454139J464486D01*
X4809441Y3649539D02*
G03X4937183Y3737379I-301570J575363D01*
G03X4961314Y3771459I-59847J67960D01*
Y3771460D02*
G03X4995401Y3795598I-33874J83973D01*
X5027992Y4614092D02*
G03X4809442Y4800270I-520117J-389189D01*
X4206309Y4800267D02*
G03X4020350Y4654208I301571J-575363D01*
X4206309Y3579795D02*
G03X4206308Y3649537I-18278J34870D01*
X4809442Y3649537D02*
G03X4809443Y3579796I18278J-34870D01*
X4809442Y2429065D02*
G03X4809443Y2359324I18278J-34870D01*
X4206309Y2359323D02*
G03X4206308Y2429064I-18278J34870D01*
X5052831Y393452D02*
G03X5115142Y349082I36767J-14305D01*
X4962085Y909293D02*
G03X5027992Y952674I32954J21691D01*
X5117308Y761551D02*
G03X5058070Y715719I-22025J-32731D01*
X3958059Y717079D02*
G03X3896836Y761551I-37180J13194D01*
X3988650Y953856D02*
G03X4054457Y910324I32904J-21766D01*
X4020350Y992790D02*
G01X3988650Y953857D01*
X5027992Y952674D02*
G03X4809442Y1138852I-520118J-389189D01*
X4206309Y1138849D02*
G03X4020350Y992790I301572J-575362D01*
X4809442Y1208593D02*
G03X4809443Y1138852I18278J-34870D01*
X4206309Y1138850D02*
G03X4206308Y1208592I-18278J34870D01*
X3918117Y5173024D02*
G03X3987629Y5210359I34756J18667D01*
X4112195Y5033882D02*
G03X4053736Y4980888I-29229J-26497D01*
X3894670Y5230972D02*
G03X3918117Y5173024I613207J214397D01*
X5052831Y5275341D02*
G03X5127896Y5251565I36767J-14305D01*
X5014952Y5039348D02*
G03X4950502Y5084867I-32225J22760D01*
X4995401Y5016070D02*
G01X5014952Y5039348D01*
X5133865Y5618945D02*
G03X5058070Y5597608I-38583J-8235D01*
X3958059Y5598969D02*
G03X3896836Y5643441I-37180J13194D01*
X4053737Y4980888D02*
G03X4206308Y4870008I454139J464486D01*
X4809441Y4870011D02*
G03X4937183Y4957852I-301570J575363D01*
G03X4961314Y4991931I-59847J67960D01*
Y4991932D02*
G03X4995401Y5016070I-33875J83973D01*
X5127896Y5251565D02*
G03X5133960Y5618606I-620021J193815D01*
X4206309Y4800268D02*
G03X4206308Y4870009I-18278J34870D01*
X4809442Y4870010D02*
G03X4809443Y4800269I18278J-34870D01*
X5354333Y39370D02*
G01Y5969485D01*
X5157482Y6008855D02*
X5314963D01*
Y0D02*
X5157482D01*
X5127896Y4031093D02*
G03X5133960Y4398134I-620021J193815D01*
X5052831Y4054869D02*
G03X5127896Y4031093I36767J-14305D01*
X5133865Y4398472D02*
G03X5058070Y4377136I-38583J-8235D01*
X5127896Y4031093D02*
G03X5133960Y4398134I-620021J193815D01*
X5052831Y2834396D02*
G03X5127896Y2810620I36767J-14305D01*
X5133865Y3178000D02*
G03X5058070Y3156663I-38583J-8235D01*
X5127896Y2810620D02*
G03X5133960Y3177661I-620021J193815D01*
X5052831Y1613924D02*
G03X5127896Y1590148I36767J-14305D01*
X5133865Y1957528D02*
G03X5058070Y1936191I-38583J-8235D01*
X5127896Y1590148D02*
G03X5133960Y1957189I-620021J193815D01*
X5052831Y393452D02*
G03X5127896Y369675I36767J-14305D01*
X5133865Y737055D02*
G03X5058070Y715719I-38583J-8235D01*
X5127896Y369675D02*
G03X5133960Y736717I-620021J193815D01*
X4971285Y227514D02*
G01X5157482D01*
X430647Y172346D02*
X196850D01*
X3760232Y5765253D02*
X4032318D01*
X2539760D02*
X2811846D01*
X1319287D02*
X1591373D01*
X196850D02*
X370901D01*
X4980705D02*
X5157482D01*
Y227514D02*
Y0D01*
Y5765253D02*
Y6008855D01*
X196850Y5765253D02*
Y6008855D01*
Y0D02*
Y172346D01*
X1464496Y341713D02*
G03X1444889Y343407I-11271J-16139D01*
X1309044Y227514D02*
G01X1604128D01*
X2684970Y341713D02*
G03X2742314Y392726I22589J32345D01*
X3905442Y341713D02*
G03X3962787Y392726I22589J32345D01*
X3905441Y341713D02*
G03X3885834Y343407I-11271J-16139D01*
X2684969Y341713D02*
G03X2665361Y343407I-11271J-16139D01*
X2529556Y227514D02*
G01X2824931D01*
X3749489D02*
X4045154D01*
X0Y39370D02*
G03X39370Y0I39370J0D01*
X5314963D02*
G03X5354333Y39370I0J39370D01*
Y5969485D02*
G03X5314963Y6008855I-39370J0D01*
X39370D02*
G03X0Y5969485I0J-39370D01*
G54D17*
X98425Y5615154D03*
X5255907D03*
X98425Y590551D03*
X5255907Y393701D03*
M02*
