*
%FSLAX26Y26*%
%MOIN*%
%ADD10C,0.011811*%
%ADD11C,0.017717*%
%ADD12C,0.031496*%
%ADD13C,0.023622*%
%ADD14C,0.080709*%
%IPPOS*%
%LNpz02c05521a0.out*%
%LPD*%
G75*
G54D10*
X1047328Y395195D03*
X1068978D03*
Y414345D03*
X1090508Y414215D03*
X1047458Y414485D03*
X461458Y173485D03*
X445458Y190485D03*
X430458Y209485D03*
X414458Y227485D03*
X401458Y246485D03*
X386458Y267485D03*
X374458Y287485D03*
X362458Y308485D03*
X352458Y330485D03*
X343458Y351485D03*
X334458Y373485D03*
X326458Y396485D03*
X319458Y419485D03*
X313458Y442485D03*
X310458Y465485D03*
X329458Y479485D03*
X332588Y507615D03*
X353458Y487485D03*
X371018Y470185D03*
X380778Y409575D03*
Y381575D03*
X464778Y428575D03*
X554588Y430765D03*
X567588Y444615D03*
X590008Y553185D03*
X623458Y545485D03*
X609389Y585404D03*
X567289Y586532D03*
X545289Y585532D03*
X521289Y586032D03*
X488128Y584145D03*
X470778Y575575D03*
X457278Y589075D03*
X442778Y601575D03*
X424778Y620575D03*
X406328Y628345D03*
X369778Y632575D03*
X385328Y648345D03*
X337018Y652185D03*
X340008Y672185D03*
X346008Y694185D03*
X312778Y694575D03*
X307778Y671575D03*
X319008Y718185D03*
X326018Y741185D03*
X336008Y762185D03*
X343778Y783575D03*
X353778Y803575D03*
X365778Y823185D03*
X387828D03*
X409878D03*
X431918D03*
X453968D03*
X475008D03*
Y804185D03*
Y785185D03*
X495008D03*
X514518Y779185D03*
Y757185D03*
Y737185D03*
Y717185D03*
Y696735D03*
Y677685D03*
Y658535D03*
Y639685D03*
X496008Y638185D03*
X477018Y637185D03*
X454778Y634575D03*
X352778Y617575D03*
X331778Y610575D03*
X330549Y592515D03*
X331252Y558697D03*
X334008Y631185D03*
X575708Y644435D03*
Y664435D03*
Y684435D03*
X597708D03*
Y664435D03*
X598708Y644435D03*
X661227Y647824D03*
X657458Y666485D03*
Y689485D03*
X654018Y713185D03*
X633018D03*
X612018Y712185D03*
X611708Y731435D03*
X596328Y745345D03*
X575328Y745435D03*
Y764665D03*
Y783885D03*
Y803115D03*
Y822345D03*
X597548D03*
X618778D03*
X639998D03*
X661218D03*
X682438D03*
X703778Y822575D03*
X724888Y822345D03*
X746108D03*
X767328D03*
X788548D03*
X809778D03*
X830998D03*
X852218D03*
X873438D03*
X894658D03*
X894458Y802485D03*
X922588Y774485D03*
Y714615D03*
Y693615D03*
X904458Y605855D03*
X946588Y608615D03*
X972748Y596615D03*
X974588Y558615D03*
X1011588Y565615D03*
X1030588D03*
X1008588Y586615D03*
X1004458Y512485D03*
X1030458Y513485D03*
X1056458Y501485D03*
X983588Y476615D03*
X955088Y475115D03*
X961458Y400115D03*
Y363165D03*
X962458Y296485D03*
X989638Y309295D03*
X1025458Y288485D03*
X911458Y296485D03*
X911588Y271615D03*
X844058Y320235D03*
X829588Y206615D03*
X794408Y182445D03*
X788588Y232615D03*
X725458Y284485D03*
X686588Y281615D03*
X620458Y250485D03*
X619588Y314615D03*
X591458Y116485D03*
X576458Y85485D03*
X556458Y97485D03*
X536458Y110485D03*
X517458Y124485D03*
X498458Y139485D03*
X479458Y156485D03*
X597458Y74485D03*
X619458Y63485D03*
X740653Y21169D03*
X953977Y21328D03*
X980917Y27328D03*
X1008736Y35050D03*
X1111056Y78147D03*
X1150788Y193315D03*
X1157768Y286485D03*
X1156768Y322485D03*
X1245828Y366795D03*
X1244828Y385795D03*
X1263428Y390565D03*
X1264828Y369795D03*
X1346488Y400615D03*
X1343480Y321974D03*
X1331830Y303615D03*
X1318458Y282485D03*
X1307458Y260485D03*
X1291458Y244485D03*
X1280221Y220959D03*
X1262991Y204196D03*
X1206693Y144793D03*
X1310458Y490485D03*
X1372588Y461615D03*
X1358588Y552615D03*
X1356588Y604615D03*
X1321768Y666795D03*
X1361588Y701615D03*
X1256778Y709575D03*
X1256068Y734325D03*
X1232028Y708865D03*
X1257488Y684825D03*
X1231838Y811275D03*
X1211248Y790685D03*
X1190658Y770095D03*
X1174588Y879685D03*
X1157418Y862515D03*
X1136828Y841925D03*
X1091158Y900735D03*
X1090458Y925485D03*
X1065708Y924775D03*
X1115208Y926185D03*
X1261588Y901615D03*
X1299588Y851615D03*
X1336588Y795615D03*
X961288Y806785D03*
X935588Y821615D03*
X922458Y836485D03*
X852758Y755485D03*
X817328Y756615D03*
X735458Y780485D03*
X751958Y704485D03*
X686828Y583345D03*
X667120Y584907D03*
X844458Y581485D03*
X895458Y504485D03*
X1082588Y625615D03*
X1089748Y950225D03*
X1108588Y1027615D03*
X1165588Y987615D03*
X1220588Y940615D03*
X496458Y212485D03*
X514458Y194485D03*
X532458Y176485D03*
X550458Y158485D03*
X620458Y150485D03*
Y175485D03*
X646458Y174485D03*
X645458Y149485D03*
X693458Y136485D03*
X719458Y137485D03*
X717458Y113485D03*
X743458Y112485D03*
X881588Y228615D03*
X1000588Y242565D03*
X1007588Y200615D03*
X984588Y180615D03*
X987588Y148615D03*
X1185588Y286615D03*
X814588Y421975D03*
X810458Y480485D03*
Y515485D03*
X773618D03*
X588588Y360615D03*
X513588Y307615D03*
X488588Y319615D03*
X489588Y282615D03*
X466588Y296615D03*
G54D11*
X668588Y395615D03*
X667588Y426615D03*
X667858Y458075D03*
X715098D03*
X715588Y426615D03*
X716588Y396615D03*
X759588D03*
X758588Y426615D03*
X715098Y505325D03*
X667858D03*
G54D12*
X783596Y1113184D03*
X909556Y1113109D03*
X1396040Y626432D03*
X1396083Y500444D03*
X909400Y13803D03*
X783513Y13876D03*
X296803Y626448D03*
X296804Y500508D03*
G54D13*
X1389646Y351990D03*
X1375310Y319403D03*
X1322433Y227514D03*
X1341917Y257048D03*
X1359533Y287732D03*
X1332718Y883363D03*
X1395880Y757090D03*
X1383057Y790067D03*
X1368217Y822186D03*
X1351415Y853325D03*
X360397Y884821D03*
X297235Y758548D03*
X310058Y791525D03*
X324899Y823644D03*
X341700Y854782D03*
X414745Y172346D03*
X391759Y199243D03*
X370482Y227514D03*
X350999Y257048D03*
X333382Y287732D03*
G54D10*
X1047328Y1615668D03*
X1068978D03*
Y1634818D03*
X1090508Y1634688D03*
X1047458Y1634958D03*
X461458Y1393958D03*
X445458Y1410958D03*
X430458Y1429958D03*
X414458Y1447958D03*
X401458Y1466958D03*
X386458Y1487958D03*
X374458Y1507958D03*
X362458Y1528958D03*
X352458Y1550958D03*
X343458Y1571958D03*
X334458Y1593958D03*
X326458Y1616958D03*
X319458Y1639958D03*
X313458Y1662958D03*
X310458Y1685958D03*
X329458Y1699958D03*
X332588Y1728088D03*
X353458Y1707958D03*
X371018Y1690658D03*
X380778Y1630048D03*
Y1602048D03*
X464778Y1649048D03*
X554588Y1651238D03*
X567588Y1665088D03*
X590008Y1773658D03*
X623458Y1765958D03*
X609389Y1805876D03*
X567289Y1807005D03*
X545289Y1806005D03*
X521289Y1806505D03*
X488128Y1804618D03*
X470778Y1796048D03*
X457278Y1809548D03*
X442778Y1822048D03*
X424778Y1841048D03*
X406328Y1848818D03*
X369778Y1853048D03*
X385328Y1868818D03*
X337018Y1872658D03*
X340008Y1892658D03*
X346008Y1914658D03*
X312778Y1915048D03*
X307778Y1892048D03*
X319008Y1938658D03*
X326018Y1961658D03*
X336008Y1982658D03*
X343778Y2004048D03*
X353778Y2024048D03*
X365778Y2043658D03*
X387828D03*
X409878D03*
X431918D03*
X453968D03*
X475008D03*
Y2024658D03*
Y2005658D03*
X495008D03*
X514518Y1999658D03*
Y1977658D03*
Y1957658D03*
Y1937658D03*
Y1917208D03*
Y1898158D03*
Y1879008D03*
Y1860158D03*
X496008Y1858658D03*
X477018Y1857658D03*
X454778Y1855048D03*
X352778Y1838048D03*
X331778Y1831048D03*
X330549Y1812987D03*
X331252Y1779170D03*
X334008Y1851658D03*
X575708Y1864908D03*
Y1884908D03*
Y1904908D03*
X597708D03*
Y1884908D03*
X598708Y1864908D03*
X661227Y1868297D03*
X657458Y1886958D03*
Y1909958D03*
X654018Y1933658D03*
X633018D03*
X612018Y1932658D03*
X611708Y1951908D03*
X596328Y1965818D03*
X575328Y1965908D03*
Y1985138D03*
Y2004358D03*
Y2023588D03*
Y2042818D03*
X597548D03*
X618778D03*
X639998D03*
X661218D03*
X682438D03*
X703778Y2043048D03*
X724888Y2042818D03*
X746108D03*
X767328D03*
X788548D03*
X809778D03*
X830998D03*
X852218D03*
X873438D03*
X894658D03*
X894458Y2022958D03*
X922588Y1994958D03*
Y1935088D03*
Y1914088D03*
X904458Y1826328D03*
X946588Y1829088D03*
X972748Y1817088D03*
X974588Y1779088D03*
X1011588Y1786088D03*
X1030588D03*
X1008588Y1807088D03*
X1004458Y1732958D03*
X1030458Y1733958D03*
X1056458Y1721958D03*
X983588Y1697088D03*
X955088Y1695588D03*
X961458Y1620588D03*
Y1583638D03*
X962458Y1516958D03*
X989638Y1529768D03*
X1025458Y1508958D03*
X911458Y1516958D03*
X911588Y1492088D03*
X844058Y1540708D03*
X829588Y1427088D03*
X794408Y1402918D03*
X788588Y1453088D03*
X725458Y1504958D03*
X686588Y1502088D03*
X620458Y1470958D03*
X619588Y1535088D03*
X591458Y1336958D03*
X576458Y1305958D03*
X556458Y1317958D03*
X536458Y1330958D03*
X517458Y1344958D03*
X498458Y1359958D03*
X479458Y1376958D03*
X597458Y1294958D03*
X619458Y1283958D03*
X740653Y1241641D03*
X953977Y1241800D03*
X980917Y1247800D03*
X1008736Y1255522D03*
X1111056Y1298620D03*
X1150788Y1413788D03*
X1157768Y1506958D03*
X1156768Y1542958D03*
X1245828Y1587268D03*
X1244828Y1606268D03*
X1263428Y1611038D03*
X1264828Y1590268D03*
X1346488Y1621088D03*
X1343480Y1542447D03*
X1331830Y1524088D03*
X1318458Y1502958D03*
X1307458Y1480958D03*
X1291458Y1464958D03*
X1280221Y1441431D03*
X1262991Y1424668D03*
X1206693Y1365265D03*
X1310458Y1710958D03*
X1372588Y1682088D03*
X1358588Y1773088D03*
X1356588Y1825088D03*
X1321768Y1887268D03*
X1361588Y1922088D03*
X1256778Y1930048D03*
X1256068Y1954798D03*
X1232028Y1929338D03*
X1257488Y1905298D03*
X1231838Y2031748D03*
X1211248Y2011158D03*
X1190658Y1990568D03*
X1174588Y2100158D03*
X1157418Y2082988D03*
X1136828Y2062398D03*
X1091158Y2121208D03*
X1090458Y2145958D03*
X1065708Y2145248D03*
X1115208Y2146658D03*
X1261588Y2122088D03*
X1299588Y2072088D03*
X1336588Y2016088D03*
X961288Y2027258D03*
X935588Y2042088D03*
X922458Y2056958D03*
X852758Y1975958D03*
X817328Y1977088D03*
X735458Y2000958D03*
X751958Y1924958D03*
X686828Y1803818D03*
X667120Y1805380D03*
X844458Y1801958D03*
X895458Y1724958D03*
X1082588Y1846088D03*
X1089748Y2170698D03*
X1108588Y2248088D03*
X1165588Y2208088D03*
X1220588Y2161088D03*
X496458Y1432958D03*
X514458Y1414958D03*
X532458Y1396958D03*
X550458Y1378958D03*
X620458Y1370958D03*
Y1395958D03*
X646458Y1394958D03*
X645458Y1369958D03*
X693458Y1356958D03*
X719458Y1357958D03*
X717458Y1333958D03*
X743458Y1332958D03*
X881588Y1449088D03*
X1000588Y1463038D03*
X1007588Y1421088D03*
X984588Y1401088D03*
X987588Y1369088D03*
X1185588Y1507088D03*
X814588Y1642448D03*
X810458Y1700958D03*
Y1735958D03*
X773618D03*
X588588Y1581088D03*
X513588Y1528088D03*
X488588Y1540088D03*
X489588Y1503088D03*
X466588Y1517088D03*
G54D11*
X668588Y1616088D03*
X667588Y1647088D03*
X667858Y1678548D03*
X715098D03*
X715588Y1647088D03*
X716588Y1617088D03*
X759588D03*
X758588Y1647088D03*
X715098Y1725798D03*
X667858D03*
G54D12*
X783596Y2333657D03*
X909556Y2333581D03*
X1396040Y1846904D03*
X1396083Y1720916D03*
X909400Y1234275D03*
X783513Y1234349D03*
X296803Y1846920D03*
X296804Y1720981D03*
G54D13*
X1389646Y1572463D03*
X1375310Y1539875D03*
X1322433Y1447986D03*
X1341917Y1477520D03*
X1359533Y1508205D03*
X1332718Y2103835D03*
X1395880Y1977563D03*
X1383057Y2010539D03*
X1368217Y2042658D03*
X1351415Y2073797D03*
X360397Y2105293D03*
X297235Y1979020D03*
X310058Y2011997D03*
X324899Y2044117D03*
X341700Y2075255D03*
X414745Y1392818D03*
X391759Y1419716D03*
X370482Y1447986D03*
X350999Y1477520D03*
X333382Y1508205D03*
G54D10*
X1047328Y2836140D03*
X1068978D03*
Y2855290D03*
X1090508Y2855160D03*
X1047458Y2855430D03*
X461458Y2614430D03*
X445458Y2631430D03*
X430458Y2650430D03*
X414458Y2668430D03*
X401458Y2687430D03*
X386458Y2708430D03*
X374458Y2728430D03*
X362458Y2749430D03*
X352458Y2771430D03*
X343458Y2792430D03*
X334458Y2814430D03*
X326458Y2837430D03*
X319458Y2860430D03*
X313458Y2883430D03*
X310458Y2906430D03*
X329458Y2920430D03*
X332588Y2948560D03*
X353458Y2928430D03*
X371018Y2911130D03*
X380778Y2850520D03*
Y2822520D03*
X464778Y2869520D03*
X554588Y2871710D03*
X567588Y2885560D03*
X590008Y2994130D03*
X623458Y2986430D03*
X609389Y3026349D03*
X567289Y3027477D03*
X545289Y3026477D03*
X521289Y3026977D03*
X488128Y3025090D03*
X470778Y3016520D03*
X457278Y3030020D03*
X442778Y3042520D03*
X424778Y3061520D03*
X406328Y3069290D03*
X369778Y3073520D03*
X385328Y3089290D03*
X337018Y3093130D03*
X340008Y3113130D03*
X346008Y3135130D03*
X312778Y3135520D03*
X307778Y3112520D03*
X319008Y3159130D03*
X326018Y3182130D03*
X336008Y3203130D03*
X343778Y3224520D03*
X353778Y3244520D03*
X365778Y3264130D03*
X387828D03*
X409878D03*
X431918D03*
X453968D03*
X475008D03*
Y3245130D03*
Y3226130D03*
X495008D03*
X514518Y3220130D03*
Y3198130D03*
Y3178130D03*
Y3158130D03*
Y3137680D03*
Y3118630D03*
Y3099480D03*
Y3080630D03*
X496008Y3079130D03*
X477018Y3078130D03*
X454778Y3075520D03*
X352778Y3058520D03*
X331778Y3051520D03*
X330549Y3033460D03*
X331252Y2999642D03*
X334008Y3072130D03*
X575708Y3085380D03*
Y3105380D03*
Y3125380D03*
X597708D03*
Y3105380D03*
X598708Y3085380D03*
X661227Y3088769D03*
X657458Y3107430D03*
Y3130430D03*
X654018Y3154130D03*
X633018D03*
X612018Y3153130D03*
X611708Y3172380D03*
X596328Y3186290D03*
X575328Y3186380D03*
Y3205610D03*
Y3224830D03*
Y3244060D03*
Y3263290D03*
X597548D03*
X618778D03*
X639998D03*
X661218D03*
X682438D03*
X703778Y3263520D03*
X724888Y3263290D03*
X746108D03*
X767328D03*
X788548D03*
X809778D03*
X830998D03*
X852218D03*
X873438D03*
X894658D03*
X894458Y3243430D03*
X922588Y3215430D03*
Y3155560D03*
Y3134560D03*
X904458Y3046800D03*
X946588Y3049560D03*
X972748Y3037560D03*
X974588Y2999560D03*
X1011588Y3006560D03*
X1030588D03*
X1008588Y3027560D03*
X1004458Y2953430D03*
X1030458Y2954430D03*
X1056458Y2942430D03*
X983588Y2917560D03*
X955088Y2916060D03*
X961458Y2841060D03*
Y2804110D03*
X962458Y2737430D03*
X989638Y2750240D03*
X1025458Y2729430D03*
X911458Y2737430D03*
X911588Y2712560D03*
X844058Y2761180D03*
X829588Y2647560D03*
X794408Y2623390D03*
X788588Y2673560D03*
X725458Y2725430D03*
X686588Y2722560D03*
X620458Y2691430D03*
X619588Y2755560D03*
X591458Y2557430D03*
X576458Y2526430D03*
X556458Y2538430D03*
X536458Y2551430D03*
X517458Y2565430D03*
X498458Y2580430D03*
X479458Y2597430D03*
X597458Y2515430D03*
X619458Y2504430D03*
X740653Y2462114D03*
X953977Y2462273D03*
X980917Y2468273D03*
X1008736Y2475994D03*
X1111056Y2519092D03*
X1150788Y2634260D03*
X1157768Y2727430D03*
X1156768Y2763430D03*
X1245828Y2807740D03*
X1244828Y2826740D03*
X1263428Y2831510D03*
X1264828Y2810740D03*
X1346488Y2841560D03*
X1343480Y2762919D03*
X1331830Y2744560D03*
X1318458Y2723430D03*
X1307458Y2701430D03*
X1291458Y2685430D03*
X1280221Y2661904D03*
X1262991Y2645141D03*
X1206693Y2585738D03*
X1310458Y2931430D03*
X1372588Y2902560D03*
X1358588Y2993560D03*
X1356588Y3045560D03*
X1321768Y3107740D03*
X1361588Y3142560D03*
X1256778Y3150520D03*
X1256068Y3175270D03*
X1232028Y3149810D03*
X1257488Y3125770D03*
X1231838Y3252220D03*
X1211248Y3231630D03*
X1190658Y3211040D03*
X1174588Y3320630D03*
X1157418Y3303460D03*
X1136828Y3282870D03*
X1091158Y3341680D03*
X1090458Y3366430D03*
X1065708Y3365720D03*
X1115208Y3367130D03*
X1261588Y3342560D03*
X1299588Y3292560D03*
X1336588Y3236560D03*
X961288Y3247730D03*
X935588Y3262560D03*
X922458Y3277430D03*
X852758Y3196430D03*
X817328Y3197560D03*
X735458Y3221430D03*
X751958Y3145430D03*
X686828Y3024290D03*
X667120Y3025852D03*
X844458Y3022430D03*
X895458Y2945430D03*
X1082588Y3066560D03*
X1089748Y3391170D03*
X1108588Y3468560D03*
X1165588Y3428560D03*
X1220588Y3381560D03*
X496458Y2653430D03*
X514458Y2635430D03*
X532458Y2617430D03*
X550458Y2599430D03*
X620458Y2591430D03*
Y2616430D03*
X646458Y2615430D03*
X645458Y2590430D03*
X693458Y2577430D03*
X719458Y2578430D03*
X717458Y2554430D03*
X743458Y2553430D03*
X881588Y2669560D03*
X1000588Y2683510D03*
X1007588Y2641560D03*
X984588Y2621560D03*
X987588Y2589560D03*
X1185588Y2727560D03*
X814588Y2862920D03*
X810458Y2921430D03*
Y2956430D03*
X773618D03*
X588588Y2801560D03*
X513588Y2748560D03*
X488588Y2760560D03*
X489588Y2723560D03*
X466588Y2737560D03*
G54D11*
X668588Y2836560D03*
X667588Y2867560D03*
X667858Y2899020D03*
X715098D03*
X715588Y2867560D03*
X716588Y2837560D03*
X759588D03*
X758588Y2867560D03*
X715098Y2946270D03*
X667858D03*
G54D12*
X783596Y3554129D03*
X909556Y3554053D03*
X1396040Y3067377D03*
X1396083Y2941389D03*
X909400Y2454748D03*
X783513Y2454821D03*
X296803Y3067392D03*
X296804Y2941453D03*
G54D13*
X1389646Y2792935D03*
X1375310Y2760348D03*
X1322433Y2668459D03*
X1341917Y2697993D03*
X1359533Y2728677D03*
X1332718Y3324308D03*
X1395880Y3198035D03*
X1383057Y3231012D03*
X1368217Y3263131D03*
X1351415Y3294270D03*
X360397Y3325766D03*
X297235Y3199493D03*
X310058Y3232470D03*
X324899Y3264589D03*
X341700Y3295727D03*
X414745Y2613290D03*
X391759Y2640188D03*
X370482Y2668459D03*
X350999Y2697993D03*
X333382Y2728677D03*
G54D10*
X1047328Y4056613D03*
X1068978D03*
Y4075763D03*
X1090508Y4075633D03*
X1047458Y4075903D03*
X461458Y3834903D03*
X445458Y3851903D03*
X430458Y3870903D03*
X414458Y3888903D03*
X401458Y3907903D03*
X386458Y3928903D03*
X374458Y3948903D03*
X362458Y3969903D03*
X352458Y3991903D03*
X343458Y4012903D03*
X334458Y4034903D03*
X326458Y4057903D03*
X319458Y4080903D03*
X313458Y4103903D03*
X310458Y4126903D03*
X329458Y4140903D03*
X332588Y4169033D03*
X353458Y4148903D03*
X371018Y4131603D03*
X380778Y4070993D03*
Y4042993D03*
X464778Y4089993D03*
X554588Y4092183D03*
X567588Y4106033D03*
X590008Y4214603D03*
X623458Y4206903D03*
X609389Y4246821D03*
X567289Y4247950D03*
X545289Y4246950D03*
X521289Y4247450D03*
X488128Y4245563D03*
X470778Y4236993D03*
X457278Y4250493D03*
X442778Y4262993D03*
X424778Y4281993D03*
X406328Y4289763D03*
X369778Y4293993D03*
X385328Y4309763D03*
X337018Y4313603D03*
X340008Y4333603D03*
X346008Y4355603D03*
X312778Y4355993D03*
X307778Y4332993D03*
X319008Y4379603D03*
X326018Y4402603D03*
X336008Y4423603D03*
X343778Y4444993D03*
X353778Y4464993D03*
X365778Y4484603D03*
X387828D03*
X409878D03*
X431918D03*
X453968D03*
X475008D03*
Y4465603D03*
Y4446603D03*
X495008D03*
X514518Y4440603D03*
Y4418603D03*
Y4398603D03*
Y4378603D03*
Y4358153D03*
Y4339103D03*
Y4319953D03*
Y4301103D03*
X496008Y4299603D03*
X477018Y4298603D03*
X454778Y4295993D03*
X352778Y4278993D03*
X331778Y4271993D03*
X330549Y4253932D03*
X331252Y4220114D03*
X334008Y4292603D03*
X575708Y4305853D03*
Y4325853D03*
Y4345853D03*
X597708D03*
Y4325853D03*
X598708Y4305853D03*
X661227Y4309241D03*
X657458Y4327903D03*
Y4350903D03*
X654018Y4374603D03*
X633018D03*
X612018Y4373603D03*
X611708Y4392853D03*
X596328Y4406763D03*
X575328Y4406853D03*
Y4426083D03*
Y4445303D03*
Y4464533D03*
Y4483763D03*
X597548D03*
X618778D03*
X639998D03*
X661218D03*
X682438D03*
X703778Y4483993D03*
X724888Y4483763D03*
X746108D03*
X767328D03*
X788548D03*
X809778D03*
X830998D03*
X852218D03*
X873438D03*
X894658D03*
X894458Y4463903D03*
X922588Y4435903D03*
Y4376033D03*
Y4355033D03*
X904458Y4267273D03*
X946588Y4270033D03*
X972748Y4258033D03*
X974588Y4220033D03*
X1011588Y4227033D03*
X1030588D03*
X1008588Y4248033D03*
X1004458Y4173903D03*
X1030458Y4174903D03*
X1056458Y4162903D03*
X983588Y4138033D03*
X955088Y4136533D03*
X961458Y4061533D03*
Y4024583D03*
X962458Y3957903D03*
X989638Y3970713D03*
X1025458Y3949903D03*
X911458Y3957903D03*
X911588Y3933033D03*
X844058Y3981653D03*
X829588Y3868033D03*
X794408Y3843863D03*
X788588Y3894033D03*
X725458Y3945903D03*
X686588Y3943033D03*
X620458Y3911903D03*
X619588Y3976033D03*
X591458Y3777903D03*
X576458Y3746903D03*
X556458Y3758903D03*
X536458Y3771903D03*
X517458Y3785903D03*
X498458Y3800903D03*
X479458Y3817903D03*
X597458Y3735903D03*
X619458Y3724903D03*
X740653Y3682586D03*
X953977Y3682745D03*
X980917Y3688745D03*
X1008736Y3696467D03*
X1111056Y3739564D03*
X1150788Y3854733D03*
X1157768Y3947903D03*
X1156768Y3983903D03*
X1245828Y4028213D03*
X1244828Y4047213D03*
X1263428Y4051983D03*
X1264828Y4031213D03*
X1346488Y4062033D03*
X1343480Y3983391D03*
X1331830Y3965033D03*
X1318458Y3943903D03*
X1307458Y3921903D03*
X1291458Y3905903D03*
X1280221Y3882376D03*
X1262991Y3865613D03*
X1206693Y3806210D03*
X1310458Y4151903D03*
X1372588Y4123033D03*
X1358588Y4214033D03*
X1356588Y4266033D03*
X1321768Y4328213D03*
X1361588Y4363033D03*
X1256778Y4370993D03*
X1256068Y4395743D03*
X1232028Y4370283D03*
X1257488Y4346243D03*
X1231838Y4472693D03*
X1211248Y4452103D03*
X1190658Y4431513D03*
X1174588Y4541103D03*
X1157418Y4523933D03*
X1136828Y4503343D03*
X1091158Y4562153D03*
X1090458Y4586903D03*
X1065708Y4586193D03*
X1115208Y4587603D03*
X1261588Y4563033D03*
X1299588Y4513033D03*
X1336588Y4457033D03*
X961288Y4468203D03*
X935588Y4483033D03*
X922458Y4497903D03*
X852758Y4416903D03*
X817328Y4418033D03*
X735458Y4441903D03*
X751958Y4365903D03*
X686828Y4244763D03*
X667120Y4246325D03*
X844458Y4242903D03*
X895458Y4165903D03*
X1082588Y4287033D03*
X1089748Y4611643D03*
X1108588Y4689033D03*
X1165588Y4649033D03*
X1220588Y4602033D03*
X496458Y3873903D03*
X514458Y3855903D03*
X532458Y3837903D03*
X550458Y3819903D03*
X620458Y3811903D03*
Y3836903D03*
X646458Y3835903D03*
X645458Y3810903D03*
X693458Y3797903D03*
X719458Y3798903D03*
X717458Y3774903D03*
X743458Y3773903D03*
X881588Y3890033D03*
X1000588Y3903983D03*
X1007588Y3862033D03*
X984588Y3842033D03*
X987588Y3810033D03*
X1185588Y3948033D03*
X814588Y4083393D03*
X810458Y4141903D03*
Y4176903D03*
X773618D03*
X588588Y4022033D03*
X513588Y3969033D03*
X488588Y3981033D03*
X489588Y3944033D03*
X466588Y3958033D03*
G54D11*
X668588Y4057033D03*
X667588Y4088033D03*
X667858Y4119493D03*
X715098D03*
X715588Y4088033D03*
X716588Y4058033D03*
X759588D03*
X758588Y4088033D03*
X715098Y4166743D03*
X667858D03*
G54D12*
X783596Y4774601D03*
X909556Y4774526D03*
X1396040Y4287849D03*
X1396083Y4161861D03*
X909400Y3675220D03*
X783513Y3675294D03*
X296803Y4287865D03*
X296804Y4161925D03*
G54D13*
X1389646Y4013407D03*
X1375310Y3980820D03*
X1322433Y3888931D03*
X1341917Y3918465D03*
X1359533Y3949150D03*
X1332718Y4544780D03*
X1395880Y4418508D03*
X1383057Y4451484D03*
X1368217Y4483603D03*
X1351415Y4514742D03*
X360397Y4546238D03*
X297235Y4419965D03*
X310058Y4452942D03*
X324899Y4485062D03*
X341700Y4516200D03*
X414745Y3833763D03*
X391759Y3860661D03*
X370482Y3888931D03*
X350999Y3918465D03*
X333382Y3949150D03*
G54D10*
X1047328Y5277085D03*
X1068978D03*
Y5296235D03*
X1090508Y5296105D03*
X1047458Y5296375D03*
X461458Y5055375D03*
X445458Y5072375D03*
X430458Y5091375D03*
X414458Y5109375D03*
X401458Y5128375D03*
X386458Y5149375D03*
X374458Y5169375D03*
X362458Y5190375D03*
X352458Y5212375D03*
X343458Y5233375D03*
X334458Y5255375D03*
X326458Y5278375D03*
X319458Y5301375D03*
X313458Y5324375D03*
X310458Y5347375D03*
X329458Y5361375D03*
X332588Y5389505D03*
X353458Y5369375D03*
X371018Y5352075D03*
X380778Y5291465D03*
Y5263465D03*
X464778Y5310465D03*
X554588Y5312655D03*
X567588Y5326505D03*
X590008Y5435075D03*
X623458Y5427375D03*
X609389Y5467294D03*
X567289Y5468422D03*
X545289Y5467422D03*
X521289Y5467922D03*
X488128Y5466035D03*
X470778Y5457465D03*
X457278Y5470965D03*
X442778Y5483465D03*
X424778Y5502465D03*
X406328Y5510235D03*
X369778Y5514465D03*
X385328Y5530235D03*
X337018Y5534075D03*
X340008Y5554075D03*
X346008Y5576075D03*
X312778Y5576465D03*
X307778Y5553465D03*
X319008Y5600075D03*
X326018Y5623075D03*
X336008Y5644075D03*
X343778Y5665465D03*
X353778Y5685465D03*
X365778Y5705075D03*
X387828D03*
X409878D03*
X431918D03*
X453968D03*
X475008D03*
Y5686075D03*
Y5667075D03*
X495008D03*
X514518Y5661075D03*
Y5639075D03*
Y5619075D03*
Y5599075D03*
Y5578625D03*
Y5559575D03*
Y5540425D03*
Y5521575D03*
X496008Y5520075D03*
X477018Y5519075D03*
X454778Y5516465D03*
X352778Y5499465D03*
X331778Y5492465D03*
X330549Y5474405D03*
X331252Y5440587D03*
X334008Y5513075D03*
X575708Y5526325D03*
Y5546325D03*
Y5566325D03*
X597708D03*
Y5546325D03*
X598708Y5526325D03*
X661227Y5529714D03*
X657458Y5548375D03*
Y5571375D03*
X654018Y5595075D03*
X633018D03*
X612018Y5594075D03*
X611708Y5613325D03*
X596328Y5627235D03*
X575328Y5627325D03*
Y5646555D03*
Y5665775D03*
Y5685005D03*
Y5704235D03*
X597548D03*
X618778D03*
X639998D03*
X661218D03*
X682438D03*
X703778Y5704465D03*
X724888Y5704235D03*
X746108D03*
X767328D03*
X788548D03*
X809778D03*
X830998D03*
X852218D03*
X873438D03*
X894658D03*
X894458Y5684375D03*
X922588Y5656375D03*
Y5596505D03*
Y5575505D03*
X904458Y5487745D03*
X946588Y5490505D03*
X972748Y5478505D03*
X974588Y5440505D03*
X1011588Y5447505D03*
X1030588D03*
X1008588Y5468505D03*
X1004458Y5394375D03*
X1030458Y5395375D03*
X1056458Y5383375D03*
X983588Y5358505D03*
X955088Y5357005D03*
X961458Y5282005D03*
Y5245055D03*
X962458Y5178375D03*
X989638Y5191185D03*
X1025458Y5170375D03*
X911458Y5178375D03*
X911588Y5153505D03*
X844058Y5202125D03*
X829588Y5088505D03*
X794408Y5064335D03*
X788588Y5114505D03*
X725458Y5166375D03*
X686588Y5163505D03*
X620458Y5132375D03*
X619588Y5196505D03*
X591458Y4998375D03*
X576458Y4967375D03*
X556458Y4979375D03*
X536458Y4992375D03*
X517458Y5006375D03*
X498458Y5021375D03*
X479458Y5038375D03*
X597458Y4956375D03*
X619458Y4945375D03*
X740653Y4903059D03*
X953977Y4903217D03*
X980917Y4909217D03*
X1008736Y4916939D03*
X1111056Y4960037D03*
X1150788Y5075205D03*
X1157768Y5168375D03*
X1156768Y5204375D03*
X1245828Y5248685D03*
X1244828Y5267685D03*
X1263428Y5272455D03*
X1264828Y5251685D03*
X1346488Y5282505D03*
X1343480Y5203864D03*
X1331830Y5185505D03*
X1318458Y5164375D03*
X1307458Y5142375D03*
X1291458Y5126375D03*
X1280221Y5102849D03*
X1262991Y5086086D03*
X1206693Y5026682D03*
X1310458Y5372375D03*
X1372588Y5343505D03*
X1358588Y5434505D03*
X1356588Y5486505D03*
X1321768Y5548685D03*
X1361588Y5583505D03*
X1256778Y5591465D03*
X1256068Y5616215D03*
X1232028Y5590755D03*
X1257488Y5566715D03*
X1231838Y5693165D03*
X1211248Y5672575D03*
X1190658Y5651985D03*
X1174588Y5761575D03*
X1157418Y5744405D03*
X1136828Y5723815D03*
X1091158Y5782625D03*
X1090458Y5807375D03*
X1065708Y5806665D03*
X1115208Y5808075D03*
X1261588Y5783505D03*
X1299588Y5733505D03*
X1336588Y5677505D03*
X961288Y5688675D03*
X935588Y5703505D03*
X922458Y5718375D03*
X852758Y5637375D03*
X817328Y5638505D03*
X735458Y5662375D03*
X751958Y5586375D03*
X686828Y5465235D03*
X667120Y5466797D03*
X844458Y5463375D03*
X895458Y5386375D03*
X1082588Y5507505D03*
X1089748Y5832115D03*
X1108588Y5909505D03*
X1165588Y5869505D03*
X1220588Y5822505D03*
X496458Y5094375D03*
X514458Y5076375D03*
X532458Y5058375D03*
X550458Y5040375D03*
X620458Y5032375D03*
Y5057375D03*
X646458Y5056375D03*
X645458Y5031375D03*
X693458Y5018375D03*
X719458Y5019375D03*
X717458Y4995375D03*
X743458Y4994375D03*
X881588Y5110505D03*
X1000588Y5124455D03*
X1007588Y5082505D03*
X984588Y5062505D03*
X987588Y5030505D03*
X1185588Y5168505D03*
X814588Y5303865D03*
X810458Y5362375D03*
Y5397375D03*
X773618D03*
X588588Y5242505D03*
X513588Y5189505D03*
X488588Y5201505D03*
X489588Y5164505D03*
X466588Y5178505D03*
G54D11*
X668588Y5277505D03*
X667588Y5308505D03*
X667858Y5339965D03*
X715098D03*
X715588Y5308505D03*
X716588Y5278505D03*
X759588D03*
X758588Y5308505D03*
X715098Y5387215D03*
X667858D03*
G54D12*
X783596Y5995074D03*
X909556Y5994998D03*
X1396040Y5508322D03*
X1396083Y5382334D03*
X909400Y4895692D03*
X783513Y4895766D03*
X296803Y5508337D03*
X296804Y5382398D03*
G54D13*
X1389646Y5233880D03*
X1375310Y5201292D03*
X1322433Y5109403D03*
X1341917Y5138938D03*
X1359533Y5169622D03*
X1332718Y5765253D03*
X1395880Y5638980D03*
X1383057Y5671957D03*
X1368217Y5704075D03*
X1351415Y5735214D03*
X360397Y5766711D03*
X297235Y5640438D03*
X310058Y5673414D03*
X324899Y5705534D03*
X341700Y5736672D03*
X414745Y5054235D03*
X391759Y5081133D03*
X370482Y5109403D03*
X350999Y5138938D03*
X333382Y5169622D03*
G54D10*
X2267800Y395195D03*
X2289450D03*
Y414345D03*
X2310980Y414215D03*
X2267930Y414485D03*
X1681930Y173485D03*
X1665930Y190485D03*
X1650930Y209485D03*
X1634930Y227485D03*
X1621930Y246485D03*
X1606930Y267485D03*
X1594930Y287485D03*
X1582930Y308485D03*
X1572930Y330485D03*
X1563930Y351485D03*
X1554930Y373485D03*
X1546930Y396485D03*
X1539930Y419485D03*
X1533930Y442485D03*
X1530930Y465485D03*
X1549930Y479485D03*
X1553060Y507615D03*
X1573930Y487485D03*
X1591490Y470185D03*
X1601250Y409575D03*
Y381575D03*
X1685250Y428575D03*
X1775060Y430765D03*
X1788060Y444615D03*
X1810480Y553185D03*
X1843930Y545485D03*
X1829861Y585404D03*
X1787762Y586532D03*
X1765762Y585532D03*
X1741762Y586032D03*
X1708600Y584145D03*
X1691250Y575575D03*
X1677750Y589075D03*
X1663250Y601575D03*
X1645250Y620575D03*
X1626800Y628345D03*
X1590250Y632575D03*
X1605800Y648345D03*
X1557490Y652185D03*
X1560480Y672185D03*
X1566480Y694185D03*
X1533250Y694575D03*
X1528250Y671575D03*
X1539480Y718185D03*
X1546490Y741185D03*
X1556480Y762185D03*
X1564250Y783575D03*
X1574250Y803575D03*
X1586250Y823185D03*
X1608300D03*
X1630350D03*
X1652390D03*
X1674440D03*
X1695480D03*
Y804185D03*
Y785185D03*
X1715480D03*
X1734990Y779185D03*
Y757185D03*
Y737185D03*
Y717185D03*
Y696735D03*
Y677685D03*
Y658535D03*
Y639685D03*
X1716480Y638185D03*
X1697490Y637185D03*
X1675250Y634575D03*
X1573250Y617575D03*
X1552250Y610575D03*
X1551021Y592515D03*
X1551725Y558697D03*
X1554480Y631185D03*
X1796180Y644435D03*
Y664435D03*
Y684435D03*
X1818180D03*
Y664435D03*
X1819180Y644435D03*
X1881700Y647824D03*
X1877930Y666485D03*
Y689485D03*
X1874490Y713185D03*
X1853490D03*
X1832490Y712185D03*
X1832180Y731435D03*
X1816800Y745345D03*
X1795800Y745435D03*
Y764665D03*
Y783885D03*
Y803115D03*
Y822345D03*
X1818020D03*
X1839250D03*
X1860470D03*
X1881690D03*
X1902910D03*
X1924250Y822575D03*
X1945360Y822345D03*
X1966580D03*
X1987800D03*
X2009020D03*
X2030250D03*
X2051470D03*
X2072690D03*
X2093910D03*
X2115130D03*
X2114930Y802485D03*
X2143060Y774485D03*
Y714615D03*
Y693615D03*
X2124930Y605855D03*
X2167060Y608615D03*
X2193220Y596615D03*
X2195060Y558615D03*
X2232060Y565615D03*
X2251060D03*
X2229060Y586615D03*
X2224930Y512485D03*
X2250930Y513485D03*
X2276930Y501485D03*
X2204060Y476615D03*
X2175560Y475115D03*
X2181930Y400115D03*
Y363165D03*
X2182930Y296485D03*
X2210110Y309295D03*
X2245930Y288485D03*
X2131930Y296485D03*
X2132060Y271615D03*
X2064530Y320235D03*
X2050060Y206615D03*
X2014880Y182445D03*
X2009060Y232615D03*
X1945930Y284485D03*
X1907060Y281615D03*
X1840930Y250485D03*
X1840060Y314615D03*
X1811930Y116485D03*
X1796930Y85485D03*
X1776930Y97485D03*
X1756930Y110485D03*
X1737930Y124485D03*
X1718930Y139485D03*
X1699930Y156485D03*
X1817930Y74485D03*
X1839930Y63485D03*
X1961126Y21169D03*
X2174449Y21328D03*
X2201389Y27328D03*
X2229208Y35050D03*
X2331529Y78147D03*
X2371260Y193315D03*
X2378240Y286485D03*
X2377240Y322485D03*
X2466300Y366795D03*
X2465300Y385795D03*
X2483900Y390565D03*
X2485300Y369795D03*
X2566960Y400615D03*
X2563953Y321974D03*
X2552303Y303615D03*
X2538930Y282485D03*
X2527930Y260485D03*
X2511930Y244485D03*
X2500694Y220959D03*
X2483463Y204196D03*
X2427166Y144793D03*
X2530930Y490485D03*
X2593060Y461615D03*
X2579060Y552615D03*
X2577060Y604615D03*
X2542240Y666795D03*
X2582060Y701615D03*
X2477250Y709575D03*
X2476540Y734325D03*
X2452500Y708865D03*
X2477960Y684825D03*
X2452310Y811275D03*
X2431720Y790685D03*
X2411130Y770095D03*
X2395060Y879685D03*
X2377890Y862515D03*
X2357300Y841925D03*
X2311630Y900735D03*
X2310930Y925485D03*
X2286180Y924775D03*
X2335680Y926185D03*
X2482060Y901615D03*
X2520060Y851615D03*
X2557060Y795615D03*
X2181760Y806785D03*
X2156060Y821615D03*
X2142930Y836485D03*
X2073230Y755485D03*
X2037800Y756615D03*
X1955930Y780485D03*
X1972430Y704485D03*
X1907300Y583345D03*
X1887592Y584907D03*
X2064930Y581485D03*
X2115930Y504485D03*
X2303060Y625615D03*
X2310220Y950225D03*
X2329060Y1027615D03*
X2386060Y987615D03*
X2441060Y940615D03*
X1716930Y212485D03*
X1734930Y194485D03*
X1752930Y176485D03*
X1770930Y158485D03*
X1840930Y150485D03*
Y175485D03*
X1866930Y174485D03*
X1865930Y149485D03*
X1913930Y136485D03*
X1939930Y137485D03*
X1937930Y113485D03*
X1963930Y112485D03*
X2102060Y228615D03*
X2221060Y242565D03*
X2228060Y200615D03*
X2205060Y180615D03*
X2208060Y148615D03*
X2406060Y286615D03*
X2035060Y421975D03*
X2030930Y480485D03*
Y515485D03*
X1994090D03*
X1809060Y360615D03*
X1734060Y307615D03*
X1709060Y319615D03*
X1710060Y282615D03*
X1687060Y296615D03*
G54D11*
X1889060Y395615D03*
X1888060Y426615D03*
X1888330Y458075D03*
X1935570D03*
X1936060Y426615D03*
X1937060Y396615D03*
X1980060D03*
X1979060Y426615D03*
X1935570Y505325D03*
X1888330D03*
G54D12*
X2004069Y1113184D03*
X2130028Y1113109D03*
X2616513Y626432D03*
X2616556Y500444D03*
X2129873Y13803D03*
X2003985Y13876D03*
X1517276Y626448D03*
X1517276Y500508D03*
G54D13*
X2610118Y351990D03*
X2595783Y319403D03*
X2542906Y227514D03*
X2562389Y257048D03*
X2580006Y287732D03*
X2553190Y883363D03*
X2616352Y757090D03*
X2603530Y790067D03*
X2588689Y822186D03*
X2571888Y853325D03*
X1580869Y884821D03*
X1517708Y758548D03*
X1530531Y791525D03*
X1545371Y823644D03*
X1562172Y854782D03*
X1635218Y172346D03*
X1612231Y199243D03*
X1590955Y227514D03*
X1571472Y257048D03*
X1553854Y287732D03*
G54D10*
X2267800Y1615668D03*
X2289450D03*
Y1634818D03*
X2310980Y1634688D03*
X2267930Y1634958D03*
X1681930Y1393958D03*
X1665930Y1410958D03*
X1650930Y1429958D03*
X1634930Y1447958D03*
X1621930Y1466958D03*
X1606930Y1487958D03*
X1594930Y1507958D03*
X1582930Y1528958D03*
X1572930Y1550958D03*
X1563930Y1571958D03*
X1554930Y1593958D03*
X1546930Y1616958D03*
X1539930Y1639958D03*
X1533930Y1662958D03*
X1530930Y1685958D03*
X1549930Y1699958D03*
X1553060Y1728088D03*
X1573930Y1707958D03*
X1591490Y1690658D03*
X1601250Y1630048D03*
Y1602048D03*
X1685250Y1649048D03*
X1775060Y1651238D03*
X1788060Y1665088D03*
X1810480Y1773658D03*
X1843930Y1765958D03*
X1829861Y1805876D03*
X1787762Y1807005D03*
X1765762Y1806005D03*
X1741762Y1806505D03*
X1708600Y1804618D03*
X1691250Y1796048D03*
X1677750Y1809548D03*
X1663250Y1822048D03*
X1645250Y1841048D03*
X1626800Y1848818D03*
X1590250Y1853048D03*
X1605800Y1868818D03*
X1557490Y1872658D03*
X1560480Y1892658D03*
X1566480Y1914658D03*
X1533250Y1915048D03*
X1528250Y1892048D03*
X1539480Y1938658D03*
X1546490Y1961658D03*
X1556480Y1982658D03*
X1564250Y2004048D03*
X1574250Y2024048D03*
X1586250Y2043658D03*
X1608300D03*
X1630350D03*
X1652390D03*
X1674440D03*
X1695480D03*
Y2024658D03*
Y2005658D03*
X1715480D03*
X1734990Y1999658D03*
Y1977658D03*
Y1957658D03*
Y1937658D03*
Y1917208D03*
Y1898158D03*
Y1879008D03*
Y1860158D03*
X1716480Y1858658D03*
X1697490Y1857658D03*
X1675250Y1855048D03*
X1573250Y1838048D03*
X1552250Y1831048D03*
X1551021Y1812987D03*
X1551725Y1779170D03*
X1554480Y1851658D03*
X1796180Y1864908D03*
Y1884908D03*
Y1904908D03*
X1818180D03*
Y1884908D03*
X1819180Y1864908D03*
X1881700Y1868297D03*
X1877930Y1886958D03*
Y1909958D03*
X1874490Y1933658D03*
X1853490D03*
X1832490Y1932658D03*
X1832180Y1951908D03*
X1816800Y1965818D03*
X1795800Y1965908D03*
Y1985138D03*
Y2004358D03*
Y2023588D03*
Y2042818D03*
X1818020D03*
X1839250D03*
X1860470D03*
X1881690D03*
X1902910D03*
X1924250Y2043048D03*
X1945360Y2042818D03*
X1966580D03*
X1987800D03*
X2009020D03*
X2030250D03*
X2051470D03*
X2072690D03*
X2093910D03*
X2115130D03*
X2114930Y2022958D03*
X2143060Y1994958D03*
Y1935088D03*
Y1914088D03*
X2124930Y1826328D03*
X2167060Y1829088D03*
X2193220Y1817088D03*
X2195060Y1779088D03*
X2232060Y1786088D03*
X2251060D03*
X2229060Y1807088D03*
X2224930Y1732958D03*
X2250930Y1733958D03*
X2276930Y1721958D03*
X2204060Y1697088D03*
X2175560Y1695588D03*
X2181930Y1620588D03*
Y1583638D03*
X2182930Y1516958D03*
X2210110Y1529768D03*
X2245930Y1508958D03*
X2131930Y1516958D03*
X2132060Y1492088D03*
X2064530Y1540708D03*
X2050060Y1427088D03*
X2014880Y1402918D03*
X2009060Y1453088D03*
X1945930Y1504958D03*
X1907060Y1502088D03*
X1840930Y1470958D03*
X1840060Y1535088D03*
X1811930Y1336958D03*
X1796930Y1305958D03*
X1776930Y1317958D03*
X1756930Y1330958D03*
X1737930Y1344958D03*
X1718930Y1359958D03*
X1699930Y1376958D03*
X1817930Y1294958D03*
X1839930Y1283958D03*
X1961126Y1241641D03*
X2174449Y1241800D03*
X2201389Y1247800D03*
X2229208Y1255522D03*
X2331529Y1298620D03*
X2371260Y1413788D03*
X2378240Y1506958D03*
X2377240Y1542958D03*
X2466300Y1587268D03*
X2465300Y1606268D03*
X2483900Y1611038D03*
X2485300Y1590268D03*
X2566960Y1621088D03*
X2563953Y1542447D03*
X2552303Y1524088D03*
X2538930Y1502958D03*
X2527930Y1480958D03*
X2511930Y1464958D03*
X2500694Y1441431D03*
X2483463Y1424668D03*
X2427166Y1365265D03*
X2530930Y1710958D03*
X2593060Y1682088D03*
X2579060Y1773088D03*
X2577060Y1825088D03*
X2542240Y1887268D03*
X2582060Y1922088D03*
X2477250Y1930048D03*
X2476540Y1954798D03*
X2452500Y1929338D03*
X2477960Y1905298D03*
X2452310Y2031748D03*
X2431720Y2011158D03*
X2411130Y1990568D03*
X2395060Y2100158D03*
X2377890Y2082988D03*
X2357300Y2062398D03*
X2311630Y2121208D03*
X2310930Y2145958D03*
X2286180Y2145248D03*
X2335680Y2146658D03*
X2482060Y2122088D03*
X2520060Y2072088D03*
X2557060Y2016088D03*
X2181760Y2027258D03*
X2156060Y2042088D03*
X2142930Y2056958D03*
X2073230Y1975958D03*
X2037800Y1977088D03*
X1955930Y2000958D03*
X1972430Y1924958D03*
X1907300Y1803818D03*
X1887592Y1805380D03*
X2064930Y1801958D03*
X2115930Y1724958D03*
X2303060Y1846088D03*
X2310220Y2170698D03*
X2329060Y2248088D03*
X2386060Y2208088D03*
X2441060Y2161088D03*
X1716930Y1432958D03*
X1734930Y1414958D03*
X1752930Y1396958D03*
X1770930Y1378958D03*
X1840930Y1370958D03*
Y1395958D03*
X1866930Y1394958D03*
X1865930Y1369958D03*
X1913930Y1356958D03*
X1939930Y1357958D03*
X1937930Y1333958D03*
X1963930Y1332958D03*
X2102060Y1449088D03*
X2221060Y1463038D03*
X2228060Y1421088D03*
X2205060Y1401088D03*
X2208060Y1369088D03*
X2406060Y1507088D03*
X2035060Y1642448D03*
X2030930Y1700958D03*
Y1735958D03*
X1994090D03*
X1809060Y1581088D03*
X1734060Y1528088D03*
X1709060Y1540088D03*
X1710060Y1503088D03*
X1687060Y1517088D03*
G54D11*
X1889060Y1616088D03*
X1888060Y1647088D03*
X1888330Y1678548D03*
X1935570D03*
X1936060Y1647088D03*
X1937060Y1617088D03*
X1980060D03*
X1979060Y1647088D03*
X1935570Y1725798D03*
X1888330D03*
G54D12*
X2004069Y2333657D03*
X2130028Y2333581D03*
X2616513Y1846904D03*
X2616556Y1720916D03*
X2129873Y1234275D03*
X2003985Y1234349D03*
X1517276Y1846920D03*
X1517276Y1720981D03*
G54D13*
X2610118Y1572463D03*
X2595783Y1539875D03*
X2542906Y1447986D03*
X2562389Y1477520D03*
X2580006Y1508205D03*
X2553190Y2103835D03*
X2616352Y1977563D03*
X2603530Y2010539D03*
X2588689Y2042658D03*
X2571888Y2073797D03*
X1580869Y2105293D03*
X1517708Y1979020D03*
X1530531Y2011997D03*
X1545371Y2044117D03*
X1562172Y2075255D03*
X1635218Y1392818D03*
X1612231Y1419716D03*
X1590955Y1447986D03*
X1571472Y1477520D03*
X1553854Y1508205D03*
G54D10*
X2267800Y2836140D03*
X2289450D03*
Y2855290D03*
X2310980Y2855160D03*
X2267930Y2855430D03*
X1681930Y2614430D03*
X1665930Y2631430D03*
X1650930Y2650430D03*
X1634930Y2668430D03*
X1621930Y2687430D03*
X1606930Y2708430D03*
X1594930Y2728430D03*
X1582930Y2749430D03*
X1572930Y2771430D03*
X1563930Y2792430D03*
X1554930Y2814430D03*
X1546930Y2837430D03*
X1539930Y2860430D03*
X1533930Y2883430D03*
X1530930Y2906430D03*
X1549930Y2920430D03*
X1553060Y2948560D03*
X1573930Y2928430D03*
X1591490Y2911130D03*
X1601250Y2850520D03*
Y2822520D03*
X1685250Y2869520D03*
X1775060Y2871710D03*
X1788060Y2885560D03*
X1810480Y2994130D03*
X1843930Y2986430D03*
X1829861Y3026349D03*
X1787762Y3027477D03*
X1765762Y3026477D03*
X1741762Y3026977D03*
X1708600Y3025090D03*
X1691250Y3016520D03*
X1677750Y3030020D03*
X1663250Y3042520D03*
X1645250Y3061520D03*
X1626800Y3069290D03*
X1590250Y3073520D03*
X1605800Y3089290D03*
X1557490Y3093130D03*
X1560480Y3113130D03*
X1566480Y3135130D03*
X1533250Y3135520D03*
X1528250Y3112520D03*
X1539480Y3159130D03*
X1546490Y3182130D03*
X1556480Y3203130D03*
X1564250Y3224520D03*
X1574250Y3244520D03*
X1586250Y3264130D03*
X1608300D03*
X1630350D03*
X1652390D03*
X1674440D03*
X1695480D03*
Y3245130D03*
Y3226130D03*
X1715480D03*
X1734990Y3220130D03*
Y3198130D03*
Y3178130D03*
Y3158130D03*
Y3137680D03*
Y3118630D03*
Y3099480D03*
Y3080630D03*
X1716480Y3079130D03*
X1697490Y3078130D03*
X1675250Y3075520D03*
X1573250Y3058520D03*
X1552250Y3051520D03*
X1551021Y3033460D03*
X1551725Y2999642D03*
X1554480Y3072130D03*
X1796180Y3085380D03*
Y3105380D03*
Y3125380D03*
X1818180D03*
Y3105380D03*
X1819180Y3085380D03*
X1881700Y3088769D03*
X1877930Y3107430D03*
Y3130430D03*
X1874490Y3154130D03*
X1853490D03*
X1832490Y3153130D03*
X1832180Y3172380D03*
X1816800Y3186290D03*
X1795800Y3186380D03*
Y3205610D03*
Y3224830D03*
Y3244060D03*
Y3263290D03*
X1818020D03*
X1839250D03*
X1860470D03*
X1881690D03*
X1902910D03*
X1924250Y3263520D03*
X1945360Y3263290D03*
X1966580D03*
X1987800D03*
X2009020D03*
X2030250D03*
X2051470D03*
X2072690D03*
X2093910D03*
X2115130D03*
X2114930Y3243430D03*
X2143060Y3215430D03*
Y3155560D03*
Y3134560D03*
X2124930Y3046800D03*
X2167060Y3049560D03*
X2193220Y3037560D03*
X2195060Y2999560D03*
X2232060Y3006560D03*
X2251060D03*
X2229060Y3027560D03*
X2224930Y2953430D03*
X2250930Y2954430D03*
X2276930Y2942430D03*
X2204060Y2917560D03*
X2175560Y2916060D03*
X2181930Y2841060D03*
Y2804110D03*
X2182930Y2737430D03*
X2210110Y2750240D03*
X2245930Y2729430D03*
X2131930Y2737430D03*
X2132060Y2712560D03*
X2064530Y2761180D03*
X2050060Y2647560D03*
X2014880Y2623390D03*
X2009060Y2673560D03*
X1945930Y2725430D03*
X1907060Y2722560D03*
X1840930Y2691430D03*
X1840060Y2755560D03*
X1811930Y2557430D03*
X1796930Y2526430D03*
X1776930Y2538430D03*
X1756930Y2551430D03*
X1737930Y2565430D03*
X1718930Y2580430D03*
X1699930Y2597430D03*
X1817930Y2515430D03*
X1839930Y2504430D03*
X1961126Y2462114D03*
X2174449Y2462273D03*
X2201389Y2468273D03*
X2229208Y2475994D03*
X2331529Y2519092D03*
X2371260Y2634260D03*
X2378240Y2727430D03*
X2377240Y2763430D03*
X2466300Y2807740D03*
X2465300Y2826740D03*
X2483900Y2831510D03*
X2485300Y2810740D03*
X2566960Y2841560D03*
X2563953Y2762919D03*
X2552303Y2744560D03*
X2538930Y2723430D03*
X2527930Y2701430D03*
X2511930Y2685430D03*
X2500694Y2661904D03*
X2483463Y2645141D03*
X2427166Y2585738D03*
X2530930Y2931430D03*
X2593060Y2902560D03*
X2579060Y2993560D03*
X2577060Y3045560D03*
X2542240Y3107740D03*
X2582060Y3142560D03*
X2477250Y3150520D03*
X2476540Y3175270D03*
X2452500Y3149810D03*
X2477960Y3125770D03*
X2452310Y3252220D03*
X2431720Y3231630D03*
X2411130Y3211040D03*
X2395060Y3320630D03*
X2377890Y3303460D03*
X2357300Y3282870D03*
X2311630Y3341680D03*
X2310930Y3366430D03*
X2286180Y3365720D03*
X2335680Y3367130D03*
X2482060Y3342560D03*
X2520060Y3292560D03*
X2557060Y3236560D03*
X2181760Y3247730D03*
X2156060Y3262560D03*
X2142930Y3277430D03*
X2073230Y3196430D03*
X2037800Y3197560D03*
X1955930Y3221430D03*
X1972430Y3145430D03*
X1907300Y3024290D03*
X1887592Y3025852D03*
X2064930Y3022430D03*
X2115930Y2945430D03*
X2303060Y3066560D03*
X2310220Y3391170D03*
X2329060Y3468560D03*
X2386060Y3428560D03*
X2441060Y3381560D03*
X1716930Y2653430D03*
X1734930Y2635430D03*
X1752930Y2617430D03*
X1770930Y2599430D03*
X1840930Y2591430D03*
Y2616430D03*
X1866930Y2615430D03*
X1865930Y2590430D03*
X1913930Y2577430D03*
X1939930Y2578430D03*
X1937930Y2554430D03*
X1963930Y2553430D03*
X2102060Y2669560D03*
X2221060Y2683510D03*
X2228060Y2641560D03*
X2205060Y2621560D03*
X2208060Y2589560D03*
X2406060Y2727560D03*
X2035060Y2862920D03*
X2030930Y2921430D03*
Y2956430D03*
X1994090D03*
X1809060Y2801560D03*
X1734060Y2748560D03*
X1709060Y2760560D03*
X1710060Y2723560D03*
X1687060Y2737560D03*
G54D11*
X1889060Y2836560D03*
X1888060Y2867560D03*
X1888330Y2899020D03*
X1935570D03*
X1936060Y2867560D03*
X1937060Y2837560D03*
X1980060D03*
X1979060Y2867560D03*
X1935570Y2946270D03*
X1888330D03*
G54D12*
X2004069Y3554129D03*
X2130028Y3554053D03*
X2616513Y3067377D03*
X2616556Y2941389D03*
X2129873Y2454748D03*
X2003985Y2454821D03*
X1517276Y3067392D03*
X1517276Y2941453D03*
G54D13*
X2610118Y2792935D03*
X2595783Y2760348D03*
X2542906Y2668459D03*
X2562389Y2697993D03*
X2580006Y2728677D03*
X2553190Y3324308D03*
X2616352Y3198035D03*
X2603530Y3231012D03*
X2588689Y3263131D03*
X2571888Y3294270D03*
X1580869Y3325766D03*
X1517708Y3199493D03*
X1530531Y3232470D03*
X1545371Y3264589D03*
X1562172Y3295727D03*
X1635218Y2613290D03*
X1612231Y2640188D03*
X1590955Y2668459D03*
X1571472Y2697993D03*
X1553854Y2728677D03*
G54D10*
X2267800Y4056613D03*
X2289450D03*
Y4075763D03*
X2310980Y4075633D03*
X2267930Y4075903D03*
X1681930Y3834903D03*
X1665930Y3851903D03*
X1650930Y3870903D03*
X1634930Y3888903D03*
X1621930Y3907903D03*
X1606930Y3928903D03*
X1594930Y3948903D03*
X1582930Y3969903D03*
X1572930Y3991903D03*
X1563930Y4012903D03*
X1554930Y4034903D03*
X1546930Y4057903D03*
X1539930Y4080903D03*
X1533930Y4103903D03*
X1530930Y4126903D03*
X1549930Y4140903D03*
X1553060Y4169033D03*
X1573930Y4148903D03*
X1591490Y4131603D03*
X1601250Y4070993D03*
Y4042993D03*
X1685250Y4089993D03*
X1775060Y4092183D03*
X1788060Y4106033D03*
X1810480Y4214603D03*
X1843930Y4206903D03*
X1829861Y4246821D03*
X1787762Y4247950D03*
X1765762Y4246950D03*
X1741762Y4247450D03*
X1708600Y4245563D03*
X1691250Y4236993D03*
X1677750Y4250493D03*
X1663250Y4262993D03*
X1645250Y4281993D03*
X1626800Y4289763D03*
X1590250Y4293993D03*
X1605800Y4309763D03*
X1557490Y4313603D03*
X1560480Y4333603D03*
X1566480Y4355603D03*
X1533250Y4355993D03*
X1528250Y4332993D03*
X1539480Y4379603D03*
X1546490Y4402603D03*
X1556480Y4423603D03*
X1564250Y4444993D03*
X1574250Y4464993D03*
X1586250Y4484603D03*
X1608300D03*
X1630350D03*
X1652390D03*
X1674440D03*
X1695480D03*
Y4465603D03*
Y4446603D03*
X1715480D03*
X1734990Y4440603D03*
Y4418603D03*
Y4398603D03*
Y4378603D03*
Y4358153D03*
Y4339103D03*
Y4319953D03*
Y4301103D03*
X1716480Y4299603D03*
X1697490Y4298603D03*
X1675250Y4295993D03*
X1573250Y4278993D03*
X1552250Y4271993D03*
X1551021Y4253932D03*
X1551725Y4220114D03*
X1554480Y4292603D03*
X1796180Y4305853D03*
Y4325853D03*
Y4345853D03*
X1818180D03*
Y4325853D03*
X1819180Y4305853D03*
X1881700Y4309241D03*
X1877930Y4327903D03*
Y4350903D03*
X1874490Y4374603D03*
X1853490D03*
X1832490Y4373603D03*
X1832180Y4392853D03*
X1816800Y4406763D03*
X1795800Y4406853D03*
Y4426083D03*
Y4445303D03*
Y4464533D03*
Y4483763D03*
X1818020D03*
X1839250D03*
X1860470D03*
X1881690D03*
X1902910D03*
X1924250Y4483993D03*
X1945360Y4483763D03*
X1966580D03*
X1987800D03*
X2009020D03*
X2030250D03*
X2051470D03*
X2072690D03*
X2093910D03*
X2115130D03*
X2114930Y4463903D03*
X2143060Y4435903D03*
Y4376033D03*
Y4355033D03*
X2124930Y4267273D03*
X2167060Y4270033D03*
X2193220Y4258033D03*
X2195060Y4220033D03*
X2232060Y4227033D03*
X2251060D03*
X2229060Y4248033D03*
X2224930Y4173903D03*
X2250930Y4174903D03*
X2276930Y4162903D03*
X2204060Y4138033D03*
X2175560Y4136533D03*
X2181930Y4061533D03*
Y4024583D03*
X2182930Y3957903D03*
X2210110Y3970713D03*
X2245930Y3949903D03*
X2131930Y3957903D03*
X2132060Y3933033D03*
X2064530Y3981653D03*
X2050060Y3868033D03*
X2014880Y3843863D03*
X2009060Y3894033D03*
X1945930Y3945903D03*
X1907060Y3943033D03*
X1840930Y3911903D03*
X1840060Y3976033D03*
X1811930Y3777903D03*
X1796930Y3746903D03*
X1776930Y3758903D03*
X1756930Y3771903D03*
X1737930Y3785903D03*
X1718930Y3800903D03*
X1699930Y3817903D03*
X1817930Y3735903D03*
X1839930Y3724903D03*
X1961126Y3682586D03*
X2174449Y3682745D03*
X2201389Y3688745D03*
X2229208Y3696467D03*
X2331529Y3739564D03*
X2371260Y3854733D03*
X2378240Y3947903D03*
X2377240Y3983903D03*
X2466300Y4028213D03*
X2465300Y4047213D03*
X2483900Y4051983D03*
X2485300Y4031213D03*
X2566960Y4062033D03*
X2563953Y3983391D03*
X2552303Y3965033D03*
X2538930Y3943903D03*
X2527930Y3921903D03*
X2511930Y3905903D03*
X2500694Y3882376D03*
X2483463Y3865613D03*
X2427166Y3806210D03*
X2530930Y4151903D03*
X2593060Y4123033D03*
X2579060Y4214033D03*
X2577060Y4266033D03*
X2542240Y4328213D03*
X2582060Y4363033D03*
X2477250Y4370993D03*
X2476540Y4395743D03*
X2452500Y4370283D03*
X2477960Y4346243D03*
X2452310Y4472693D03*
X2431720Y4452103D03*
X2411130Y4431513D03*
X2395060Y4541103D03*
X2377890Y4523933D03*
X2357300Y4503343D03*
X2311630Y4562153D03*
X2310930Y4586903D03*
X2286180Y4586193D03*
X2335680Y4587603D03*
X2482060Y4563033D03*
X2520060Y4513033D03*
X2557060Y4457033D03*
X2181760Y4468203D03*
X2156060Y4483033D03*
X2142930Y4497903D03*
X2073230Y4416903D03*
X2037800Y4418033D03*
X1955930Y4441903D03*
X1972430Y4365903D03*
X1907300Y4244763D03*
X1887592Y4246325D03*
X2064930Y4242903D03*
X2115930Y4165903D03*
X2303060Y4287033D03*
X2310220Y4611643D03*
X2329060Y4689033D03*
X2386060Y4649033D03*
X2441060Y4602033D03*
X1716930Y3873903D03*
X1734930Y3855903D03*
X1752930Y3837903D03*
X1770930Y3819903D03*
X1840930Y3811903D03*
Y3836903D03*
X1866930Y3835903D03*
X1865930Y3810903D03*
X1913930Y3797903D03*
X1939930Y3798903D03*
X1937930Y3774903D03*
X1963930Y3773903D03*
X2102060Y3890033D03*
X2221060Y3903983D03*
X2228060Y3862033D03*
X2205060Y3842033D03*
X2208060Y3810033D03*
X2406060Y3948033D03*
X2035060Y4083393D03*
X2030930Y4141903D03*
Y4176903D03*
X1994090D03*
X1809060Y4022033D03*
X1734060Y3969033D03*
X1709060Y3981033D03*
X1710060Y3944033D03*
X1687060Y3958033D03*
G54D11*
X1889060Y4057033D03*
X1888060Y4088033D03*
X1888330Y4119493D03*
X1935570D03*
X1936060Y4088033D03*
X1937060Y4058033D03*
X1980060D03*
X1979060Y4088033D03*
X1935570Y4166743D03*
X1888330D03*
G54D12*
X2004069Y4774601D03*
X2130028Y4774526D03*
X2616513Y4287849D03*
X2616556Y4161861D03*
X2129873Y3675220D03*
X2003985Y3675294D03*
X1517276Y4287865D03*
X1517276Y4161925D03*
G54D13*
X2610118Y4013407D03*
X2595783Y3980820D03*
X2542906Y3888931D03*
X2562389Y3918465D03*
X2580006Y3949150D03*
X2553190Y4544780D03*
X2616352Y4418508D03*
X2603530Y4451484D03*
X2588689Y4483603D03*
X2571888Y4514742D03*
X1580869Y4546238D03*
X1517708Y4419965D03*
X1530531Y4452942D03*
X1545371Y4485062D03*
X1562172Y4516200D03*
X1635218Y3833763D03*
X1612231Y3860661D03*
X1590955Y3888931D03*
X1571472Y3918465D03*
X1553854Y3949150D03*
G54D10*
X2267800Y5277085D03*
X2289450D03*
Y5296235D03*
X2310980Y5296105D03*
X2267930Y5296375D03*
X1681930Y5055375D03*
X1665930Y5072375D03*
X1650930Y5091375D03*
X1634930Y5109375D03*
X1621930Y5128375D03*
X1606930Y5149375D03*
X1594930Y5169375D03*
X1582930Y5190375D03*
X1572930Y5212375D03*
X1563930Y5233375D03*
X1554930Y5255375D03*
X1546930Y5278375D03*
X1539930Y5301375D03*
X1533930Y5324375D03*
X1530930Y5347375D03*
X1549930Y5361375D03*
X1553060Y5389505D03*
X1573930Y5369375D03*
X1591490Y5352075D03*
X1601250Y5291465D03*
Y5263465D03*
X1685250Y5310465D03*
X1775060Y5312655D03*
X1788060Y5326505D03*
X1810480Y5435075D03*
X1843930Y5427375D03*
X1829861Y5467294D03*
X1787762Y5468422D03*
X1765762Y5467422D03*
X1741762Y5467922D03*
X1708600Y5466035D03*
X1691250Y5457465D03*
X1677750Y5470965D03*
X1663250Y5483465D03*
X1645250Y5502465D03*
X1626800Y5510235D03*
X1590250Y5514465D03*
X1605800Y5530235D03*
X1557490Y5534075D03*
X1560480Y5554075D03*
X1566480Y5576075D03*
X1533250Y5576465D03*
X1528250Y5553465D03*
X1539480Y5600075D03*
X1546490Y5623075D03*
X1556480Y5644075D03*
X1564250Y5665465D03*
X1574250Y5685465D03*
X1586250Y5705075D03*
X1608300D03*
X1630350D03*
X1652390D03*
X1674440D03*
X1695480D03*
Y5686075D03*
Y5667075D03*
X1715480D03*
X1734990Y5661075D03*
Y5639075D03*
Y5619075D03*
Y5599075D03*
Y5578625D03*
Y5559575D03*
Y5540425D03*
Y5521575D03*
X1716480Y5520075D03*
X1697490Y5519075D03*
X1675250Y5516465D03*
X1573250Y5499465D03*
X1552250Y5492465D03*
X1551021Y5474405D03*
X1551725Y5440587D03*
X1554480Y5513075D03*
X1796180Y5526325D03*
Y5546325D03*
Y5566325D03*
X1818180D03*
Y5546325D03*
X1819180Y5526325D03*
X1881700Y5529714D03*
X1877930Y5548375D03*
Y5571375D03*
X1874490Y5595075D03*
X1853490D03*
X1832490Y5594075D03*
X1832180Y5613325D03*
X1816800Y5627235D03*
X1795800Y5627325D03*
Y5646555D03*
Y5665775D03*
Y5685005D03*
Y5704235D03*
X1818020D03*
X1839250D03*
X1860470D03*
X1881690D03*
X1902910D03*
X1924250Y5704465D03*
X1945360Y5704235D03*
X1966580D03*
X1987800D03*
X2009020D03*
X2030250D03*
X2051470D03*
X2072690D03*
X2093910D03*
X2115130D03*
X2114930Y5684375D03*
X2143060Y5656375D03*
Y5596505D03*
Y5575505D03*
X2124930Y5487745D03*
X2167060Y5490505D03*
X2193220Y5478505D03*
X2195060Y5440505D03*
X2232060Y5447505D03*
X2251060D03*
X2229060Y5468505D03*
X2224930Y5394375D03*
X2250930Y5395375D03*
X2276930Y5383375D03*
X2204060Y5358505D03*
X2175560Y5357005D03*
X2181930Y5282005D03*
Y5245055D03*
X2182930Y5178375D03*
X2210110Y5191185D03*
X2245930Y5170375D03*
X2131930Y5178375D03*
X2132060Y5153505D03*
X2064530Y5202125D03*
X2050060Y5088505D03*
X2014880Y5064335D03*
X2009060Y5114505D03*
X1945930Y5166375D03*
X1907060Y5163505D03*
X1840930Y5132375D03*
X1840060Y5196505D03*
X1811930Y4998375D03*
X1796930Y4967375D03*
X1776930Y4979375D03*
X1756930Y4992375D03*
X1737930Y5006375D03*
X1718930Y5021375D03*
X1699930Y5038375D03*
X1817930Y4956375D03*
X1839930Y4945375D03*
X1961126Y4903059D03*
X2174449Y4903217D03*
X2201389Y4909217D03*
X2229208Y4916939D03*
X2331529Y4960037D03*
X2371260Y5075205D03*
X2378240Y5168375D03*
X2377240Y5204375D03*
X2466300Y5248685D03*
X2465300Y5267685D03*
X2483900Y5272455D03*
X2485300Y5251685D03*
X2566960Y5282505D03*
X2563953Y5203864D03*
X2552303Y5185505D03*
X2538930Y5164375D03*
X2527930Y5142375D03*
X2511930Y5126375D03*
X2500694Y5102849D03*
X2483463Y5086086D03*
X2427166Y5026682D03*
X2530930Y5372375D03*
X2593060Y5343505D03*
X2579060Y5434505D03*
X2577060Y5486505D03*
X2542240Y5548685D03*
X2582060Y5583505D03*
X2477250Y5591465D03*
X2476540Y5616215D03*
X2452500Y5590755D03*
X2477960Y5566715D03*
X2452310Y5693165D03*
X2431720Y5672575D03*
X2411130Y5651985D03*
X2395060Y5761575D03*
X2377890Y5744405D03*
X2357300Y5723815D03*
X2311630Y5782625D03*
X2310930Y5807375D03*
X2286180Y5806665D03*
X2335680Y5808075D03*
X2482060Y5783505D03*
X2520060Y5733505D03*
X2557060Y5677505D03*
X2181760Y5688675D03*
X2156060Y5703505D03*
X2142930Y5718375D03*
X2073230Y5637375D03*
X2037800Y5638505D03*
X1955930Y5662375D03*
X1972430Y5586375D03*
X1907300Y5465235D03*
X1887592Y5466797D03*
X2064930Y5463375D03*
X2115930Y5386375D03*
X2303060Y5507505D03*
X2310220Y5832115D03*
X2329060Y5909505D03*
X2386060Y5869505D03*
X2441060Y5822505D03*
X1716930Y5094375D03*
X1734930Y5076375D03*
X1752930Y5058375D03*
X1770930Y5040375D03*
X1840930Y5032375D03*
Y5057375D03*
X1866930Y5056375D03*
X1865930Y5031375D03*
X1913930Y5018375D03*
X1939930Y5019375D03*
X1937930Y4995375D03*
X1963930Y4994375D03*
X2102060Y5110505D03*
X2221060Y5124455D03*
X2228060Y5082505D03*
X2205060Y5062505D03*
X2208060Y5030505D03*
X2406060Y5168505D03*
X2035060Y5303865D03*
X2030930Y5362375D03*
Y5397375D03*
X1994090D03*
X1809060Y5242505D03*
X1734060Y5189505D03*
X1709060Y5201505D03*
X1710060Y5164505D03*
X1687060Y5178505D03*
G54D11*
X1889060Y5277505D03*
X1888060Y5308505D03*
X1888330Y5339965D03*
X1935570D03*
X1936060Y5308505D03*
X1937060Y5278505D03*
X1980060D03*
X1979060Y5308505D03*
X1935570Y5387215D03*
X1888330D03*
G54D12*
X2004069Y5995074D03*
X2130028Y5994998D03*
X2616513Y5508322D03*
X2616556Y5382334D03*
X2129873Y4895692D03*
X2003985Y4895766D03*
X1517276Y5508337D03*
X1517276Y5382398D03*
G54D13*
X2610118Y5233880D03*
X2595783Y5201292D03*
X2542906Y5109403D03*
X2562389Y5138938D03*
X2580006Y5169622D03*
X2553190Y5765253D03*
X2616352Y5638980D03*
X2603530Y5671957D03*
X2588689Y5704075D03*
X2571888Y5735214D03*
X1580869Y5766711D03*
X1517708Y5640438D03*
X1530531Y5673414D03*
X1545371Y5705534D03*
X1562172Y5736672D03*
X1635218Y5054235D03*
X1612231Y5081133D03*
X1590955Y5109403D03*
X1571472Y5138938D03*
X1553854Y5169622D03*
G54D10*
X3488273Y395195D03*
X3509923D03*
Y414345D03*
X3531453Y414215D03*
X3488403Y414485D03*
X2902403Y173485D03*
X2886403Y190485D03*
X2871403Y209485D03*
X2855403Y227485D03*
X2842403Y246485D03*
X2827403Y267485D03*
X2815403Y287485D03*
X2803403Y308485D03*
X2793403Y330485D03*
X2784403Y351485D03*
X2775403Y373485D03*
X2767403Y396485D03*
X2760403Y419485D03*
X2754403Y442485D03*
X2751403Y465485D03*
X2770403Y479485D03*
X2773533Y507615D03*
X2794403Y487485D03*
X2811963Y470185D03*
X2821723Y409575D03*
Y381575D03*
X2905723Y428575D03*
X2995533Y430765D03*
X3008533Y444615D03*
X3030953Y553185D03*
X3064403Y545485D03*
X3050333Y585404D03*
X3008234Y586532D03*
X2986234Y585532D03*
X2962234Y586032D03*
X2929073Y584145D03*
X2911723Y575575D03*
X2898223Y589075D03*
X2883723Y601575D03*
X2865723Y620575D03*
X2847273Y628345D03*
X2810723Y632575D03*
X2826273Y648345D03*
X2777963Y652185D03*
X2780953Y672185D03*
X2786953Y694185D03*
X2753723Y694575D03*
X2748723Y671575D03*
X2759953Y718185D03*
X2766963Y741185D03*
X2776953Y762185D03*
X2784723Y783575D03*
X2794723Y803575D03*
X2806723Y823185D03*
X2828773D03*
X2850823D03*
X2872863D03*
X2894913D03*
X2915953D03*
Y804185D03*
Y785185D03*
X2935953D03*
X2955463Y779185D03*
Y757185D03*
Y737185D03*
Y717185D03*
Y696735D03*
Y677685D03*
Y658535D03*
Y639685D03*
X2936953Y638185D03*
X2917963Y637185D03*
X2895723Y634575D03*
X2793723Y617575D03*
X2772723Y610575D03*
X2771493Y592515D03*
X2772197Y558697D03*
X2774953Y631185D03*
X3016653Y644435D03*
Y664435D03*
Y684435D03*
X3038653D03*
Y664435D03*
X3039653Y644435D03*
X3102172Y647824D03*
X3098403Y666485D03*
Y689485D03*
X3094963Y713185D03*
X3073963D03*
X3052963Y712185D03*
X3052653Y731435D03*
X3037273Y745345D03*
X3016273Y745435D03*
Y764665D03*
Y783885D03*
Y803115D03*
Y822345D03*
X3038493D03*
X3059723D03*
X3080943D03*
X3102163D03*
X3123383D03*
X3144723Y822575D03*
X3165833Y822345D03*
X3187053D03*
X3208273D03*
X3229493D03*
X3250723D03*
X3271943D03*
X3293163D03*
X3314383D03*
X3335603D03*
X3335403Y802485D03*
X3363533Y774485D03*
Y714615D03*
Y693615D03*
X3345403Y605855D03*
X3387533Y608615D03*
X3413693Y596615D03*
X3415533Y558615D03*
X3452533Y565615D03*
X3471533D03*
X3449533Y586615D03*
X3445403Y512485D03*
X3471403Y513485D03*
X3497403Y501485D03*
X3424533Y476615D03*
X3396033Y475115D03*
X3402403Y400115D03*
Y363165D03*
X3403403Y296485D03*
X3430583Y309295D03*
X3466403Y288485D03*
X3352403Y296485D03*
X3352533Y271615D03*
X3285003Y320235D03*
X3270533Y206615D03*
X3235353Y182445D03*
X3229533Y232615D03*
X3166403Y284485D03*
X3127533Y281615D03*
X3061403Y250485D03*
X3060533Y314615D03*
X3032403Y116485D03*
X3017403Y85485D03*
X2997403Y97485D03*
X2977403Y110485D03*
X2958403Y124485D03*
X2939403Y139485D03*
X2920403Y156485D03*
X3038403Y74485D03*
X3060403Y63485D03*
X3181598Y21169D03*
X3394922Y21328D03*
X3421861Y27328D03*
X3449681Y35050D03*
X3552001Y78147D03*
X3591733Y193315D03*
X3598713Y286485D03*
X3597713Y322485D03*
X3686773Y366795D03*
X3685773Y385795D03*
X3704373Y390565D03*
X3705773Y369795D03*
X3787433Y400615D03*
X3784425Y321974D03*
X3772775Y303615D03*
X3759403Y282485D03*
X3748403Y260485D03*
X3732403Y244485D03*
X3721166Y220959D03*
X3703936Y204196D03*
X3647638Y144793D03*
X3751403Y490485D03*
X3813533Y461615D03*
X3799533Y552615D03*
X3797533Y604615D03*
X3762713Y666795D03*
X3802533Y701615D03*
X3697723Y709575D03*
X3697013Y734325D03*
X3672973Y708865D03*
X3698433Y684825D03*
X3672783Y811275D03*
X3652193Y790685D03*
X3631603Y770095D03*
X3615533Y879685D03*
X3598363Y862515D03*
X3577773Y841925D03*
X3532103Y900735D03*
X3531403Y925485D03*
X3506653Y924775D03*
X3556153Y926185D03*
X3702533Y901615D03*
X3740533Y851615D03*
X3777533Y795615D03*
X3402233Y806785D03*
X3376533Y821615D03*
X3363403Y836485D03*
X3293703Y755485D03*
X3258273Y756615D03*
X3176403Y780485D03*
X3192903Y704485D03*
X3127773Y583345D03*
X3108065Y584907D03*
X3285403Y581485D03*
X3336403Y504485D03*
X3523533Y625615D03*
X3530693Y950225D03*
X3549533Y1027615D03*
X3606533Y987615D03*
X3661533Y940615D03*
X2937403Y212485D03*
X2955403Y194485D03*
X2973403Y176485D03*
X2991403Y158485D03*
X3061403Y150485D03*
Y175485D03*
X3087403Y174485D03*
X3086403Y149485D03*
X3134403Y136485D03*
X3160403Y137485D03*
X3158403Y113485D03*
X3184403Y112485D03*
X3322533Y228615D03*
X3441533Y242565D03*
X3448533Y200615D03*
X3425533Y180615D03*
X3428533Y148615D03*
X3626533Y286615D03*
X3255533Y421975D03*
X3251403Y480485D03*
Y515485D03*
X3214563D03*
X3029533Y360615D03*
X2954533Y307615D03*
X2929533Y319615D03*
X2930533Y282615D03*
X2907533Y296615D03*
G54D11*
X3109533Y395615D03*
X3108533Y426615D03*
X3108803Y458075D03*
X3156043D03*
X3156533Y426615D03*
X3157533Y396615D03*
X3200533D03*
X3199533Y426615D03*
X3156043Y505325D03*
X3108803D03*
G54D12*
X3224541Y1113184D03*
X3350501Y1113109D03*
X3836985Y626432D03*
X3837028Y500444D03*
X3350345Y13803D03*
X3224457Y13876D03*
X2737748Y626448D03*
X2737749Y500508D03*
G54D13*
X3830591Y351990D03*
X3816255Y319403D03*
X3763378Y227514D03*
X3782861Y257048D03*
X3800478Y287732D03*
X3773663Y883363D03*
X3836825Y757090D03*
X3824002Y790067D03*
X3809161Y822186D03*
X3792360Y853325D03*
X2801342Y884821D03*
X2738180Y758548D03*
X2751003Y791525D03*
X2765844Y823644D03*
X2782645Y854782D03*
X2855690Y172346D03*
X2832704Y199243D03*
X2811427Y227514D03*
X2791944Y257048D03*
X2774327Y287732D03*
G54D10*
X3488273Y1615668D03*
X3509923D03*
Y1634818D03*
X3531453Y1634688D03*
X3488403Y1634958D03*
X2902403Y1393958D03*
X2886403Y1410958D03*
X2871403Y1429958D03*
X2855403Y1447958D03*
X2842403Y1466958D03*
X2827403Y1487958D03*
X2815403Y1507958D03*
X2803403Y1528958D03*
X2793403Y1550958D03*
X2784403Y1571958D03*
X2775403Y1593958D03*
X2767403Y1616958D03*
X2760403Y1639958D03*
X2754403Y1662958D03*
X2751403Y1685958D03*
X2770403Y1699958D03*
X2773533Y1728088D03*
X2794403Y1707958D03*
X2811963Y1690658D03*
X2821723Y1630048D03*
Y1602048D03*
X2905723Y1649048D03*
X2995533Y1651238D03*
X3008533Y1665088D03*
X3030953Y1773658D03*
X3064403Y1765958D03*
X3050333Y1805876D03*
X3008234Y1807005D03*
X2986234Y1806005D03*
X2962234Y1806505D03*
X2929073Y1804618D03*
X2911723Y1796048D03*
X2898223Y1809548D03*
X2883723Y1822048D03*
X2865723Y1841048D03*
X2847273Y1848818D03*
X2810723Y1853048D03*
X2826273Y1868818D03*
X2777963Y1872658D03*
X2780953Y1892658D03*
X2786953Y1914658D03*
X2753723Y1915048D03*
X2748723Y1892048D03*
X2759953Y1938658D03*
X2766963Y1961658D03*
X2776953Y1982658D03*
X2784723Y2004048D03*
X2794723Y2024048D03*
X2806723Y2043658D03*
X2828773D03*
X2850823D03*
X2872863D03*
X2894913D03*
X2915953D03*
Y2024658D03*
Y2005658D03*
X2935953D03*
X2955463Y1999658D03*
Y1977658D03*
Y1957658D03*
Y1937658D03*
Y1917208D03*
Y1898158D03*
Y1879008D03*
Y1860158D03*
X2936953Y1858658D03*
X2917963Y1857658D03*
X2895723Y1855048D03*
X2793723Y1838048D03*
X2772723Y1831048D03*
X2771493Y1812987D03*
X2772197Y1779170D03*
X2774953Y1851658D03*
X3016653Y1864908D03*
Y1884908D03*
Y1904908D03*
X3038653D03*
Y1884908D03*
X3039653Y1864908D03*
X3102172Y1868297D03*
X3098403Y1886958D03*
Y1909958D03*
X3094963Y1933658D03*
X3073963D03*
X3052963Y1932658D03*
X3052653Y1951908D03*
X3037273Y1965818D03*
X3016273Y1965908D03*
Y1985138D03*
Y2004358D03*
Y2023588D03*
Y2042818D03*
X3038493D03*
X3059723D03*
X3080943D03*
X3102163D03*
X3123383D03*
X3144723Y2043048D03*
X3165833Y2042818D03*
X3187053D03*
X3208273D03*
X3229493D03*
X3250723D03*
X3271943D03*
X3293163D03*
X3314383D03*
X3335603D03*
X3335403Y2022958D03*
X3363533Y1994958D03*
Y1935088D03*
Y1914088D03*
X3345403Y1826328D03*
X3387533Y1829088D03*
X3413693Y1817088D03*
X3415533Y1779088D03*
X3452533Y1786088D03*
X3471533D03*
X3449533Y1807088D03*
X3445403Y1732958D03*
X3471403Y1733958D03*
X3497403Y1721958D03*
X3424533Y1697088D03*
X3396033Y1695588D03*
X3402403Y1620588D03*
Y1583638D03*
X3403403Y1516958D03*
X3430583Y1529768D03*
X3466403Y1508958D03*
X3352403Y1516958D03*
X3352533Y1492088D03*
X3285003Y1540708D03*
X3270533Y1427088D03*
X3235353Y1402918D03*
X3229533Y1453088D03*
X3166403Y1504958D03*
X3127533Y1502088D03*
X3061403Y1470958D03*
X3060533Y1535088D03*
X3032403Y1336958D03*
X3017403Y1305958D03*
X2997403Y1317958D03*
X2977403Y1330958D03*
X2958403Y1344958D03*
X2939403Y1359958D03*
X2920403Y1376958D03*
X3038403Y1294958D03*
X3060403Y1283958D03*
X3181598Y1241641D03*
X3394922Y1241800D03*
X3421861Y1247800D03*
X3449681Y1255522D03*
X3552001Y1298620D03*
X3591733Y1413788D03*
X3598713Y1506958D03*
X3597713Y1542958D03*
X3686773Y1587268D03*
X3685773Y1606268D03*
X3704373Y1611038D03*
X3705773Y1590268D03*
X3787433Y1621088D03*
X3784425Y1542447D03*
X3772775Y1524088D03*
X3759403Y1502958D03*
X3748403Y1480958D03*
X3732403Y1464958D03*
X3721166Y1441431D03*
X3703936Y1424668D03*
X3647638Y1365265D03*
X3751403Y1710958D03*
X3813533Y1682088D03*
X3799533Y1773088D03*
X3797533Y1825088D03*
X3762713Y1887268D03*
X3802533Y1922088D03*
X3697723Y1930048D03*
X3697013Y1954798D03*
X3672973Y1929338D03*
X3698433Y1905298D03*
X3672783Y2031748D03*
X3652193Y2011158D03*
X3631603Y1990568D03*
X3615533Y2100158D03*
X3598363Y2082988D03*
X3577773Y2062398D03*
X3532103Y2121208D03*
X3531403Y2145958D03*
X3506653Y2145248D03*
X3556153Y2146658D03*
X3702533Y2122088D03*
X3740533Y2072088D03*
X3777533Y2016088D03*
X3402233Y2027258D03*
X3376533Y2042088D03*
X3363403Y2056958D03*
X3293703Y1975958D03*
X3258273Y1977088D03*
X3176403Y2000958D03*
X3192903Y1924958D03*
X3127773Y1803818D03*
X3108065Y1805380D03*
X3285403Y1801958D03*
X3336403Y1724958D03*
X3523533Y1846088D03*
X3530693Y2170698D03*
X3549533Y2248088D03*
X3606533Y2208088D03*
X3661533Y2161088D03*
X2937403Y1432958D03*
X2955403Y1414958D03*
X2973403Y1396958D03*
X2991403Y1378958D03*
X3061403Y1370958D03*
Y1395958D03*
X3087403Y1394958D03*
X3086403Y1369958D03*
X3134403Y1356958D03*
X3160403Y1357958D03*
X3158403Y1333958D03*
X3184403Y1332958D03*
X3322533Y1449088D03*
X3441533Y1463038D03*
X3448533Y1421088D03*
X3425533Y1401088D03*
X3428533Y1369088D03*
X3626533Y1507088D03*
X3255533Y1642448D03*
X3251403Y1700958D03*
Y1735958D03*
X3214563D03*
X3029533Y1581088D03*
X2954533Y1528088D03*
X2929533Y1540088D03*
X2930533Y1503088D03*
X2907533Y1517088D03*
G54D11*
X3109533Y1616088D03*
X3108533Y1647088D03*
X3108803Y1678548D03*
X3156043D03*
X3156533Y1647088D03*
X3157533Y1617088D03*
X3200533D03*
X3199533Y1647088D03*
X3156043Y1725798D03*
X3108803D03*
G54D12*
X3224541Y2333657D03*
X3350501Y2333581D03*
X3836985Y1846904D03*
X3837028Y1720916D03*
X3350345Y1234275D03*
X3224457Y1234349D03*
X2737748Y1846920D03*
X2737749Y1720981D03*
G54D13*
X3830591Y1572463D03*
X3816255Y1539875D03*
X3763378Y1447986D03*
X3782861Y1477520D03*
X3800478Y1508205D03*
X3773663Y2103835D03*
X3836825Y1977563D03*
X3824002Y2010539D03*
X3809161Y2042658D03*
X3792360Y2073797D03*
X2801342Y2105293D03*
X2738180Y1979020D03*
X2751003Y2011997D03*
X2765844Y2044117D03*
X2782645Y2075255D03*
X2855690Y1392818D03*
X2832704Y1419716D03*
X2811427Y1447986D03*
X2791944Y1477520D03*
X2774327Y1508205D03*
G54D10*
X3488273Y2836140D03*
X3509923D03*
Y2855290D03*
X3531453Y2855160D03*
X3488403Y2855430D03*
X2902403Y2614430D03*
X2886403Y2631430D03*
X2871403Y2650430D03*
X2855403Y2668430D03*
X2842403Y2687430D03*
X2827403Y2708430D03*
X2815403Y2728430D03*
X2803403Y2749430D03*
X2793403Y2771430D03*
X2784403Y2792430D03*
X2775403Y2814430D03*
X2767403Y2837430D03*
X2760403Y2860430D03*
X2754403Y2883430D03*
X2751403Y2906430D03*
X2770403Y2920430D03*
X2773533Y2948560D03*
X2794403Y2928430D03*
X2811963Y2911130D03*
X2821723Y2850520D03*
Y2822520D03*
X2905723Y2869520D03*
X2995533Y2871710D03*
X3008533Y2885560D03*
X3030953Y2994130D03*
X3064403Y2986430D03*
X3050333Y3026349D03*
X3008234Y3027477D03*
X2986234Y3026477D03*
X2962234Y3026977D03*
X2929073Y3025090D03*
X2911723Y3016520D03*
X2898223Y3030020D03*
X2883723Y3042520D03*
X2865723Y3061520D03*
X2847273Y3069290D03*
X2810723Y3073520D03*
X2826273Y3089290D03*
X2777963Y3093130D03*
X2780953Y3113130D03*
X2786953Y3135130D03*
X2753723Y3135520D03*
X2748723Y3112520D03*
X2759953Y3159130D03*
X2766963Y3182130D03*
X2776953Y3203130D03*
X2784723Y3224520D03*
X2794723Y3244520D03*
X2806723Y3264130D03*
X2828773D03*
X2850823D03*
X2872863D03*
X2894913D03*
X2915953D03*
Y3245130D03*
Y3226130D03*
X2935953D03*
X2955463Y3220130D03*
Y3198130D03*
Y3178130D03*
Y3158130D03*
Y3137680D03*
Y3118630D03*
Y3099480D03*
Y3080630D03*
X2936953Y3079130D03*
X2917963Y3078130D03*
X2895723Y3075520D03*
X2793723Y3058520D03*
X2772723Y3051520D03*
X2771493Y3033460D03*
X2772197Y2999642D03*
X2774953Y3072130D03*
X3016653Y3085380D03*
Y3105380D03*
Y3125380D03*
X3038653D03*
Y3105380D03*
X3039653Y3085380D03*
X3102172Y3088769D03*
X3098403Y3107430D03*
Y3130430D03*
X3094963Y3154130D03*
X3073963D03*
X3052963Y3153130D03*
X3052653Y3172380D03*
X3037273Y3186290D03*
X3016273Y3186380D03*
Y3205610D03*
Y3224830D03*
Y3244060D03*
Y3263290D03*
X3038493D03*
X3059723D03*
X3080943D03*
X3102163D03*
X3123383D03*
X3144723Y3263520D03*
X3165833Y3263290D03*
X3187053D03*
X3208273D03*
X3229493D03*
X3250723D03*
X3271943D03*
X3293163D03*
X3314383D03*
X3335603D03*
X3335403Y3243430D03*
X3363533Y3215430D03*
Y3155560D03*
Y3134560D03*
X3345403Y3046800D03*
X3387533Y3049560D03*
X3413693Y3037560D03*
X3415533Y2999560D03*
X3452533Y3006560D03*
X3471533D03*
X3449533Y3027560D03*
X3445403Y2953430D03*
X3471403Y2954430D03*
X3497403Y2942430D03*
X3424533Y2917560D03*
X3396033Y2916060D03*
X3402403Y2841060D03*
Y2804110D03*
X3403403Y2737430D03*
X3430583Y2750240D03*
X3466403Y2729430D03*
X3352403Y2737430D03*
X3352533Y2712560D03*
X3285003Y2761180D03*
X3270533Y2647560D03*
X3235353Y2623390D03*
X3229533Y2673560D03*
X3166403Y2725430D03*
X3127533Y2722560D03*
X3061403Y2691430D03*
X3060533Y2755560D03*
X3032403Y2557430D03*
X3017403Y2526430D03*
X2997403Y2538430D03*
X2977403Y2551430D03*
X2958403Y2565430D03*
X2939403Y2580430D03*
X2920403Y2597430D03*
X3038403Y2515430D03*
X3060403Y2504430D03*
X3181598Y2462114D03*
X3394922Y2462273D03*
X3421861Y2468273D03*
X3449681Y2475994D03*
X3552001Y2519092D03*
X3591733Y2634260D03*
X3598713Y2727430D03*
X3597713Y2763430D03*
X3686773Y2807740D03*
X3685773Y2826740D03*
X3704373Y2831510D03*
X3705773Y2810740D03*
X3787433Y2841560D03*
X3784425Y2762919D03*
X3772775Y2744560D03*
X3759403Y2723430D03*
X3748403Y2701430D03*
X3732403Y2685430D03*
X3721166Y2661904D03*
X3703936Y2645141D03*
X3647638Y2585738D03*
X3751403Y2931430D03*
X3813533Y2902560D03*
X3799533Y2993560D03*
X3797533Y3045560D03*
X3762713Y3107740D03*
X3802533Y3142560D03*
X3697723Y3150520D03*
X3697013Y3175270D03*
X3672973Y3149810D03*
X3698433Y3125770D03*
X3672783Y3252220D03*
X3652193Y3231630D03*
X3631603Y3211040D03*
X3615533Y3320630D03*
X3598363Y3303460D03*
X3577773Y3282870D03*
X3532103Y3341680D03*
X3531403Y3366430D03*
X3506653Y3365720D03*
X3556153Y3367130D03*
X3702533Y3342560D03*
X3740533Y3292560D03*
X3777533Y3236560D03*
X3402233Y3247730D03*
X3376533Y3262560D03*
X3363403Y3277430D03*
X3293703Y3196430D03*
X3258273Y3197560D03*
X3176403Y3221430D03*
X3192903Y3145430D03*
X3127773Y3024290D03*
X3108065Y3025852D03*
X3285403Y3022430D03*
X3336403Y2945430D03*
X3523533Y3066560D03*
X3530693Y3391170D03*
X3549533Y3468560D03*
X3606533Y3428560D03*
X3661533Y3381560D03*
X2937403Y2653430D03*
X2955403Y2635430D03*
X2973403Y2617430D03*
X2991403Y2599430D03*
X3061403Y2591430D03*
Y2616430D03*
X3087403Y2615430D03*
X3086403Y2590430D03*
X3134403Y2577430D03*
X3160403Y2578430D03*
X3158403Y2554430D03*
X3184403Y2553430D03*
X3322533Y2669560D03*
X3441533Y2683510D03*
X3448533Y2641560D03*
X3425533Y2621560D03*
X3428533Y2589560D03*
X3626533Y2727560D03*
X3255533Y2862920D03*
X3251403Y2921430D03*
Y2956430D03*
X3214563D03*
X3029533Y2801560D03*
X2954533Y2748560D03*
X2929533Y2760560D03*
X2930533Y2723560D03*
X2907533Y2737560D03*
G54D11*
X3109533Y2836560D03*
X3108533Y2867560D03*
X3108803Y2899020D03*
X3156043D03*
X3156533Y2867560D03*
X3157533Y2837560D03*
X3200533D03*
X3199533Y2867560D03*
X3156043Y2946270D03*
X3108803D03*
G54D12*
X3224541Y3554129D03*
X3350501Y3554053D03*
X3836985Y3067377D03*
X3837028Y2941389D03*
X3350345Y2454748D03*
X3224457Y2454821D03*
X2737748Y3067392D03*
X2737749Y2941453D03*
G54D13*
X3830591Y2792935D03*
X3816255Y2760348D03*
X3763378Y2668459D03*
X3782861Y2697993D03*
X3800478Y2728677D03*
X3773663Y3324308D03*
X3836825Y3198035D03*
X3824002Y3231012D03*
X3809161Y3263131D03*
X3792360Y3294270D03*
X2801342Y3325766D03*
X2738180Y3199493D03*
X2751003Y3232470D03*
X2765844Y3264589D03*
X2782645Y3295727D03*
X2855690Y2613290D03*
X2832704Y2640188D03*
X2811427Y2668459D03*
X2791944Y2697993D03*
X2774327Y2728677D03*
G54D10*
X3488273Y4056613D03*
X3509923D03*
Y4075763D03*
X3531453Y4075633D03*
X3488403Y4075903D03*
X2902403Y3834903D03*
X2886403Y3851903D03*
X2871403Y3870903D03*
X2855403Y3888903D03*
X2842403Y3907903D03*
X2827403Y3928903D03*
X2815403Y3948903D03*
X2803403Y3969903D03*
X2793403Y3991903D03*
X2784403Y4012903D03*
X2775403Y4034903D03*
X2767403Y4057903D03*
X2760403Y4080903D03*
X2754403Y4103903D03*
X2751403Y4126903D03*
X2770403Y4140903D03*
X2773533Y4169033D03*
X2794403Y4148903D03*
X2811963Y4131603D03*
X2821723Y4070993D03*
Y4042993D03*
X2905723Y4089993D03*
X2995533Y4092183D03*
X3008533Y4106033D03*
X3030953Y4214603D03*
X3064403Y4206903D03*
X3050333Y4246821D03*
X3008234Y4247950D03*
X2986234Y4246950D03*
X2962234Y4247450D03*
X2929073Y4245563D03*
X2911723Y4236993D03*
X2898223Y4250493D03*
X2883723Y4262993D03*
X2865723Y4281993D03*
X2847273Y4289763D03*
X2810723Y4293993D03*
X2826273Y4309763D03*
X2777963Y4313603D03*
X2780953Y4333603D03*
X2786953Y4355603D03*
X2753723Y4355993D03*
X2748723Y4332993D03*
X2759953Y4379603D03*
X2766963Y4402603D03*
X2776953Y4423603D03*
X2784723Y4444993D03*
X2794723Y4464993D03*
X2806723Y4484603D03*
X2828773D03*
X2850823D03*
X2872863D03*
X2894913D03*
X2915953D03*
Y4465603D03*
Y4446603D03*
X2935953D03*
X2955463Y4440603D03*
Y4418603D03*
Y4398603D03*
Y4378603D03*
Y4358153D03*
Y4339103D03*
Y4319953D03*
Y4301103D03*
X2936953Y4299603D03*
X2917963Y4298603D03*
X2895723Y4295993D03*
X2793723Y4278993D03*
X2772723Y4271993D03*
X2771493Y4253932D03*
X2772197Y4220114D03*
X2774953Y4292603D03*
X3016653Y4305853D03*
Y4325853D03*
Y4345853D03*
X3038653D03*
Y4325853D03*
X3039653Y4305853D03*
X3102172Y4309241D03*
X3098403Y4327903D03*
Y4350903D03*
X3094963Y4374603D03*
X3073963D03*
X3052963Y4373603D03*
X3052653Y4392853D03*
X3037273Y4406763D03*
X3016273Y4406853D03*
Y4426083D03*
Y4445303D03*
Y4464533D03*
Y4483763D03*
X3038493D03*
X3059723D03*
X3080943D03*
X3102163D03*
X3123383D03*
X3144723Y4483993D03*
X3165833Y4483763D03*
X3187053D03*
X3208273D03*
X3229493D03*
X3250723D03*
X3271943D03*
X3293163D03*
X3314383D03*
X3335603D03*
X3335403Y4463903D03*
X3363533Y4435903D03*
Y4376033D03*
Y4355033D03*
X3345403Y4267273D03*
X3387533Y4270033D03*
X3413693Y4258033D03*
X3415533Y4220033D03*
X3452533Y4227033D03*
X3471533D03*
X3449533Y4248033D03*
X3445403Y4173903D03*
X3471403Y4174903D03*
X3497403Y4162903D03*
X3424533Y4138033D03*
X3396033Y4136533D03*
X3402403Y4061533D03*
Y4024583D03*
X3403403Y3957903D03*
X3430583Y3970713D03*
X3466403Y3949903D03*
X3352403Y3957903D03*
X3352533Y3933033D03*
X3285003Y3981653D03*
X3270533Y3868033D03*
X3235353Y3843863D03*
X3229533Y3894033D03*
X3166403Y3945903D03*
X3127533Y3943033D03*
X3061403Y3911903D03*
X3060533Y3976033D03*
X3032403Y3777903D03*
X3017403Y3746903D03*
X2997403Y3758903D03*
X2977403Y3771903D03*
X2958403Y3785903D03*
X2939403Y3800903D03*
X2920403Y3817903D03*
X3038403Y3735903D03*
X3060403Y3724903D03*
X3181598Y3682586D03*
X3394922Y3682745D03*
X3421861Y3688745D03*
X3449681Y3696467D03*
X3552001Y3739564D03*
X3591733Y3854733D03*
X3598713Y3947903D03*
X3597713Y3983903D03*
X3686773Y4028213D03*
X3685773Y4047213D03*
X3704373Y4051983D03*
X3705773Y4031213D03*
X3787433Y4062033D03*
X3784425Y3983391D03*
X3772775Y3965033D03*
X3759403Y3943903D03*
X3748403Y3921903D03*
X3732403Y3905903D03*
X3721166Y3882376D03*
X3703936Y3865613D03*
X3647638Y3806210D03*
X3751403Y4151903D03*
X3813533Y4123033D03*
X3799533Y4214033D03*
X3797533Y4266033D03*
X3762713Y4328213D03*
X3802533Y4363033D03*
X3697723Y4370993D03*
X3697013Y4395743D03*
X3672973Y4370283D03*
X3698433Y4346243D03*
X3672783Y4472693D03*
X3652193Y4452103D03*
X3631603Y4431513D03*
X3615533Y4541103D03*
X3598363Y4523933D03*
X3577773Y4503343D03*
X3532103Y4562153D03*
X3531403Y4586903D03*
X3506653Y4586193D03*
X3556153Y4587603D03*
X3702533Y4563033D03*
X3740533Y4513033D03*
X3777533Y4457033D03*
X3402233Y4468203D03*
X3376533Y4483033D03*
X3363403Y4497903D03*
X3293703Y4416903D03*
X3258273Y4418033D03*
X3176403Y4441903D03*
X3192903Y4365903D03*
X3127773Y4244763D03*
X3108065Y4246325D03*
X3285403Y4242903D03*
X3336403Y4165903D03*
X3523533Y4287033D03*
X3530693Y4611643D03*
X3549533Y4689033D03*
X3606533Y4649033D03*
X3661533Y4602033D03*
X2937403Y3873903D03*
X2955403Y3855903D03*
X2973403Y3837903D03*
X2991403Y3819903D03*
X3061403Y3811903D03*
Y3836903D03*
X3087403Y3835903D03*
X3086403Y3810903D03*
X3134403Y3797903D03*
X3160403Y3798903D03*
X3158403Y3774903D03*
X3184403Y3773903D03*
X3322533Y3890033D03*
X3441533Y3903983D03*
X3448533Y3862033D03*
X3425533Y3842033D03*
X3428533Y3810033D03*
X3626533Y3948033D03*
X3255533Y4083393D03*
X3251403Y4141903D03*
Y4176903D03*
X3214563D03*
X3029533Y4022033D03*
X2954533Y3969033D03*
X2929533Y3981033D03*
X2930533Y3944033D03*
X2907533Y3958033D03*
G54D11*
X3109533Y4057033D03*
X3108533Y4088033D03*
X3108803Y4119493D03*
X3156043D03*
X3156533Y4088033D03*
X3157533Y4058033D03*
X3200533D03*
X3199533Y4088033D03*
X3156043Y4166743D03*
X3108803D03*
G54D12*
X3224541Y4774601D03*
X3350501Y4774526D03*
X3836985Y4287849D03*
X3837028Y4161861D03*
X3350345Y3675220D03*
X3224457Y3675294D03*
X2737748Y4287865D03*
X2737749Y4161925D03*
G54D13*
X3830591Y4013407D03*
X3816255Y3980820D03*
X3763378Y3888931D03*
X3782861Y3918465D03*
X3800478Y3949150D03*
X3773663Y4544780D03*
X3836825Y4418508D03*
X3824002Y4451484D03*
X3809161Y4483603D03*
X3792360Y4514742D03*
X2801342Y4546238D03*
X2738180Y4419965D03*
X2751003Y4452942D03*
X2765844Y4485062D03*
X2782645Y4516200D03*
X2855690Y3833763D03*
X2832704Y3860661D03*
X2811427Y3888931D03*
X2791944Y3918465D03*
X2774327Y3949150D03*
G54D10*
X3488273Y5277085D03*
X3509923D03*
Y5296235D03*
X3531453Y5296105D03*
X3488403Y5296375D03*
X2902403Y5055375D03*
X2886403Y5072375D03*
X2871403Y5091375D03*
X2855403Y5109375D03*
X2842403Y5128375D03*
X2827403Y5149375D03*
X2815403Y5169375D03*
X2803403Y5190375D03*
X2793403Y5212375D03*
X2784403Y5233375D03*
X2775403Y5255375D03*
X2767403Y5278375D03*
X2760403Y5301375D03*
X2754403Y5324375D03*
X2751403Y5347375D03*
X2770403Y5361375D03*
X2773533Y5389505D03*
X2794403Y5369375D03*
X2811963Y5352075D03*
X2821723Y5291465D03*
Y5263465D03*
X2905723Y5310465D03*
X2995533Y5312655D03*
X3008533Y5326505D03*
X3030953Y5435075D03*
X3064403Y5427375D03*
X3050333Y5467294D03*
X3008234Y5468422D03*
X2986234Y5467422D03*
X2962234Y5467922D03*
X2929073Y5466035D03*
X2911723Y5457465D03*
X2898223Y5470965D03*
X2883723Y5483465D03*
X2865723Y5502465D03*
X2847273Y5510235D03*
X2810723Y5514465D03*
X2826273Y5530235D03*
X2777963Y5534075D03*
X2780953Y5554075D03*
X2786953Y5576075D03*
X2753723Y5576465D03*
X2748723Y5553465D03*
X2759953Y5600075D03*
X2766963Y5623075D03*
X2776953Y5644075D03*
X2784723Y5665465D03*
X2794723Y5685465D03*
X2806723Y5705075D03*
X2828773D03*
X2850823D03*
X2872863D03*
X2894913D03*
X2915953D03*
Y5686075D03*
Y5667075D03*
X2935953D03*
X2955463Y5661075D03*
Y5639075D03*
Y5619075D03*
Y5599075D03*
Y5578625D03*
Y5559575D03*
Y5540425D03*
Y5521575D03*
X2936953Y5520075D03*
X2917963Y5519075D03*
X2895723Y5516465D03*
X2793723Y5499465D03*
X2772723Y5492465D03*
X2771493Y5474405D03*
X2772197Y5440587D03*
X2774953Y5513075D03*
X3016653Y5526325D03*
Y5546325D03*
Y5566325D03*
X3038653D03*
Y5546325D03*
X3039653Y5526325D03*
X3102172Y5529714D03*
X3098403Y5548375D03*
Y5571375D03*
X3094963Y5595075D03*
X3073963D03*
X3052963Y5594075D03*
X3052653Y5613325D03*
X3037273Y5627235D03*
X3016273Y5627325D03*
Y5646555D03*
Y5665775D03*
Y5685005D03*
Y5704235D03*
X3038493D03*
X3059723D03*
X3080943D03*
X3102163D03*
X3123383D03*
X3144723Y5704465D03*
X3165833Y5704235D03*
X3187053D03*
X3208273D03*
X3229493D03*
X3250723D03*
X3271943D03*
X3293163D03*
X3314383D03*
X3335603D03*
X3335403Y5684375D03*
X3363533Y5656375D03*
Y5596505D03*
Y5575505D03*
X3345403Y5487745D03*
X3387533Y5490505D03*
X3413693Y5478505D03*
X3415533Y5440505D03*
X3452533Y5447505D03*
X3471533D03*
X3449533Y5468505D03*
X3445403Y5394375D03*
X3471403Y5395375D03*
X3497403Y5383375D03*
X3424533Y5358505D03*
X3396033Y5357005D03*
X3402403Y5282005D03*
Y5245055D03*
X3403403Y5178375D03*
X3430583Y5191185D03*
X3466403Y5170375D03*
X3352403Y5178375D03*
X3352533Y5153505D03*
X3285003Y5202125D03*
X3270533Y5088505D03*
X3235353Y5064335D03*
X3229533Y5114505D03*
X3166403Y5166375D03*
X3127533Y5163505D03*
X3061403Y5132375D03*
X3060533Y5196505D03*
X3032403Y4998375D03*
X3017403Y4967375D03*
X2997403Y4979375D03*
X2977403Y4992375D03*
X2958403Y5006375D03*
X2939403Y5021375D03*
X2920403Y5038375D03*
X3038403Y4956375D03*
X3060403Y4945375D03*
X3181598Y4903059D03*
X3394922Y4903217D03*
X3421861Y4909217D03*
X3449681Y4916939D03*
X3552001Y4960037D03*
X3591733Y5075205D03*
X3598713Y5168375D03*
X3597713Y5204375D03*
X3686773Y5248685D03*
X3685773Y5267685D03*
X3704373Y5272455D03*
X3705773Y5251685D03*
X3787433Y5282505D03*
X3784425Y5203864D03*
X3772775Y5185505D03*
X3759403Y5164375D03*
X3748403Y5142375D03*
X3732403Y5126375D03*
X3721166Y5102849D03*
X3703936Y5086086D03*
X3647638Y5026682D03*
X3751403Y5372375D03*
X3813533Y5343505D03*
X3799533Y5434505D03*
X3797533Y5486505D03*
X3762713Y5548685D03*
X3802533Y5583505D03*
X3697723Y5591465D03*
X3697013Y5616215D03*
X3672973Y5590755D03*
X3698433Y5566715D03*
X3672783Y5693165D03*
X3652193Y5672575D03*
X3631603Y5651985D03*
X3615533Y5761575D03*
X3598363Y5744405D03*
X3577773Y5723815D03*
X3532103Y5782625D03*
X3531403Y5807375D03*
X3506653Y5806665D03*
X3556153Y5808075D03*
X3702533Y5783505D03*
X3740533Y5733505D03*
X3777533Y5677505D03*
X3402233Y5688675D03*
X3376533Y5703505D03*
X3363403Y5718375D03*
X3293703Y5637375D03*
X3258273Y5638505D03*
X3176403Y5662375D03*
X3192903Y5586375D03*
X3127773Y5465235D03*
X3108065Y5466797D03*
X3285403Y5463375D03*
X3336403Y5386375D03*
X3523533Y5507505D03*
X3530693Y5832115D03*
X3549533Y5909505D03*
X3606533Y5869505D03*
X3661533Y5822505D03*
X2937403Y5094375D03*
X2955403Y5076375D03*
X2973403Y5058375D03*
X2991403Y5040375D03*
X3061403Y5032375D03*
Y5057375D03*
X3087403Y5056375D03*
X3086403Y5031375D03*
X3134403Y5018375D03*
X3160403Y5019375D03*
X3158403Y4995375D03*
X3184403Y4994375D03*
X3322533Y5110505D03*
X3441533Y5124455D03*
X3448533Y5082505D03*
X3425533Y5062505D03*
X3428533Y5030505D03*
X3626533Y5168505D03*
X3255533Y5303865D03*
X3251403Y5362375D03*
Y5397375D03*
X3214563D03*
X3029533Y5242505D03*
X2954533Y5189505D03*
X2929533Y5201505D03*
X2930533Y5164505D03*
X2907533Y5178505D03*
G54D11*
X3109533Y5277505D03*
X3108533Y5308505D03*
X3108803Y5339965D03*
X3156043D03*
X3156533Y5308505D03*
X3157533Y5278505D03*
X3200533D03*
X3199533Y5308505D03*
X3156043Y5387215D03*
X3108803D03*
G54D12*
X3224541Y5995074D03*
X3350501Y5994998D03*
X3836985Y5508322D03*
X3837028Y5382334D03*
X3350345Y4895692D03*
X3224457Y4895766D03*
X2737748Y5508337D03*
X2737749Y5382398D03*
G54D13*
X3830591Y5233880D03*
X3816255Y5201292D03*
X3763378Y5109403D03*
X3782861Y5138938D03*
X3800478Y5169622D03*
X3773663Y5765253D03*
X3836825Y5638980D03*
X3824002Y5671957D03*
X3809161Y5704075D03*
X3792360Y5735214D03*
X2801342Y5766711D03*
X2738180Y5640438D03*
X2751003Y5673414D03*
X2765844Y5705534D03*
X2782645Y5736672D03*
X2855690Y5054235D03*
X2832704Y5081133D03*
X2811427Y5109403D03*
X2791944Y5138938D03*
X2774327Y5169622D03*
G54D10*
X4708745Y395195D03*
X4730395D03*
Y414345D03*
X4751925Y414215D03*
X4708875Y414485D03*
X4122875Y173485D03*
X4106875Y190485D03*
X4091875Y209485D03*
X4075875Y227485D03*
X4062875Y246485D03*
X4047875Y267485D03*
X4035875Y287485D03*
X4023875Y308485D03*
X4013875Y330485D03*
X4004875Y351485D03*
X3995875Y373485D03*
X3987875Y396485D03*
X3980875Y419485D03*
X3974875Y442485D03*
X3971875Y465485D03*
X3990875Y479485D03*
X3994005Y507615D03*
X4014875Y487485D03*
X4032435Y470185D03*
X4042195Y409575D03*
Y381575D03*
X4126195Y428575D03*
X4216005Y430765D03*
X4229005Y444615D03*
X4251425Y553185D03*
X4284875Y545485D03*
X4270806Y585404D03*
X4228706Y586532D03*
X4206706Y585532D03*
X4182706Y586032D03*
X4149545Y584145D03*
X4132195Y575575D03*
X4118695Y589075D03*
X4104195Y601575D03*
X4086195Y620575D03*
X4067745Y628345D03*
X4031195Y632575D03*
X4046745Y648345D03*
X3998435Y652185D03*
X4001425Y672185D03*
X4007425Y694185D03*
X3974195Y694575D03*
X3969195Y671575D03*
X3980425Y718185D03*
X3987435Y741185D03*
X3997425Y762185D03*
X4005195Y783575D03*
X4015195Y803575D03*
X4027195Y823185D03*
X4049245D03*
X4071295D03*
X4093335D03*
X4115385D03*
X4136425D03*
Y804185D03*
Y785185D03*
X4156425D03*
X4175935Y779185D03*
Y757185D03*
Y737185D03*
Y717185D03*
Y696735D03*
Y677685D03*
Y658535D03*
Y639685D03*
X4157425Y638185D03*
X4138435Y637185D03*
X4116195Y634575D03*
X4014195Y617575D03*
X3993195Y610575D03*
X3991966Y592515D03*
X3992670Y558697D03*
X3995425Y631185D03*
X4237125Y644435D03*
Y664435D03*
Y684435D03*
X4259125D03*
Y664435D03*
X4260125Y644435D03*
X4322645Y647824D03*
X4318875Y666485D03*
Y689485D03*
X4315435Y713185D03*
X4294435D03*
X4273435Y712185D03*
X4273125Y731435D03*
X4257745Y745345D03*
X4236745Y745435D03*
Y764665D03*
Y783885D03*
Y803115D03*
Y822345D03*
X4258965D03*
X4280195D03*
X4301415D03*
X4322635D03*
X4343855D03*
X4365195Y822575D03*
X4386305Y822345D03*
X4407525D03*
X4428745D03*
X4449965D03*
X4471195D03*
X4492415D03*
X4513635D03*
X4534855D03*
X4556075D03*
X4555875Y802485D03*
X4584005Y774485D03*
Y714615D03*
Y693615D03*
X4565875Y605855D03*
X4608005Y608615D03*
X4634165Y596615D03*
X4636005Y558615D03*
X4673005Y565615D03*
X4692005D03*
X4670005Y586615D03*
X4665875Y512485D03*
X4691875Y513485D03*
X4717875Y501485D03*
X4645005Y476615D03*
X4616505Y475115D03*
X4622875Y400115D03*
Y363165D03*
X4623875Y296485D03*
X4651055Y309295D03*
X4686875Y288485D03*
X4572875Y296485D03*
X4573005Y271615D03*
X4505475Y320235D03*
X4491005Y206615D03*
X4455825Y182445D03*
X4450005Y232615D03*
X4386875Y284485D03*
X4348005Y281615D03*
X4281875Y250485D03*
X4281005Y314615D03*
X4252875Y116485D03*
X4237875Y85485D03*
X4217875Y97485D03*
X4197875Y110485D03*
X4178875Y124485D03*
X4159875Y139485D03*
X4140875Y156485D03*
X4258875Y74485D03*
X4280875Y63485D03*
X4402071Y21169D03*
X4615394Y21328D03*
X4642334Y27328D03*
X4670153Y35050D03*
X4772474Y78147D03*
X4812205Y193315D03*
X4819185Y286485D03*
X4818185Y322485D03*
X4907245Y366795D03*
X4906245Y385795D03*
X4924845Y390565D03*
X4926245Y369795D03*
X5007905Y400615D03*
X5004898Y321974D03*
X4993247Y303615D03*
X4979875Y282485D03*
X4968875Y260485D03*
X4952875Y244485D03*
X4941639Y220959D03*
X4924408Y204196D03*
X4868111Y144793D03*
X4971875Y490485D03*
X5034005Y461615D03*
X5020005Y552615D03*
X5018005Y604615D03*
X4983185Y666795D03*
X5023005Y701615D03*
X4918195Y709575D03*
X4917485Y734325D03*
X4893445Y708865D03*
X4918905Y684825D03*
X4893255Y811275D03*
X4872665Y790685D03*
X4852075Y770095D03*
X4836005Y879685D03*
X4818835Y862515D03*
X4798245Y841925D03*
X4752575Y900735D03*
X4751875Y925485D03*
X4727125Y924775D03*
X4776625Y926185D03*
X4923005Y901615D03*
X4961005Y851615D03*
X4998005Y795615D03*
X4622705Y806785D03*
X4597005Y821615D03*
X4583875Y836485D03*
X4514175Y755485D03*
X4478745Y756615D03*
X4396875Y780485D03*
X4413375Y704485D03*
X4348245Y583345D03*
X4328537Y584907D03*
X4505875Y581485D03*
X4556875Y504485D03*
X4744005Y625615D03*
X4751165Y950225D03*
X4770005Y1027615D03*
X4827005Y987615D03*
X4882005Y940615D03*
X4157875Y212485D03*
X4175875Y194485D03*
X4193875Y176485D03*
X4211875Y158485D03*
X4281875Y150485D03*
Y175485D03*
X4307875Y174485D03*
X4306875Y149485D03*
X4354875Y136485D03*
X4380875Y137485D03*
X4378875Y113485D03*
X4404875Y112485D03*
X4543005Y228615D03*
X4662005Y242565D03*
X4669005Y200615D03*
X4646005Y180615D03*
X4649005Y148615D03*
X4847005Y286615D03*
X4476005Y421975D03*
X4471875Y480485D03*
Y515485D03*
X4435035D03*
X4250005Y360615D03*
X4175005Y307615D03*
X4150005Y319615D03*
X4151005Y282615D03*
X4128005Y296615D03*
G54D11*
X4330005Y395615D03*
X4329005Y426615D03*
X4329275Y458075D03*
X4376515D03*
X4377005Y426615D03*
X4378005Y396615D03*
X4421005D03*
X4420005Y426615D03*
X4376515Y505325D03*
X4329275D03*
G54D12*
X4445014Y1113184D03*
X4570973Y1113109D03*
X5057457Y626432D03*
X5057500Y500444D03*
X4570818Y13803D03*
X4444930Y13876D03*
X3958220Y626448D03*
X3958221Y500508D03*
G54D13*
X5051063Y351990D03*
X5036728Y319403D03*
X4983850Y227514D03*
X5003334Y257048D03*
X5020951Y287732D03*
X4994135Y883363D03*
X5057297Y757090D03*
X5044474Y790067D03*
X5029634Y822186D03*
X5012833Y853325D03*
X4021814Y884821D03*
X3958653Y758548D03*
X3971476Y791525D03*
X3986316Y823644D03*
X4003117Y854782D03*
X4076163Y172346D03*
X4053176Y199243D03*
X4031900Y227514D03*
X4012417Y257048D03*
X3994799Y287732D03*
G54D10*
X4708745Y1615668D03*
X4730395D03*
Y1634818D03*
X4751925Y1634688D03*
X4708875Y1634958D03*
X4122875Y1393958D03*
X4106875Y1410958D03*
X4091875Y1429958D03*
X4075875Y1447958D03*
X4062875Y1466958D03*
X4047875Y1487958D03*
X4035875Y1507958D03*
X4023875Y1528958D03*
X4013875Y1550958D03*
X4004875Y1571958D03*
X3995875Y1593958D03*
X3987875Y1616958D03*
X3980875Y1639958D03*
X3974875Y1662958D03*
X3971875Y1685958D03*
X3990875Y1699958D03*
X3994005Y1728088D03*
X4014875Y1707958D03*
X4032435Y1690658D03*
X4042195Y1630048D03*
Y1602048D03*
X4126195Y1649048D03*
X4216005Y1651238D03*
X4229005Y1665088D03*
X4251425Y1773658D03*
X4284875Y1765958D03*
X4270806Y1805876D03*
X4228706Y1807005D03*
X4206706Y1806005D03*
X4182706Y1806505D03*
X4149545Y1804618D03*
X4132195Y1796048D03*
X4118695Y1809548D03*
X4104195Y1822048D03*
X4086195Y1841048D03*
X4067745Y1848818D03*
X4031195Y1853048D03*
X4046745Y1868818D03*
X3998435Y1872658D03*
X4001425Y1892658D03*
X4007425Y1914658D03*
X3974195Y1915048D03*
X3969195Y1892048D03*
X3980425Y1938658D03*
X3987435Y1961658D03*
X3997425Y1982658D03*
X4005195Y2004048D03*
X4015195Y2024048D03*
X4027195Y2043658D03*
X4049245D03*
X4071295D03*
X4093335D03*
X4115385D03*
X4136425D03*
Y2024658D03*
Y2005658D03*
X4156425D03*
X4175935Y1999658D03*
Y1977658D03*
Y1957658D03*
Y1937658D03*
Y1917208D03*
Y1898158D03*
Y1879008D03*
Y1860158D03*
X4157425Y1858658D03*
X4138435Y1857658D03*
X4116195Y1855048D03*
X4014195Y1838048D03*
X3993195Y1831048D03*
X3991966Y1812987D03*
X3992670Y1779170D03*
X3995425Y1851658D03*
X4237125Y1864908D03*
Y1884908D03*
Y1904908D03*
X4259125D03*
Y1884908D03*
X4260125Y1864908D03*
X4322645Y1868297D03*
X4318875Y1886958D03*
Y1909958D03*
X4315435Y1933658D03*
X4294435D03*
X4273435Y1932658D03*
X4273125Y1951908D03*
X4257745Y1965818D03*
X4236745Y1965908D03*
Y1985138D03*
Y2004358D03*
Y2023588D03*
Y2042818D03*
X4258965D03*
X4280195D03*
X4301415D03*
X4322635D03*
X4343855D03*
X4365195Y2043048D03*
X4386305Y2042818D03*
X4407525D03*
X4428745D03*
X4449965D03*
X4471195D03*
X4492415D03*
X4513635D03*
X4534855D03*
X4556075D03*
X4555875Y2022958D03*
X4584005Y1994958D03*
Y1935088D03*
Y1914088D03*
X4565875Y1826328D03*
X4608005Y1829088D03*
X4634165Y1817088D03*
X4636005Y1779088D03*
X4673005Y1786088D03*
X4692005D03*
X4670005Y1807088D03*
X4665875Y1732958D03*
X4691875Y1733958D03*
X4717875Y1721958D03*
X4645005Y1697088D03*
X4616505Y1695588D03*
X4622875Y1620588D03*
Y1583638D03*
X4623875Y1516958D03*
X4651055Y1529768D03*
X4686875Y1508958D03*
X4572875Y1516958D03*
X4573005Y1492088D03*
X4505475Y1540708D03*
X4491005Y1427088D03*
X4455825Y1402918D03*
X4450005Y1453088D03*
X4386875Y1504958D03*
X4348005Y1502088D03*
X4281875Y1470958D03*
X4281005Y1535088D03*
X4252875Y1336958D03*
X4237875Y1305958D03*
X4217875Y1317958D03*
X4197875Y1330958D03*
X4178875Y1344958D03*
X4159875Y1359958D03*
X4140875Y1376958D03*
X4258875Y1294958D03*
X4280875Y1283958D03*
X4402071Y1241641D03*
X4615394Y1241800D03*
X4642334Y1247800D03*
X4670153Y1255522D03*
X4772474Y1298620D03*
X4812205Y1413788D03*
X4819185Y1506958D03*
X4818185Y1542958D03*
X4907245Y1587268D03*
X4906245Y1606268D03*
X4924845Y1611038D03*
X4926245Y1590268D03*
X5007905Y1621088D03*
X5004898Y1542447D03*
X4993247Y1524088D03*
X4979875Y1502958D03*
X4968875Y1480958D03*
X4952875Y1464958D03*
X4941639Y1441431D03*
X4924408Y1424668D03*
X4868111Y1365265D03*
X4971875Y1710958D03*
X5034005Y1682088D03*
X5020005Y1773088D03*
X5018005Y1825088D03*
X4983185Y1887268D03*
X5023005Y1922088D03*
X4918195Y1930048D03*
X4917485Y1954798D03*
X4893445Y1929338D03*
X4918905Y1905298D03*
X4893255Y2031748D03*
X4872665Y2011158D03*
X4852075Y1990568D03*
X4836005Y2100158D03*
X4818835Y2082988D03*
X4798245Y2062398D03*
X4752575Y2121208D03*
X4751875Y2145958D03*
X4727125Y2145248D03*
X4776625Y2146658D03*
X4923005Y2122088D03*
X4961005Y2072088D03*
X4998005Y2016088D03*
X4622705Y2027258D03*
X4597005Y2042088D03*
X4583875Y2056958D03*
X4514175Y1975958D03*
X4478745Y1977088D03*
X4396875Y2000958D03*
X4413375Y1924958D03*
X4348245Y1803818D03*
X4328537Y1805380D03*
X4505875Y1801958D03*
X4556875Y1724958D03*
X4744005Y1846088D03*
X4751165Y2170698D03*
X4770005Y2248088D03*
X4827005Y2208088D03*
X4882005Y2161088D03*
X4157875Y1432958D03*
X4175875Y1414958D03*
X4193875Y1396958D03*
X4211875Y1378958D03*
X4281875Y1370958D03*
Y1395958D03*
X4307875Y1394958D03*
X4306875Y1369958D03*
X4354875Y1356958D03*
X4380875Y1357958D03*
X4378875Y1333958D03*
X4404875Y1332958D03*
X4543005Y1449088D03*
X4662005Y1463038D03*
X4669005Y1421088D03*
X4646005Y1401088D03*
X4649005Y1369088D03*
X4847005Y1507088D03*
X4476005Y1642448D03*
X4471875Y1700958D03*
Y1735958D03*
X4435035D03*
X4250005Y1581088D03*
X4175005Y1528088D03*
X4150005Y1540088D03*
X4151005Y1503088D03*
X4128005Y1517088D03*
G54D11*
X4330005Y1616088D03*
X4329005Y1647088D03*
X4329275Y1678548D03*
X4376515D03*
X4377005Y1647088D03*
X4378005Y1617088D03*
X4421005D03*
X4420005Y1647088D03*
X4376515Y1725798D03*
X4329275D03*
G54D12*
X4445014Y2333657D03*
X4570973Y2333581D03*
X5057457Y1846904D03*
X5057500Y1720916D03*
X4570818Y1234275D03*
X4444930Y1234349D03*
X3958220Y1846920D03*
X3958221Y1720981D03*
G54D13*
X5051063Y1572463D03*
X5036728Y1539875D03*
X4983850Y1447986D03*
X5003334Y1477520D03*
X5020951Y1508205D03*
X4994135Y2103835D03*
X5057297Y1977563D03*
X5044474Y2010539D03*
X5029634Y2042658D03*
X5012833Y2073797D03*
X4021814Y2105293D03*
X3958653Y1979020D03*
X3971476Y2011997D03*
X3986316Y2044117D03*
X4003117Y2075255D03*
X4076163Y1392818D03*
X4053176Y1419716D03*
X4031900Y1447986D03*
X4012417Y1477520D03*
X3994799Y1508205D03*
G54D10*
X4708745Y2836140D03*
X4730395D03*
Y2855290D03*
X4751925Y2855160D03*
X4708875Y2855430D03*
X4122875Y2614430D03*
X4106875Y2631430D03*
X4091875Y2650430D03*
X4075875Y2668430D03*
X4062875Y2687430D03*
X4047875Y2708430D03*
X4035875Y2728430D03*
X4023875Y2749430D03*
X4013875Y2771430D03*
X4004875Y2792430D03*
X3995875Y2814430D03*
X3987875Y2837430D03*
X3980875Y2860430D03*
X3974875Y2883430D03*
X3971875Y2906430D03*
X3990875Y2920430D03*
X3994005Y2948560D03*
X4014875Y2928430D03*
X4032435Y2911130D03*
X4042195Y2850520D03*
Y2822520D03*
X4126195Y2869520D03*
X4216005Y2871710D03*
X4229005Y2885560D03*
X4251425Y2994130D03*
X4284875Y2986430D03*
X4270806Y3026349D03*
X4228706Y3027477D03*
X4206706Y3026477D03*
X4182706Y3026977D03*
X4149545Y3025090D03*
X4132195Y3016520D03*
X4118695Y3030020D03*
X4104195Y3042520D03*
X4086195Y3061520D03*
X4067745Y3069290D03*
X4031195Y3073520D03*
X4046745Y3089290D03*
X3998435Y3093130D03*
X4001425Y3113130D03*
X4007425Y3135130D03*
X3974195Y3135520D03*
X3969195Y3112520D03*
X3980425Y3159130D03*
X3987435Y3182130D03*
X3997425Y3203130D03*
X4005195Y3224520D03*
X4015195Y3244520D03*
X4027195Y3264130D03*
X4049245D03*
X4071295D03*
X4093335D03*
X4115385D03*
X4136425D03*
Y3245130D03*
Y3226130D03*
X4156425D03*
X4175935Y3220130D03*
Y3198130D03*
Y3178130D03*
Y3158130D03*
Y3137680D03*
Y3118630D03*
Y3099480D03*
Y3080630D03*
X4157425Y3079130D03*
X4138435Y3078130D03*
X4116195Y3075520D03*
X4014195Y3058520D03*
X3993195Y3051520D03*
X3991966Y3033460D03*
X3992670Y2999642D03*
X3995425Y3072130D03*
X4237125Y3085380D03*
Y3105380D03*
Y3125380D03*
X4259125D03*
Y3105380D03*
X4260125Y3085380D03*
X4322645Y3088769D03*
X4318875Y3107430D03*
Y3130430D03*
X4315435Y3154130D03*
X4294435D03*
X4273435Y3153130D03*
X4273125Y3172380D03*
X4257745Y3186290D03*
X4236745Y3186380D03*
Y3205610D03*
Y3224830D03*
Y3244060D03*
Y3263290D03*
X4258965D03*
X4280195D03*
X4301415D03*
X4322635D03*
X4343855D03*
X4365195Y3263520D03*
X4386305Y3263290D03*
X4407525D03*
X4428745D03*
X4449965D03*
X4471195D03*
X4492415D03*
X4513635D03*
X4534855D03*
X4556075D03*
X4555875Y3243430D03*
X4584005Y3215430D03*
Y3155560D03*
Y3134560D03*
X4565875Y3046800D03*
X4608005Y3049560D03*
X4634165Y3037560D03*
X4636005Y2999560D03*
X4673005Y3006560D03*
X4692005D03*
X4670005Y3027560D03*
X4665875Y2953430D03*
X4691875Y2954430D03*
X4717875Y2942430D03*
X4645005Y2917560D03*
X4616505Y2916060D03*
X4622875Y2841060D03*
Y2804110D03*
X4623875Y2737430D03*
X4651055Y2750240D03*
X4686875Y2729430D03*
X4572875Y2737430D03*
X4573005Y2712560D03*
X4505475Y2761180D03*
X4491005Y2647560D03*
X4455825Y2623390D03*
X4450005Y2673560D03*
X4386875Y2725430D03*
X4348005Y2722560D03*
X4281875Y2691430D03*
X4281005Y2755560D03*
X4252875Y2557430D03*
X4237875Y2526430D03*
X4217875Y2538430D03*
X4197875Y2551430D03*
X4178875Y2565430D03*
X4159875Y2580430D03*
X4140875Y2597430D03*
X4258875Y2515430D03*
X4280875Y2504430D03*
X4402071Y2462114D03*
X4615394Y2462273D03*
X4642334Y2468273D03*
X4670153Y2475994D03*
X4772474Y2519092D03*
X4812205Y2634260D03*
X4819185Y2727430D03*
X4818185Y2763430D03*
X4907245Y2807740D03*
X4906245Y2826740D03*
X4924845Y2831510D03*
X4926245Y2810740D03*
X5007905Y2841560D03*
X5004898Y2762919D03*
X4993247Y2744560D03*
X4979875Y2723430D03*
X4968875Y2701430D03*
X4952875Y2685430D03*
X4941639Y2661904D03*
X4924408Y2645141D03*
X4868111Y2585738D03*
X4971875Y2931430D03*
X5034005Y2902560D03*
X5020005Y2993560D03*
X5018005Y3045560D03*
X4983185Y3107740D03*
X5023005Y3142560D03*
X4918195Y3150520D03*
X4917485Y3175270D03*
X4893445Y3149810D03*
X4918905Y3125770D03*
X4893255Y3252220D03*
X4872665Y3231630D03*
X4852075Y3211040D03*
X4836005Y3320630D03*
X4818835Y3303460D03*
X4798245Y3282870D03*
X4752575Y3341680D03*
X4751875Y3366430D03*
X4727125Y3365720D03*
X4776625Y3367130D03*
X4923005Y3342560D03*
X4961005Y3292560D03*
X4998005Y3236560D03*
X4622705Y3247730D03*
X4597005Y3262560D03*
X4583875Y3277430D03*
X4514175Y3196430D03*
X4478745Y3197560D03*
X4396875Y3221430D03*
X4413375Y3145430D03*
X4348245Y3024290D03*
X4328537Y3025852D03*
X4505875Y3022430D03*
X4556875Y2945430D03*
X4744005Y3066560D03*
X4751165Y3391170D03*
X4770005Y3468560D03*
X4827005Y3428560D03*
X4882005Y3381560D03*
X4157875Y2653430D03*
X4175875Y2635430D03*
X4193875Y2617430D03*
X4211875Y2599430D03*
X4281875Y2591430D03*
Y2616430D03*
X4307875Y2615430D03*
X4306875Y2590430D03*
X4354875Y2577430D03*
X4380875Y2578430D03*
X4378875Y2554430D03*
X4404875Y2553430D03*
X4543005Y2669560D03*
X4662005Y2683510D03*
X4669005Y2641560D03*
X4646005Y2621560D03*
X4649005Y2589560D03*
X4847005Y2727560D03*
X4476005Y2862920D03*
X4471875Y2921430D03*
Y2956430D03*
X4435035D03*
X4250005Y2801560D03*
X4175005Y2748560D03*
X4150005Y2760560D03*
X4151005Y2723560D03*
X4128005Y2737560D03*
G54D11*
X4330005Y2836560D03*
X4329005Y2867560D03*
X4329275Y2899020D03*
X4376515D03*
X4377005Y2867560D03*
X4378005Y2837560D03*
X4421005D03*
X4420005Y2867560D03*
X4376515Y2946270D03*
X4329275D03*
G54D12*
X4445014Y3554129D03*
X4570973Y3554053D03*
X5057457Y3067377D03*
X5057500Y2941389D03*
X4570818Y2454748D03*
X4444930Y2454821D03*
X3958220Y3067392D03*
X3958221Y2941453D03*
G54D13*
X5051063Y2792935D03*
X5036728Y2760348D03*
X4983850Y2668459D03*
X5003334Y2697993D03*
X5020951Y2728677D03*
X4994135Y3324308D03*
X5057297Y3198035D03*
X5044474Y3231012D03*
X5029634Y3263131D03*
X5012833Y3294270D03*
X4021814Y3325766D03*
X3958653Y3199493D03*
X3971476Y3232470D03*
X3986316Y3264589D03*
X4003117Y3295727D03*
X4076163Y2613290D03*
X4053176Y2640188D03*
X4031900Y2668459D03*
X4012417Y2697993D03*
X3994799Y2728677D03*
G54D10*
X4708745Y4056613D03*
X4730395D03*
Y4075763D03*
X4751925Y4075633D03*
X4708875Y4075903D03*
X4122875Y3834903D03*
X4106875Y3851903D03*
X4091875Y3870903D03*
X4075875Y3888903D03*
X4062875Y3907903D03*
X4047875Y3928903D03*
X4035875Y3948903D03*
X4023875Y3969903D03*
X4013875Y3991903D03*
X4004875Y4012903D03*
X3995875Y4034903D03*
X3987875Y4057903D03*
X3980875Y4080903D03*
X3974875Y4103903D03*
X3971875Y4126903D03*
X3990875Y4140903D03*
X3994005Y4169033D03*
X4014875Y4148903D03*
X4032435Y4131603D03*
X4042195Y4070993D03*
Y4042993D03*
X4126195Y4089993D03*
X4216005Y4092183D03*
X4229005Y4106033D03*
X4251425Y4214603D03*
X4284875Y4206903D03*
X4270806Y4246821D03*
X4228706Y4247950D03*
X4206706Y4246950D03*
X4182706Y4247450D03*
X4149545Y4245563D03*
X4132195Y4236993D03*
X4118695Y4250493D03*
X4104195Y4262993D03*
X4086195Y4281993D03*
X4067745Y4289763D03*
X4031195Y4293993D03*
X4046745Y4309763D03*
X3998435Y4313603D03*
X4001425Y4333603D03*
X4007425Y4355603D03*
X3974195Y4355993D03*
X3969195Y4332993D03*
X3980425Y4379603D03*
X3987435Y4402603D03*
X3997425Y4423603D03*
X4005195Y4444993D03*
X4015195Y4464993D03*
X4027195Y4484603D03*
X4049245D03*
X4071295D03*
X4093335D03*
X4115385D03*
X4136425D03*
Y4465603D03*
Y4446603D03*
X4156425D03*
X4175935Y4440603D03*
Y4418603D03*
Y4398603D03*
Y4378603D03*
Y4358153D03*
Y4339103D03*
Y4319953D03*
Y4301103D03*
X4157425Y4299603D03*
X4138435Y4298603D03*
X4116195Y4295993D03*
X4014195Y4278993D03*
X3993195Y4271993D03*
X3991966Y4253932D03*
X3992670Y4220114D03*
X3995425Y4292603D03*
X4237125Y4305853D03*
Y4325853D03*
Y4345853D03*
X4259125D03*
Y4325853D03*
X4260125Y4305853D03*
X4322645Y4309241D03*
X4318875Y4327903D03*
Y4350903D03*
X4315435Y4374603D03*
X4294435D03*
X4273435Y4373603D03*
X4273125Y4392853D03*
X4257745Y4406763D03*
X4236745Y4406853D03*
Y4426083D03*
Y4445303D03*
Y4464533D03*
Y4483763D03*
X4258965D03*
X4280195D03*
X4301415D03*
X4322635D03*
X4343855D03*
X4365195Y4483993D03*
X4386305Y4483763D03*
X4407525D03*
X4428745D03*
X4449965D03*
X4471195D03*
X4492415D03*
X4513635D03*
X4534855D03*
X4556075D03*
X4555875Y4463903D03*
X4584005Y4435903D03*
Y4376033D03*
Y4355033D03*
X4565875Y4267273D03*
X4608005Y4270033D03*
X4634165Y4258033D03*
X4636005Y4220033D03*
X4673005Y4227033D03*
X4692005D03*
X4670005Y4248033D03*
X4665875Y4173903D03*
X4691875Y4174903D03*
X4717875Y4162903D03*
X4645005Y4138033D03*
X4616505Y4136533D03*
X4622875Y4061533D03*
Y4024583D03*
X4623875Y3957903D03*
X4651055Y3970713D03*
X4686875Y3949903D03*
X4572875Y3957903D03*
X4573005Y3933033D03*
X4505475Y3981653D03*
X4491005Y3868033D03*
X4455825Y3843863D03*
X4450005Y3894033D03*
X4386875Y3945903D03*
X4348005Y3943033D03*
X4281875Y3911903D03*
X4281005Y3976033D03*
X4252875Y3777903D03*
X4237875Y3746903D03*
X4217875Y3758903D03*
X4197875Y3771903D03*
X4178875Y3785903D03*
X4159875Y3800903D03*
X4140875Y3817903D03*
X4258875Y3735903D03*
X4280875Y3724903D03*
X4402071Y3682586D03*
X4615394Y3682745D03*
X4642334Y3688745D03*
X4670153Y3696467D03*
X4772474Y3739564D03*
X4812205Y3854733D03*
X4819185Y3947903D03*
X4818185Y3983903D03*
X4907245Y4028213D03*
X4906245Y4047213D03*
X4924845Y4051983D03*
X4926245Y4031213D03*
X5007905Y4062033D03*
X5004898Y3983391D03*
X4993247Y3965033D03*
X4979875Y3943903D03*
X4968875Y3921903D03*
X4952875Y3905903D03*
X4941639Y3882376D03*
X4924408Y3865613D03*
X4868111Y3806210D03*
X4971875Y4151903D03*
X5034005Y4123033D03*
X5020005Y4214033D03*
X5018005Y4266033D03*
X4983185Y4328213D03*
X5023005Y4363033D03*
X4918195Y4370993D03*
X4917485Y4395743D03*
X4893445Y4370283D03*
X4918905Y4346243D03*
X4893255Y4472693D03*
X4872665Y4452103D03*
X4852075Y4431513D03*
X4836005Y4541103D03*
X4818835Y4523933D03*
X4798245Y4503343D03*
X4752575Y4562153D03*
X4751875Y4586903D03*
X4727125Y4586193D03*
X4776625Y4587603D03*
X4923005Y4563033D03*
X4961005Y4513033D03*
X4998005Y4457033D03*
X4622705Y4468203D03*
X4597005Y4483033D03*
X4583875Y4497903D03*
X4514175Y4416903D03*
X4478745Y4418033D03*
X4396875Y4441903D03*
X4413375Y4365903D03*
X4348245Y4244763D03*
X4328537Y4246325D03*
X4505875Y4242903D03*
X4556875Y4165903D03*
X4744005Y4287033D03*
X4751165Y4611643D03*
X4770005Y4689033D03*
X4827005Y4649033D03*
X4882005Y4602033D03*
X4157875Y3873903D03*
X4175875Y3855903D03*
X4193875Y3837903D03*
X4211875Y3819903D03*
X4281875Y3811903D03*
Y3836903D03*
X4307875Y3835903D03*
X4306875Y3810903D03*
X4354875Y3797903D03*
X4380875Y3798903D03*
X4378875Y3774903D03*
X4404875Y3773903D03*
X4543005Y3890033D03*
X4662005Y3903983D03*
X4669005Y3862033D03*
X4646005Y3842033D03*
X4649005Y3810033D03*
X4847005Y3948033D03*
X4476005Y4083393D03*
X4471875Y4141903D03*
Y4176903D03*
X4435035D03*
X4250005Y4022033D03*
X4175005Y3969033D03*
X4150005Y3981033D03*
X4151005Y3944033D03*
X4128005Y3958033D03*
G54D11*
X4330005Y4057033D03*
X4329005Y4088033D03*
X4329275Y4119493D03*
X4376515D03*
X4377005Y4088033D03*
X4378005Y4058033D03*
X4421005D03*
X4420005Y4088033D03*
X4376515Y4166743D03*
X4329275D03*
G54D12*
X4445014Y4774601D03*
X4570973Y4774526D03*
X5057457Y4287849D03*
X5057500Y4161861D03*
X4570818Y3675220D03*
X4444930Y3675294D03*
X3958220Y4287865D03*
X3958221Y4161925D03*
G54D13*
X5051063Y4013407D03*
X5036728Y3980820D03*
X4983850Y3888931D03*
X5003334Y3918465D03*
X5020951Y3949150D03*
X4994135Y4544780D03*
X5057297Y4418508D03*
X5044474Y4451484D03*
X5029634Y4483603D03*
X5012833Y4514742D03*
X4021814Y4546238D03*
X3958653Y4419965D03*
X3971476Y4452942D03*
X3986316Y4485062D03*
X4003117Y4516200D03*
X4076163Y3833763D03*
X4053176Y3860661D03*
X4031900Y3888931D03*
X4012417Y3918465D03*
X3994799Y3949150D03*
G54D10*
X4708745Y5277085D03*
X4730395D03*
Y5296235D03*
X4751925Y5296105D03*
X4708875Y5296375D03*
X4122875Y5055375D03*
X4106875Y5072375D03*
X4091875Y5091375D03*
X4075875Y5109375D03*
X4062875Y5128375D03*
X4047875Y5149375D03*
X4035875Y5169375D03*
X4023875Y5190375D03*
X4013875Y5212375D03*
X4004875Y5233375D03*
X3995875Y5255375D03*
X3987875Y5278375D03*
X3980875Y5301375D03*
X3974875Y5324375D03*
X3971875Y5347375D03*
X3990875Y5361375D03*
X3994005Y5389505D03*
X4014875Y5369375D03*
X4032435Y5352075D03*
X4042195Y5291465D03*
Y5263465D03*
X4126195Y5310465D03*
X4216005Y5312655D03*
X4229005Y5326505D03*
X4251425Y5435075D03*
X4284875Y5427375D03*
X4270806Y5467294D03*
X4228706Y5468422D03*
X4206706Y5467422D03*
X4182706Y5467922D03*
X4149545Y5466035D03*
X4132195Y5457465D03*
X4118695Y5470965D03*
X4104195Y5483465D03*
X4086195Y5502465D03*
X4067745Y5510235D03*
X4031195Y5514465D03*
X4046745Y5530235D03*
X3998435Y5534075D03*
X4001425Y5554075D03*
X4007425Y5576075D03*
X3974195Y5576465D03*
X3969195Y5553465D03*
X3980425Y5600075D03*
X3987435Y5623075D03*
X3997425Y5644075D03*
X4005195Y5665465D03*
X4015195Y5685465D03*
X4027195Y5705075D03*
X4049245D03*
X4071295D03*
X4093335D03*
X4115385D03*
X4136425D03*
Y5686075D03*
Y5667075D03*
X4156425D03*
X4175935Y5661075D03*
Y5639075D03*
Y5619075D03*
Y5599075D03*
Y5578625D03*
Y5559575D03*
Y5540425D03*
Y5521575D03*
X4157425Y5520075D03*
X4138435Y5519075D03*
X4116195Y5516465D03*
X4014195Y5499465D03*
X3993195Y5492465D03*
X3991966Y5474405D03*
X3992670Y5440587D03*
X3995425Y5513075D03*
X4237125Y5526325D03*
Y5546325D03*
Y5566325D03*
X4259125D03*
Y5546325D03*
X4260125Y5526325D03*
X4322645Y5529714D03*
X4318875Y5548375D03*
Y5571375D03*
X4315435Y5595075D03*
X4294435D03*
X4273435Y5594075D03*
X4273125Y5613325D03*
X4257745Y5627235D03*
X4236745Y5627325D03*
Y5646555D03*
Y5665775D03*
Y5685005D03*
Y5704235D03*
X4258965D03*
X4280195D03*
X4301415D03*
X4322635D03*
X4343855D03*
X4365195Y5704465D03*
X4386305Y5704235D03*
X4407525D03*
X4428745D03*
X4449965D03*
X4471195D03*
X4492415D03*
X4513635D03*
X4534855D03*
X4556075D03*
X4555875Y5684375D03*
X4584005Y5656375D03*
Y5596505D03*
Y5575505D03*
X4565875Y5487745D03*
X4608005Y5490505D03*
X4634165Y5478505D03*
X4636005Y5440505D03*
X4673005Y5447505D03*
X4692005D03*
X4670005Y5468505D03*
X4665875Y5394375D03*
X4691875Y5395375D03*
X4717875Y5383375D03*
X4645005Y5358505D03*
X4616505Y5357005D03*
X4622875Y5282005D03*
Y5245055D03*
X4623875Y5178375D03*
X4651055Y5191185D03*
X4686875Y5170375D03*
X4572875Y5178375D03*
X4573005Y5153505D03*
X4505475Y5202125D03*
X4491005Y5088505D03*
X4455825Y5064335D03*
X4450005Y5114505D03*
X4386875Y5166375D03*
X4348005Y5163505D03*
X4281875Y5132375D03*
X4281005Y5196505D03*
X4252875Y4998375D03*
X4237875Y4967375D03*
X4217875Y4979375D03*
X4197875Y4992375D03*
X4178875Y5006375D03*
X4159875Y5021375D03*
X4140875Y5038375D03*
X4258875Y4956375D03*
X4280875Y4945375D03*
X4402071Y4903059D03*
X4615394Y4903217D03*
X4642334Y4909217D03*
X4670153Y4916939D03*
X4772474Y4960037D03*
X4812205Y5075205D03*
X4819185Y5168375D03*
X4818185Y5204375D03*
X4907245Y5248685D03*
X4906245Y5267685D03*
X4924845Y5272455D03*
X4926245Y5251685D03*
X5007905Y5282505D03*
X5004898Y5203864D03*
X4993247Y5185505D03*
X4979875Y5164375D03*
X4968875Y5142375D03*
X4952875Y5126375D03*
X4941639Y5102849D03*
X4924408Y5086086D03*
X4868111Y5026682D03*
X4971875Y5372375D03*
X5034005Y5343505D03*
X5020005Y5434505D03*
X5018005Y5486505D03*
X4983185Y5548685D03*
X5023005Y5583505D03*
X4918195Y5591465D03*
X4917485Y5616215D03*
X4893445Y5590755D03*
X4918905Y5566715D03*
X4893255Y5693165D03*
X4872665Y5672575D03*
X4852075Y5651985D03*
X4836005Y5761575D03*
X4818835Y5744405D03*
X4798245Y5723815D03*
X4752575Y5782625D03*
X4751875Y5807375D03*
X4727125Y5806665D03*
X4776625Y5808075D03*
X4923005Y5783505D03*
X4961005Y5733505D03*
X4998005Y5677505D03*
X4622705Y5688675D03*
X4597005Y5703505D03*
X4583875Y5718375D03*
X4514175Y5637375D03*
X4478745Y5638505D03*
X4396875Y5662375D03*
X4413375Y5586375D03*
X4348245Y5465235D03*
X4328537Y5466797D03*
X4505875Y5463375D03*
X4556875Y5386375D03*
X4744005Y5507505D03*
X4751165Y5832115D03*
X4770005Y5909505D03*
X4827005Y5869505D03*
X4882005Y5822505D03*
X4157875Y5094375D03*
X4175875Y5076375D03*
X4193875Y5058375D03*
X4211875Y5040375D03*
X4281875Y5032375D03*
Y5057375D03*
X4307875Y5056375D03*
X4306875Y5031375D03*
X4354875Y5018375D03*
X4380875Y5019375D03*
X4378875Y4995375D03*
X4404875Y4994375D03*
X4543005Y5110505D03*
X4662005Y5124455D03*
X4669005Y5082505D03*
X4646005Y5062505D03*
X4649005Y5030505D03*
X4847005Y5168505D03*
X4476005Y5303865D03*
X4471875Y5362375D03*
Y5397375D03*
X4435035D03*
X4250005Y5242505D03*
X4175005Y5189505D03*
X4150005Y5201505D03*
X4151005Y5164505D03*
X4128005Y5178505D03*
G54D11*
X4330005Y5277505D03*
X4329005Y5308505D03*
X4329275Y5339965D03*
X4376515D03*
X4377005Y5308505D03*
X4378005Y5278505D03*
X4421005D03*
X4420005Y5308505D03*
X4376515Y5387215D03*
X4329275D03*
G54D12*
X4445014Y5995074D03*
X4570973Y5994998D03*
X5057457Y5508322D03*
X5057500Y5382334D03*
X4570818Y4895692D03*
X4444930Y4895766D03*
X3958220Y5508337D03*
X3958221Y5382398D03*
G54D13*
X5051063Y5233880D03*
X5036728Y5201292D03*
X4983850Y5109403D03*
X5003334Y5138938D03*
X5020951Y5169622D03*
X4994135Y5765253D03*
X5057297Y5638980D03*
X5044474Y5671957D03*
X5029634Y5704075D03*
X5012833Y5735214D03*
X4021814Y5766711D03*
X3958653Y5640438D03*
X3971476Y5673414D03*
X3986316Y5705534D03*
X4003117Y5736672D03*
X4076163Y5054235D03*
X4053176Y5081133D03*
X4031900Y5109403D03*
X4012417Y5138938D03*
X3994799Y5169622D03*
G54D14*
X98425Y5812005D03*
X5255907D03*
X98425Y393701D03*
X5255907Y196850D03*
M02*
