G04 Layer_Color=128*
%FSLAX25Y25*%
%MOIN*%
G70*
G01*
G75*
%ADD108C,0.00200*%
D108*
X79500Y62600D02*
X80500D01*
X80000Y62100D02*
Y63100D01*
X108500Y46200D02*
X109500D01*
X109000Y45700D02*
Y46700D01*
X107100Y55300D02*
X108100D01*
X107600Y54800D02*
Y55800D01*
X106900Y60500D02*
X107900D01*
X107400Y60000D02*
Y61000D01*
Y70200D02*
X108400D01*
X107900Y69700D02*
Y70700D01*
X104900Y79600D02*
X105900D01*
X105400Y79100D02*
Y80100D01*
X101200Y85200D02*
X102200D01*
X101700Y84700D02*
Y85700D01*
X97400Y90200D02*
X98400D01*
X97900Y89700D02*
Y90700D01*
X93300Y94100D02*
X94300D01*
X93800Y93600D02*
Y94600D01*
X87800Y98800D02*
X88800D01*
X88300Y98300D02*
Y99300D01*
X82100Y102800D02*
X83100D01*
X82600Y102300D02*
Y103300D01*
X63500Y71500D02*
X64500D01*
X64000Y71000D02*
Y72000D01*
X63500Y69400D02*
X64500D01*
X64000Y68900D02*
Y69900D01*
X72100Y58700D02*
X73100D01*
X72600Y58200D02*
Y59200D01*
X72400Y56600D02*
X73400D01*
X72900Y56100D02*
Y57100D01*
X74200Y56600D02*
X75200D01*
X74700Y56100D02*
Y57100D01*
X33200Y31500D02*
X34200D01*
X33700Y31000D02*
Y32000D01*
X68700Y55900D02*
X69700D01*
X69200Y55400D02*
Y56400D01*
X71900Y20100D02*
X73100D01*
X72500Y19500D02*
Y20700D01*
X50682Y18283D02*
X51682D01*
X51182Y17783D02*
Y18783D01*
X54200Y20700D02*
X55200D01*
X54700Y20200D02*
Y21200D01*
X78246Y39308D02*
X79033D01*
X78639Y38914D02*
Y39702D01*
X78246Y41473D02*
X79033D01*
X78639Y41080D02*
Y41867D01*
X76080Y39308D02*
X76868D01*
X76474Y38914D02*
Y39702D01*
X94425Y81166D02*
X95425D01*
X94925Y80666D02*
Y81666D01*
X88700Y88007D02*
X89700D01*
X89200Y87507D02*
Y88507D01*
X90307Y77048D02*
X91307D01*
X90807Y76548D02*
Y77548D01*
X92366Y79107D02*
X93366D01*
X92866Y78607D02*
Y79607D01*
X84924Y84231D02*
X85924D01*
X85424Y83731D02*
Y84731D01*
X86983Y86290D02*
X87983D01*
X87483Y85790D02*
Y86790D01*
X64800Y82200D02*
X65800D01*
X65300Y81700D02*
Y82700D01*
X66750Y47550D02*
X67750D01*
X67250Y47050D02*
Y48050D01*
X76887Y50187D02*
X77887D01*
X77387Y49687D02*
Y50687D01*
X69600Y47700D02*
X70600D01*
X70100Y47200D02*
Y48200D01*
X74287Y51387D02*
X75287D01*
X74787Y50887D02*
Y51887D01*
X63500Y77487D02*
X64500D01*
X64000Y76987D02*
Y77987D01*
X52600Y42236D02*
X53800D01*
X53200Y41636D02*
Y42836D01*
X65900Y60900D02*
X66900D01*
X66400Y60400D02*
Y61400D01*
X68516Y59700D02*
X69516D01*
X69016Y59200D02*
Y60200D01*
X33287Y25087D02*
X34287D01*
X33787Y24587D02*
Y25587D01*
X39900Y28200D02*
X40900D01*
X40400Y27700D02*
Y28700D01*
X20787Y21287D02*
X21987D01*
X21387Y20687D02*
Y21887D01*
X22587Y19487D02*
X23787D01*
X23187Y18887D02*
Y20087D01*
X35687Y14987D02*
X36887D01*
X36287Y14387D02*
Y15587D01*
X33187Y15087D02*
X34387D01*
X33787Y14487D02*
Y15687D01*
X35787Y17487D02*
X36987D01*
X36387Y16887D02*
Y18087D01*
X33187Y17587D02*
X34387D01*
X33787Y16987D02*
Y18187D01*
X40487Y13687D02*
X41687D01*
X41087Y13087D02*
Y14287D01*
X45287Y2087D02*
X46287D01*
X45787Y1587D02*
Y2587D01*
X43087Y13787D02*
X44287D01*
X43687Y13187D02*
Y14387D01*
X42887Y11387D02*
X44087D01*
X43487Y10787D02*
Y11987D01*
X45487Y11287D02*
X46687D01*
X46087Y10687D02*
Y11887D01*
X33587Y54587D02*
X34587D01*
X34087Y54087D02*
Y55087D01*
X67487Y29687D02*
X68487D01*
X67987Y29187D02*
Y30187D01*
X73787Y28987D02*
X74787D01*
X74287Y28487D02*
Y29487D01*
X60687Y80287D02*
X61687D01*
X61187Y79787D02*
Y80787D01*
X80398Y41460D02*
X81186D01*
X80792Y41066D02*
Y41853D01*
X76093Y41487D02*
X76880D01*
X76487Y41093D02*
Y41880D01*
X55487Y32062D02*
X56487D01*
X55987Y31562D02*
Y32562D01*
X102287Y49087D02*
X103287D01*
X102787Y48587D02*
Y49587D01*
X62387Y29687D02*
X63387D01*
X62887Y29187D02*
Y30187D01*
X70205Y30968D02*
X71205D01*
X70705Y30468D02*
Y31468D01*
X67387Y36355D02*
X68387D01*
X67887Y35855D02*
Y36855D01*
X67387Y40050D02*
X68387D01*
X67887Y39550D02*
Y40550D01*
X71687Y51287D02*
X72687D01*
X72187Y50787D02*
Y51787D01*
X37877Y45846D02*
X39176D01*
X38527Y45197D02*
Y46496D01*
X42602Y45846D02*
X43901D01*
X43251Y45197D02*
Y46496D01*
X42602Y50571D02*
X43901D01*
X43251Y49921D02*
Y51220D01*
X37877Y50571D02*
X39176D01*
X38527Y49921D02*
Y51220D01*
X105700Y32300D02*
X106700D01*
X106200Y31800D02*
Y32800D01*
X52187Y48087D02*
X53387D01*
X52787Y47487D02*
Y48687D01*
X52187Y51587D02*
X53387D01*
X52787Y50987D02*
Y52187D01*
X48503Y51587D02*
X49703D01*
X49103Y50987D02*
Y52187D01*
X17387Y17387D02*
X18387D01*
X17887Y16887D02*
Y17887D01*
X15787Y19087D02*
X16787D01*
X16287Y18587D02*
Y19587D01*
X14287Y20987D02*
X15287D01*
X14787Y20487D02*
Y21487D01*
X12687Y22787D02*
X13687D01*
X13187Y22287D02*
Y23287D01*
X11387Y24687D02*
X12387D01*
X11887Y24187D02*
Y25187D01*
X9887Y26787D02*
X10887D01*
X10387Y26287D02*
Y27287D01*
X7487Y30887D02*
X8487D01*
X7987Y30387D02*
Y31387D01*
X6487Y33087D02*
X7487D01*
X6987Y32587D02*
Y33587D01*
X4687Y37387D02*
X5687D01*
X5187Y36887D02*
Y37887D01*
X3887Y39687D02*
X4887D01*
X4387Y39187D02*
Y40187D01*
X26187Y15887D02*
X27387D01*
X26787Y15287D02*
Y16487D01*
X24387Y17687D02*
X25587D01*
X24987Y17087D02*
Y18287D01*
X24887Y11087D02*
X25887D01*
X25387Y10587D02*
Y11587D01*
X26887Y9787D02*
X27887D01*
X27387Y9287D02*
Y10287D01*
X45852Y82273D02*
X46852D01*
X46352Y81773D02*
Y82773D01*
X50096Y82273D02*
X51096D01*
X50596Y81773D02*
Y82773D01*
X52219Y82273D02*
X53219D01*
X52719Y81773D02*
Y82773D01*
X47974Y82273D02*
X48974D01*
X48474Y81773D02*
Y82773D01*
X54341Y82273D02*
X55341D01*
X54841Y81773D02*
Y82773D01*
X58585Y82273D02*
X59585D01*
X59085Y81773D02*
Y82773D01*
X21087Y13987D02*
X22087D01*
X21587Y13487D02*
Y14487D01*
X19187Y15687D02*
X20187D01*
X19687Y15187D02*
Y16187D01*
X95824Y36718D02*
X96824D01*
X96324Y36218D02*
Y37218D01*
X95724Y38618D02*
X96724D01*
X96224Y38118D02*
Y39118D01*
X97524Y39095D02*
X98524D01*
X98024Y38595D02*
Y39595D01*
X97724Y37018D02*
X98724D01*
X98224Y36518D02*
Y37518D01*
X60707Y82273D02*
X61708D01*
X61207Y81773D02*
Y82773D01*
X18319Y57596D02*
X19319D01*
X18819Y57096D02*
Y58096D01*
X2587Y44287D02*
X3587D01*
X3087Y43787D02*
Y44787D01*
X2287Y46587D02*
X3287D01*
X2787Y46087D02*
Y47087D01*
X4187Y47987D02*
X5187D01*
X4687Y47487D02*
Y48487D01*
X4500Y50800D02*
X5500D01*
X5000Y50300D02*
Y51300D01*
X15619Y60096D02*
X16619D01*
X16119Y59596D02*
Y60596D01*
X13719Y62096D02*
X14719D01*
X14219Y61596D02*
Y62596D01*
X8219Y63296D02*
X9219D01*
X8719Y62796D02*
Y63796D01*
X2519Y69496D02*
X3519D01*
X3019Y68996D02*
Y69996D01*
X2019Y67196D02*
X3019D01*
X2519Y66696D02*
Y67696D01*
X6619Y80396D02*
X7619D01*
X7119Y79896D02*
Y80896D01*
X5619Y78396D02*
X6619D01*
X6119Y77896D02*
Y78896D01*
X7819Y82357D02*
X8819D01*
X8319Y81857D02*
Y82857D01*
X9319Y38196D02*
X10319D01*
X9819Y37696D02*
Y38696D01*
X9319Y40996D02*
X10319D01*
X9819Y40496D02*
Y41496D01*
X26700Y43115D02*
X27700D01*
X27200Y42615D02*
Y43615D01*
X56517Y75587D02*
X57517D01*
X57017Y75087D02*
Y76087D01*
X4419Y61096D02*
X5419D01*
X4919Y60596D02*
Y61596D01*
X36987Y64487D02*
X37987D01*
X37487Y63987D02*
Y64987D01*
X3842Y74157D02*
X4843D01*
X4343Y73657D02*
Y74657D01*
X4843Y76257D02*
X5843D01*
X5342Y75757D02*
Y76757D01*
X9774Y64873D02*
X10774D01*
X10274Y64373D02*
Y65373D01*
X11874Y62873D02*
X12874D01*
X12374Y62373D02*
Y63373D01*
X37363Y82273D02*
X38363D01*
X37863Y81773D02*
Y82773D01*
X39485Y82273D02*
X40485D01*
X39985Y81773D02*
Y82773D01*
X41619Y82296D02*
X42619D01*
X42119Y81796D02*
Y82796D01*
X43730Y82273D02*
X44730D01*
X44230Y81773D02*
Y82773D01*
X56463Y82273D02*
X57463D01*
X56963Y81773D02*
Y82773D01*
X39874Y58373D02*
X40874D01*
X40374Y57873D02*
Y58873D01*
X38074D02*
X39074D01*
X38574Y58373D02*
Y59373D01*
X32174Y58873D02*
X33174D01*
X32674Y58373D02*
Y59373D01*
X27974Y58873D02*
X28974D01*
X28474Y58373D02*
Y59373D01*
X25774Y58873D02*
X26774D01*
X26274Y58373D02*
Y59373D01*
X23374Y58773D02*
X24374D01*
X23874Y58273D02*
Y59273D01*
X19974Y58373D02*
X20974D01*
X20474Y57873D02*
Y58873D01*
X17019Y58896D02*
X18019D01*
X17519Y58396D02*
Y59396D01*
X16719Y63496D02*
X17719D01*
X17219Y62996D02*
Y63996D01*
X18743Y78557D02*
X19742D01*
X19242Y78057D02*
Y79057D01*
X3142Y71857D02*
X4143D01*
X3642Y71357D02*
Y72357D01*
X5843Y69457D02*
X6842D01*
X6342Y68957D02*
Y69957D01*
X5243Y67257D02*
X6242D01*
X5742Y66757D02*
Y67757D01*
X4942Y65257D02*
X5943D01*
X5443Y64757D02*
Y65757D01*
X4642Y63157D02*
X5643D01*
X5142Y62657D02*
Y63657D01*
X6519Y61796D02*
X7519D01*
X7019Y61296D02*
Y62296D01*
X6587Y48787D02*
X7587D01*
X7087Y48287D02*
Y49287D01*
X8343Y47057D02*
X9342D01*
X8843Y46557D02*
Y47557D01*
X31012Y66482D02*
X32012D01*
X31512Y65982D02*
Y66982D01*
X31012Y68482D02*
X32012D01*
X31512Y67982D02*
Y68982D01*
X28812Y68482D02*
X29812D01*
X29312Y67982D02*
Y68982D01*
X32412Y73082D02*
X33412D01*
X32912Y72582D02*
Y73582D01*
X28774Y74582D02*
X29774D01*
X29274Y74082D02*
Y75082D01*
X22842Y67697D02*
X23843D01*
X23343Y67197D02*
Y68197D01*
X22842Y63857D02*
X23843D01*
X23343Y63357D02*
Y64357D01*
X20843Y63857D02*
X21843D01*
X21342Y63357D02*
Y64357D01*
X22842Y77957D02*
X23843D01*
X23343Y77457D02*
Y78457D01*
X22842Y75757D02*
X23843D01*
X23343Y75257D02*
Y76257D01*
X22842Y73757D02*
X23843D01*
X23343Y73257D02*
Y74257D01*
X22842Y71757D02*
X23843D01*
X23343Y71257D02*
Y72257D01*
X22842Y69712D02*
X23843D01*
X23343Y69212D02*
Y70212D01*
X22842Y65682D02*
X23843D01*
X23343Y65182D02*
Y66182D01*
X28774Y76505D02*
X29774D01*
X29274Y76005D02*
Y77005D01*
X31112Y64382D02*
X32112D01*
X31612Y63882D02*
Y64882D01*
X28812Y66482D02*
X29812D01*
X29312Y65982D02*
Y66982D01*
X28812Y64382D02*
X29812D01*
X29312Y63882D02*
Y64882D01*
X36987Y66687D02*
X37987D01*
X37487Y66187D02*
Y67187D01*
X28774Y78427D02*
X29774D01*
X29274Y77927D02*
Y78927D01*
X30874Y74573D02*
X31874D01*
X31374Y74073D02*
Y75073D01*
X18743Y80457D02*
X19742D01*
X19242Y79957D02*
Y80957D01*
X14433Y82357D02*
X15433D01*
X14933Y81857D02*
Y82857D01*
X12229Y82357D02*
X13228D01*
X12729Y81857D02*
Y82857D01*
X10024Y82357D02*
X11024D01*
X10524Y81857D02*
Y82857D01*
X16638Y82357D02*
X17638D01*
X17138Y81857D02*
Y82857D01*
X28774Y80350D02*
X29774D01*
X29274Y79850D02*
Y80850D01*
X28774Y82273D02*
X29774D01*
X29274Y81773D02*
Y82773D01*
X30996Y82273D02*
X31996D01*
X31496Y81773D02*
Y82773D01*
X35241Y82273D02*
X36241D01*
X35741Y81773D02*
Y82773D01*
X33119Y82273D02*
X34119D01*
X33619Y81773D02*
Y82773D01*
X18743Y82357D02*
X19742D01*
X19242Y81857D02*
Y82857D01*
X20742Y78557D02*
X21743D01*
X21242Y78057D02*
Y79057D01*
X18943Y63757D02*
X19942D01*
X19443Y63257D02*
Y64257D01*
X30242Y55357D02*
X31242D01*
X30742Y54857D02*
Y55857D01*
X32443Y71257D02*
X33443D01*
X32943Y70757D02*
Y71757D01*
X34543Y71357D02*
X35543D01*
X35043Y70857D02*
Y71857D01*
X36643Y71357D02*
X37642D01*
X37143Y70857D02*
Y71857D01*
X36987Y68987D02*
X37987D01*
X37487Y68487D02*
Y69487D01*
X4119Y59196D02*
X5119D01*
X4619Y58696D02*
Y59696D01*
X17719Y42896D02*
X18719D01*
X18219Y42396D02*
Y43396D01*
X52974Y75700D02*
X53974D01*
X53474Y75200D02*
Y76200D01*
X44787Y78087D02*
X45787D01*
X45287Y77587D02*
Y78587D01*
X30987Y7487D02*
X31987D01*
X31487Y6987D02*
Y7987D01*
X33187Y6387D02*
X34187D01*
X33687Y5887D02*
Y6887D01*
X30387Y11687D02*
X31387D01*
X30887Y11187D02*
Y12187D01*
X8687Y28787D02*
X9687D01*
X9187Y28287D02*
Y29287D01*
X5587Y35187D02*
X6587D01*
X6087Y34687D02*
Y35687D01*
X22987Y12487D02*
X23987D01*
X23487Y11987D02*
Y12987D01*
X28887Y8587D02*
X29887D01*
X29387Y8087D02*
Y9087D01*
X3187Y41987D02*
X4187D01*
X3687Y41487D02*
Y42487D01*
X43787Y28487D02*
X44787D01*
X44287Y27987D02*
Y28987D01*
X46437Y70487D02*
X47437D01*
X46937Y69987D02*
Y70987D01*
X96919Y70996D02*
X97919D01*
X97419Y70496D02*
Y71496D01*
X96848Y73471D02*
X97848D01*
X97348Y72971D02*
Y73971D01*
X94444Y70925D02*
X95444D01*
X94944Y70425D02*
Y71425D01*
X96990Y68521D02*
X97990D01*
X97490Y68021D02*
Y69021D01*
X80357Y90112D02*
X81357D01*
X80857Y89612D02*
Y90612D01*
X77812Y92516D02*
X78812D01*
X78312Y92016D02*
Y93016D01*
X80216Y95061D02*
X81216D01*
X80716Y94561D02*
Y95561D01*
X82762Y92657D02*
X83762D01*
X83262Y92157D02*
Y93157D01*
X80287Y92587D02*
X81287D01*
X80787Y92087D02*
Y93087D01*
X55687Y58187D02*
X56687D01*
X56187Y57687D02*
Y58687D01*
X61687Y60624D02*
X62687D01*
X62187Y60124D02*
Y61124D01*
X67370Y80717D02*
X68370D01*
X67870Y80217D02*
Y81217D01*
X63487Y83687D02*
X64487D01*
X63987Y83187D02*
Y84187D01*
X86918Y32287D02*
X87918D01*
X87418Y31787D02*
Y32787D01*
X103418Y66718D02*
X104418D01*
X103918Y66218D02*
Y67218D01*
X105890Y40100D02*
X106890D01*
X106390Y39600D02*
Y40600D01*
X28000Y44500D02*
X29000D01*
X28500Y44000D02*
Y45000D01*
X30000Y36100D02*
X31200D01*
X30600Y35500D02*
Y36700D01*
X37850Y42700D02*
X39150D01*
X38500Y42050D02*
Y43350D01*
X42650Y42700D02*
X43950D01*
X43300Y42050D02*
Y43350D01*
X46950Y42700D02*
X48250D01*
X47600Y42050D02*
Y43350D01*
X42750Y39700D02*
X44050D01*
X43400Y39050D02*
Y40350D01*
X37950Y39600D02*
X39250D01*
X38600Y38950D02*
Y40250D01*
X47050Y39700D02*
X48350D01*
X47700Y39050D02*
Y40350D01*
X50100Y23300D02*
X51100D01*
X50600Y22800D02*
Y23800D01*
X3919Y56096D02*
X4919D01*
X4419Y55596D02*
Y56596D01*
X17800Y29700D02*
X19000D01*
X18400Y29100D02*
Y30300D01*
X20100Y28300D02*
X21300D01*
X20700Y27700D02*
Y28900D01*
X20000Y32000D02*
X21200D01*
X20600Y31400D02*
Y32600D01*
X22500Y30800D02*
X23700D01*
X23100Y30200D02*
Y31400D01*
X59300Y22900D02*
X60500D01*
X59900Y22300D02*
Y23500D01*
X72187Y3387D02*
X73187D01*
X72687Y2887D02*
Y3887D01*
X92200Y14387D02*
X93200D01*
X92700Y13887D02*
Y14887D01*
X69387Y2687D02*
X70387D01*
X69887Y2187D02*
Y3187D01*
X66687Y2087D02*
X67687D01*
X67187Y1587D02*
Y2587D01*
X87018Y28687D02*
X88018D01*
X87518Y28187D02*
Y29187D01*
X97487Y20387D02*
X98487D01*
X97987Y19887D02*
Y20887D01*
X104500Y30400D02*
X105500D01*
X105000Y29900D02*
Y30900D01*
X99287Y22087D02*
X100287D01*
X99787Y21587D02*
Y22587D01*
X103087Y28287D02*
X104087D01*
X103587Y27787D02*
Y28787D01*
X100387Y24487D02*
X101387D01*
X100887Y23987D02*
Y24987D01*
X101987Y26087D02*
X102987D01*
X102487Y25587D02*
Y26587D01*
X89700Y28700D02*
X90900D01*
X90300Y28100D02*
Y29300D01*
X60787Y50487D02*
X61787D01*
X61287Y49987D02*
Y50987D01*
X71200Y24295D02*
X72400D01*
X71800Y23695D02*
Y24895D01*
X69900Y14900D02*
X71100D01*
X70500Y14300D02*
Y15500D01*
X69600Y18100D02*
X70800D01*
X70200Y17500D02*
Y18700D01*
X62400Y27200D02*
X63400D01*
X62900Y26700D02*
Y27700D01*
X82400Y7800D02*
X83400D01*
X82900Y7300D02*
Y8300D01*
X86320Y19370D02*
X87320D01*
X86820Y18870D02*
Y19870D01*
M02*
