G04 Layer_Color=2752767*
%FSLAX25Y25*%
%MOIN*%
G70*
G01*
G75*
%ADD108C,0.00200*%
%ADD109C,0.00267*%
D108*
X79200Y61800D02*
Y63400D01*
X80800D01*
Y61800D01*
X79200D01*
X108200Y45400D02*
Y47000D01*
X109800D01*
Y45400D01*
X108200D01*
X106800Y54500D02*
Y56100D01*
X108400D01*
Y54500D01*
X106800D01*
X106600Y59700D02*
Y61300D01*
X108200D01*
Y59700D01*
X106600D01*
X107100Y69400D02*
Y71000D01*
X108700D01*
Y69400D01*
X107100D01*
X104600Y78800D02*
Y80400D01*
X106200D01*
Y78800D01*
X104600D01*
X100900Y84400D02*
Y86000D01*
X102500D01*
Y84400D01*
X100900D01*
X97100Y89400D02*
Y91000D01*
X98700D01*
Y89400D01*
X97100D01*
X93000Y93300D02*
Y94900D01*
X94600D01*
Y93300D01*
X93000D01*
X87500Y98000D02*
Y99600D01*
X89100D01*
Y98000D01*
X87500D01*
X81800Y102000D02*
Y103600D01*
X83400D01*
Y102000D01*
X81800D01*
X63200Y70700D02*
Y72300D01*
X64800D01*
Y70700D01*
X63200D01*
Y68600D02*
Y70200D01*
X64800D01*
Y68600D01*
X63200D01*
X71800Y57900D02*
Y59500D01*
X73400D01*
Y57900D01*
X71800D01*
X72100Y55800D02*
Y57400D01*
X73700D01*
Y55800D01*
X72100D01*
X73900D02*
Y57400D01*
X75500D01*
Y55800D01*
X73900D01*
X32900Y30700D02*
Y32300D01*
X34500D01*
Y30700D01*
X32900D01*
X68400Y55100D02*
Y56700D01*
X70000D01*
Y55100D01*
X68400D01*
X50382Y17483D02*
Y19083D01*
X51982D01*
Y17483D01*
X50382D01*
X53900Y19900D02*
Y21500D01*
X55500D01*
Y19900D01*
X53900D01*
X78639Y38508D02*
X77839Y40108D01*
X79439D01*
X78639Y38508D01*
X78639Y40673D02*
X77839Y42273D01*
X79439D01*
X78639Y40673D01*
X76474Y38508D02*
X75674Y40108D01*
X77274D01*
X76474Y38508D01*
X94125Y80366D02*
Y81966D01*
X95725D01*
Y80366D01*
X94125D01*
X88400Y87207D02*
Y88807D01*
X90000D01*
Y87207D01*
X88400D01*
X90007Y76248D02*
Y77848D01*
X91607D01*
Y76248D01*
X90007D01*
X92066Y78307D02*
Y79907D01*
X93666D01*
Y78307D01*
X92066D01*
X84624Y83431D02*
Y85031D01*
X86224D01*
Y83431D01*
X84624D01*
X86683Y85490D02*
Y87090D01*
X88283D01*
Y85490D01*
X86683D01*
X64500Y81400D02*
Y83000D01*
X66100D01*
Y81400D01*
X64500D01*
X66450Y46750D02*
Y48350D01*
X68050D01*
Y46750D01*
X66450D01*
X76587Y49387D02*
Y50987D01*
X78187D01*
Y49387D01*
X76587D01*
X69300Y46900D02*
Y48500D01*
X70900D01*
Y46900D01*
X69300D01*
X73987Y50587D02*
Y52187D01*
X75587D01*
Y50587D01*
X73987D01*
X63200Y76687D02*
Y78287D01*
X64800D01*
Y76687D01*
X63200D01*
X65600Y60100D02*
Y61700D01*
X67200D01*
Y60100D01*
X65600D01*
X68216Y58900D02*
Y60500D01*
X69816D01*
Y58900D01*
X68216D01*
X32987Y24287D02*
Y25887D01*
X34587D01*
Y24287D01*
X32987D01*
X39600Y27400D02*
Y29000D01*
X41200D01*
Y27400D01*
X39600D01*
X44987Y1287D02*
Y2887D01*
X46587D01*
Y1287D01*
X44987D01*
X33287Y53787D02*
Y55387D01*
X34887D01*
Y53787D01*
X33287D01*
X67187Y28887D02*
Y30487D01*
X68787D01*
Y28887D01*
X67187D01*
X73487Y28187D02*
Y29787D01*
X75087D01*
Y28187D01*
X73487D01*
X60387Y79487D02*
Y81087D01*
X61987D01*
Y79487D01*
X60387D01*
X80792Y40660D02*
X79992Y42260D01*
X81592D01*
X80792Y40660D01*
X76487Y40687D02*
X75687Y42287D01*
X77287D01*
X76487Y40687D01*
X55187Y31262D02*
Y32862D01*
X56787D01*
Y31262D01*
X55187D01*
X101987Y48287D02*
Y49887D01*
X103587D01*
Y48287D01*
X101987D01*
X62087Y28887D02*
Y30487D01*
X63687D01*
Y28887D01*
X62087D01*
X69905Y30168D02*
Y31768D01*
X71505D01*
Y30168D01*
X69905D01*
X67087Y35555D02*
Y37155D01*
X68687D01*
Y35555D01*
X67087D01*
Y39250D02*
Y40850D01*
X68687D01*
Y39250D01*
X67087D01*
X71387Y50487D02*
Y52087D01*
X72987D01*
Y50487D01*
X71387D01*
X38527Y45046D02*
X38927Y45446D01*
X39327D01*
X38927Y45846D01*
X39327Y46246D01*
X38927D01*
X38527Y46646D01*
X38127Y46246D01*
X37727D01*
X38127Y45846D01*
X37727Y45446D01*
X38127D01*
X38527Y45046D01*
X43251D02*
X43651Y45446D01*
X44051D01*
X43651Y45846D01*
X44051Y46246D01*
X43651D01*
X43251Y46646D01*
X42851Y46246D01*
X42451D01*
X42851Y45846D01*
X42451Y45446D01*
X42851D01*
X43251Y45046D01*
Y49771D02*
X43651Y50171D01*
X44051D01*
X43651Y50571D01*
X44051Y50971D01*
X43651D01*
X43251Y51371D01*
X42851Y50971D01*
X42451D01*
X42851Y50571D01*
X42451Y50171D01*
X42851D01*
X43251Y49771D01*
X38527D02*
X38927Y50171D01*
X39327D01*
X38927Y50571D01*
X39327Y50971D01*
X38927D01*
X38527Y51371D01*
X38127Y50971D01*
X37727D01*
X38127Y50571D01*
X37727Y50171D01*
X38127D01*
X38527Y49771D01*
X105400Y31500D02*
Y33100D01*
X107000D01*
Y31500D01*
X105400D01*
X17087Y16587D02*
Y18187D01*
X18687D01*
Y16587D01*
X17087D01*
X15487Y18287D02*
Y19887D01*
X17087D01*
Y18287D01*
X15487D01*
X13987Y20187D02*
Y21787D01*
X15587D01*
Y20187D01*
X13987D01*
X12387Y21987D02*
Y23587D01*
X13987D01*
Y21987D01*
X12387D01*
X11087Y23887D02*
Y25487D01*
X12687D01*
Y23887D01*
X11087D01*
X9587Y25987D02*
Y27587D01*
X11187D01*
Y25987D01*
X9587D01*
X7187Y30087D02*
Y31687D01*
X8787D01*
Y30087D01*
X7187D01*
X6187Y32287D02*
Y33887D01*
X7787D01*
Y32287D01*
X6187D01*
X4387Y36587D02*
Y38187D01*
X5987D01*
Y36587D01*
X4387D01*
X3587Y38887D02*
Y40487D01*
X5187D01*
Y38887D01*
X3587D01*
X24587Y10287D02*
Y11887D01*
X26187D01*
Y10287D01*
X24587D01*
X26587Y8987D02*
Y10587D01*
X28187D01*
Y8987D01*
X26587D01*
X45552Y81473D02*
Y83073D01*
X47152D01*
Y81473D01*
X45552D01*
X49796D02*
Y83073D01*
X51396D01*
Y81473D01*
X49796D01*
X51919D02*
Y83073D01*
X53519D01*
Y81473D01*
X51919D01*
X47674D02*
Y83073D01*
X49274D01*
Y81473D01*
X47674D01*
X54041D02*
Y83073D01*
X55641D01*
Y81473D01*
X54041D01*
X58285D02*
Y83073D01*
X59885D01*
Y81473D01*
X58285D01*
X20787Y13187D02*
Y14787D01*
X22387D01*
Y13187D01*
X20787D01*
X18887Y14887D02*
Y16487D01*
X20487D01*
Y14887D01*
X18887D01*
X95524Y35918D02*
Y37518D01*
X97124D01*
Y35918D01*
X95524D01*
X95424Y37818D02*
Y39418D01*
X97024D01*
Y37818D01*
X95424D01*
X97224Y38295D02*
Y39895D01*
X98824D01*
Y38295D01*
X97224D01*
X97424Y36218D02*
Y37818D01*
X99024D01*
Y36218D01*
X97424D01*
X60408Y81473D02*
Y83073D01*
X62007D01*
Y81473D01*
X60408D01*
X18019Y56796D02*
Y58396D01*
X19619D01*
Y56796D01*
X18019D01*
X2287Y43487D02*
Y45087D01*
X3887D01*
Y43487D01*
X2287D01*
X1987Y45787D02*
Y47387D01*
X3587D01*
Y45787D01*
X1987D01*
X3887Y47187D02*
Y48787D01*
X5487D01*
Y47187D01*
X3887D01*
X4200Y50000D02*
Y51600D01*
X5800D01*
Y50000D01*
X4200D01*
X15319Y59296D02*
Y60896D01*
X16919D01*
Y59296D01*
X15319D01*
X13419Y61296D02*
Y62896D01*
X15019D01*
Y61296D01*
X13419D01*
X7919Y62496D02*
Y64096D01*
X9519D01*
Y62496D01*
X7919D01*
X2219Y68696D02*
Y70296D01*
X3819D01*
Y68696D01*
X2219D01*
X1719Y66396D02*
Y67996D01*
X3319D01*
Y66396D01*
X1719D01*
X6319Y79596D02*
Y81196D01*
X7919D01*
Y79596D01*
X6319D01*
X5319Y77596D02*
Y79196D01*
X6919D01*
Y77596D01*
X5319D01*
X7519Y81557D02*
Y83157D01*
X9119D01*
Y81557D01*
X7519D01*
X9019Y37396D02*
Y38996D01*
X10619D01*
Y37396D01*
X9019D01*
Y40196D02*
Y41796D01*
X10619D01*
Y40196D01*
X9019D01*
X26400Y42315D02*
Y43915D01*
X28000D01*
Y42315D01*
X26400D01*
X56217Y74787D02*
Y76387D01*
X57817D01*
Y74787D01*
X56217D01*
X4119Y60296D02*
Y61896D01*
X5719D01*
Y60296D01*
X4119D01*
X36687Y63687D02*
Y65287D01*
X38287D01*
Y63687D01*
X36687D01*
X3542Y73357D02*
Y74957D01*
X5142D01*
Y73357D01*
X3542D01*
X4543Y75457D02*
Y77057D01*
X6143D01*
Y75457D01*
X4543D01*
X9474Y64073D02*
Y65673D01*
X11074D01*
Y64073D01*
X9474D01*
X11574Y62073D02*
Y63673D01*
X13174D01*
Y62073D01*
X11574D01*
X37063Y81473D02*
Y83073D01*
X38663D01*
Y81473D01*
X37063D01*
X39185D02*
Y83073D01*
X40785D01*
Y81473D01*
X39185D01*
X41319Y81496D02*
Y83096D01*
X42919D01*
Y81496D01*
X41319D01*
X43430Y81473D02*
Y83073D01*
X45030D01*
Y81473D01*
X43430D01*
X56163D02*
Y83073D01*
X57763D01*
Y81473D01*
X56163D01*
X39574Y57573D02*
Y59173D01*
X41174D01*
Y57573D01*
X39574D01*
X37774Y58073D02*
Y59673D01*
X39374D01*
Y58073D01*
X37774D01*
X31874D02*
Y59673D01*
X33474D01*
Y58073D01*
X31874D01*
X27674D02*
Y59673D01*
X29274D01*
Y58073D01*
X27674D01*
X25474D02*
Y59673D01*
X27074D01*
Y58073D01*
X25474D01*
X23074Y57973D02*
Y59573D01*
X24674D01*
Y57973D01*
X23074D01*
X19674Y57573D02*
Y59173D01*
X21274D01*
Y57573D01*
X19674D01*
X16719Y58096D02*
Y59696D01*
X18319D01*
Y58096D01*
X16719D01*
X16419Y62696D02*
Y64296D01*
X18019D01*
Y62696D01*
X16419D01*
X18442Y77757D02*
Y79357D01*
X20042D01*
Y77757D01*
X18442D01*
X2843Y71057D02*
Y72657D01*
X4442D01*
Y71057D01*
X2843D01*
X5542Y68657D02*
Y70257D01*
X7142D01*
Y68657D01*
X5542D01*
X4942Y66457D02*
Y68057D01*
X6543D01*
Y66457D01*
X4942D01*
X4642Y64457D02*
Y66057D01*
X6242D01*
Y64457D01*
X4642D01*
X4343Y62357D02*
Y63957D01*
X5943D01*
Y62357D01*
X4343D01*
X6219Y60996D02*
Y62596D01*
X7819D01*
Y60996D01*
X6219D01*
X6287Y47987D02*
Y49587D01*
X7887D01*
Y47987D01*
X6287D01*
X8043Y46257D02*
Y47857D01*
X9642D01*
Y46257D01*
X8043D01*
X30712Y65682D02*
Y67282D01*
X32312D01*
Y65682D01*
X30712D01*
Y67682D02*
Y69282D01*
X32312D01*
Y67682D01*
X30712D01*
X28512D02*
Y69282D01*
X30112D01*
Y67682D01*
X28512D01*
X32112Y72282D02*
Y73882D01*
X33712D01*
Y72282D01*
X32112D01*
X28474Y73782D02*
Y75382D01*
X30074D01*
Y73782D01*
X28474D01*
X22543Y66897D02*
Y68497D01*
X24142D01*
Y66897D01*
X22543D01*
Y63057D02*
Y64657D01*
X24142D01*
Y63057D01*
X22543D01*
X20542D02*
Y64657D01*
X22142D01*
Y63057D01*
X20542D01*
X22543Y77157D02*
Y78757D01*
X24142D01*
Y77157D01*
X22543D01*
Y74957D02*
Y76557D01*
X24142D01*
Y74957D01*
X22543D01*
Y72957D02*
Y74557D01*
X24142D01*
Y72957D01*
X22543D01*
Y70957D02*
Y72557D01*
X24142D01*
Y70957D01*
X22543D01*
Y68912D02*
Y70512D01*
X24142D01*
Y68912D01*
X22543D01*
Y64882D02*
Y66482D01*
X24142D01*
Y64882D01*
X22543D01*
X28474Y75705D02*
Y77305D01*
X30074D01*
Y75705D01*
X28474D01*
X30812Y63582D02*
Y65182D01*
X32412D01*
Y63582D01*
X30812D01*
X28512Y65682D02*
Y67282D01*
X30112D01*
Y65682D01*
X28512D01*
Y63582D02*
Y65182D01*
X30112D01*
Y63582D01*
X28512D01*
X36687Y65887D02*
Y67487D01*
X38287D01*
Y65887D01*
X36687D01*
X28474Y77627D02*
Y79227D01*
X30074D01*
Y77627D01*
X28474D01*
X30574Y73773D02*
Y75373D01*
X32174D01*
Y73773D01*
X30574D01*
X18442Y79657D02*
Y81257D01*
X20042D01*
Y79657D01*
X18442D01*
X14133Y81557D02*
Y83157D01*
X15733D01*
Y81557D01*
X14133D01*
X11929D02*
Y83157D01*
X13529D01*
Y81557D01*
X11929D01*
X9724D02*
Y83157D01*
X11324D01*
Y81557D01*
X9724D01*
X16338D02*
Y83157D01*
X17938D01*
Y81557D01*
X16338D01*
X28474Y79550D02*
Y81150D01*
X30074D01*
Y79550D01*
X28474D01*
Y81473D02*
Y83073D01*
X30074D01*
Y81473D01*
X28474D01*
X30696D02*
Y83073D01*
X32296D01*
Y81473D01*
X30696D01*
X34941D02*
Y83073D01*
X36541D01*
Y81473D01*
X34941D01*
X32819D02*
Y83073D01*
X34419D01*
Y81473D01*
X32819D01*
X18442Y81557D02*
Y83157D01*
X20042D01*
Y81557D01*
X18442D01*
X20443Y77757D02*
Y79357D01*
X22042D01*
Y77757D01*
X20443D01*
X18643Y62957D02*
Y64557D01*
X20243D01*
Y62957D01*
X18643D01*
X29943Y54557D02*
Y56157D01*
X31543D01*
Y54557D01*
X29943D01*
X32142Y70457D02*
Y72057D01*
X33742D01*
Y70457D01*
X32142D01*
X34242Y70557D02*
Y72157D01*
X35842D01*
Y70557D01*
X34242D01*
X36342D02*
Y72157D01*
X37942D01*
Y70557D01*
X36342D01*
X36687Y68187D02*
Y69787D01*
X38287D01*
Y68187D01*
X36687D01*
X3819Y58396D02*
Y59996D01*
X5419D01*
Y58396D01*
X3819D01*
X17419Y42096D02*
Y43696D01*
X19019D01*
Y42096D01*
X17419D01*
X52674Y74900D02*
Y76500D01*
X54274D01*
Y74900D01*
X52674D01*
X44487Y77287D02*
Y78887D01*
X46087D01*
Y77287D01*
X44487D01*
X30687Y6687D02*
Y8287D01*
X32287D01*
Y6687D01*
X30687D01*
X32887Y5587D02*
Y7187D01*
X34487D01*
Y5587D01*
X32887D01*
X30087Y10887D02*
Y12487D01*
X31687D01*
Y10887D01*
X30087D01*
X8387Y27987D02*
Y29587D01*
X9987D01*
Y27987D01*
X8387D01*
X5287Y34387D02*
Y35987D01*
X6887D01*
Y34387D01*
X5287D01*
X22687Y11687D02*
Y13287D01*
X24287D01*
Y11687D01*
X22687D01*
X28587Y7787D02*
Y9387D01*
X30187D01*
Y7787D01*
X28587D01*
X2887Y41187D02*
Y42787D01*
X4487D01*
Y41187D01*
X2887D01*
X43487Y27687D02*
Y29287D01*
X45087D01*
Y27687D01*
X43487D01*
X46137Y69687D02*
Y71287D01*
X47737D01*
Y69687D01*
X46137D01*
X96619Y70196D02*
Y71796D01*
X98219D01*
Y70196D01*
X96619D01*
X96548Y72671D02*
Y74271D01*
X98149D01*
Y72671D01*
X96548D01*
X94144Y70125D02*
Y71725D01*
X95744D01*
Y70125D01*
X94144D01*
X96690Y67721D02*
Y69321D01*
X98290D01*
Y67721D01*
X96690D01*
X80057Y89312D02*
Y90912D01*
X81657D01*
Y89312D01*
X80057D01*
X77512Y91716D02*
Y93316D01*
X79112D01*
Y91716D01*
X77512D01*
X79916Y94261D02*
Y95862D01*
X81516D01*
Y94261D01*
X79916D01*
X82462Y91857D02*
Y93457D01*
X84061D01*
Y91857D01*
X82462D01*
X79987Y91787D02*
Y93387D01*
X81587D01*
Y91787D01*
X79987D01*
X55387Y57387D02*
Y58987D01*
X56987D01*
Y57387D01*
X55387D01*
X61387Y59824D02*
Y61424D01*
X62987D01*
Y59824D01*
X61387D01*
X67071Y79917D02*
Y81517D01*
X68670D01*
Y79917D01*
X67071D01*
X63187Y82887D02*
Y84487D01*
X64787D01*
Y82887D01*
X63187D01*
X86618Y31487D02*
Y33087D01*
X88218D01*
Y31487D01*
X86618D01*
X103118Y65918D02*
Y67518D01*
X104718D01*
Y65918D01*
X103118D01*
X105590Y39300D02*
Y40900D01*
X107190D01*
Y39300D01*
X105590D01*
X27700Y43700D02*
Y45300D01*
X29300D01*
Y43700D01*
X27700D01*
X38500Y41900D02*
X38900Y42300D01*
X39300D01*
X38900Y42700D01*
X39300Y43100D01*
X38900D01*
X38500Y43500D01*
X38100Y43100D01*
X37700D01*
X38100Y42700D01*
X37700Y42300D01*
X38100D01*
X38500Y41900D01*
X43300D02*
X43700Y42300D01*
X44100D01*
X43700Y42700D01*
X44100Y43100D01*
X43700D01*
X43300Y43500D01*
X42900Y43100D01*
X42500D01*
X42900Y42700D01*
X42500Y42300D01*
X42900D01*
X43300Y41900D01*
X47600D02*
X48000Y42300D01*
X48400D01*
X48000Y42700D01*
X48400Y43100D01*
X48000D01*
X47600Y43500D01*
X47200Y43100D01*
X46800D01*
X47200Y42700D01*
X46800Y42300D01*
X47200D01*
X47600Y41900D01*
X43400Y38900D02*
X43800Y39300D01*
X44200D01*
X43800Y39700D01*
X44200Y40100D01*
X43800D01*
X43400Y40500D01*
X43000Y40100D01*
X42600D01*
X43000Y39700D01*
X42600Y39300D01*
X43000D01*
X43400Y38900D01*
X38600Y38800D02*
X39000Y39200D01*
X39400D01*
X39000Y39600D01*
X39400Y40000D01*
X39000D01*
X38600Y40400D01*
X38200Y40000D01*
X37800D01*
X38200Y39600D01*
X37800Y39200D01*
X38200D01*
X38600Y38800D01*
X47700Y38900D02*
X48100Y39300D01*
X48500D01*
X48100Y39700D01*
X48500Y40100D01*
X48100D01*
X47700Y40500D01*
X47300Y40100D01*
X46900D01*
X47300Y39700D01*
X46900Y39300D01*
X47300D01*
X47700Y38900D01*
X49800Y22500D02*
Y24100D01*
X51400D01*
Y22500D01*
X49800D01*
X3619Y55296D02*
Y56896D01*
X5219D01*
Y55296D01*
X3619D01*
X71887Y2587D02*
Y4187D01*
X73487D01*
Y2587D01*
X71887D01*
X91900Y13587D02*
Y15187D01*
X93500D01*
Y13587D01*
X91900D01*
X69087Y1887D02*
Y3487D01*
X70687D01*
Y1887D01*
X69087D01*
X66387Y1287D02*
Y2887D01*
X67987D01*
Y1287D01*
X66387D01*
X86718Y27887D02*
Y29487D01*
X88318D01*
Y27887D01*
X86718D01*
X97187Y19587D02*
Y21187D01*
X98787D01*
Y19587D01*
X97187D01*
X104200Y29600D02*
Y31200D01*
X105800D01*
Y29600D01*
X104200D01*
X98987Y21287D02*
Y22887D01*
X100587D01*
Y21287D01*
X98987D01*
X102787Y27487D02*
Y29087D01*
X104387D01*
Y27487D01*
X102787D01*
X100087Y23687D02*
Y25287D01*
X101687D01*
Y23687D01*
X100087D01*
X101687Y25287D02*
Y26887D01*
X103287D01*
Y25287D01*
X101687D01*
X60487Y49687D02*
Y51287D01*
X62087D01*
Y49687D01*
X60487D01*
X62100Y26400D02*
Y28000D01*
X63700D01*
Y26400D01*
X62100D01*
X82100Y7000D02*
Y8600D01*
X83700D01*
Y7000D01*
X82100D01*
X86020Y18570D02*
Y20170D01*
X87620D01*
Y18570D01*
X86020D01*
D109*
X73300Y20100D02*
G03*
X73300Y20100I-800J0D01*
G01*
X54000Y42236D02*
G03*
X54000Y42236I-800J0D01*
G01*
X22187Y21287D02*
G03*
X22187Y21287I-800J0D01*
G01*
X23987Y19487D02*
G03*
X23987Y19487I-800J0D01*
G01*
X37087Y14987D02*
G03*
X37087Y14987I-800J0D01*
G01*
X34587Y15087D02*
G03*
X34587Y15087I-800J0D01*
G01*
X37187Y17487D02*
G03*
X37187Y17487I-800J0D01*
G01*
X34587Y17587D02*
G03*
X34587Y17587I-800J0D01*
G01*
X41887Y13687D02*
G03*
X41887Y13687I-800J0D01*
G01*
X44487Y13787D02*
G03*
X44487Y13787I-800J0D01*
G01*
X44287Y11387D02*
G03*
X44287Y11387I-800J0D01*
G01*
X46887Y11287D02*
G03*
X46887Y11287I-800J0D01*
G01*
X53587Y48087D02*
G03*
X53587Y48087I-800J0D01*
G01*
Y51587D02*
G03*
X53587Y51587I-800J0D01*
G01*
X49903D02*
G03*
X49903Y51587I-800J0D01*
G01*
X27587Y15887D02*
G03*
X27587Y15887I-800J0D01*
G01*
X25787Y17687D02*
G03*
X25787Y17687I-800J0D01*
G01*
X31400Y36100D02*
G03*
X31400Y36100I-800J0D01*
G01*
X19200Y29700D02*
G03*
X19200Y29700I-800J0D01*
G01*
X21500Y28300D02*
G03*
X21500Y28300I-800J0D01*
G01*
X21400Y32000D02*
G03*
X21400Y32000I-800J0D01*
G01*
X23900Y30800D02*
G03*
X23900Y30800I-800J0D01*
G01*
X60700Y22900D02*
G03*
X60700Y22900I-800J0D01*
G01*
X91100Y28700D02*
G03*
X91100Y28700I-800J0D01*
G01*
X72600Y24295D02*
G03*
X72600Y24295I-800J0D01*
G01*
X71300Y14900D02*
G03*
X71300Y14900I-800J0D01*
G01*
X71000Y18100D02*
G03*
X71000Y18100I-800J0D01*
G01*
M02*
