M48
;Layer_Color=9474304
;FILE_FORMAT=2:5
INCH,LZ
;TYPE=PLATED
T1F00S00C0.00787
T2F00S00C0.01000
T3F00S00C0.01200
T4F00S00C0.01299
%
T01
X0076474Y0039308
X0078639Y0039308
X0078639Y0041473
X0080792Y004146
X0076487Y0041487
T02
X0017887Y0017387
X0016287Y0019087
X0014787Y0020987
X0013187Y0022787
X0011887Y0024687
X0010387Y0026787
X0009187Y0028787
X0007987Y0030887
X0006987Y0033087
X0006087Y0035187
X0005187Y0037387
X0004387Y0039687
X0003687Y0041987
X0003087Y0044287
X0002787Y0046587
X0004687Y0047987
X0005Y00508
X0007087Y0048787
X0008843Y0047057
X0009819Y0040996
Y0038196
X0018219Y0042896
X00272Y0043115
X00285Y00445
X0030742Y0055357
X0034087Y0054587
X0032674Y0058873
X0028474
X0026274
X0023874Y0058773
X0020474Y0058373
X0018819Y0057596
X0017519Y0058896
X0016119Y0060096
X0014219Y0062096
X0012374Y0062873
X0008719Y0063296
X0010274Y0064873
X0005443Y0065257
X0005742Y0067257
X0006342Y0069457
X0003019Y0069496
X0002519Y0067196
X0003642Y0071857
X0004343Y0074157
X0005342Y0076257
X0006119Y0078396
X0007119Y0080396
X0008319Y0082357
X0010524
X0012729
X0014933
X0017138
X0019242
Y0080457
Y0078557
X0021242
X0023343Y0077957
Y0075757
Y0073757
Y0071757
Y0069712
Y0067697
Y0065682
Y0063857
X0021342
X0019443Y0063757
X0017219Y0063496
X0007019Y0061796
X0004919Y0061096
X0004619Y0059196
X0004419Y0056096
X0005142Y0063157
X0029312Y0064382
Y0066482
Y0068482
X0031512
Y0066482
X0031612Y0064382
X0037487Y0064487
Y0066687
Y0068987
X0037143Y0071357
X0035043
X0032943Y0071257
X0032912Y0073082
X0031374Y0074573
X0029274Y0074582
Y0076505
Y0078427
Y008035
Y0082273
X0031496
X0033619
X0035741
X0037863
X0039985
X0042119Y0082296
X004423Y0082273
X0046352
X0048474
X0050596
X0052719
X0054841
X0056963
X0059085
X0061207
X0061187Y0080287
X0064Y0077487
Y00715
Y00694
X0062187Y0060624
X00664Y00609
X0069016Y00597
X00692Y00559
X00729Y00566
X00747
X00726Y00587
X0072187Y0051287
X0074787Y0051387
X0077387Y0050187
X00701Y00477
X006725Y004755
X0067887Y004005
Y0036355
X0067987Y0029687
X0070705Y0030968
X0074287Y0028987
X0062887Y0029687
X00629Y00272
X0055987Y0032062
X00547Y00207
X0051182Y0018283
X00506Y00233
X0044287Y0028487
X00404Y00282
X0033787Y0025087
X00337Y00315
X0030887Y0011687
X0029387Y0008587
X0027387Y0009787
X0025387Y0011087
X0023487Y0012487
X0021587Y0013987
X0019687Y0015687
X0031487Y0007487
X0033687Y0006387
X0045787Y0002087
X0067187
X0069887Y0002687
X0072687Y0003387
X00829Y00078
X008682Y001937
X0087518Y0028687
X0087418Y0032287
X0096324Y0036718
X0096224Y0038618
X0098024Y0039095
X0098224Y0037018
X010639Y00401
X01062Y00323
X0105Y00304
X0103587Y0028287
X0102487Y0026087
X0100887Y0024487
X0099787Y0022087
X0097987Y0020387
X00927Y0014387
X0102787Y0049087
X0109Y00462
X01076Y00553
X01074Y00605
X0103918Y0066718
X01079Y00702
X0097419Y0070996
X0097348Y0073471
X0094944Y0070925
X009749Y0068521
X0094925Y0081166
X0092866Y0079107
X0090807Y0077048
X00892Y0088007
X0087483Y008629
X0085424Y0084231
X0080857Y0090112
X0080787Y0092587
X0078312Y0092516
X0083262Y0092657
X00979Y00902
X01017Y00852
X01054Y00796
X006787Y0080717
X00653Y00822
X0063987Y0083687
X0057017Y0075587
X0053474Y00757
X0045287Y0078087
X0046937Y0070487
X0040374Y0058373
X0038574Y0058873
X0056187Y0058187
X0061287Y0050487
X008Y00626
X0080716Y0095061
X00826Y01028
X00883Y00988
X00938Y00941
T03
X0021387Y0021287
X0023187Y0019487
X0024987Y0017687
X0026787Y0015887
X0033787Y0015087
Y0017587
X0036387Y0017487
X0036287Y0014987
X0041087Y0013687
X0043687Y0013787
X0043487Y0011387
X0046087Y0011287
X00599Y00229
X00718Y0024295
X00725Y00201
X00702Y00181
X00705Y00149
X00903Y00287
X00532Y0042236
X0052787Y0048087
Y0051587
X0049103
X00306Y00361
X00231Y00308
X00206Y0032
X00207Y00283
X00184Y00297
T04
X00386Y00396
X00385Y00427
X0038527Y0045846
X0043251
X00433Y00427
X00434Y00397
X00477
X00476Y00427
X0043251Y0050571
X0038527
M30
