*
%FSLAX26Y26*%
%MOIN*%
%ADD10C,0.004000*%
%ADD11C,0.003937*%
%ADD12C,0.078740*%
%IPPOS*%
%LNpz02c05521a0.gko*%
%LPD*%
G75*
G54D10*
X1257858Y185475D02*
G03X1274888Y186205I8165J8530D01*
G03X1409788Y471025I-428428J377274D01*
X1409778Y471015D02*
G03X1398128Y484745I-11662J1912D01*
X1380368Y496555D02*
G03X1392178Y484745I11810J0D01*
Y642225D02*
G03X1380368Y630415I0J-11810D01*
X1398128Y642225D02*
G03X1409778Y655945I-2J11808D01*
X1409788D02*
G03X938918Y1126815I-563330J-92460D01*
Y1126805D02*
G03X925198Y1115155I-1907J-11658D01*
X913388Y1097395D02*
G03X925198Y1109205I0J11810D01*
X767718D02*
G03X779528Y1097395I11810J0D01*
X767718Y1115155D02*
G03X753988Y1126805I-11809J-1D01*
X753998Y1126815D02*
G03X469178Y991915I92456J-563332D01*
G03X468448Y974885I7810J-8865D01*
X435048Y941485D02*
G03X468448Y974885I16330J17070D01*
X435048Y941485D02*
G03X418028Y940755I-8160J-8530D01*
G03X283128Y655945I428427J-377277D01*
G03X294778Y642225I11658J-1907D01*
X312538Y630415D02*
G03X300728Y642225I-11810J0D01*
Y484745D02*
G03X312538Y496555I0J11810D01*
X294778Y484745D02*
G03X283128Y471015I1J-11809D01*
Y471025D02*
G03X753998Y155I563330J92460D01*
X753988D02*
G03X767718Y11805I1912J11662D01*
X779528Y29565D02*
G03X767718Y17755I0J-11810D01*
X925198D02*
G03X913388Y29565I-11810J0D01*
X925198Y11805D02*
G03X938918Y155I11808J2D01*
G03X1223728Y135055I-92467J563327D01*
G03X1224458Y152075I-7810J8861D01*
X1257858Y185475D02*
G03X1224458Y152075I-16330J-17070D01*
X1392178Y484745D02*
G01X1398128D01*
X1380368Y496555D02*
Y630415D01*
X1392178Y642225D02*
X1398128D01*
X925198Y1109205D02*
Y1115155D01*
X779528Y1097395D02*
X913388D01*
X767718Y1109205D02*
Y1115155D01*
X294778Y642225D02*
X300728D01*
X312538Y496555D02*
Y630415D01*
X294778Y484745D02*
X300728D01*
X767718Y11805D02*
Y17755D01*
X779528Y29565D02*
X913388D01*
X925198Y11805D02*
Y17755D01*
X1257858Y1405948D02*
G03X1274888Y1406678I8165J8530D01*
G03X1409788Y1691498I-428428J377274D01*
X1409778Y1691488D02*
G03X1398128Y1705218I-11662J1912D01*
X1380368Y1717028D02*
G03X1392178Y1705218I11810J0D01*
Y1862698D02*
G03X1380368Y1850888I0J-11810D01*
X1398128Y1862698D02*
G03X1409778Y1876418I-2J11808D01*
X1409788D02*
G03X938918Y2347288I-563330J-92460D01*
Y2347278D02*
G03X925198Y2335628I-1907J-11658D01*
X913388Y2317868D02*
G03X925198Y2329678I0J11810D01*
X767718D02*
G03X779528Y2317868I11810J0D01*
X767718Y2335628D02*
G03X753988Y2347278I-11809J-1D01*
X753998Y2347288D02*
G03X469178Y2212388I92456J-563332D01*
G03X468448Y2195358I7810J-8865D01*
X435048Y2161958D02*
G03X468448Y2195358I16330J17070D01*
X435048Y2161958D02*
G03X418028Y2161228I-8160J-8530D01*
G03X283128Y1876418I428427J-377277D01*
G03X294778Y1862698I11658J-1907D01*
X312538Y1850888D02*
G03X300728Y1862698I-11810J0D01*
Y1705218D02*
G03X312538Y1717028I0J11810D01*
X294778Y1705218D02*
G03X283128Y1691488I1J-11809D01*
Y1691498D02*
G03X753998Y1220628I563330J92460D01*
X753988D02*
G03X767718Y1232278I1912J11662D01*
X779528Y1250038D02*
G03X767718Y1238228I0J-11810D01*
X925198D02*
G03X913388Y1250038I-11810J0D01*
X925198Y1232278D02*
G03X938918Y1220628I11808J2D01*
G03X1223728Y1355528I-92467J563327D01*
G03X1224458Y1372548I-7810J8861D01*
X1257858Y1405948D02*
G03X1224458Y1372548I-16330J-17070D01*
X1392178Y1705218D02*
G01X1398128D01*
X1380368Y1717028D02*
Y1850888D01*
X1392178Y1862698D02*
X1398128D01*
X925198Y2329678D02*
Y2335628D01*
X779528Y2317868D02*
X913388D01*
X767718Y2329678D02*
Y2335628D01*
X294778Y1862698D02*
X300728D01*
X312538Y1717028D02*
Y1850888D01*
X294778Y1705218D02*
X300728D01*
X767718Y1232278D02*
Y1238228D01*
X779528Y1250038D02*
X913388D01*
X925198Y1232278D02*
Y1238228D01*
X1257858Y2626420D02*
G03X1274888Y2627150I8165J8530D01*
G03X1409788Y2911970I-428428J377274D01*
X1409778Y2911960D02*
G03X1398128Y2925690I-11662J1912D01*
X1380368Y2937500D02*
G03X1392178Y2925690I11810J0D01*
Y3083170D02*
G03X1380368Y3071360I0J-11810D01*
X1398128Y3083170D02*
G03X1409778Y3096890I-2J11808D01*
X1409788D02*
G03X938918Y3567760I-563330J-92460D01*
Y3567750D02*
G03X925198Y3556100I-1907J-11658D01*
X913388Y3538340D02*
G03X925198Y3550150I0J11810D01*
X767718D02*
G03X779528Y3538340I11810J0D01*
X767718Y3556100D02*
G03X753988Y3567750I-11809J-1D01*
X753998Y3567760D02*
G03X469178Y3432860I92456J-563332D01*
G03X468448Y3415830I7810J-8865D01*
X435048Y3382430D02*
G03X468448Y3415830I16330J17070D01*
X435048Y3382430D02*
G03X418028Y3381700I-8160J-8530D01*
G03X283128Y3096890I428427J-377277D01*
G03X294778Y3083170I11658J-1907D01*
X312538Y3071360D02*
G03X300728Y3083170I-11810J0D01*
Y2925690D02*
G03X312538Y2937500I0J11810D01*
X294778Y2925690D02*
G03X283128Y2911960I1J-11809D01*
Y2911970D02*
G03X753998Y2441100I563330J92460D01*
X753988D02*
G03X767718Y2452750I1912J11662D01*
X779528Y2470510D02*
G03X767718Y2458700I0J-11810D01*
X925198D02*
G03X913388Y2470510I-11810J0D01*
X925198Y2452750D02*
G03X938918Y2441100I11808J2D01*
G03X1223728Y2576000I-92467J563327D01*
G03X1224458Y2593020I-7810J8861D01*
X1257858Y2626420D02*
G03X1224458Y2593020I-16330J-17070D01*
X1392178Y2925690D02*
G01X1398128D01*
X1380368Y2937500D02*
Y3071360D01*
X1392178Y3083170D02*
X1398128D01*
X925198Y3550150D02*
Y3556100D01*
X779528Y3538340D02*
X913388D01*
X767718Y3550150D02*
Y3556100D01*
X294778Y3083170D02*
X300728D01*
X312538Y2937500D02*
Y3071360D01*
X294778Y2925690D02*
X300728D01*
X767718Y2452750D02*
Y2458700D01*
X779528Y2470510D02*
X913388D01*
X925198Y2452750D02*
Y2458700D01*
X1257858Y3846893D02*
G03X1274888Y3847623I8165J8530D01*
G03X1409788Y4132443I-428428J377274D01*
X1409778Y4132433D02*
G03X1398128Y4146163I-11662J1912D01*
X1380368Y4157973D02*
G03X1392178Y4146163I11810J0D01*
Y4303643D02*
G03X1380368Y4291833I0J-11810D01*
X1398128Y4303643D02*
G03X1409778Y4317363I-2J11808D01*
X1409788D02*
G03X938918Y4788233I-563330J-92460D01*
Y4788223D02*
G03X925198Y4776573I-1907J-11658D01*
X913388Y4758813D02*
G03X925198Y4770623I0J11810D01*
X767718D02*
G03X779528Y4758813I11810J0D01*
X767718Y4776573D02*
G03X753988Y4788223I-11809J-1D01*
X753998Y4788233D02*
G03X469178Y4653333I92456J-563332D01*
G03X468448Y4636303I7810J-8865D01*
X435048Y4602903D02*
G03X468448Y4636303I16330J17070D01*
X435048Y4602903D02*
G03X418028Y4602173I-8160J-8530D01*
G03X283128Y4317363I428427J-377277D01*
G03X294778Y4303643I11658J-1907D01*
X312538Y4291833D02*
G03X300728Y4303643I-11810J0D01*
Y4146163D02*
G03X312538Y4157973I0J11810D01*
X294778Y4146163D02*
G03X283128Y4132433I1J-11809D01*
Y4132443D02*
G03X753998Y3661573I563330J92460D01*
X753988D02*
G03X767718Y3673223I1912J11662D01*
X779528Y3690983D02*
G03X767718Y3679173I0J-11810D01*
X925198D02*
G03X913388Y3690983I-11810J0D01*
X925198Y3673223D02*
G03X938918Y3661573I11808J2D01*
G03X1223728Y3796473I-92467J563327D01*
G03X1224458Y3813493I-7810J8861D01*
X1257858Y3846893D02*
G03X1224458Y3813493I-16330J-17070D01*
X1392178Y4146163D02*
G01X1398128D01*
X1380368Y4157973D02*
Y4291833D01*
X1392178Y4303643D02*
X1398128D01*
X925198Y4770623D02*
Y4776573D01*
X779528Y4758813D02*
X913388D01*
X767718Y4770623D02*
Y4776573D01*
X294778Y4303643D02*
X300728D01*
X312538Y4157973D02*
Y4291833D01*
X294778Y4146163D02*
X300728D01*
X767718Y3673223D02*
Y3679173D01*
X779528Y3690983D02*
X913388D01*
X925198Y3673223D02*
Y3679173D01*
X1257858Y5067365D02*
G03X1274888Y5068095I8165J8530D01*
G03X1409788Y5352915I-428428J377274D01*
X1409778Y5352905D02*
G03X1398128Y5366635I-11662J1912D01*
X1380368Y5378445D02*
G03X1392178Y5366635I11810J0D01*
Y5524115D02*
G03X1380368Y5512305I0J-11810D01*
X1398128Y5524115D02*
G03X1409778Y5537835I-2J11808D01*
X1409788D02*
G03X938918Y6008705I-563330J-92460D01*
Y6008695D02*
G03X925198Y5997045I-1907J-11658D01*
X913388Y5979285D02*
G03X925198Y5991095I0J11810D01*
X767718D02*
G03X779528Y5979285I11810J0D01*
X767718Y5997045D02*
G03X753988Y6008695I-11809J-1D01*
X753998Y6008705D02*
G03X469178Y5873805I92456J-563332D01*
G03X468448Y5856775I7810J-8865D01*
X435048Y5823375D02*
G03X468448Y5856775I16330J17070D01*
X435048Y5823375D02*
G03X418028Y5822645I-8160J-8530D01*
G03X283128Y5537835I428427J-377277D01*
G03X294778Y5524115I11658J-1907D01*
X312538Y5512305D02*
G03X300728Y5524115I-11810J0D01*
Y5366635D02*
G03X312538Y5378445I0J11810D01*
X294778Y5366635D02*
G03X283128Y5352905I1J-11809D01*
Y5352915D02*
G03X753998Y4882045I563330J92460D01*
X753988D02*
G03X767718Y4893695I1912J11662D01*
X779528Y4911455D02*
G03X767718Y4899645I0J-11810D01*
X925198D02*
G03X913388Y4911455I-11810J0D01*
X925198Y4893695D02*
G03X938918Y4882045I11808J2D01*
G03X1223728Y5016945I-92467J563327D01*
G03X1224458Y5033965I-7810J8861D01*
X1257858Y5067365D02*
G03X1224458Y5033965I-16330J-17070D01*
X1392178Y5366635D02*
G01X1398128D01*
X1380368Y5378445D02*
Y5512305D01*
X1392178Y5524115D02*
X1398128D01*
X925198Y5991095D02*
Y5997045D01*
X779528Y5979285D02*
X913388D01*
X767718Y5991095D02*
Y5997045D01*
X294778Y5524115D02*
X300728D01*
X312538Y5378445D02*
Y5512305D01*
X294778Y5366635D02*
X300728D01*
X767718Y4893695D02*
Y4899645D01*
X779528Y4911455D02*
X913388D01*
X925198Y4893695D02*
Y4899645D01*
X2478330Y185475D02*
G03X2495360Y186205I8165J8530D01*
G03X2630260Y471025I-428428J377274D01*
X2630250Y471015D02*
G03X2618600Y484745I-11662J1912D01*
X2600840Y496555D02*
G03X2612650Y484745I11810J0D01*
Y642225D02*
G03X2600840Y630415I0J-11810D01*
X2618600Y642225D02*
G03X2630250Y655945I-2J11808D01*
X2630260D02*
G03X2159390Y1126815I-563330J-92460D01*
Y1126805D02*
G03X2145670Y1115155I-1907J-11658D01*
X2133860Y1097395D02*
G03X2145670Y1109205I0J11810D01*
X1988190D02*
G03X2000000Y1097395I11810J0D01*
X1988190Y1115155D02*
G03X1974460Y1126805I-11809J-1D01*
X1974470Y1126815D02*
G03X1689650Y991915I92456J-563332D01*
G03X1688920Y974885I7810J-8865D01*
X1655520Y941485D02*
G03X1688920Y974885I16330J17070D01*
X1655520Y941485D02*
G03X1638500Y940755I-8160J-8530D01*
G03X1503600Y655945I428427J-377277D01*
G03X1515250Y642225I11658J-1907D01*
X1533010Y630415D02*
G03X1521200Y642225I-11810J0D01*
Y484745D02*
G03X1533010Y496555I0J11810D01*
X1515250Y484745D02*
G03X1503600Y471015I1J-11809D01*
Y471025D02*
G03X1974470Y155I563330J92460D01*
X1974460D02*
G03X1988190Y11805I1912J11662D01*
X2000000Y29565D02*
G03X1988190Y17755I0J-11810D01*
X2145670D02*
G03X2133860Y29565I-11810J0D01*
X2145670Y11805D02*
G03X2159390Y155I11808J2D01*
G03X2444200Y135055I-92467J563327D01*
G03X2444930Y152075I-7810J8861D01*
X2478330Y185475D02*
G03X2444930Y152075I-16330J-17070D01*
X2612650Y484745D02*
G01X2618600D01*
X2600840Y496555D02*
Y630415D01*
X2612650Y642225D02*
X2618600D01*
X2145670Y1109205D02*
Y1115155D01*
X2000000Y1097395D02*
X2133860D01*
X1988190Y1109205D02*
Y1115155D01*
X1515250Y642225D02*
X1521200D01*
X1533010Y496555D02*
Y630415D01*
X1515250Y484745D02*
X1521200D01*
X1988190Y11805D02*
Y17755D01*
X2000000Y29565D02*
X2133860D01*
X2145670Y11805D02*
Y17755D01*
X2478330Y1405948D02*
G03X2495360Y1406678I8165J8530D01*
G03X2630260Y1691498I-428428J377274D01*
X2630250Y1691488D02*
G03X2618600Y1705218I-11662J1912D01*
X2600840Y1717028D02*
G03X2612650Y1705218I11810J0D01*
Y1862698D02*
G03X2600840Y1850888I0J-11810D01*
X2618600Y1862698D02*
G03X2630250Y1876418I-2J11808D01*
X2630260D02*
G03X2159390Y2347288I-563330J-92460D01*
Y2347278D02*
G03X2145670Y2335628I-1907J-11658D01*
X2133860Y2317868D02*
G03X2145670Y2329678I0J11810D01*
X1988190D02*
G03X2000000Y2317868I11810J0D01*
X1988190Y2335628D02*
G03X1974460Y2347278I-11809J-1D01*
X1974470Y2347288D02*
G03X1689650Y2212388I92456J-563332D01*
G03X1688920Y2195358I7810J-8865D01*
X1655520Y2161958D02*
G03X1688920Y2195358I16330J17070D01*
X1655520Y2161958D02*
G03X1638500Y2161228I-8160J-8530D01*
G03X1503600Y1876418I428427J-377277D01*
G03X1515250Y1862698I11658J-1907D01*
X1533010Y1850888D02*
G03X1521200Y1862698I-11810J0D01*
Y1705218D02*
G03X1533010Y1717028I0J11810D01*
X1515250Y1705218D02*
G03X1503600Y1691488I1J-11809D01*
Y1691498D02*
G03X1974470Y1220628I563330J92460D01*
X1974460D02*
G03X1988190Y1232278I1912J11662D01*
X2000000Y1250038D02*
G03X1988190Y1238228I0J-11810D01*
X2145670D02*
G03X2133860Y1250038I-11810J0D01*
X2145670Y1232278D02*
G03X2159390Y1220628I11808J2D01*
G03X2444200Y1355528I-92467J563327D01*
G03X2444930Y1372548I-7810J8861D01*
X2478330Y1405948D02*
G03X2444930Y1372548I-16330J-17070D01*
X2612650Y1705218D02*
G01X2618600D01*
X2600840Y1717028D02*
Y1850888D01*
X2612650Y1862698D02*
X2618600D01*
X2145670Y2329678D02*
Y2335628D01*
X2000000Y2317868D02*
X2133860D01*
X1988190Y2329678D02*
Y2335628D01*
X1515250Y1862698D02*
X1521200D01*
X1533010Y1717028D02*
Y1850888D01*
X1515250Y1705218D02*
X1521200D01*
X1988190Y1232278D02*
Y1238228D01*
X2000000Y1250038D02*
X2133860D01*
X2145670Y1232278D02*
Y1238228D01*
X2478330Y2626420D02*
G03X2495360Y2627150I8165J8530D01*
G03X2630260Y2911970I-428428J377274D01*
X2630250Y2911960D02*
G03X2618600Y2925690I-11662J1912D01*
X2600840Y2937500D02*
G03X2612650Y2925690I11810J0D01*
Y3083170D02*
G03X2600840Y3071360I0J-11810D01*
X2618600Y3083170D02*
G03X2630250Y3096890I-2J11808D01*
X2630260D02*
G03X2159390Y3567760I-563330J-92460D01*
Y3567750D02*
G03X2145670Y3556100I-1907J-11658D01*
X2133860Y3538340D02*
G03X2145670Y3550150I0J11810D01*
X1988190D02*
G03X2000000Y3538340I11810J0D01*
X1988190Y3556100D02*
G03X1974460Y3567750I-11809J-1D01*
X1974470Y3567760D02*
G03X1689650Y3432860I92456J-563332D01*
G03X1688920Y3415830I7810J-8865D01*
X1655520Y3382430D02*
G03X1688920Y3415830I16330J17070D01*
X1655520Y3382430D02*
G03X1638500Y3381700I-8160J-8530D01*
G03X1503600Y3096890I428427J-377277D01*
G03X1515250Y3083170I11658J-1907D01*
X1533010Y3071360D02*
G03X1521200Y3083170I-11810J0D01*
Y2925690D02*
G03X1533010Y2937500I0J11810D01*
X1515250Y2925690D02*
G03X1503600Y2911960I1J-11809D01*
Y2911970D02*
G03X1974470Y2441100I563330J92460D01*
X1974460D02*
G03X1988190Y2452750I1912J11662D01*
X2000000Y2470510D02*
G03X1988190Y2458700I0J-11810D01*
X2145670D02*
G03X2133860Y2470510I-11810J0D01*
X2145670Y2452750D02*
G03X2159390Y2441100I11808J2D01*
G03X2444200Y2576000I-92467J563327D01*
G03X2444930Y2593020I-7810J8861D01*
X2478330Y2626420D02*
G03X2444930Y2593020I-16330J-17070D01*
X2612650Y2925690D02*
G01X2618600D01*
X2600840Y2937500D02*
Y3071360D01*
X2612650Y3083170D02*
X2618600D01*
X2145670Y3550150D02*
Y3556100D01*
X2000000Y3538340D02*
X2133860D01*
X1988190Y3550150D02*
Y3556100D01*
X1515250Y3083170D02*
X1521200D01*
X1533010Y2937500D02*
Y3071360D01*
X1515250Y2925690D02*
X1521200D01*
X1988190Y2452750D02*
Y2458700D01*
X2000000Y2470510D02*
X2133860D01*
X2145670Y2452750D02*
Y2458700D01*
X2478330Y3846893D02*
G03X2495360Y3847623I8165J8530D01*
G03X2630260Y4132443I-428428J377274D01*
X2630250Y4132433D02*
G03X2618600Y4146163I-11662J1912D01*
X2600840Y4157973D02*
G03X2612650Y4146163I11810J0D01*
Y4303643D02*
G03X2600840Y4291833I0J-11810D01*
X2618600Y4303643D02*
G03X2630250Y4317363I-2J11808D01*
X2630260D02*
G03X2159390Y4788233I-563330J-92460D01*
Y4788223D02*
G03X2145670Y4776573I-1907J-11658D01*
X2133860Y4758813D02*
G03X2145670Y4770623I0J11810D01*
X1988190D02*
G03X2000000Y4758813I11810J0D01*
X1988190Y4776573D02*
G03X1974460Y4788223I-11809J-1D01*
X1974470Y4788233D02*
G03X1689650Y4653333I92456J-563332D01*
G03X1688920Y4636303I7810J-8865D01*
X1655520Y4602903D02*
G03X1688920Y4636303I16330J17070D01*
X1655520Y4602903D02*
G03X1638500Y4602173I-8160J-8530D01*
G03X1503600Y4317363I428427J-377277D01*
G03X1515250Y4303643I11658J-1907D01*
X1533010Y4291833D02*
G03X1521200Y4303643I-11810J0D01*
Y4146163D02*
G03X1533010Y4157973I0J11810D01*
X1515250Y4146163D02*
G03X1503600Y4132433I1J-11809D01*
Y4132443D02*
G03X1974470Y3661573I563330J92460D01*
X1974460D02*
G03X1988190Y3673223I1912J11662D01*
X2000000Y3690983D02*
G03X1988190Y3679173I0J-11810D01*
X2145670D02*
G03X2133860Y3690983I-11810J0D01*
X2145670Y3673223D02*
G03X2159390Y3661573I11808J2D01*
G03X2444200Y3796473I-92467J563327D01*
G03X2444930Y3813493I-7810J8861D01*
X2478330Y3846893D02*
G03X2444930Y3813493I-16330J-17070D01*
X2612650Y4146163D02*
G01X2618600D01*
X2600840Y4157973D02*
Y4291833D01*
X2612650Y4303643D02*
X2618600D01*
X2145670Y4770623D02*
Y4776573D01*
X2000000Y4758813D02*
X2133860D01*
X1988190Y4770623D02*
Y4776573D01*
X1515250Y4303643D02*
X1521200D01*
X1533010Y4157973D02*
Y4291833D01*
X1515250Y4146163D02*
X1521200D01*
X1988190Y3673223D02*
Y3679173D01*
X2000000Y3690983D02*
X2133860D01*
X2145670Y3673223D02*
Y3679173D01*
X2478330Y5067365D02*
G03X2495360Y5068095I8165J8530D01*
G03X2630260Y5352915I-428428J377274D01*
X2630250Y5352905D02*
G03X2618600Y5366635I-11662J1912D01*
X2600840Y5378445D02*
G03X2612650Y5366635I11810J0D01*
Y5524115D02*
G03X2600840Y5512305I0J-11810D01*
X2618600Y5524115D02*
G03X2630250Y5537835I-2J11808D01*
X2630260D02*
G03X2159390Y6008705I-563330J-92460D01*
Y6008695D02*
G03X2145670Y5997045I-1907J-11658D01*
X2133860Y5979285D02*
G03X2145670Y5991095I0J11810D01*
X1988190D02*
G03X2000000Y5979285I11810J0D01*
X1988190Y5997045D02*
G03X1974460Y6008695I-11809J-1D01*
X1974470Y6008705D02*
G03X1689650Y5873805I92456J-563332D01*
G03X1688920Y5856775I7810J-8865D01*
X1655520Y5823375D02*
G03X1688920Y5856775I16330J17070D01*
X1655520Y5823375D02*
G03X1638500Y5822645I-8160J-8530D01*
G03X1503600Y5537835I428427J-377277D01*
G03X1515250Y5524115I11658J-1907D01*
X1533010Y5512305D02*
G03X1521200Y5524115I-11810J0D01*
Y5366635D02*
G03X1533010Y5378445I0J11810D01*
X1515250Y5366635D02*
G03X1503600Y5352905I1J-11809D01*
Y5352915D02*
G03X1974470Y4882045I563330J92460D01*
X1974460D02*
G03X1988190Y4893695I1912J11662D01*
X2000000Y4911455D02*
G03X1988190Y4899645I0J-11810D01*
X2145670D02*
G03X2133860Y4911455I-11810J0D01*
X2145670Y4893695D02*
G03X2159390Y4882045I11808J2D01*
G03X2444200Y5016945I-92467J563327D01*
G03X2444930Y5033965I-7810J8861D01*
X2478330Y5067365D02*
G03X2444930Y5033965I-16330J-17070D01*
X2612650Y5366635D02*
G01X2618600D01*
X2600840Y5378445D02*
Y5512305D01*
X2612650Y5524115D02*
X2618600D01*
X2145670Y5991095D02*
Y5997045D01*
X2000000Y5979285D02*
X2133860D01*
X1988190Y5991095D02*
Y5997045D01*
X1515250Y5524115D02*
X1521200D01*
X1533010Y5378445D02*
Y5512305D01*
X1515250Y5366635D02*
X1521200D01*
X1988190Y4893695D02*
Y4899645D01*
X2000000Y4911455D02*
X2133860D01*
X2145670Y4893695D02*
Y4899645D01*
X3698803Y185475D02*
G03X3715833Y186205I8165J8530D01*
G03X3850733Y471025I-428428J377274D01*
X3850723Y471015D02*
G03X3839073Y484745I-11662J1912D01*
X3821313Y496555D02*
G03X3833123Y484745I11810J0D01*
Y642225D02*
G03X3821313Y630415I0J-11810D01*
X3839073Y642225D02*
G03X3850723Y655945I-2J11808D01*
X3850733D02*
G03X3379863Y1126815I-563330J-92460D01*
Y1126805D02*
G03X3366143Y1115155I-1907J-11658D01*
X3354333Y1097395D02*
G03X3366143Y1109205I0J11810D01*
X3208663D02*
G03X3220473Y1097395I11810J0D01*
X3208663Y1115155D02*
G03X3194933Y1126805I-11809J-1D01*
X3194943Y1126815D02*
G03X2910123Y991915I92456J-563332D01*
G03X2909393Y974885I7810J-8865D01*
X2875993Y941485D02*
G03X2909393Y974885I16330J17070D01*
X2875993Y941485D02*
G03X2858973Y940755I-8160J-8530D01*
G03X2724073Y655945I428427J-377277D01*
G03X2735723Y642225I11658J-1907D01*
X2753483Y630415D02*
G03X2741673Y642225I-11810J0D01*
Y484745D02*
G03X2753483Y496555I0J11810D01*
X2735723Y484745D02*
G03X2724073Y471015I1J-11809D01*
Y471025D02*
G03X3194943Y155I563330J92460D01*
X3194933D02*
G03X3208663Y11805I1912J11662D01*
X3220473Y29565D02*
G03X3208663Y17755I0J-11810D01*
X3366143D02*
G03X3354333Y29565I-11810J0D01*
X3366143Y11805D02*
G03X3379863Y155I11808J2D01*
G03X3664673Y135055I-92467J563327D01*
G03X3665403Y152075I-7810J8861D01*
X3698803Y185475D02*
G03X3665403Y152075I-16330J-17070D01*
X3833123Y484745D02*
G01X3839073D01*
X3821313Y496555D02*
Y630415D01*
X3833123Y642225D02*
X3839073D01*
X3366143Y1109205D02*
Y1115155D01*
X3220473Y1097395D02*
X3354333D01*
X3208663Y1109205D02*
Y1115155D01*
X2735723Y642225D02*
X2741673D01*
X2753483Y496555D02*
Y630415D01*
X2735723Y484745D02*
X2741673D01*
X3208663Y11805D02*
Y17755D01*
X3220473Y29565D02*
X3354333D01*
X3366143Y11805D02*
Y17755D01*
X3698803Y1405948D02*
G03X3715833Y1406678I8165J8530D01*
G03X3850733Y1691498I-428428J377274D01*
X3850723Y1691488D02*
G03X3839073Y1705218I-11662J1912D01*
X3821313Y1717028D02*
G03X3833123Y1705218I11810J0D01*
Y1862698D02*
G03X3821313Y1850888I0J-11810D01*
X3839073Y1862698D02*
G03X3850723Y1876418I-2J11808D01*
X3850733D02*
G03X3379863Y2347288I-563330J-92460D01*
Y2347278D02*
G03X3366143Y2335628I-1907J-11658D01*
X3354333Y2317868D02*
G03X3366143Y2329678I0J11810D01*
X3208663D02*
G03X3220473Y2317868I11810J0D01*
X3208663Y2335628D02*
G03X3194933Y2347278I-11809J-1D01*
X3194943Y2347288D02*
G03X2910123Y2212388I92456J-563332D01*
G03X2909393Y2195358I7810J-8865D01*
X2875993Y2161958D02*
G03X2909393Y2195358I16330J17070D01*
X2875993Y2161958D02*
G03X2858973Y2161228I-8160J-8530D01*
G03X2724073Y1876418I428427J-377277D01*
G03X2735723Y1862698I11658J-1907D01*
X2753483Y1850888D02*
G03X2741673Y1862698I-11810J0D01*
Y1705218D02*
G03X2753483Y1717028I0J11810D01*
X2735723Y1705218D02*
G03X2724073Y1691488I1J-11809D01*
Y1691498D02*
G03X3194943Y1220628I563330J92460D01*
X3194933D02*
G03X3208663Y1232278I1912J11662D01*
X3220473Y1250038D02*
G03X3208663Y1238228I0J-11810D01*
X3366143D02*
G03X3354333Y1250038I-11810J0D01*
X3366143Y1232278D02*
G03X3379863Y1220628I11808J2D01*
G03X3664673Y1355528I-92467J563327D01*
G03X3665403Y1372548I-7810J8861D01*
X3698803Y1405948D02*
G03X3665403Y1372548I-16330J-17070D01*
X3833123Y1705218D02*
G01X3839073D01*
X3821313Y1717028D02*
Y1850888D01*
X3833123Y1862698D02*
X3839073D01*
X3366143Y2329678D02*
Y2335628D01*
X3220473Y2317868D02*
X3354333D01*
X3208663Y2329678D02*
Y2335628D01*
X2735723Y1862698D02*
X2741673D01*
X2753483Y1717028D02*
Y1850888D01*
X2735723Y1705218D02*
X2741673D01*
X3208663Y1232278D02*
Y1238228D01*
X3220473Y1250038D02*
X3354333D01*
X3366143Y1232278D02*
Y1238228D01*
X3698803Y2626420D02*
G03X3715833Y2627150I8165J8530D01*
G03X3850733Y2911970I-428428J377274D01*
X3850723Y2911960D02*
G03X3839073Y2925690I-11662J1912D01*
X3821313Y2937500D02*
G03X3833123Y2925690I11810J0D01*
Y3083170D02*
G03X3821313Y3071360I0J-11810D01*
X3839073Y3083170D02*
G03X3850723Y3096890I-2J11808D01*
X3850733D02*
G03X3379863Y3567760I-563330J-92460D01*
Y3567750D02*
G03X3366143Y3556100I-1907J-11658D01*
X3354333Y3538340D02*
G03X3366143Y3550150I0J11810D01*
X3208663D02*
G03X3220473Y3538340I11810J0D01*
X3208663Y3556100D02*
G03X3194933Y3567750I-11809J-1D01*
X3194943Y3567760D02*
G03X2910123Y3432860I92456J-563332D01*
G03X2909393Y3415830I7810J-8865D01*
X2875993Y3382430D02*
G03X2909393Y3415830I16330J17070D01*
X2875993Y3382430D02*
G03X2858973Y3381700I-8160J-8530D01*
G03X2724073Y3096890I428427J-377277D01*
G03X2735723Y3083170I11658J-1907D01*
X2753483Y3071360D02*
G03X2741673Y3083170I-11810J0D01*
Y2925690D02*
G03X2753483Y2937500I0J11810D01*
X2735723Y2925690D02*
G03X2724073Y2911960I1J-11809D01*
Y2911970D02*
G03X3194943Y2441100I563330J92460D01*
X3194933D02*
G03X3208663Y2452750I1912J11662D01*
X3220473Y2470510D02*
G03X3208663Y2458700I0J-11810D01*
X3366143D02*
G03X3354333Y2470510I-11810J0D01*
X3366143Y2452750D02*
G03X3379863Y2441100I11808J2D01*
G03X3664673Y2576000I-92467J563327D01*
G03X3665403Y2593020I-7810J8861D01*
X3698803Y2626420D02*
G03X3665403Y2593020I-16330J-17070D01*
X3833123Y2925690D02*
G01X3839073D01*
X3821313Y2937500D02*
Y3071360D01*
X3833123Y3083170D02*
X3839073D01*
X3366143Y3550150D02*
Y3556100D01*
X3220473Y3538340D02*
X3354333D01*
X3208663Y3550150D02*
Y3556100D01*
X2735723Y3083170D02*
X2741673D01*
X2753483Y2937500D02*
Y3071360D01*
X2735723Y2925690D02*
X2741673D01*
X3208663Y2452750D02*
Y2458700D01*
X3220473Y2470510D02*
X3354333D01*
X3366143Y2452750D02*
Y2458700D01*
X3698803Y3846893D02*
G03X3715833Y3847623I8165J8530D01*
G03X3850733Y4132443I-428428J377274D01*
X3850723Y4132433D02*
G03X3839073Y4146163I-11662J1912D01*
X3821313Y4157973D02*
G03X3833123Y4146163I11810J0D01*
Y4303643D02*
G03X3821313Y4291833I0J-11810D01*
X3839073Y4303643D02*
G03X3850723Y4317363I-2J11808D01*
X3850733D02*
G03X3379863Y4788233I-563330J-92460D01*
Y4788223D02*
G03X3366143Y4776573I-1907J-11658D01*
X3354333Y4758813D02*
G03X3366143Y4770623I0J11810D01*
X3208663D02*
G03X3220473Y4758813I11810J0D01*
X3208663Y4776573D02*
G03X3194933Y4788223I-11809J-1D01*
X3194943Y4788233D02*
G03X2910123Y4653333I92456J-563332D01*
G03X2909393Y4636303I7810J-8865D01*
X2875993Y4602903D02*
G03X2909393Y4636303I16330J17070D01*
X2875993Y4602903D02*
G03X2858973Y4602173I-8160J-8530D01*
G03X2724073Y4317363I428427J-377277D01*
G03X2735723Y4303643I11658J-1907D01*
X2753483Y4291833D02*
G03X2741673Y4303643I-11810J0D01*
Y4146163D02*
G03X2753483Y4157973I0J11810D01*
X2735723Y4146163D02*
G03X2724073Y4132433I1J-11809D01*
Y4132443D02*
G03X3194943Y3661573I563330J92460D01*
X3194933D02*
G03X3208663Y3673223I1912J11662D01*
X3220473Y3690983D02*
G03X3208663Y3679173I0J-11810D01*
X3366143D02*
G03X3354333Y3690983I-11810J0D01*
X3366143Y3673223D02*
G03X3379863Y3661573I11808J2D01*
G03X3664673Y3796473I-92467J563327D01*
G03X3665403Y3813493I-7810J8861D01*
X3698803Y3846893D02*
G03X3665403Y3813493I-16330J-17070D01*
X3833123Y4146163D02*
G01X3839073D01*
X3821313Y4157973D02*
Y4291833D01*
X3833123Y4303643D02*
X3839073D01*
X3366143Y4770623D02*
Y4776573D01*
X3220473Y4758813D02*
X3354333D01*
X3208663Y4770623D02*
Y4776573D01*
X2735723Y4303643D02*
X2741673D01*
X2753483Y4157973D02*
Y4291833D01*
X2735723Y4146163D02*
X2741673D01*
X3208663Y3673223D02*
Y3679173D01*
X3220473Y3690983D02*
X3354333D01*
X3366143Y3673223D02*
Y3679173D01*
X3698803Y5067365D02*
G03X3715833Y5068095I8165J8530D01*
G03X3850733Y5352915I-428428J377274D01*
X3850723Y5352905D02*
G03X3839073Y5366635I-11662J1912D01*
X3821313Y5378445D02*
G03X3833123Y5366635I11810J0D01*
Y5524115D02*
G03X3821313Y5512305I0J-11810D01*
X3839073Y5524115D02*
G03X3850723Y5537835I-2J11808D01*
X3850733D02*
G03X3379863Y6008705I-563330J-92460D01*
Y6008695D02*
G03X3366143Y5997045I-1907J-11658D01*
X3354333Y5979285D02*
G03X3366143Y5991095I0J11810D01*
X3208663D02*
G03X3220473Y5979285I11810J0D01*
X3208663Y5997045D02*
G03X3194933Y6008695I-11809J-1D01*
X3194943Y6008705D02*
G03X2910123Y5873805I92456J-563332D01*
G03X2909393Y5856775I7810J-8865D01*
X2875993Y5823375D02*
G03X2909393Y5856775I16330J17070D01*
X2875993Y5823375D02*
G03X2858973Y5822645I-8160J-8530D01*
G03X2724073Y5537835I428427J-377277D01*
G03X2735723Y5524115I11658J-1907D01*
X2753483Y5512305D02*
G03X2741673Y5524115I-11810J0D01*
Y5366635D02*
G03X2753483Y5378445I0J11810D01*
X2735723Y5366635D02*
G03X2724073Y5352905I1J-11809D01*
Y5352915D02*
G03X3194943Y4882045I563330J92460D01*
X3194933D02*
G03X3208663Y4893695I1912J11662D01*
X3220473Y4911455D02*
G03X3208663Y4899645I0J-11810D01*
X3366143D02*
G03X3354333Y4911455I-11810J0D01*
X3366143Y4893695D02*
G03X3379863Y4882045I11808J2D01*
G03X3664673Y5016945I-92467J563327D01*
G03X3665403Y5033965I-7810J8861D01*
X3698803Y5067365D02*
G03X3665403Y5033965I-16330J-17070D01*
X3833123Y5366635D02*
G01X3839073D01*
X3821313Y5378445D02*
Y5512305D01*
X3833123Y5524115D02*
X3839073D01*
X3366143Y5991095D02*
Y5997045D01*
X3220473Y5979285D02*
X3354333D01*
X3208663Y5991095D02*
Y5997045D01*
X2735723Y5524115D02*
X2741673D01*
X2753483Y5378445D02*
Y5512305D01*
X2735723Y5366635D02*
X2741673D01*
X3208663Y4893695D02*
Y4899645D01*
X3220473Y4911455D02*
X3354333D01*
X3366143Y4893695D02*
Y4899645D01*
X4919275Y185475D02*
G03X4936305Y186205I8165J8530D01*
G03X5071205Y471025I-428428J377274D01*
X5071195Y471015D02*
G03X5059545Y484745I-11662J1912D01*
X5041785Y496555D02*
G03X5053595Y484745I11810J0D01*
Y642225D02*
G03X5041785Y630415I0J-11810D01*
X5059545Y642225D02*
G03X5071195Y655945I-2J11808D01*
X5071205D02*
G03X4600335Y1126815I-563330J-92460D01*
Y1126805D02*
G03X4586615Y1115155I-1907J-11658D01*
X4574805Y1097395D02*
G03X4586615Y1109205I0J11810D01*
X4429135D02*
G03X4440945Y1097395I11810J0D01*
X4429135Y1115155D02*
G03X4415405Y1126805I-11809J-1D01*
X4415415Y1126815D02*
G03X4130595Y991915I92456J-563332D01*
G03X4129865Y974885I7810J-8865D01*
X4096465Y941485D02*
G03X4129865Y974885I16330J17070D01*
X4096465Y941485D02*
G03X4079445Y940755I-8160J-8530D01*
G03X3944545Y655945I428427J-377277D01*
G03X3956195Y642225I11658J-1907D01*
X3973955Y630415D02*
G03X3962145Y642225I-11810J0D01*
Y484745D02*
G03X3973955Y496555I0J11810D01*
X3956195Y484745D02*
G03X3944545Y471015I1J-11809D01*
Y471025D02*
G03X4415415Y155I563330J92460D01*
X4415405D02*
G03X4429135Y11805I1912J11662D01*
X4440945Y29565D02*
G03X4429135Y17755I0J-11810D01*
X4586615D02*
G03X4574805Y29565I-11810J0D01*
X4586615Y11805D02*
G03X4600335Y155I11808J2D01*
G03X4885145Y135055I-92467J563327D01*
G03X4885875Y152075I-7810J8861D01*
X4919275Y185475D02*
G03X4885875Y152075I-16330J-17070D01*
X5053595Y484745D02*
G01X5059545D01*
X5041785Y496555D02*
Y630415D01*
X5053595Y642225D02*
X5059545D01*
X4586615Y1109205D02*
Y1115155D01*
X4440945Y1097395D02*
X4574805D01*
X4429135Y1109205D02*
Y1115155D01*
X3956195Y642225D02*
X3962145D01*
X3973955Y496555D02*
Y630415D01*
X3956195Y484745D02*
X3962145D01*
X4429135Y11805D02*
Y17755D01*
X4440945Y29565D02*
X4574805D01*
X4586615Y11805D02*
Y17755D01*
X4919275Y1405948D02*
G03X4936305Y1406678I8165J8530D01*
G03X5071205Y1691498I-428428J377274D01*
X5071195Y1691488D02*
G03X5059545Y1705218I-11662J1912D01*
X5041785Y1717028D02*
G03X5053595Y1705218I11810J0D01*
Y1862698D02*
G03X5041785Y1850888I0J-11810D01*
X5059545Y1862698D02*
G03X5071195Y1876418I-2J11808D01*
X5071205D02*
G03X4600335Y2347288I-563330J-92460D01*
Y2347278D02*
G03X4586615Y2335628I-1907J-11658D01*
X4574805Y2317868D02*
G03X4586615Y2329678I0J11810D01*
X4429135D02*
G03X4440945Y2317868I11810J0D01*
X4429135Y2335628D02*
G03X4415405Y2347278I-11809J-1D01*
X4415415Y2347288D02*
G03X4130595Y2212388I92456J-563332D01*
G03X4129865Y2195358I7810J-8865D01*
X4096465Y2161958D02*
G03X4129865Y2195358I16330J17070D01*
X4096465Y2161958D02*
G03X4079445Y2161228I-8160J-8530D01*
G03X3944545Y1876418I428427J-377277D01*
G03X3956195Y1862698I11658J-1907D01*
X3973955Y1850888D02*
G03X3962145Y1862698I-11810J0D01*
Y1705218D02*
G03X3973955Y1717028I0J11810D01*
X3956195Y1705218D02*
G03X3944545Y1691488I1J-11809D01*
Y1691498D02*
G03X4415415Y1220628I563330J92460D01*
X4415405D02*
G03X4429135Y1232278I1912J11662D01*
X4440945Y1250038D02*
G03X4429135Y1238228I0J-11810D01*
X4586615D02*
G03X4574805Y1250038I-11810J0D01*
X4586615Y1232278D02*
G03X4600335Y1220628I11808J2D01*
G03X4885145Y1355528I-92467J563327D01*
G03X4885875Y1372548I-7810J8861D01*
X4919275Y1405948D02*
G03X4885875Y1372548I-16330J-17070D01*
X5053595Y1705218D02*
G01X5059545D01*
X5041785Y1717028D02*
Y1850888D01*
X5053595Y1862698D02*
X5059545D01*
X4586615Y2329678D02*
Y2335628D01*
X4440945Y2317868D02*
X4574805D01*
X4429135Y2329678D02*
Y2335628D01*
X3956195Y1862698D02*
X3962145D01*
X3973955Y1717028D02*
Y1850888D01*
X3956195Y1705218D02*
X3962145D01*
X4429135Y1232278D02*
Y1238228D01*
X4440945Y1250038D02*
X4574805D01*
X4586615Y1232278D02*
Y1238228D01*
X4919275Y2626420D02*
G03X4936305Y2627150I8165J8530D01*
G03X5071205Y2911970I-428428J377274D01*
X5071195Y2911960D02*
G03X5059545Y2925690I-11662J1912D01*
X5041785Y2937500D02*
G03X5053595Y2925690I11810J0D01*
Y3083170D02*
G03X5041785Y3071360I0J-11810D01*
X5059545Y3083170D02*
G03X5071195Y3096890I-2J11808D01*
X5071205D02*
G03X4600335Y3567760I-563330J-92460D01*
Y3567750D02*
G03X4586615Y3556100I-1907J-11658D01*
X4574805Y3538340D02*
G03X4586615Y3550150I0J11810D01*
X4429135D02*
G03X4440945Y3538340I11810J0D01*
X4429135Y3556100D02*
G03X4415405Y3567750I-11809J-1D01*
X4415415Y3567760D02*
G03X4130595Y3432860I92456J-563332D01*
G03X4129865Y3415830I7810J-8865D01*
X4096465Y3382430D02*
G03X4129865Y3415830I16330J17070D01*
X4096465Y3382430D02*
G03X4079445Y3381700I-8160J-8530D01*
G03X3944545Y3096890I428427J-377277D01*
G03X3956195Y3083170I11658J-1907D01*
X3973955Y3071360D02*
G03X3962145Y3083170I-11810J0D01*
Y2925690D02*
G03X3973955Y2937500I0J11810D01*
X3956195Y2925690D02*
G03X3944545Y2911960I1J-11809D01*
Y2911970D02*
G03X4415415Y2441100I563330J92460D01*
X4415405D02*
G03X4429135Y2452750I1912J11662D01*
X4440945Y2470510D02*
G03X4429135Y2458700I0J-11810D01*
X4586615D02*
G03X4574805Y2470510I-11810J0D01*
X4586615Y2452750D02*
G03X4600335Y2441100I11808J2D01*
G03X4885145Y2576000I-92467J563327D01*
G03X4885875Y2593020I-7810J8861D01*
X4919275Y2626420D02*
G03X4885875Y2593020I-16330J-17070D01*
X5053595Y2925690D02*
G01X5059545D01*
X5041785Y2937500D02*
Y3071360D01*
X5053595Y3083170D02*
X5059545D01*
X4586615Y3550150D02*
Y3556100D01*
X4440945Y3538340D02*
X4574805D01*
X4429135Y3550150D02*
Y3556100D01*
X3956195Y3083170D02*
X3962145D01*
X3973955Y2937500D02*
Y3071360D01*
X3956195Y2925690D02*
X3962145D01*
X4429135Y2452750D02*
Y2458700D01*
X4440945Y2470510D02*
X4574805D01*
X4586615Y2452750D02*
Y2458700D01*
X4919275Y3846893D02*
G03X4936305Y3847623I8165J8530D01*
G03X5071205Y4132443I-428428J377274D01*
X5071195Y4132433D02*
G03X5059545Y4146163I-11662J1912D01*
X5041785Y4157973D02*
G03X5053595Y4146163I11810J0D01*
Y4303643D02*
G03X5041785Y4291833I0J-11810D01*
X5059545Y4303643D02*
G03X5071195Y4317363I-2J11808D01*
X5071205D02*
G03X4600335Y4788233I-563330J-92460D01*
Y4788223D02*
G03X4586615Y4776573I-1907J-11658D01*
X4574805Y4758813D02*
G03X4586615Y4770623I0J11810D01*
X4429135D02*
G03X4440945Y4758813I11810J0D01*
X4429135Y4776573D02*
G03X4415405Y4788223I-11809J-1D01*
X4415415Y4788233D02*
G03X4130595Y4653333I92456J-563332D01*
G03X4129865Y4636303I7810J-8865D01*
X4096465Y4602903D02*
G03X4129865Y4636303I16330J17070D01*
X4096465Y4602903D02*
G03X4079445Y4602173I-8160J-8530D01*
G03X3944545Y4317363I428427J-377277D01*
G03X3956195Y4303643I11658J-1907D01*
X3973955Y4291833D02*
G03X3962145Y4303643I-11810J0D01*
Y4146163D02*
G03X3973955Y4157973I0J11810D01*
X3956195Y4146163D02*
G03X3944545Y4132433I1J-11809D01*
Y4132443D02*
G03X4415415Y3661573I563330J92460D01*
X4415405D02*
G03X4429135Y3673223I1912J11662D01*
X4440945Y3690983D02*
G03X4429135Y3679173I0J-11810D01*
X4586615D02*
G03X4574805Y3690983I-11810J0D01*
X4586615Y3673223D02*
G03X4600335Y3661573I11808J2D01*
G03X4885145Y3796473I-92467J563327D01*
G03X4885875Y3813493I-7810J8861D01*
X4919275Y3846893D02*
G03X4885875Y3813493I-16330J-17070D01*
X5053595Y4146163D02*
G01X5059545D01*
X5041785Y4157973D02*
Y4291833D01*
X5053595Y4303643D02*
X5059545D01*
X4586615Y4770623D02*
Y4776573D01*
X4440945Y4758813D02*
X4574805D01*
X4429135Y4770623D02*
Y4776573D01*
X3956195Y4303643D02*
X3962145D01*
X3973955Y4157973D02*
Y4291833D01*
X3956195Y4146163D02*
X3962145D01*
X4429135Y3673223D02*
Y3679173D01*
X4440945Y3690983D02*
X4574805D01*
X4586615Y3673223D02*
Y3679173D01*
X4919275Y5067365D02*
G03X4936305Y5068095I8165J8530D01*
G03X5071205Y5352915I-428428J377274D01*
X5071195Y5352905D02*
G03X5059545Y5366635I-11662J1912D01*
X5041785Y5378445D02*
G03X5053595Y5366635I11810J0D01*
Y5524115D02*
G03X5041785Y5512305I0J-11810D01*
X5059545Y5524115D02*
G03X5071195Y5537835I-2J11808D01*
X5071205D02*
G03X4600335Y6008705I-563330J-92460D01*
Y6008695D02*
G03X4586615Y5997045I-1907J-11658D01*
X4574805Y5979285D02*
G03X4586615Y5991095I0J11810D01*
X4429135D02*
G03X4440945Y5979285I11810J0D01*
X4429135Y5997045D02*
G03X4415405Y6008695I-11809J-1D01*
X4415415Y6008705D02*
G03X4130595Y5873805I92456J-563332D01*
G03X4129865Y5856775I7810J-8865D01*
X4096465Y5823375D02*
G03X4129865Y5856775I16330J17070D01*
X4096465Y5823375D02*
G03X4079445Y5822645I-8160J-8530D01*
G03X3944545Y5537835I428427J-377277D01*
G03X3956195Y5524115I11658J-1907D01*
X3973955Y5512305D02*
G03X3962145Y5524115I-11810J0D01*
Y5366635D02*
G03X3973955Y5378445I0J11810D01*
X3956195Y5366635D02*
G03X3944545Y5352905I1J-11809D01*
Y5352915D02*
G03X4415415Y4882045I563330J92460D01*
X4415405D02*
G03X4429135Y4893695I1912J11662D01*
X4440945Y4911455D02*
G03X4429135Y4899645I0J-11810D01*
X4586615D02*
G03X4574805Y4911455I-11810J0D01*
X4586615Y4893695D02*
G03X4600335Y4882045I11808J2D01*
G03X4885145Y5016945I-92467J563327D01*
G03X4885875Y5033965I-7810J8861D01*
X4919275Y5067365D02*
G03X4885875Y5033965I-16330J-17070D01*
X5053595Y5366635D02*
G01X5059545D01*
X5041785Y5378445D02*
Y5512305D01*
X5053595Y5524115D02*
X5059545D01*
X4586615Y5991095D02*
Y5997045D01*
X4440945Y5979285D02*
X4574805D01*
X4429135Y5991095D02*
Y5997045D01*
X3956195Y5524115D02*
X3962145D01*
X3973955Y5378445D02*
Y5512305D01*
X3956195Y5366635D02*
X3962145D01*
X4429135Y4893695D02*
Y4899645D01*
X4440945Y4911455D02*
X4574805D01*
X4586615Y4893695D02*
Y4899645D01*
G54D11*
X256700Y1511606D02*
G03X326212Y1548942I34756J18667D01*
X450778Y1372465D02*
G03X392319Y1319470I-29229J-26497D01*
X209077Y1909398D02*
G03X256700Y1511606I637381J-125440D01*
X1391413Y1613924D02*
G03X1453724Y1569554I36767J-14305D01*
X1353535Y1377930D02*
G03X1289085Y1423450I-32225J22760D01*
X1333983Y1354652D02*
G01X1353535Y1377930D01*
X1300667Y2129765D02*
G03X1366575Y2173146I32954J21691D01*
X1455891Y1982024D02*
G03X1396653Y1936191I-22025J-32731D01*
X296642Y1937551D02*
G03X222281Y1963940I-37180J13194D01*
X327232Y2174329D02*
G03X393039Y2130796I32904J-21766D01*
X358932Y2213263D02*
G01X327232Y2174330D01*
X392320Y1319470D02*
G03X545053Y1208506I454138J464487D01*
X1148024Y1208593D02*
G03X1275766Y1296434I-301570J575363D01*
G03X1299897Y1330514I-59847J67960D01*
Y1330515D02*
G03X1333983Y1354652I-33874J83973D01*
X1366575Y2173146D02*
G03X1148025Y2359325I-520118J-389189D01*
X544892Y2359322D02*
G03X358933Y2213263I301572J-575362D01*
X222283Y1963940D02*
G03X205433Y1889205I624173J-179992D01*
X1477172Y1511606D02*
G03X1546684Y1548942I34756J18667D01*
X1671250Y1372465D02*
G03X1612791Y1319470I-29229J-26497D01*
X1453726Y1569554D02*
G03X1477172Y1511606I613206J214399D01*
X2611886Y1613924D02*
G03X2674197Y1569554I36767J-14305D01*
X2574007Y1377930D02*
G03X2509557Y1423450I-32225J22760D01*
X2554456Y1354652D02*
G01X2574007Y1377930D01*
X2521140Y2129765D02*
G03X2587047Y2173146I32954J21691D01*
X2676363Y1982024D02*
G03X2617125Y1936191I-22025J-32731D01*
X1517114Y1937551D02*
G03X1455891Y1982024I-37180J13194D01*
X1547705Y2174329D02*
G03X1613512Y2130796I32904J-21766D01*
X1579405Y2213263D02*
G01X1547705Y2174330D01*
X1612793Y1319470D02*
G03X1765363Y1208591I454139J464486D01*
X2368496Y1208593D02*
G03X2496238Y1296434I-301570J575363D01*
G03X2520369Y1330514I-59847J67960D01*
Y1330515D02*
G03X2554456Y1354652I-33874J83973D01*
X2587047Y2173146D02*
G03X2368497Y2359325I-520118J-389189D01*
X1765364Y2359322D02*
G03X1579406Y2213263I301572J-575362D01*
X2697645Y1511606D02*
G03X2767157Y1548942I34756J18667D01*
X2891722Y1372465D02*
G03X2833264Y1319470I-29229J-26497D01*
X2674198Y1569554D02*
G03X2697645Y1511606I613206J214399D01*
X3832358Y1613924D02*
G03X3894669Y1569554I36767J-14305D01*
X3794480Y1377930D02*
G03X3730030Y1423450I-32225J22760D01*
X3774928Y1354652D02*
G01X3794480Y1377930D01*
X3741612Y2129765D02*
G03X3807520Y2173146I32954J21691D01*
X3896836Y1982024D02*
G03X3837598Y1936191I-22025J-32731D01*
X2737587Y1937551D02*
G03X2676363Y1982024I-37180J13194D01*
X2768177Y2174329D02*
G03X2833984Y2130796I32904J-21766D01*
X2799877Y2213263D02*
G01X2768177Y2174330D01*
X2833265Y1319470D02*
G03X2985836Y1208591I454139J464486D01*
X3588969Y1208593D02*
G03X3716711Y1296434I-301570J575363D01*
G03X3740842Y1330514I-59847J67960D01*
Y1330515D02*
G03X3774928Y1354652I-33874J83973D01*
X3807520Y2173146D02*
G03X3588970Y2359325I-520118J-389189D01*
X2985837Y2359322D02*
G03X2799878Y2213263I301572J-575362D01*
X256700Y2732079D02*
G03X326212Y2769414I34756J18667D01*
X450778Y2592937D02*
G03X392319Y2539943I-29229J-26497D01*
X209077Y3129871D02*
G03X256700Y2732079I637381J-125440D01*
X1391413Y2834396D02*
G03X1453724Y2790026I36767J-14305D01*
X1353535Y2598403D02*
G03X1289085Y2643922I-32225J22760D01*
X1333983Y2575125D02*
G01X1353535Y2598403D01*
X1300667Y3350237D02*
G03X1366575Y3393619I32954J21691D01*
X1455891Y3202496D02*
G03X1396653Y3156663I-22025J-32731D01*
X296642Y3158024D02*
G03X222281Y3184412I-37180J13194D01*
X327232Y3394801D02*
G03X393039Y3351269I32904J-21766D01*
X358932Y3433735D02*
G01X327232Y3394802D01*
X392320Y2539943D02*
G03X544891Y2429063I454139J464486D01*
X1148024Y2429066D02*
G03X1275766Y2516906I-301570J575363D01*
G03X1299897Y2550986I-59847J67960D01*
Y2550987D02*
G03X1333983Y2575125I-33874J83973D01*
X1366575Y3393619D02*
G03X1148025Y3579797I-520117J-389189D01*
X544892Y3579794D02*
G03X358933Y3433735I301572J-575362D01*
X222283Y3184412D02*
G03X205433Y3109677I624173J-179992D01*
X1477172Y2732079D02*
G03X1546684Y2769414I34756J18667D01*
X1671250Y2592937D02*
G03X1612791Y2539943I-29229J-26497D01*
X1453726Y2790026D02*
G03X1477172Y2732079I613206J214399D01*
X2611886Y2834396D02*
G03X2674197Y2790026I36767J-14305D01*
X2574007Y2598403D02*
G03X2509557Y2643922I-32225J22760D01*
X2554456Y2575125D02*
G01X2574007Y2598403D01*
X2521140Y3350237D02*
G03X2587047Y3393619I32954J21691D01*
X2676363Y3202496D02*
G03X2617125Y3156663I-22025J-32731D01*
X1517114Y3158024D02*
G03X1455891Y3202496I-37180J13194D01*
X1547705Y3394801D02*
G03X1613512Y3351269I32904J-21766D01*
X1579405Y3433735D02*
G01X1547705Y3394802D01*
X1612793Y2539943D02*
G03X1765363Y2429063I454139J464486D01*
X2368496Y2429066D02*
G03X2496238Y2516906I-301570J575363D01*
G03X2520369Y2550986I-59847J67960D01*
Y2550987D02*
G03X2554456Y2575125I-33874J83973D01*
X2587047Y3393619D02*
G03X2368497Y3579797I-520117J-389189D01*
X1765364Y3579794D02*
G03X1579406Y3433735I301572J-575362D01*
X2697645Y2732079D02*
G03X2767157Y2769414I34756J18667D01*
X2891722Y2592937D02*
G03X2833264Y2539943I-29229J-26497D01*
X2674198Y2790026D02*
G03X2697645Y2732079I613206J214399D01*
X3832358Y2834396D02*
G03X3894669Y2790026I36767J-14305D01*
X3794480Y2598403D02*
G03X3730030Y2643922I-32225J22760D01*
X3774928Y2575125D02*
G01X3794480Y2598403D01*
X3741612Y3350237D02*
G03X3807520Y3393619I32954J21691D01*
X3896836Y3202496D02*
G03X3837598Y3156663I-22025J-32731D01*
X2737587Y3158024D02*
G03X2676363Y3202496I-37180J13194D01*
X2768177Y3394801D02*
G03X2833984Y3351269I32904J-21766D01*
X2799877Y3433735D02*
G01X2768177Y3394802D01*
X2833265Y2539943D02*
G03X2985836Y2429063I454139J464486D01*
X3588969Y2429066D02*
G03X3716711Y2516906I-301570J575363D01*
G03X3740842Y2550986I-59847J67960D01*
Y2550987D02*
G03X3774928Y2575125I-33874J83973D01*
X3807520Y3393619D02*
G03X3588970Y3579797I-520117J-389189D01*
X2985837Y3579794D02*
G03X2799878Y3433735I301572J-575362D01*
X256700Y3952551D02*
G03X326212Y3989887I34756J18667D01*
X450778Y3813409D02*
G03X392319Y3760415I-29229J-26497D01*
X209077Y4350344D02*
G03X256700Y3952551I637381J-125441D01*
X1391413Y4054869D02*
G03X1453724Y4010499I36766J-14305D01*
X1353535Y3818875D02*
G03X1289085Y3864395I-32225J22760D01*
X1333983Y3795598D02*
G01X1353535Y3818875D01*
X1300667Y4570710D02*
G03X1366575Y4614092I32954J21691D01*
X1455891Y4422969D02*
G03X1396653Y4377136I-22025J-32731D01*
X296642Y4378496D02*
G03X222281Y4404885I-37180J13194D01*
X327232Y4615274D02*
G03X393039Y4571741I32904J-21766D01*
X358932Y4654208D02*
G01X327232Y4615275D01*
X392320Y3760415D02*
G03X544891Y3649535I454139J464486D01*
X1148024Y3649539D02*
G03X1275766Y3737379I-301570J575363D01*
G03X1299897Y3771459I-59847J67960D01*
Y3771460D02*
G03X1333983Y3795598I-33874J83973D01*
X1366575Y4614092D02*
G03X1148025Y4800270I-520117J-389189D01*
X544892Y4800267D02*
G03X358933Y4654208I301571J-575363D01*
X222283Y4404885D02*
G03X205433Y4330150I624173J-179991D01*
X1477172Y3952551D02*
G03X1546684Y3989887I34756J18667D01*
X1671250Y3813409D02*
G03X1612791Y3760415I-29229J-26497D01*
X1453726Y4010499D02*
G03X1477172Y3952551I613207J214397D01*
X2611886Y4054869D02*
G03X2674197Y4010499I36766J-14305D01*
X2574007Y3818875D02*
G03X2509557Y3864395I-32225J22760D01*
X2554456Y3795598D02*
G01X2574007Y3818875D01*
X2521140Y4570710D02*
G03X2587047Y4614092I32954J21691D01*
X2676363Y4422969D02*
G03X2617125Y4377136I-22025J-32731D01*
X1517114Y4378496D02*
G03X1455891Y4422969I-37180J13194D01*
X1547705Y4615274D02*
G03X1613512Y4571741I32904J-21766D01*
X1579405Y4654208D02*
G01X1547705Y4615275D01*
X1612793Y3760415D02*
G03X1765363Y3649535I454139J464486D01*
X2368496Y3649539D02*
G03X2496238Y3737379I-301570J575363D01*
G03X2520369Y3771459I-59847J67960D01*
Y3771460D02*
G03X2554456Y3795598I-33874J83973D01*
X2587047Y4614092D02*
G03X2368497Y4800270I-520117J-389189D01*
X1765364Y4800267D02*
G03X1579406Y4654208I301571J-575363D01*
X2697645Y3952551D02*
G03X2767157Y3989887I34756J18667D01*
X2891722Y3813409D02*
G03X2833264Y3760415I-29229J-26497D01*
X2674198Y4010499D02*
G03X2697645Y3952551I613207J214397D01*
X3832358Y4054869D02*
G03X3894669Y4010499I36766J-14305D01*
X3794480Y3818875D02*
G03X3730030Y3864395I-32225J22760D01*
X3774928Y3795598D02*
G01X3794480Y3818875D01*
X3741612Y4570710D02*
G03X3807520Y4614092I32954J21691D01*
X3896836Y4422969D02*
G03X3837598Y4377136I-22025J-32731D01*
X2737587Y4378496D02*
G03X2676363Y4422969I-37180J13194D01*
X2768177Y4615274D02*
G03X2833984Y4571741I32904J-21766D01*
X2799877Y4654208D02*
G01X2768177Y4615275D01*
X2833265Y3760415D02*
G03X2985836Y3649535I454139J464486D01*
X3588969Y3649539D02*
G03X3716711Y3737379I-301570J575363D01*
G03X3740842Y3771459I-59847J67960D01*
Y3771460D02*
G03X3774928Y3795598I-33874J83973D01*
X3807520Y4614092D02*
G03X3588970Y4800270I-520117J-389189D01*
X2985837Y4800267D02*
G03X2799878Y4654208I301571J-575363D01*
X2368497Y3649537D02*
G03X2368498Y3579796I18278J-34870D01*
X544892Y3579795D02*
G03X544891Y3649537I-18278J34870D01*
X1148025Y3649537D02*
G03X1148026Y3579796I18278J-34870D01*
X1765364Y3579795D02*
G03X1765363Y3649537I-18278J34870D01*
X2985837Y3579795D02*
G03X2985836Y3649537I-18278J34870D01*
X3588970Y3649537D02*
G03X3588970Y3579796I18278J-34870D01*
X3588970Y2429065D02*
G03X3588970Y2359324I18278J-34870D01*
X2985837Y2359323D02*
G03X2985836Y2429064I-18278J34870D01*
X2368497Y2429065D02*
G03X2368498Y2359324I18278J-34870D01*
X1765364Y2359323D02*
G03X1765363Y2429064I-18278J34870D01*
X1148025Y2429065D02*
G03X1148026Y2359324I18278J-34870D01*
X544892Y2359323D02*
G03X544891Y2429064I-18278J34870D01*
X256700Y291134D02*
G03X326212Y328470I34756J18667D01*
X209077Y688926D02*
G03X256700Y291134I637381J-125441D01*
X1391413Y393452D02*
G03X1444889Y343407I36767J-14306D01*
X1300667Y909293D02*
G03X1366575Y952674I32954J21691D01*
X1455891Y761551D02*
G03X1396653Y715719I-22025J-32731D01*
X296642Y717079D02*
G03X222281Y743467I-37180J13194D01*
X327232Y953856D02*
G03X393039Y910324I32904J-21766D01*
X358932Y992790D02*
G01X327232Y953857D01*
X1366575Y952674D02*
G03X1148025Y1138852I-520118J-389189D01*
X544892Y1138849D02*
G03X358933Y992790I301572J-575362D01*
X222283Y743467D02*
G03X205433Y668732I624173J-179992D01*
X1464497Y341713D02*
G03X1521842Y392726I22589J32345D01*
X2611886Y393452D02*
G03X2665361Y343407I36767J-14306D01*
X2521140Y909293D02*
G03X2587047Y952674I32954J21691D01*
X2676363Y761551D02*
G03X2617125Y715719I-22025J-32731D01*
X1517114Y717079D02*
G03X1455891Y761551I-37180J13194D01*
X1547705Y953856D02*
G03X1613512Y910324I32904J-21766D01*
X1579405Y992790D02*
G01X1547705Y953857D01*
X2587047Y952674D02*
G03X2368497Y1138852I-520118J-389189D01*
X1765364Y1138849D02*
G03X1579406Y992790I301572J-575362D01*
X3741612Y909293D02*
G03X3807520Y952674I32954J21691D01*
X3896836Y761551D02*
G03X3837598Y715719I-22025J-32731D01*
X2737587Y717079D02*
G03X2676363Y761551I-37180J13194D01*
X2768177Y953856D02*
G03X2833984Y910324I32904J-21766D01*
X2799877Y992790D02*
G01X2768177Y953857D01*
X3807520Y952674D02*
G03X3588970Y1138852I-520118J-389189D01*
X2985837Y1138849D02*
G03X2799878Y992790I301572J-575362D01*
X3588970Y1208593D02*
G03X3588970Y1138852I18278J-34870D01*
X2985837Y1138850D02*
G03X2985836Y1208592I-18278J34870D01*
X2368497Y1208593D02*
G03X2368498Y1138852I18278J-34870D01*
X1765364Y1138850D02*
G03X1765363Y1208592I-18278J34870D01*
X1148025Y1208593D02*
G03X1148026Y1138852I18278J-34870D01*
X544892Y1138850D02*
G03X544891Y1208592I-18278J34870D01*
X256700Y5173024D02*
G03X326212Y5210359I34756J18667D01*
X450778Y5033882D02*
G03X392319Y4980888I-29229J-26497D01*
X209077Y5570816D02*
G03X256700Y5173024I637381J-125440D01*
X1391413Y5275341D02*
G03X1453724Y5230972I36766J-14305D01*
X1353535Y5039348D02*
G03X1289085Y5084867I-32225J22760D01*
X1333983Y5016070D02*
G01X1353535Y5039348D01*
X1455891Y5643441D02*
G03X1396653Y5597608I-22025J-32731D01*
X296642Y5598969D02*
G03X222281Y5625357I-37180J13194D01*
X392320Y4980888D02*
G03X544891Y4870008I454139J464486D01*
X1148024Y4870011D02*
G03X1275766Y4957852I-301570J575363D01*
G03X1299897Y4991931I-59847J67960D01*
Y4991932D02*
G03X1333983Y5016070I-33875J83973D01*
X222283Y5625357D02*
G03X205433Y5550622I624173J-179991D01*
X1477172Y5173024D02*
G03X1546684Y5210359I34756J18667D01*
X1671250Y5033882D02*
G03X1612791Y4980888I-29229J-26497D01*
X1453726Y5230972D02*
G03X1477172Y5173024I613207J214397D01*
X2611886Y5275341D02*
G03X2674197Y5230972I36766J-14305D01*
X2574007Y5039348D02*
G03X2509557Y5084867I-32225J22760D01*
X2554456Y5016070D02*
G01X2574007Y5039348D01*
X2676363Y5643441D02*
G03X2617125Y5597608I-22025J-32731D01*
X1517114Y5598969D02*
G03X1455891Y5643441I-37180J13194D01*
X1612793Y4980888D02*
G03X1765363Y4870008I454139J464486D01*
X2368496Y4870011D02*
G03X2496238Y4957852I-301570J575363D01*
G03X2520369Y4991931I-59847J67960D01*
Y4991932D02*
G03X2554456Y5016070I-33875J83973D01*
X2697645Y5173024D02*
G03X2767157Y5210359I34756J18667D01*
X2891722Y5033882D02*
G03X2833264Y4980888I-29229J-26497D01*
X2674198Y5230972D02*
G03X2697645Y5173024I613207J214397D01*
X3832358Y5275341D02*
G03X3894669Y5230972I36766J-14305D01*
X3794480Y5039348D02*
G03X3730030Y5084867I-32225J22760D01*
X3774928Y5016070D02*
G01X3794480Y5039348D01*
X3896836Y5643441D02*
G03X3837598Y5597608I-22025J-32731D01*
X2737587Y5598969D02*
G03X2676363Y5643441I-37180J13194D01*
X2833265Y4980888D02*
G03X2985836Y4870008I454139J464486D01*
X3588969Y4870011D02*
G03X3716711Y4957852I-301570J575363D01*
G03X3740842Y4991931I-59847J67960D01*
Y4991932D02*
G03X3774928Y5016070I-33875J83973D01*
X2368497Y4870010D02*
G03X2368498Y4800269I18278J-34870D01*
X544892Y4800268D02*
G03X544891Y4870009I-18278J34870D01*
X1148025Y4870010D02*
G03X1148026Y4800269I18278J-34870D01*
X1765364Y4800268D02*
G03X1765363Y4870009I-18278J34870D01*
X2985837Y4800268D02*
G03X2985836Y4870009I-18278J34870D01*
X3588970Y4870010D02*
G03X3588970Y4800269I18278J-34870D01*
X0Y39370D02*
G01Y5969485D01*
X196850Y6008855D02*
X39370D01*
X3832358Y4054869D02*
G03X3894669Y4010499I36766J-14305D01*
X3896836Y4422969D02*
G03X3837598Y4377136I-22025J-32731D01*
X3832358Y2834396D02*
G03X3894669Y2790026I36767J-14305D01*
X3896836Y3202496D02*
G03X3837598Y3156663I-22025J-32731D01*
X3832358Y1613924D02*
G03X3894669Y1569554I36767J-14305D01*
X3896836Y1982024D02*
G03X3837598Y1936191I-22025J-32731D01*
X3832358Y393452D02*
G03X3885834Y343407I36767J-14306D01*
X3896836Y761551D02*
G03X3837598Y715719I-22025J-32731D01*
X196850Y0D02*
G01X39370D01*
X3918117Y1511606D02*
G03X3987629Y1548942I34756J18667D01*
X4112195Y1372465D02*
G03X4053736Y1319470I-29229J-26497D01*
X3894670Y1569554D02*
G03X3918117Y1511606I613206J214399D01*
X5052831Y1613924D02*
G03X5115142Y1569554I36767J-14305D01*
X5014952Y1377930D02*
G03X4950502Y1423450I-32225J22760D01*
X4995401Y1354652D02*
G01X5014952Y1377930D01*
X4962085Y2129765D02*
G03X5027992Y2173146I32954J21691D01*
X5117308Y1982024D02*
G03X5058070Y1936191I-22025J-32731D01*
X3958059Y1937551D02*
G03X3896836Y1982024I-37180J13194D01*
X3988650Y2174329D02*
G03X4054457Y2130796I32904J-21766D01*
X4020350Y2213263D02*
G01X3988650Y2174330D01*
X4053737Y1319470D02*
G03X4206308Y1208591I454139J464486D01*
X4809441Y1208593D02*
G03X4937183Y1296434I-301570J575363D01*
G03X4961314Y1330514I-59847J67960D01*
Y1330515D02*
G03X4995401Y1354652I-33874J83973D01*
X5027992Y2173146D02*
G03X4809442Y2359325I-520118J-389189D01*
X4206309Y2359322D02*
G03X4020350Y2213263I301572J-575362D01*
X3918117Y2732079D02*
G03X3987629Y2769414I34756J18667D01*
X4112195Y2592937D02*
G03X4053736Y2539943I-29229J-26497D01*
X3894670Y2790026D02*
G03X3918117Y2732079I613206J214399D01*
X5052831Y2834396D02*
G03X5115142Y2790026I36767J-14305D01*
X5014952Y2598403D02*
G03X4950502Y2643922I-32225J22760D01*
X4995401Y2575125D02*
G01X5014952Y2598403D01*
X4962085Y3350237D02*
G03X5027992Y3393619I32954J21691D01*
X5117308Y3202496D02*
G03X5058070Y3156663I-22025J-32731D01*
X3958059Y3158024D02*
G03X3896836Y3202496I-37180J13194D01*
X3988650Y3394801D02*
G03X4054457Y3351269I32904J-21766D01*
X4020350Y3433735D02*
G01X3988650Y3394802D01*
X4053737Y2539943D02*
G03X4206308Y2429063I454139J464486D01*
X4809441Y2429066D02*
G03X4937183Y2516906I-301570J575363D01*
G03X4961314Y2550986I-59847J67960D01*
Y2550987D02*
G03X4995401Y2575125I-33874J83973D01*
X5027992Y3393619D02*
G03X4809442Y3579797I-520117J-389189D01*
X4206309Y3579794D02*
G03X4020350Y3433735I301572J-575362D01*
X3918117Y3952551D02*
G03X3987629Y3989887I34756J18667D01*
X4112195Y3813409D02*
G03X4053736Y3760415I-29229J-26497D01*
X3894670Y4010499D02*
G03X3918117Y3952551I613207J214397D01*
X5052831Y4054869D02*
G03X5115142Y4010499I36766J-14305D01*
X5014952Y3818875D02*
G03X4950502Y3864395I-32225J22760D01*
X4995401Y3795598D02*
G01X5014952Y3818875D01*
X4962085Y4570710D02*
G03X5027992Y4614092I32954J21691D01*
X5117308Y4422969D02*
G03X5058070Y4377136I-22025J-32731D01*
X3958059Y4378496D02*
G03X3896836Y4422969I-37180J13194D01*
X3988650Y4615274D02*
G03X4054457Y4571741I32904J-21766D01*
X4020350Y4654208D02*
G01X3988650Y4615275D01*
X4053737Y3760415D02*
G03X4206308Y3649535I454139J464486D01*
X4809441Y3649539D02*
G03X4937183Y3737379I-301570J575363D01*
G03X4961314Y3771459I-59847J67960D01*
Y3771460D02*
G03X4995401Y3795598I-33874J83973D01*
X5027992Y4614092D02*
G03X4809442Y4800270I-520117J-389189D01*
X4206309Y4800267D02*
G03X4020350Y4654208I301571J-575363D01*
X4206309Y3579795D02*
G03X4206308Y3649537I-18278J34870D01*
X4809442Y3649537D02*
G03X4809443Y3579796I18278J-34870D01*
X4809442Y2429065D02*
G03X4809443Y2359324I18278J-34870D01*
X4206309Y2359323D02*
G03X4206308Y2429064I-18278J34870D01*
X5052831Y393452D02*
G03X5115142Y349082I36767J-14305D01*
X4962085Y909293D02*
G03X5027992Y952674I32954J21691D01*
X5117308Y761551D02*
G03X5058070Y715719I-22025J-32731D01*
X3958059Y717079D02*
G03X3896836Y761551I-37180J13194D01*
X3988650Y953856D02*
G03X4054457Y910324I32904J-21766D01*
X4020350Y992790D02*
G01X3988650Y953857D01*
X5027992Y952674D02*
G03X4809442Y1138852I-520118J-389189D01*
X4206309Y1138849D02*
G03X4020350Y992790I301572J-575362D01*
X4809442Y1208593D02*
G03X4809443Y1138852I18278J-34870D01*
X4206309Y1138850D02*
G03X4206308Y1208592I-18278J34870D01*
X3918117Y5173024D02*
G03X3987629Y5210359I34756J18667D01*
X4112195Y5033882D02*
G03X4053736Y4980888I-29229J-26497D01*
X3894670Y5230972D02*
G03X3918117Y5173024I613207J214397D01*
X5052831Y5275341D02*
G03X5127896Y5251565I36767J-14305D01*
X5014952Y5039348D02*
G03X4950502Y5084867I-32225J22760D01*
X4995401Y5016070D02*
G01X5014952Y5039348D01*
X5133865Y5618945D02*
G03X5058070Y5597608I-38583J-8235D01*
X3958059Y5598969D02*
G03X3896836Y5643441I-37180J13194D01*
X4053737Y4980888D02*
G03X4206308Y4870008I454139J464486D01*
X4809441Y4870011D02*
G03X4937183Y4957852I-301570J575363D01*
G03X4961314Y4991931I-59847J67960D01*
Y4991932D02*
G03X4995401Y5016070I-33875J83973D01*
X5127896Y5251565D02*
G03X5133960Y5618606I-620021J193815D01*
X4206309Y4800268D02*
G03X4206308Y4870009I-18278J34870D01*
X4809442Y4870010D02*
G03X4809443Y4800269I18278J-34870D01*
X5354333Y39370D02*
G01Y5969485D01*
X5157482Y6008855D02*
X5314963D01*
Y0D02*
X5157482D01*
X5127896Y4031093D02*
G03X5133960Y4398134I-620021J193815D01*
X5052831Y4054869D02*
G03X5127896Y4031093I36767J-14305D01*
X5133865Y4398472D02*
G03X5058070Y4377136I-38583J-8235D01*
X5127896Y4031093D02*
G03X5133960Y4398134I-620021J193815D01*
X5052831Y2834396D02*
G03X5127896Y2810620I36767J-14305D01*
X5133865Y3178000D02*
G03X5058070Y3156663I-38583J-8235D01*
X5127896Y2810620D02*
G03X5133960Y3177661I-620021J193815D01*
X5052831Y1613924D02*
G03X5127896Y1590148I36767J-14305D01*
X5133865Y1957528D02*
G03X5058070Y1936191I-38583J-8235D01*
X5127896Y1590148D02*
G03X5133960Y1957189I-620021J193815D01*
X5052831Y393452D02*
G03X5127896Y369675I36767J-14305D01*
X5133865Y737055D02*
G03X5058070Y715719I-38583J-8235D01*
X5127896Y369675D02*
G03X5133960Y736717I-620021J193815D01*
X4971285Y227514D02*
G01X5157482D01*
X430647Y172346D02*
X196850D01*
X3760232Y5765253D02*
X4032318D01*
X2539760D02*
X2811846D01*
X1319287D02*
X1591373D01*
X196850D02*
X370901D01*
X4980705D02*
X5157482D01*
Y227514D02*
Y0D01*
Y5765253D02*
Y6008855D01*
X196850Y5765253D02*
Y6008855D01*
Y0D02*
Y172346D01*
X1464496Y341713D02*
G03X1444889Y343407I-11271J-16139D01*
X1309044Y227514D02*
G01X1604128D01*
X2684970Y341713D02*
G03X2742314Y392726I22589J32345D01*
X3905442Y341713D02*
G03X3962787Y392726I22589J32345D01*
X3905441Y341713D02*
G03X3885834Y343407I-11271J-16139D01*
X2684969Y341713D02*
G03X2665361Y343407I-11271J-16139D01*
X2529556Y227514D02*
G01X2824931D01*
X3749489D02*
X4045154D01*
X0Y39370D02*
G03X39370Y0I39370J0D01*
X5314963D02*
G03X5354333Y39370I0J39370D01*
Y5969485D02*
G03X5314963Y6008855I-39370J0D01*
X39370D02*
G03X0Y5969485I0J-39370D01*
G54D12*
X98425Y5812005D03*
X5255907D03*
X98425Y393701D03*
X5255907Y196850D03*
M02*
