*
%FSLAX26Y26*%
%MOIN*%
%ADD10R,0.019690X0.019690*%
%ADD11R,0.035430X0.035430*%
%ADD12R,0.039370X0.039370*%
%ADD13R,0.009840X0.009840*%
%ADD14C,0.047240*%
%ADD15C,0.007870*%
%ADD16R,0.185040X0.185040*%
%ADD17R,0.015750X0.015750*%
%ADD18R,0.047240X0.047240*%
%ADD19C,0.004000*%
%ADD20C,0.003937*%
%ADD21C,0.039370*%
%IPPOS*%
%LNpz02c05521a0.gtp*%
%LPD*%
G75*
G36*
X1071663Y815595D02*
X1046608Y790540D01*
X1021553Y815595D01*
X1046608Y840650D01*
X1071663Y815595D01*
G37*
G36*
X1117623Y769635D02*
X1092568Y744580D01*
X1067513Y769635D01*
X1092568Y794690D01*
X1117623Y769635D01*
G37*
G36*
X1001663Y750595D02*
X976608Y725540D01*
X951553Y750595D01*
X976608Y775650D01*
X1001663Y750595D01*
G37*
G36*
X1047623Y704635D02*
X1022568Y679580D01*
X997513Y704635D01*
X1022568Y729690D01*
X1047623Y704635D01*
G37*
G54D10*
X1154943Y362615D02*
X1158873D01*
X1194313D02*
X1198243D01*
X685173Y242485D02*
X689103D01*
X645803D02*
X649733D01*
X1089333Y284795D02*
X1093263D01*
X1049963D02*
X1053893D01*
X815363Y732185D02*
X819293D01*
X854733D02*
X858663D01*
X773733Y731185D02*
X777663D01*
X734363D02*
X738293D01*
X501063Y813435D02*
X504993D01*
X540433D02*
X544363D01*
X581433Y714435D02*
X585363D01*
X542063D02*
X545993D01*
X527053Y614055D02*
X530983D01*
X487683D02*
X491613D01*
X669053D02*
X672983D01*
X629683D02*
X633613D01*
X583363Y279185D02*
X587293D01*
X622733D02*
X626663D01*
X520063Y562435D02*
X523993D01*
X559433D02*
X563363D01*
X848733Y624185D02*
X852663D01*
X809363D02*
X813293D01*
X809683Y652055D02*
X813613D01*
X849053D02*
X852983D01*
X1072943Y600615D02*
X1076873D01*
X1112313D02*
X1116243D01*
X854723Y781615D02*
X858653D01*
X815353D02*
X819283D01*
G54D11*
X1205088Y409615D03*
X1140088D03*
X1128088Y657615D03*
X1063088D03*
G54D12*
X687743Y73425D02*
X723173D01*
X687743Y191535D02*
X723173D01*
G54D13*
X1028583Y339105D02*
X1029573D01*
X1028583Y358785D02*
X1029573D01*
X1087643D02*
X1088633D01*
X1087643Y339105D02*
X1088633D01*
X1029088Y377980D02*
Y378970D01*
X1048768Y377980D02*
Y378970D01*
X1068458Y377980D02*
Y378970D01*
X1088138Y377980D02*
Y378970D01*
Y318920D02*
Y319910D01*
X1068458Y318920D02*
Y319910D01*
X1048768Y318920D02*
Y319910D01*
X1029088Y318920D02*
Y319910D01*
G54D14*
X407778Y737575D03*
G54D10*
X894458Y771890D02*
Y775820D01*
Y732520D02*
Y736450D01*
X543708Y742790D02*
Y746720D01*
Y782160D02*
Y786090D01*
Y643790D02*
Y647720D01*
Y683160D02*
Y687090D01*
X632778Y637920D02*
Y641850D01*
Y677290D02*
Y681220D01*
X831458Y235980D02*
Y239910D01*
Y275350D02*
Y279280D01*
X993608Y366150D02*
Y370080D01*
Y405520D02*
Y409450D01*
X1130458Y323460D02*
Y327390D01*
Y284090D02*
Y288020D01*
X1076588Y145960D02*
Y149890D01*
Y185330D02*
Y189260D01*
X907588Y154970D02*
Y158900D01*
Y194340D02*
Y198270D01*
X788458Y272200D02*
Y276130D01*
Y232830D02*
Y236760D01*
X596078Y614055D02*
X601978D01*
X558678D02*
X564578D01*
X776078Y642055D02*
X781978D01*
X738678D02*
X744578D01*
X738078Y614055D02*
X743978D01*
X700678D02*
X706578D01*
G36*
X470098Y444035D02*
X486798Y460735D01*
X500718Y446815D01*
X484018Y430115D01*
X470098Y444035D01*
G37*
G36*
X497938Y471875D02*
X514638Y488575D01*
X528558Y474655D01*
X511858Y457955D01*
X497938Y471875D01*
G37*
G36*
X520938Y447875D02*
X537638Y464575D01*
X551558Y450655D01*
X534858Y433955D01*
X520938Y447875D01*
G37*
G36*
X493098Y420035D02*
X509798Y436735D01*
X523718Y422815D01*
X507018Y406115D01*
X493098Y420035D01*
G37*
G36*
X366938Y603875D02*
X383638Y620575D01*
X397558Y606655D01*
X380858Y589955D01*
X366938Y603875D01*
G37*
G36*
X339098Y576035D02*
X355798Y592735D01*
X369718Y578815D01*
X353018Y562115D01*
X339098Y576035D01*
G37*
G36*
X929048Y850755D02*
X945748Y867455D01*
X959668Y853535D01*
X942968Y836835D01*
X929048Y850755D01*
G37*
G36*
X956888Y878595D02*
X973588Y895295D01*
X987508Y881375D01*
X970808Y864675D01*
X956888Y878595D01*
G37*
G36*
X340518Y528215D02*
X373928Y561625D01*
X412898Y522655D01*
X379488Y489245D01*
X340518Y528215D01*
G37*
G36*
X398978Y469755D02*
X432388Y503165D01*
X471358Y464195D01*
X437948Y430785D01*
X398978Y469755D01*
G37*
G36*
X440738Y511515D02*
X474148Y544925D01*
X513118Y505955D01*
X479708Y472545D01*
X440738Y511515D01*
G37*
G36*
X382278Y569975D02*
X415688Y603385D01*
X454658Y564415D01*
X421248Y531005D01*
X382278Y569975D01*
G37*
G54D11*
X1119588Y168115D03*
Y233115D03*
X864588Y127115D03*
Y192115D03*
G36*
X1200668Y746615D02*
X1167258Y780025D01*
X1228508Y841275D01*
X1261918Y807865D01*
X1200668Y746615D01*
G37*
G36*
X1145668Y804285D02*
X1112258Y837695D01*
X1173508Y898945D01*
X1206918Y865535D01*
X1145668Y804285D01*
G37*
G36*
X482208Y252465D02*
X437668Y297005D01*
X493348Y352685D01*
X537888Y308145D01*
X482208Y252465D01*
G37*
G36*
X575428Y156685D02*
X530888Y201225D01*
X592128Y262465D01*
X636668Y217925D01*
X575428Y156685D01*
G37*
G36*
X1248428Y656685D02*
X1203888Y701225D01*
X1265128Y762465D01*
X1309668Y717925D01*
X1248428Y656685D01*
G37*
G36*
X1082428Y873685D02*
X1037888Y918225D01*
X1099128Y979465D01*
X1143668Y934925D01*
X1082428Y873685D01*
G37*
G54D15*
X652108Y306505D02*
Y324225D01*
X667858Y306505D02*
Y324225D01*
X683608Y306505D02*
Y324225D01*
X699348Y306505D02*
Y324225D01*
X715098Y306505D02*
Y324225D01*
X730848Y306505D02*
Y324225D01*
X746598Y306505D02*
Y324225D01*
X762348Y306505D02*
Y324225D01*
X778088Y306505D02*
Y324225D01*
X793838Y306505D02*
Y324225D01*
X809588Y306505D02*
Y324225D01*
X825338Y306505D02*
Y324225D01*
Y544695D02*
Y562415D01*
X809588Y544695D02*
Y562415D01*
X793838Y544695D02*
Y562415D01*
X778088Y544695D02*
Y562415D01*
X762348Y544695D02*
Y562415D01*
X746598Y544695D02*
Y562415D01*
X730848Y544695D02*
Y562415D01*
X715098Y544695D02*
Y562415D01*
X699348Y544695D02*
Y562415D01*
X683608Y544695D02*
Y562415D01*
X667858Y544695D02*
Y562415D01*
X652108Y544695D02*
Y562415D01*
X848958Y347845D02*
X866678D01*
X848958Y363585D02*
X866678D01*
X848958Y379335D02*
X866678D01*
X848958Y395085D02*
X866678D01*
X848958Y410835D02*
X866678D01*
X848958Y426585D02*
X866678D01*
X848958Y442325D02*
X866678D01*
X848958Y458075D02*
X866678D01*
X848958Y473825D02*
X866678D01*
X848958Y489575D02*
X866678D01*
X848958Y505325D02*
X866678D01*
X848958Y521065D02*
X866678D01*
X610768D02*
X628488D01*
X610768Y505325D02*
X628488D01*
X610768Y489575D02*
X628488D01*
X610768Y473825D02*
X628488D01*
X610768Y458075D02*
X628488D01*
X610768Y442325D02*
X628488D01*
X610768Y426585D02*
X628488D01*
X610768Y410835D02*
X628488D01*
X610768Y395085D02*
X628488D01*
X610768Y379335D02*
X628488D01*
X610768Y363585D02*
X628488D01*
X610768Y347845D02*
X628488D01*
G54D16*
X738718Y434455D03*
G54D17*
X1036173Y126615D02*
X1047983D01*
X1036173Y164015D02*
X1047983D01*
X1036173Y201415D02*
X1047983D01*
X941683Y203385D02*
X953493D01*
X941683Y126615D02*
X953493D01*
G54D18*
X647458Y747485D03*
G36*
X1007258Y827690D02*
X982203Y852745D01*
X1007258Y877800D01*
X1032313Y852745D01*
X1007258Y827690D01*
G37*
G36*
X961288Y781730D02*
X936233Y806785D01*
X961288Y831840D01*
X986343Y806785D01*
X961288Y781730D01*
G37*
G54D19*
X1257858Y185475D02*
G03X1274888Y186205I8165J8530D01*
G03X1409788Y471025I-428428J377274D01*
X1409778Y471015D02*
G03X1398128Y484745I-11662J1912D01*
X1380368Y496555D02*
G03X1392178Y484745I11810J0D01*
Y642225D02*
G03X1380368Y630415I0J-11810D01*
X1398128Y642225D02*
G03X1409778Y655945I-2J11808D01*
X1409788D02*
G03X938918Y1126815I-563330J-92460D01*
Y1126805D02*
G03X925198Y1115155I-1907J-11658D01*
X913388Y1097395D02*
G03X925198Y1109205I0J11810D01*
X767718D02*
G03X779528Y1097395I11810J0D01*
X767718Y1115155D02*
G03X753988Y1126805I-11809J-1D01*
X753998Y1126815D02*
G03X469178Y991915I92456J-563332D01*
G03X468448Y974885I7810J-8865D01*
X435048Y941485D02*
G03X468448Y974885I16330J17070D01*
X435048Y941485D02*
G03X418028Y940755I-8160J-8530D01*
G03X283128Y655945I428427J-377277D01*
G03X294778Y642225I11658J-1907D01*
X312538Y630415D02*
G03X300728Y642225I-11810J0D01*
Y484745D02*
G03X312538Y496555I0J11810D01*
X294778Y484745D02*
G03X283128Y471015I1J-11809D01*
Y471025D02*
G03X753998Y155I563330J92460D01*
X753988D02*
G03X767718Y11805I1912J11662D01*
X779528Y29565D02*
G03X767718Y17755I0J-11810D01*
X925198D02*
G03X913388Y29565I-11810J0D01*
X925198Y11805D02*
G03X938918Y155I11808J2D01*
G03X1223728Y135055I-92467J563327D01*
G03X1224458Y152075I-7810J8861D01*
X1257858Y185475D02*
G03X1224458Y152075I-16330J-17070D01*
X1392178Y484745D02*
G01X1398128D01*
X1380368Y496555D02*
Y630415D01*
X1392178Y642225D02*
X1398128D01*
X925198Y1109205D02*
Y1115155D01*
X779528Y1097395D02*
X913388D01*
X767718Y1109205D02*
Y1115155D01*
X294778Y642225D02*
X300728D01*
X312538Y496555D02*
Y630415D01*
X294778Y484745D02*
X300728D01*
X767718Y11805D02*
Y17755D01*
X779528Y29565D02*
X913388D01*
X925198Y11805D02*
Y17755D01*
G36*
X1071663Y2036068D02*
X1046608Y2011013D01*
X1021553Y2036068D01*
X1046608Y2061123D01*
X1071663Y2036068D01*
G37*
G36*
X1117623Y1990108D02*
X1092568Y1965053D01*
X1067513Y1990108D01*
X1092568Y2015163D01*
X1117623Y1990108D01*
G37*
G36*
X1001663Y1971068D02*
X976608Y1946013D01*
X951553Y1971068D01*
X976608Y1996123D01*
X1001663Y1971068D01*
G37*
G36*
X1047623Y1925108D02*
X1022568Y1900053D01*
X997513Y1925108D01*
X1022568Y1950163D01*
X1047623Y1925108D01*
G37*
G54D10*
X1154943Y1583088D02*
X1158873D01*
X1194313D02*
X1198243D01*
X685173Y1462958D02*
X689103D01*
X645803D02*
X649733D01*
X1089333Y1505268D02*
X1093263D01*
X1049963D02*
X1053893D01*
X815363Y1952658D02*
X819293D01*
X854733D02*
X858663D01*
X773733Y1951658D02*
X777663D01*
X734363D02*
X738293D01*
X501063Y2033908D02*
X504993D01*
X540433D02*
X544363D01*
X581433Y1934908D02*
X585363D01*
X542063D02*
X545993D01*
X527053Y1834528D02*
X530983D01*
X487683D02*
X491613D01*
X669053D02*
X672983D01*
X629683D02*
X633613D01*
X583363Y1499658D02*
X587293D01*
X622733D02*
X626663D01*
X520063Y1782908D02*
X523993D01*
X559433D02*
X563363D01*
X848733Y1844658D02*
X852663D01*
X809363D02*
X813293D01*
X809683Y1872528D02*
X813613D01*
X849053D02*
X852983D01*
X1072943Y1821088D02*
X1076873D01*
X1112313D02*
X1116243D01*
X854723Y2002088D02*
X858653D01*
X815353D02*
X819283D01*
G54D11*
X1205088Y1630088D03*
X1140088D03*
X1128088Y1878088D03*
X1063088D03*
G54D12*
X687743Y1293898D02*
X723173D01*
X687743Y1412008D02*
X723173D01*
G54D13*
X1028583Y1559578D02*
X1029573D01*
X1028583Y1579258D02*
X1029573D01*
X1087643D02*
X1088633D01*
X1087643Y1559578D02*
X1088633D01*
X1029088Y1598453D02*
Y1599443D01*
X1048768Y1598453D02*
Y1599443D01*
X1068458Y1598453D02*
Y1599443D01*
X1088138Y1598453D02*
Y1599443D01*
Y1539393D02*
Y1540383D01*
X1068458Y1539393D02*
Y1540383D01*
X1048768Y1539393D02*
Y1540383D01*
X1029088Y1539393D02*
Y1540383D01*
G54D14*
X407778Y1958048D03*
G54D10*
X894458Y1992363D02*
Y1996293D01*
Y1952993D02*
Y1956923D01*
X543708Y1963263D02*
Y1967193D01*
Y2002633D02*
Y2006563D01*
Y1864263D02*
Y1868193D01*
Y1903633D02*
Y1907563D01*
X632778Y1858393D02*
Y1862323D01*
Y1897763D02*
Y1901693D01*
X831458Y1456453D02*
Y1460383D01*
Y1495823D02*
Y1499753D01*
X993608Y1586623D02*
Y1590553D01*
Y1625993D02*
Y1629923D01*
X1130458Y1543933D02*
Y1547863D01*
Y1504563D02*
Y1508493D01*
X1076588Y1366433D02*
Y1370363D01*
Y1405803D02*
Y1409733D01*
X907588Y1375443D02*
Y1379373D01*
Y1414813D02*
Y1418743D01*
X788458Y1492673D02*
Y1496603D01*
Y1453303D02*
Y1457233D01*
X596078Y1834528D02*
X601978D01*
X558678D02*
X564578D01*
X776078Y1862528D02*
X781978D01*
X738678D02*
X744578D01*
X738078Y1834528D02*
X743978D01*
X700678D02*
X706578D01*
G36*
X470098Y1664508D02*
X486798Y1681208D01*
X500718Y1667288D01*
X484018Y1650588D01*
X470098Y1664508D01*
G37*
G36*
X497938Y1692348D02*
X514638Y1709048D01*
X528558Y1695128D01*
X511858Y1678428D01*
X497938Y1692348D01*
G37*
G36*
X520938Y1668348D02*
X537638Y1685048D01*
X551558Y1671128D01*
X534858Y1654428D01*
X520938Y1668348D01*
G37*
G36*
X493098Y1640508D02*
X509798Y1657208D01*
X523718Y1643288D01*
X507018Y1626588D01*
X493098Y1640508D01*
G37*
G36*
X366938Y1824348D02*
X383638Y1841048D01*
X397558Y1827128D01*
X380858Y1810428D01*
X366938Y1824348D01*
G37*
G36*
X339098Y1796508D02*
X355798Y1813208D01*
X369718Y1799288D01*
X353018Y1782588D01*
X339098Y1796508D01*
G37*
G36*
X929048Y2071228D02*
X945748Y2087928D01*
X959668Y2074008D01*
X942968Y2057308D01*
X929048Y2071228D01*
G37*
G36*
X956888Y2099068D02*
X973588Y2115768D01*
X987508Y2101848D01*
X970808Y2085148D01*
X956888Y2099068D01*
G37*
G36*
X340518Y1748688D02*
X373928Y1782098D01*
X412898Y1743128D01*
X379488Y1709718D01*
X340518Y1748688D01*
G37*
G36*
X398978Y1690228D02*
X432388Y1723638D01*
X471358Y1684668D01*
X437948Y1651258D01*
X398978Y1690228D01*
G37*
G36*
X440738Y1731988D02*
X474148Y1765398D01*
X513118Y1726428D01*
X479708Y1693018D01*
X440738Y1731988D01*
G37*
G36*
X382278Y1790448D02*
X415688Y1823858D01*
X454658Y1784888D01*
X421248Y1751478D01*
X382278Y1790448D01*
G37*
G54D11*
X1119588Y1388588D03*
Y1453588D03*
X864588Y1347588D03*
Y1412588D03*
G36*
X1200668Y1967088D02*
X1167258Y2000498D01*
X1228508Y2061748D01*
X1261918Y2028338D01*
X1200668Y1967088D01*
G37*
G36*
X1145668Y2024758D02*
X1112258Y2058168D01*
X1173508Y2119418D01*
X1206918Y2086008D01*
X1145668Y2024758D01*
G37*
G36*
X482208Y1472938D02*
X437668Y1517478D01*
X493348Y1573158D01*
X537888Y1528618D01*
X482208Y1472938D01*
G37*
G36*
X575428Y1377158D02*
X530888Y1421698D01*
X592128Y1482938D01*
X636668Y1438398D01*
X575428Y1377158D01*
G37*
G36*
X1248428Y1877158D02*
X1203888Y1921698D01*
X1265128Y1982938D01*
X1309668Y1938398D01*
X1248428Y1877158D01*
G37*
G36*
X1082428Y2094158D02*
X1037888Y2138698D01*
X1099128Y2199938D01*
X1143668Y2155398D01*
X1082428Y2094158D01*
G37*
G54D15*
X652108Y1526978D02*
Y1544698D01*
X667858Y1526978D02*
Y1544698D01*
X683608Y1526978D02*
Y1544698D01*
X699348Y1526978D02*
Y1544698D01*
X715098Y1526978D02*
Y1544698D01*
X730848Y1526978D02*
Y1544698D01*
X746598Y1526978D02*
Y1544698D01*
X762348Y1526978D02*
Y1544698D01*
X778088Y1526978D02*
Y1544698D01*
X793838Y1526978D02*
Y1544698D01*
X809588Y1526978D02*
Y1544698D01*
X825338Y1526978D02*
Y1544698D01*
Y1765168D02*
Y1782888D01*
X809588Y1765168D02*
Y1782888D01*
X793838Y1765168D02*
Y1782888D01*
X778088Y1765168D02*
Y1782888D01*
X762348Y1765168D02*
Y1782888D01*
X746598Y1765168D02*
Y1782888D01*
X730848Y1765168D02*
Y1782888D01*
X715098Y1765168D02*
Y1782888D01*
X699348Y1765168D02*
Y1782888D01*
X683608Y1765168D02*
Y1782888D01*
X667858Y1765168D02*
Y1782888D01*
X652108Y1765168D02*
Y1782888D01*
X848958Y1568318D02*
X866678D01*
X848958Y1584058D02*
X866678D01*
X848958Y1599808D02*
X866678D01*
X848958Y1615558D02*
X866678D01*
X848958Y1631308D02*
X866678D01*
X848958Y1647058D02*
X866678D01*
X848958Y1662798D02*
X866678D01*
X848958Y1678548D02*
X866678D01*
X848958Y1694298D02*
X866678D01*
X848958Y1710048D02*
X866678D01*
X848958Y1725798D02*
X866678D01*
X848958Y1741538D02*
X866678D01*
X610768D02*
X628488D01*
X610768Y1725798D02*
X628488D01*
X610768Y1710048D02*
X628488D01*
X610768Y1694298D02*
X628488D01*
X610768Y1678548D02*
X628488D01*
X610768Y1662798D02*
X628488D01*
X610768Y1647058D02*
X628488D01*
X610768Y1631308D02*
X628488D01*
X610768Y1615558D02*
X628488D01*
X610768Y1599808D02*
X628488D01*
X610768Y1584058D02*
X628488D01*
X610768Y1568318D02*
X628488D01*
G54D16*
X738718Y1654928D03*
G54D17*
X1036173Y1347088D02*
X1047983D01*
X1036173Y1384488D02*
X1047983D01*
X1036173Y1421888D02*
X1047983D01*
X941683Y1423858D02*
X953493D01*
X941683Y1347088D02*
X953493D01*
G54D18*
X647458Y1967958D03*
G36*
X1007258Y2048163D02*
X982203Y2073218D01*
X1007258Y2098273D01*
X1032313Y2073218D01*
X1007258Y2048163D01*
G37*
G36*
X961288Y2002203D02*
X936233Y2027258D01*
X961288Y2052313D01*
X986343Y2027258D01*
X961288Y2002203D01*
G37*
G54D19*
X1257858Y1405948D02*
G03X1274888Y1406678I8165J8530D01*
G03X1409788Y1691498I-428428J377274D01*
X1409778Y1691488D02*
G03X1398128Y1705218I-11662J1912D01*
X1380368Y1717028D02*
G03X1392178Y1705218I11810J0D01*
Y1862698D02*
G03X1380368Y1850888I0J-11810D01*
X1398128Y1862698D02*
G03X1409778Y1876418I-2J11808D01*
X1409788D02*
G03X938918Y2347288I-563330J-92460D01*
Y2347278D02*
G03X925198Y2335628I-1907J-11658D01*
X913388Y2317868D02*
G03X925198Y2329678I0J11810D01*
X767718D02*
G03X779528Y2317868I11810J0D01*
X767718Y2335628D02*
G03X753988Y2347278I-11809J-1D01*
X753998Y2347288D02*
G03X469178Y2212388I92456J-563332D01*
G03X468448Y2195358I7810J-8865D01*
X435048Y2161958D02*
G03X468448Y2195358I16330J17070D01*
X435048Y2161958D02*
G03X418028Y2161228I-8160J-8530D01*
G03X283128Y1876418I428427J-377277D01*
G03X294778Y1862698I11658J-1907D01*
X312538Y1850888D02*
G03X300728Y1862698I-11810J0D01*
Y1705218D02*
G03X312538Y1717028I0J11810D01*
X294778Y1705218D02*
G03X283128Y1691488I1J-11809D01*
Y1691498D02*
G03X753998Y1220628I563330J92460D01*
X753988D02*
G03X767718Y1232278I1912J11662D01*
X779528Y1250038D02*
G03X767718Y1238228I0J-11810D01*
X925198D02*
G03X913388Y1250038I-11810J0D01*
X925198Y1232278D02*
G03X938918Y1220628I11808J2D01*
G03X1223728Y1355528I-92467J563327D01*
G03X1224458Y1372548I-7810J8861D01*
X1257858Y1405948D02*
G03X1224458Y1372548I-16330J-17070D01*
X1392178Y1705218D02*
G01X1398128D01*
X1380368Y1717028D02*
Y1850888D01*
X1392178Y1862698D02*
X1398128D01*
X925198Y2329678D02*
Y2335628D01*
X779528Y2317868D02*
X913388D01*
X767718Y2329678D02*
Y2335628D01*
X294778Y1862698D02*
X300728D01*
X312538Y1717028D02*
Y1850888D01*
X294778Y1705218D02*
X300728D01*
X767718Y1232278D02*
Y1238228D01*
X779528Y1250038D02*
X913388D01*
X925198Y1232278D02*
Y1238228D01*
G36*
X1071663Y3256540D02*
X1046608Y3231485D01*
X1021553Y3256540D01*
X1046608Y3281595D01*
X1071663Y3256540D01*
G37*
G36*
X1117623Y3210580D02*
X1092568Y3185525D01*
X1067513Y3210580D01*
X1092568Y3235635D01*
X1117623Y3210580D01*
G37*
G36*
X1001663Y3191540D02*
X976608Y3166485D01*
X951553Y3191540D01*
X976608Y3216595D01*
X1001663Y3191540D01*
G37*
G36*
X1047623Y3145580D02*
X1022568Y3120525D01*
X997513Y3145580D01*
X1022568Y3170635D01*
X1047623Y3145580D01*
G37*
G54D10*
X1154943Y2803560D02*
X1158873D01*
X1194313D02*
X1198243D01*
X685173Y2683430D02*
X689103D01*
X645803D02*
X649733D01*
X1089333Y2725740D02*
X1093263D01*
X1049963D02*
X1053893D01*
X815363Y3173130D02*
X819293D01*
X854733D02*
X858663D01*
X773733Y3172130D02*
X777663D01*
X734363D02*
X738293D01*
X501063Y3254380D02*
X504993D01*
X540433D02*
X544363D01*
X581433Y3155380D02*
X585363D01*
X542063D02*
X545993D01*
X527053Y3055000D02*
X530983D01*
X487683D02*
X491613D01*
X669053D02*
X672983D01*
X629683D02*
X633613D01*
X583363Y2720130D02*
X587293D01*
X622733D02*
X626663D01*
X520063Y3003380D02*
X523993D01*
X559433D02*
X563363D01*
X848733Y3065130D02*
X852663D01*
X809363D02*
X813293D01*
X809683Y3093000D02*
X813613D01*
X849053D02*
X852983D01*
X1072943Y3041560D02*
X1076873D01*
X1112313D02*
X1116243D01*
X854723Y3222560D02*
X858653D01*
X815353D02*
X819283D01*
G54D11*
X1205088Y2850560D03*
X1140088D03*
X1128088Y3098560D03*
X1063088D03*
G54D12*
X687743Y2514370D02*
X723173D01*
X687743Y2632480D02*
X723173D01*
G54D13*
X1028583Y2780050D02*
X1029573D01*
X1028583Y2799730D02*
X1029573D01*
X1087643D02*
X1088633D01*
X1087643Y2780050D02*
X1088633D01*
X1029088Y2818925D02*
Y2819915D01*
X1048768Y2818925D02*
Y2819915D01*
X1068458Y2818925D02*
Y2819915D01*
X1088138Y2818925D02*
Y2819915D01*
Y2759865D02*
Y2760855D01*
X1068458Y2759865D02*
Y2760855D01*
X1048768Y2759865D02*
Y2760855D01*
X1029088Y2759865D02*
Y2760855D01*
G54D14*
X407778Y3178520D03*
G54D10*
X894458Y3212835D02*
Y3216765D01*
Y3173465D02*
Y3177395D01*
X543708Y3183735D02*
Y3187665D01*
Y3223105D02*
Y3227035D01*
Y3084735D02*
Y3088665D01*
Y3124105D02*
Y3128035D01*
X632778Y3078865D02*
Y3082795D01*
Y3118235D02*
Y3122165D01*
X831458Y2676925D02*
Y2680855D01*
Y2716295D02*
Y2720225D01*
X993608Y2807095D02*
Y2811025D01*
Y2846465D02*
Y2850395D01*
X1130458Y2764405D02*
Y2768335D01*
Y2725035D02*
Y2728965D01*
X1076588Y2586905D02*
Y2590835D01*
Y2626275D02*
Y2630205D01*
X907588Y2595915D02*
Y2599845D01*
Y2635285D02*
Y2639215D01*
X788458Y2713145D02*
Y2717075D01*
Y2673775D02*
Y2677705D01*
X596078Y3055000D02*
X601978D01*
X558678D02*
X564578D01*
X776078Y3083000D02*
X781978D01*
X738678D02*
X744578D01*
X738078Y3055000D02*
X743978D01*
X700678D02*
X706578D01*
G36*
X470098Y2884980D02*
X486798Y2901680D01*
X500718Y2887760D01*
X484018Y2871060D01*
X470098Y2884980D01*
G37*
G36*
X497938Y2912820D02*
X514638Y2929520D01*
X528558Y2915600D01*
X511858Y2898900D01*
X497938Y2912820D01*
G37*
G36*
X520938Y2888820D02*
X537638Y2905520D01*
X551558Y2891600D01*
X534858Y2874900D01*
X520938Y2888820D01*
G37*
G36*
X493098Y2860980D02*
X509798Y2877680D01*
X523718Y2863760D01*
X507018Y2847060D01*
X493098Y2860980D01*
G37*
G36*
X366938Y3044820D02*
X383638Y3061520D01*
X397558Y3047600D01*
X380858Y3030900D01*
X366938Y3044820D01*
G37*
G36*
X339098Y3016980D02*
X355798Y3033680D01*
X369718Y3019760D01*
X353018Y3003060D01*
X339098Y3016980D01*
G37*
G36*
X929048Y3291700D02*
X945748Y3308400D01*
X959668Y3294480D01*
X942968Y3277780D01*
X929048Y3291700D01*
G37*
G36*
X956888Y3319540D02*
X973588Y3336240D01*
X987508Y3322320D01*
X970808Y3305620D01*
X956888Y3319540D01*
G37*
G36*
X340518Y2969160D02*
X373928Y3002570D01*
X412898Y2963600D01*
X379488Y2930190D01*
X340518Y2969160D01*
G37*
G36*
X398978Y2910700D02*
X432388Y2944110D01*
X471358Y2905140D01*
X437948Y2871730D01*
X398978Y2910700D01*
G37*
G36*
X440738Y2952460D02*
X474148Y2985870D01*
X513118Y2946900D01*
X479708Y2913490D01*
X440738Y2952460D01*
G37*
G36*
X382278Y3010920D02*
X415688Y3044330D01*
X454658Y3005360D01*
X421248Y2971950D01*
X382278Y3010920D01*
G37*
G54D11*
X1119588Y2609060D03*
Y2674060D03*
X864588Y2568060D03*
Y2633060D03*
G36*
X1200668Y3187560D02*
X1167258Y3220970D01*
X1228508Y3282220D01*
X1261918Y3248810D01*
X1200668Y3187560D01*
G37*
G36*
X1145668Y3245230D02*
X1112258Y3278640D01*
X1173508Y3339890D01*
X1206918Y3306480D01*
X1145668Y3245230D01*
G37*
G36*
X482208Y2693410D02*
X437668Y2737950D01*
X493348Y2793630D01*
X537888Y2749090D01*
X482208Y2693410D01*
G37*
G36*
X575428Y2597630D02*
X530888Y2642170D01*
X592128Y2703410D01*
X636668Y2658870D01*
X575428Y2597630D01*
G37*
G36*
X1248428Y3097630D02*
X1203888Y3142170D01*
X1265128Y3203410D01*
X1309668Y3158870D01*
X1248428Y3097630D01*
G37*
G36*
X1082428Y3314630D02*
X1037888Y3359170D01*
X1099128Y3420410D01*
X1143668Y3375870D01*
X1082428Y3314630D01*
G37*
G54D15*
X652108Y2747450D02*
Y2765170D01*
X667858Y2747450D02*
Y2765170D01*
X683608Y2747450D02*
Y2765170D01*
X699348Y2747450D02*
Y2765170D01*
X715098Y2747450D02*
Y2765170D01*
X730848Y2747450D02*
Y2765170D01*
X746598Y2747450D02*
Y2765170D01*
X762348Y2747450D02*
Y2765170D01*
X778088Y2747450D02*
Y2765170D01*
X793838Y2747450D02*
Y2765170D01*
X809588Y2747450D02*
Y2765170D01*
X825338Y2747450D02*
Y2765170D01*
Y2985640D02*
Y3003360D01*
X809588Y2985640D02*
Y3003360D01*
X793838Y2985640D02*
Y3003360D01*
X778088Y2985640D02*
Y3003360D01*
X762348Y2985640D02*
Y3003360D01*
X746598Y2985640D02*
Y3003360D01*
X730848Y2985640D02*
Y3003360D01*
X715098Y2985640D02*
Y3003360D01*
X699348Y2985640D02*
Y3003360D01*
X683608Y2985640D02*
Y3003360D01*
X667858Y2985640D02*
Y3003360D01*
X652108Y2985640D02*
Y3003360D01*
X848958Y2788790D02*
X866678D01*
X848958Y2804530D02*
X866678D01*
X848958Y2820280D02*
X866678D01*
X848958Y2836030D02*
X866678D01*
X848958Y2851780D02*
X866678D01*
X848958Y2867530D02*
X866678D01*
X848958Y2883270D02*
X866678D01*
X848958Y2899020D02*
X866678D01*
X848958Y2914770D02*
X866678D01*
X848958Y2930520D02*
X866678D01*
X848958Y2946270D02*
X866678D01*
X848958Y2962010D02*
X866678D01*
X610768D02*
X628488D01*
X610768Y2946270D02*
X628488D01*
X610768Y2930520D02*
X628488D01*
X610768Y2914770D02*
X628488D01*
X610768Y2899020D02*
X628488D01*
X610768Y2883270D02*
X628488D01*
X610768Y2867530D02*
X628488D01*
X610768Y2851780D02*
X628488D01*
X610768Y2836030D02*
X628488D01*
X610768Y2820280D02*
X628488D01*
X610768Y2804530D02*
X628488D01*
X610768Y2788790D02*
X628488D01*
G54D16*
X738718Y2875400D03*
G54D17*
X1036173Y2567560D02*
X1047983D01*
X1036173Y2604960D02*
X1047983D01*
X1036173Y2642360D02*
X1047983D01*
X941683Y2644330D02*
X953493D01*
X941683Y2567560D02*
X953493D01*
G54D18*
X647458Y3188430D03*
G36*
X1007258Y3268635D02*
X982203Y3293690D01*
X1007258Y3318745D01*
X1032313Y3293690D01*
X1007258Y3268635D01*
G37*
G36*
X961288Y3222675D02*
X936233Y3247730D01*
X961288Y3272785D01*
X986343Y3247730D01*
X961288Y3222675D01*
G37*
G54D19*
X1257858Y2626420D02*
G03X1274888Y2627150I8165J8530D01*
G03X1409788Y2911970I-428428J377274D01*
X1409778Y2911960D02*
G03X1398128Y2925690I-11662J1912D01*
X1380368Y2937500D02*
G03X1392178Y2925690I11810J0D01*
Y3083170D02*
G03X1380368Y3071360I0J-11810D01*
X1398128Y3083170D02*
G03X1409778Y3096890I-2J11808D01*
X1409788D02*
G03X938918Y3567760I-563330J-92460D01*
Y3567750D02*
G03X925198Y3556100I-1907J-11658D01*
X913388Y3538340D02*
G03X925198Y3550150I0J11810D01*
X767718D02*
G03X779528Y3538340I11810J0D01*
X767718Y3556100D02*
G03X753988Y3567750I-11809J-1D01*
X753998Y3567760D02*
G03X469178Y3432860I92456J-563332D01*
G03X468448Y3415830I7810J-8865D01*
X435048Y3382430D02*
G03X468448Y3415830I16330J17070D01*
X435048Y3382430D02*
G03X418028Y3381700I-8160J-8530D01*
G03X283128Y3096890I428427J-377277D01*
G03X294778Y3083170I11658J-1907D01*
X312538Y3071360D02*
G03X300728Y3083170I-11810J0D01*
Y2925690D02*
G03X312538Y2937500I0J11810D01*
X294778Y2925690D02*
G03X283128Y2911960I1J-11809D01*
Y2911970D02*
G03X753998Y2441100I563330J92460D01*
X753988D02*
G03X767718Y2452750I1912J11662D01*
X779528Y2470510D02*
G03X767718Y2458700I0J-11810D01*
X925198D02*
G03X913388Y2470510I-11810J0D01*
X925198Y2452750D02*
G03X938918Y2441100I11808J2D01*
G03X1223728Y2576000I-92467J563327D01*
G03X1224458Y2593020I-7810J8861D01*
X1257858Y2626420D02*
G03X1224458Y2593020I-16330J-17070D01*
X1392178Y2925690D02*
G01X1398128D01*
X1380368Y2937500D02*
Y3071360D01*
X1392178Y3083170D02*
X1398128D01*
X925198Y3550150D02*
Y3556100D01*
X779528Y3538340D02*
X913388D01*
X767718Y3550150D02*
Y3556100D01*
X294778Y3083170D02*
X300728D01*
X312538Y2937500D02*
Y3071360D01*
X294778Y2925690D02*
X300728D01*
X767718Y2452750D02*
Y2458700D01*
X779528Y2470510D02*
X913388D01*
X925198Y2452750D02*
Y2458700D01*
G36*
X1071663Y4477013D02*
X1046608Y4451958D01*
X1021553Y4477013D01*
X1046608Y4502068D01*
X1071663Y4477013D01*
G37*
G36*
X1117623Y4431053D02*
X1092568Y4405998D01*
X1067513Y4431053D01*
X1092568Y4456108D01*
X1117623Y4431053D01*
G37*
G36*
X1001663Y4412013D02*
X976608Y4386958D01*
X951553Y4412013D01*
X976608Y4437068D01*
X1001663Y4412013D01*
G37*
G36*
X1047623Y4366053D02*
X1022568Y4340998D01*
X997513Y4366053D01*
X1022568Y4391108D01*
X1047623Y4366053D01*
G37*
G54D10*
X1154943Y4024033D02*
X1158873D01*
X1194313D02*
X1198243D01*
X685173Y3903903D02*
X689103D01*
X645803D02*
X649733D01*
X1089333Y3946213D02*
X1093263D01*
X1049963D02*
X1053893D01*
X815363Y4393603D02*
X819293D01*
X854733D02*
X858663D01*
X773733Y4392603D02*
X777663D01*
X734363D02*
X738293D01*
X501063Y4474853D02*
X504993D01*
X540433D02*
X544363D01*
X581433Y4375853D02*
X585363D01*
X542063D02*
X545993D01*
X527053Y4275473D02*
X530983D01*
X487683D02*
X491613D01*
X669053D02*
X672983D01*
X629683D02*
X633613D01*
X583363Y3940603D02*
X587293D01*
X622733D02*
X626663D01*
X520063Y4223853D02*
X523993D01*
X559433D02*
X563363D01*
X848733Y4285603D02*
X852663D01*
X809363D02*
X813293D01*
X809683Y4313473D02*
X813613D01*
X849053D02*
X852983D01*
X1072943Y4262033D02*
X1076873D01*
X1112313D02*
X1116243D01*
X854723Y4443033D02*
X858653D01*
X815353D02*
X819283D01*
G54D11*
X1205088Y4071033D03*
X1140088D03*
X1128088Y4319033D03*
X1063088D03*
G54D12*
X687743Y3734843D02*
X723173D01*
X687743Y3852953D02*
X723173D01*
G54D13*
X1028583Y4000523D02*
X1029573D01*
X1028583Y4020203D02*
X1029573D01*
X1087643D02*
X1088633D01*
X1087643Y4000523D02*
X1088633D01*
X1029088Y4039398D02*
Y4040388D01*
X1048768Y4039398D02*
Y4040388D01*
X1068458Y4039398D02*
Y4040388D01*
X1088138Y4039398D02*
Y4040388D01*
Y3980338D02*
Y3981328D01*
X1068458Y3980338D02*
Y3981328D01*
X1048768Y3980338D02*
Y3981328D01*
X1029088Y3980338D02*
Y3981328D01*
G54D14*
X407778Y4398993D03*
G54D10*
X894458Y4433308D02*
Y4437238D01*
Y4393938D02*
Y4397868D01*
X543708Y4404208D02*
Y4408138D01*
Y4443578D02*
Y4447508D01*
Y4305208D02*
Y4309138D01*
Y4344578D02*
Y4348508D01*
X632778Y4299338D02*
Y4303268D01*
Y4338708D02*
Y4342638D01*
X831458Y3897398D02*
Y3901328D01*
Y3936768D02*
Y3940698D01*
X993608Y4027568D02*
Y4031498D01*
Y4066938D02*
Y4070868D01*
X1130458Y3984878D02*
Y3988808D01*
Y3945508D02*
Y3949438D01*
X1076588Y3807378D02*
Y3811308D01*
Y3846748D02*
Y3850678D01*
X907588Y3816388D02*
Y3820318D01*
Y3855758D02*
Y3859688D01*
X788458Y3933618D02*
Y3937548D01*
Y3894248D02*
Y3898178D01*
X596078Y4275473D02*
X601978D01*
X558678D02*
X564578D01*
X776078Y4303473D02*
X781978D01*
X738678D02*
X744578D01*
X738078Y4275473D02*
X743978D01*
X700678D02*
X706578D01*
G36*
X470098Y4105453D02*
X486798Y4122153D01*
X500718Y4108233D01*
X484018Y4091533D01*
X470098Y4105453D01*
G37*
G36*
X497938Y4133293D02*
X514638Y4149993D01*
X528558Y4136073D01*
X511858Y4119373D01*
X497938Y4133293D01*
G37*
G36*
X520938Y4109293D02*
X537638Y4125993D01*
X551558Y4112073D01*
X534858Y4095373D01*
X520938Y4109293D01*
G37*
G36*
X493098Y4081453D02*
X509798Y4098153D01*
X523718Y4084233D01*
X507018Y4067533D01*
X493098Y4081453D01*
G37*
G36*
X366938Y4265293D02*
X383638Y4281993D01*
X397558Y4268073D01*
X380858Y4251373D01*
X366938Y4265293D01*
G37*
G36*
X339098Y4237453D02*
X355798Y4254153D01*
X369718Y4240233D01*
X353018Y4223533D01*
X339098Y4237453D01*
G37*
G36*
X929048Y4512173D02*
X945748Y4528873D01*
X959668Y4514953D01*
X942968Y4498253D01*
X929048Y4512173D01*
G37*
G36*
X956888Y4540013D02*
X973588Y4556713D01*
X987508Y4542793D01*
X970808Y4526093D01*
X956888Y4540013D01*
G37*
G36*
X340518Y4189633D02*
X373928Y4223043D01*
X412898Y4184073D01*
X379488Y4150663D01*
X340518Y4189633D01*
G37*
G36*
X398978Y4131173D02*
X432388Y4164583D01*
X471358Y4125613D01*
X437948Y4092203D01*
X398978Y4131173D01*
G37*
G36*
X440738Y4172933D02*
X474148Y4206343D01*
X513118Y4167373D01*
X479708Y4133963D01*
X440738Y4172933D01*
G37*
G36*
X382278Y4231393D02*
X415688Y4264803D01*
X454658Y4225833D01*
X421248Y4192423D01*
X382278Y4231393D01*
G37*
G54D11*
X1119588Y3829533D03*
Y3894533D03*
X864588Y3788533D03*
Y3853533D03*
G36*
X1200668Y4408033D02*
X1167258Y4441443D01*
X1228508Y4502693D01*
X1261918Y4469283D01*
X1200668Y4408033D01*
G37*
G36*
X1145668Y4465703D02*
X1112258Y4499113D01*
X1173508Y4560363D01*
X1206918Y4526953D01*
X1145668Y4465703D01*
G37*
G36*
X482208Y3913883D02*
X437668Y3958423D01*
X493348Y4014103D01*
X537888Y3969563D01*
X482208Y3913883D01*
G37*
G36*
X575428Y3818103D02*
X530888Y3862643D01*
X592128Y3923883D01*
X636668Y3879343D01*
X575428Y3818103D01*
G37*
G36*
X1248428Y4318103D02*
X1203888Y4362643D01*
X1265128Y4423883D01*
X1309668Y4379343D01*
X1248428Y4318103D01*
G37*
G36*
X1082428Y4535103D02*
X1037888Y4579643D01*
X1099128Y4640883D01*
X1143668Y4596343D01*
X1082428Y4535103D01*
G37*
G54D15*
X652108Y3967923D02*
Y3985643D01*
X667858Y3967923D02*
Y3985643D01*
X683608Y3967923D02*
Y3985643D01*
X699348Y3967923D02*
Y3985643D01*
X715098Y3967923D02*
Y3985643D01*
X730848Y3967923D02*
Y3985643D01*
X746598Y3967923D02*
Y3985643D01*
X762348Y3967923D02*
Y3985643D01*
X778088Y3967923D02*
Y3985643D01*
X793838Y3967923D02*
Y3985643D01*
X809588Y3967923D02*
Y3985643D01*
X825338Y3967923D02*
Y3985643D01*
Y4206113D02*
Y4223833D01*
X809588Y4206113D02*
Y4223833D01*
X793838Y4206113D02*
Y4223833D01*
X778088Y4206113D02*
Y4223833D01*
X762348Y4206113D02*
Y4223833D01*
X746598Y4206113D02*
Y4223833D01*
X730848Y4206113D02*
Y4223833D01*
X715098Y4206113D02*
Y4223833D01*
X699348Y4206113D02*
Y4223833D01*
X683608Y4206113D02*
Y4223833D01*
X667858Y4206113D02*
Y4223833D01*
X652108Y4206113D02*
Y4223833D01*
X848958Y4009263D02*
X866678D01*
X848958Y4025003D02*
X866678D01*
X848958Y4040753D02*
X866678D01*
X848958Y4056503D02*
X866678D01*
X848958Y4072253D02*
X866678D01*
X848958Y4088003D02*
X866678D01*
X848958Y4103743D02*
X866678D01*
X848958Y4119493D02*
X866678D01*
X848958Y4135243D02*
X866678D01*
X848958Y4150993D02*
X866678D01*
X848958Y4166743D02*
X866678D01*
X848958Y4182483D02*
X866678D01*
X610768D02*
X628488D01*
X610768Y4166743D02*
X628488D01*
X610768Y4150993D02*
X628488D01*
X610768Y4135243D02*
X628488D01*
X610768Y4119493D02*
X628488D01*
X610768Y4103743D02*
X628488D01*
X610768Y4088003D02*
X628488D01*
X610768Y4072253D02*
X628488D01*
X610768Y4056503D02*
X628488D01*
X610768Y4040753D02*
X628488D01*
X610768Y4025003D02*
X628488D01*
X610768Y4009263D02*
X628488D01*
G54D16*
X738718Y4095873D03*
G54D17*
X1036173Y3788033D02*
X1047983D01*
X1036173Y3825433D02*
X1047983D01*
X1036173Y3862833D02*
X1047983D01*
X941683Y3864803D02*
X953493D01*
X941683Y3788033D02*
X953493D01*
G54D18*
X647458Y4408903D03*
G36*
X1007258Y4489108D02*
X982203Y4514163D01*
X1007258Y4539218D01*
X1032313Y4514163D01*
X1007258Y4489108D01*
G37*
G36*
X961288Y4443148D02*
X936233Y4468203D01*
X961288Y4493258D01*
X986343Y4468203D01*
X961288Y4443148D01*
G37*
G54D19*
X1257858Y3846893D02*
G03X1274888Y3847623I8165J8530D01*
G03X1409788Y4132443I-428428J377274D01*
X1409778Y4132433D02*
G03X1398128Y4146163I-11662J1912D01*
X1380368Y4157973D02*
G03X1392178Y4146163I11810J0D01*
Y4303643D02*
G03X1380368Y4291833I0J-11810D01*
X1398128Y4303643D02*
G03X1409778Y4317363I-2J11808D01*
X1409788D02*
G03X938918Y4788233I-563330J-92460D01*
Y4788223D02*
G03X925198Y4776573I-1907J-11658D01*
X913388Y4758813D02*
G03X925198Y4770623I0J11810D01*
X767718D02*
G03X779528Y4758813I11810J0D01*
X767718Y4776573D02*
G03X753988Y4788223I-11809J-1D01*
X753998Y4788233D02*
G03X469178Y4653333I92456J-563332D01*
G03X468448Y4636303I7810J-8865D01*
X435048Y4602903D02*
G03X468448Y4636303I16330J17070D01*
X435048Y4602903D02*
G03X418028Y4602173I-8160J-8530D01*
G03X283128Y4317363I428427J-377277D01*
G03X294778Y4303643I11658J-1907D01*
X312538Y4291833D02*
G03X300728Y4303643I-11810J0D01*
Y4146163D02*
G03X312538Y4157973I0J11810D01*
X294778Y4146163D02*
G03X283128Y4132433I1J-11809D01*
Y4132443D02*
G03X753998Y3661573I563330J92460D01*
X753988D02*
G03X767718Y3673223I1912J11662D01*
X779528Y3690983D02*
G03X767718Y3679173I0J-11810D01*
X925198D02*
G03X913388Y3690983I-11810J0D01*
X925198Y3673223D02*
G03X938918Y3661573I11808J2D01*
G03X1223728Y3796473I-92467J563327D01*
G03X1224458Y3813493I-7810J8861D01*
X1257858Y3846893D02*
G03X1224458Y3813493I-16330J-17070D01*
X1392178Y4146163D02*
G01X1398128D01*
X1380368Y4157973D02*
Y4291833D01*
X1392178Y4303643D02*
X1398128D01*
X925198Y4770623D02*
Y4776573D01*
X779528Y4758813D02*
X913388D01*
X767718Y4770623D02*
Y4776573D01*
X294778Y4303643D02*
X300728D01*
X312538Y4157973D02*
Y4291833D01*
X294778Y4146163D02*
X300728D01*
X767718Y3673223D02*
Y3679173D01*
X779528Y3690983D02*
X913388D01*
X925198Y3673223D02*
Y3679173D01*
G36*
X1071663Y5697485D02*
X1046608Y5672430D01*
X1021553Y5697485D01*
X1046608Y5722540D01*
X1071663Y5697485D01*
G37*
G36*
X1117623Y5651525D02*
X1092568Y5626470D01*
X1067513Y5651525D01*
X1092568Y5676580D01*
X1117623Y5651525D01*
G37*
G36*
X1001663Y5632485D02*
X976608Y5607430D01*
X951553Y5632485D01*
X976608Y5657540D01*
X1001663Y5632485D01*
G37*
G36*
X1047623Y5586525D02*
X1022568Y5561470D01*
X997513Y5586525D01*
X1022568Y5611580D01*
X1047623Y5586525D01*
G37*
G54D10*
X1154943Y5244505D02*
X1158873D01*
X1194313D02*
X1198243D01*
X685173Y5124375D02*
X689103D01*
X645803D02*
X649733D01*
X1089333Y5166685D02*
X1093263D01*
X1049963D02*
X1053893D01*
X815363Y5614075D02*
X819293D01*
X854733D02*
X858663D01*
X773733Y5613075D02*
X777663D01*
X734363D02*
X738293D01*
X501063Y5695325D02*
X504993D01*
X540433D02*
X544363D01*
X581433Y5596325D02*
X585363D01*
X542063D02*
X545993D01*
X527053Y5495945D02*
X530983D01*
X487683D02*
X491613D01*
X669053D02*
X672983D01*
X629683D02*
X633613D01*
X583363Y5161075D02*
X587293D01*
X622733D02*
X626663D01*
X520063Y5444325D02*
X523993D01*
X559433D02*
X563363D01*
X848733Y5506075D02*
X852663D01*
X809363D02*
X813293D01*
X809683Y5533945D02*
X813613D01*
X849053D02*
X852983D01*
X1072943Y5482505D02*
X1076873D01*
X1112313D02*
X1116243D01*
X854723Y5663505D02*
X858653D01*
X815353D02*
X819283D01*
G54D11*
X1205088Y5291505D03*
X1140088D03*
X1128088Y5539505D03*
X1063088D03*
G54D12*
X687743Y4955315D02*
X723173D01*
X687743Y5073425D02*
X723173D01*
G54D13*
X1028583Y5220995D02*
X1029573D01*
X1028583Y5240675D02*
X1029573D01*
X1087643D02*
X1088633D01*
X1087643Y5220995D02*
X1088633D01*
X1029088Y5259870D02*
Y5260860D01*
X1048768Y5259870D02*
Y5260860D01*
X1068458Y5259870D02*
Y5260860D01*
X1088138Y5259870D02*
Y5260860D01*
Y5200810D02*
Y5201800D01*
X1068458Y5200810D02*
Y5201800D01*
X1048768Y5200810D02*
Y5201800D01*
X1029088Y5200810D02*
Y5201800D01*
G54D14*
X407778Y5619465D03*
G54D10*
X894458Y5653780D02*
Y5657710D01*
Y5614410D02*
Y5618340D01*
X543708Y5624680D02*
Y5628610D01*
Y5664050D02*
Y5667980D01*
Y5525680D02*
Y5529610D01*
Y5565050D02*
Y5568980D01*
X632778Y5519810D02*
Y5523740D01*
Y5559180D02*
Y5563110D01*
X831458Y5117870D02*
Y5121800D01*
Y5157240D02*
Y5161170D01*
X993608Y5248040D02*
Y5251970D01*
Y5287410D02*
Y5291340D01*
X1130458Y5205350D02*
Y5209280D01*
Y5165980D02*
Y5169910D01*
X1076588Y5027850D02*
Y5031780D01*
Y5067220D02*
Y5071150D01*
X907588Y5036860D02*
Y5040790D01*
Y5076230D02*
Y5080160D01*
X788458Y5154090D02*
Y5158020D01*
Y5114720D02*
Y5118650D01*
X596078Y5495945D02*
X601978D01*
X558678D02*
X564578D01*
X776078Y5523945D02*
X781978D01*
X738678D02*
X744578D01*
X738078Y5495945D02*
X743978D01*
X700678D02*
X706578D01*
G36*
X470098Y5325925D02*
X486798Y5342625D01*
X500718Y5328705D01*
X484018Y5312005D01*
X470098Y5325925D01*
G37*
G36*
X497938Y5353765D02*
X514638Y5370465D01*
X528558Y5356545D01*
X511858Y5339845D01*
X497938Y5353765D01*
G37*
G36*
X520938Y5329765D02*
X537638Y5346465D01*
X551558Y5332545D01*
X534858Y5315845D01*
X520938Y5329765D01*
G37*
G36*
X493098Y5301925D02*
X509798Y5318625D01*
X523718Y5304705D01*
X507018Y5288005D01*
X493098Y5301925D01*
G37*
G36*
X366938Y5485765D02*
X383638Y5502465D01*
X397558Y5488545D01*
X380858Y5471845D01*
X366938Y5485765D01*
G37*
G36*
X339098Y5457925D02*
X355798Y5474625D01*
X369718Y5460705D01*
X353018Y5444005D01*
X339098Y5457925D01*
G37*
G36*
X929048Y5732645D02*
X945748Y5749345D01*
X959668Y5735425D01*
X942968Y5718725D01*
X929048Y5732645D01*
G37*
G36*
X956888Y5760485D02*
X973588Y5777185D01*
X987508Y5763265D01*
X970808Y5746565D01*
X956888Y5760485D01*
G37*
G36*
X340518Y5410105D02*
X373928Y5443515D01*
X412898Y5404545D01*
X379488Y5371135D01*
X340518Y5410105D01*
G37*
G36*
X398978Y5351645D02*
X432388Y5385055D01*
X471358Y5346085D01*
X437948Y5312675D01*
X398978Y5351645D01*
G37*
G36*
X440738Y5393405D02*
X474148Y5426815D01*
X513118Y5387845D01*
X479708Y5354435D01*
X440738Y5393405D01*
G37*
G36*
X382278Y5451865D02*
X415688Y5485275D01*
X454658Y5446305D01*
X421248Y5412895D01*
X382278Y5451865D01*
G37*
G54D11*
X1119588Y5050005D03*
Y5115005D03*
X864588Y5009005D03*
Y5074005D03*
G36*
X1200668Y5628505D02*
X1167258Y5661915D01*
X1228508Y5723165D01*
X1261918Y5689755D01*
X1200668Y5628505D01*
G37*
G36*
X1145668Y5686175D02*
X1112258Y5719585D01*
X1173508Y5780835D01*
X1206918Y5747425D01*
X1145668Y5686175D01*
G37*
G36*
X482208Y5134355D02*
X437668Y5178895D01*
X493348Y5234575D01*
X537888Y5190035D01*
X482208Y5134355D01*
G37*
G36*
X575428Y5038575D02*
X530888Y5083115D01*
X592128Y5144355D01*
X636668Y5099815D01*
X575428Y5038575D01*
G37*
G36*
X1248428Y5538575D02*
X1203888Y5583115D01*
X1265128Y5644355D01*
X1309668Y5599815D01*
X1248428Y5538575D01*
G37*
G36*
X1082428Y5755575D02*
X1037888Y5800115D01*
X1099128Y5861355D01*
X1143668Y5816815D01*
X1082428Y5755575D01*
G37*
G54D15*
X652108Y5188395D02*
Y5206115D01*
X667858Y5188395D02*
Y5206115D01*
X683608Y5188395D02*
Y5206115D01*
X699348Y5188395D02*
Y5206115D01*
X715098Y5188395D02*
Y5206115D01*
X730848Y5188395D02*
Y5206115D01*
X746598Y5188395D02*
Y5206115D01*
X762348Y5188395D02*
Y5206115D01*
X778088Y5188395D02*
Y5206115D01*
X793838Y5188395D02*
Y5206115D01*
X809588Y5188395D02*
Y5206115D01*
X825338Y5188395D02*
Y5206115D01*
Y5426585D02*
Y5444305D01*
X809588Y5426585D02*
Y5444305D01*
X793838Y5426585D02*
Y5444305D01*
X778088Y5426585D02*
Y5444305D01*
X762348Y5426585D02*
Y5444305D01*
X746598Y5426585D02*
Y5444305D01*
X730848Y5426585D02*
Y5444305D01*
X715098Y5426585D02*
Y5444305D01*
X699348Y5426585D02*
Y5444305D01*
X683608Y5426585D02*
Y5444305D01*
X667858Y5426585D02*
Y5444305D01*
X652108Y5426585D02*
Y5444305D01*
X848958Y5229735D02*
X866678D01*
X848958Y5245475D02*
X866678D01*
X848958Y5261225D02*
X866678D01*
X848958Y5276975D02*
X866678D01*
X848958Y5292725D02*
X866678D01*
X848958Y5308475D02*
X866678D01*
X848958Y5324215D02*
X866678D01*
X848958Y5339965D02*
X866678D01*
X848958Y5355715D02*
X866678D01*
X848958Y5371465D02*
X866678D01*
X848958Y5387215D02*
X866678D01*
X848958Y5402955D02*
X866678D01*
X610768D02*
X628488D01*
X610768Y5387215D02*
X628488D01*
X610768Y5371465D02*
X628488D01*
X610768Y5355715D02*
X628488D01*
X610768Y5339965D02*
X628488D01*
X610768Y5324215D02*
X628488D01*
X610768Y5308475D02*
X628488D01*
X610768Y5292725D02*
X628488D01*
X610768Y5276975D02*
X628488D01*
X610768Y5261225D02*
X628488D01*
X610768Y5245475D02*
X628488D01*
X610768Y5229735D02*
X628488D01*
G54D16*
X738718Y5316345D03*
G54D17*
X1036173Y5008505D02*
X1047983D01*
X1036173Y5045905D02*
X1047983D01*
X1036173Y5083305D02*
X1047983D01*
X941683Y5085275D02*
X953493D01*
X941683Y5008505D02*
X953493D01*
G54D18*
X647458Y5629375D03*
G36*
X1007258Y5709580D02*
X982203Y5734635D01*
X1007258Y5759690D01*
X1032313Y5734635D01*
X1007258Y5709580D01*
G37*
G36*
X961288Y5663620D02*
X936233Y5688675D01*
X961288Y5713730D01*
X986343Y5688675D01*
X961288Y5663620D01*
G37*
G54D19*
X1257858Y5067365D02*
G03X1274888Y5068095I8165J8530D01*
G03X1409788Y5352915I-428428J377274D01*
X1409778Y5352905D02*
G03X1398128Y5366635I-11662J1912D01*
X1380368Y5378445D02*
G03X1392178Y5366635I11810J0D01*
Y5524115D02*
G03X1380368Y5512305I0J-11810D01*
X1398128Y5524115D02*
G03X1409778Y5537835I-2J11808D01*
X1409788D02*
G03X938918Y6008705I-563330J-92460D01*
Y6008695D02*
G03X925198Y5997045I-1907J-11658D01*
X913388Y5979285D02*
G03X925198Y5991095I0J11810D01*
X767718D02*
G03X779528Y5979285I11810J0D01*
X767718Y5997045D02*
G03X753988Y6008695I-11809J-1D01*
X753998Y6008705D02*
G03X469178Y5873805I92456J-563332D01*
G03X468448Y5856775I7810J-8865D01*
X435048Y5823375D02*
G03X468448Y5856775I16330J17070D01*
X435048Y5823375D02*
G03X418028Y5822645I-8160J-8530D01*
G03X283128Y5537835I428427J-377277D01*
G03X294778Y5524115I11658J-1907D01*
X312538Y5512305D02*
G03X300728Y5524115I-11810J0D01*
Y5366635D02*
G03X312538Y5378445I0J11810D01*
X294778Y5366635D02*
G03X283128Y5352905I1J-11809D01*
Y5352915D02*
G03X753998Y4882045I563330J92460D01*
X753988D02*
G03X767718Y4893695I1912J11662D01*
X779528Y4911455D02*
G03X767718Y4899645I0J-11810D01*
X925198D02*
G03X913388Y4911455I-11810J0D01*
X925198Y4893695D02*
G03X938918Y4882045I11808J2D01*
G03X1223728Y5016945I-92467J563327D01*
G03X1224458Y5033965I-7810J8861D01*
X1257858Y5067365D02*
G03X1224458Y5033965I-16330J-17070D01*
X1392178Y5366635D02*
G01X1398128D01*
X1380368Y5378445D02*
Y5512305D01*
X1392178Y5524115D02*
X1398128D01*
X925198Y5991095D02*
Y5997045D01*
X779528Y5979285D02*
X913388D01*
X767718Y5991095D02*
Y5997045D01*
X294778Y5524115D02*
X300728D01*
X312538Y5378445D02*
Y5512305D01*
X294778Y5366635D02*
X300728D01*
X767718Y4893695D02*
Y4899645D01*
X779528Y4911455D02*
X913388D01*
X925198Y4893695D02*
Y4899645D01*
G36*
X2292135Y815595D02*
X2267080Y790540D01*
X2242025Y815595D01*
X2267080Y840650D01*
X2292135Y815595D01*
G37*
G36*
X2338095Y769635D02*
X2313040Y744580D01*
X2287985Y769635D01*
X2313040Y794690D01*
X2338095Y769635D01*
G37*
G36*
X2222135Y750595D02*
X2197080Y725540D01*
X2172025Y750595D01*
X2197080Y775650D01*
X2222135Y750595D01*
G37*
G36*
X2268095Y704635D02*
X2243040Y679580D01*
X2217985Y704635D01*
X2243040Y729690D01*
X2268095Y704635D01*
G37*
G54D10*
X2375415Y362615D02*
X2379345D01*
X2414785D02*
X2418715D01*
X1905645Y242485D02*
X1909575D01*
X1866275D02*
X1870205D01*
X2309806Y284795D02*
X2313735D01*
X2270435D02*
X2274365D01*
X2035835Y732185D02*
X2039765D01*
X2075206D02*
X2079135D01*
X1994206Y731185D02*
X1998135D01*
X1954835D02*
X1958765D01*
X1721535Y813435D02*
X1725465D01*
X1760906D02*
X1764835D01*
X1801906Y714435D02*
X1805835D01*
X1762535D02*
X1766465D01*
X1747525Y614055D02*
X1751455D01*
X1708156D02*
X1712085D01*
X1889525D02*
X1893455D01*
X1850156D02*
X1854085D01*
X1803835Y279185D02*
X1807765D01*
X1843206D02*
X1847135D01*
X1740535Y562435D02*
X1744465D01*
X1779906D02*
X1783835D01*
X2069206Y624185D02*
X2073135D01*
X2029835D02*
X2033765D01*
X2030156Y652055D02*
X2034085D01*
X2069525D02*
X2073455D01*
X2293415Y600615D02*
X2297345D01*
X2332785D02*
X2336715D01*
X2075195Y781615D02*
X2079125D01*
X2035825D02*
X2039755D01*
G54D11*
X2425560Y409615D03*
X2360560D03*
X2348560Y657615D03*
X2283560D03*
G54D12*
X1908215Y73425D02*
X1943645D01*
X1908215Y191535D02*
X1943645D01*
G54D13*
X2249055Y339105D02*
X2250045D01*
X2249055Y358785D02*
X2250045D01*
X2308115D02*
X2309105D01*
X2308115Y339105D02*
X2309105D01*
X2249560Y377980D02*
Y378970D01*
X2269240Y377980D02*
Y378970D01*
X2288930Y377980D02*
Y378970D01*
X2308610Y377980D02*
Y378970D01*
Y318920D02*
Y319910D01*
X2288930Y318920D02*
Y319910D01*
X2269240Y318920D02*
Y319910D01*
X2249560Y318920D02*
Y319910D01*
G54D14*
X1628250Y737575D03*
G54D10*
X2114930Y771890D02*
Y775820D01*
Y732520D02*
Y736450D01*
X1764180Y742790D02*
Y746720D01*
Y782160D02*
Y786090D01*
Y643790D02*
Y647720D01*
Y683160D02*
Y687090D01*
X1853250Y637920D02*
Y641850D01*
Y677290D02*
Y681220D01*
X2051930Y235980D02*
Y239910D01*
Y275350D02*
Y279280D01*
X2214080Y366150D02*
Y370080D01*
Y405520D02*
Y409450D01*
X2350930Y323460D02*
Y327390D01*
Y284090D02*
Y288020D01*
X2297060Y145960D02*
Y149890D01*
Y185330D02*
Y189260D01*
X2128060Y154970D02*
Y158900D01*
Y194340D02*
Y198270D01*
X2008930Y272200D02*
Y276130D01*
Y232830D02*
Y236760D01*
X1816550Y614055D02*
X1822450D01*
X1779150D02*
X1785050D01*
X1996550Y642055D02*
X2002450D01*
X1959150D02*
X1965050D01*
X1958550Y614055D02*
X1964450D01*
X1921150D02*
X1927050D01*
G36*
X1690570Y444035D02*
X1707270Y460735D01*
X1721190Y446815D01*
X1704490Y430115D01*
X1690570Y444035D01*
G37*
G36*
X1718410Y471875D02*
X1735110Y488575D01*
X1749031Y474655D01*
X1732331Y457955D01*
X1718410Y471875D01*
G37*
G36*
X1741410Y447875D02*
X1758110Y464575D01*
X1772031Y450655D01*
X1755331Y433955D01*
X1741410Y447875D01*
G37*
G36*
X1713570Y420035D02*
X1730270Y436735D01*
X1744190Y422815D01*
X1727490Y406115D01*
X1713570Y420035D01*
G37*
G36*
X1587410Y603875D02*
X1604110Y620575D01*
X1618031Y606655D01*
X1601331Y589955D01*
X1587410Y603875D01*
G37*
G36*
X1559570Y576035D02*
X1576270Y592735D01*
X1590190Y578815D01*
X1573490Y562115D01*
X1559570Y576035D01*
G37*
G36*
X2149520Y850755D02*
X2166220Y867455D01*
X2180140Y853535D01*
X2163440Y836835D01*
X2149520Y850755D01*
G37*
G36*
X2177360Y878595D02*
X2194060Y895295D01*
X2207981Y881375D01*
X2191281Y864675D01*
X2177360Y878595D01*
G37*
G36*
X1560990Y528215D02*
X1594400Y561625D01*
X1633370Y522655D01*
X1599960Y489245D01*
X1560990Y528215D01*
G37*
G36*
X1619450Y469755D02*
X1652860Y503165D01*
X1691830Y464195D01*
X1658420Y430785D01*
X1619450Y469755D01*
G37*
G36*
X1661210Y511515D02*
X1694620Y544925D01*
X1733590Y505955D01*
X1700180Y472545D01*
X1661210Y511515D01*
G37*
G36*
X1602750Y569975D02*
X1636160Y603385D01*
X1675130Y564415D01*
X1641720Y531005D01*
X1602750Y569975D01*
G37*
G54D11*
X2340060Y168115D03*
Y233115D03*
X2085060Y127115D03*
Y192115D03*
G36*
X2421140Y746615D02*
X2387730Y780025D01*
X2448980Y841275D01*
X2482390Y807865D01*
X2421140Y746615D01*
G37*
G36*
X2366140Y804285D02*
X2332730Y837695D01*
X2393980Y898945D01*
X2427390Y865535D01*
X2366140Y804285D01*
G37*
G36*
X1702680Y252465D02*
X1658140Y297005D01*
X1713820Y352685D01*
X1758360Y308145D01*
X1702680Y252465D01*
G37*
G36*
X1795900Y156685D02*
X1751360Y201225D01*
X1812600Y262465D01*
X1857140Y217925D01*
X1795900Y156685D01*
G37*
G36*
X2468900Y656685D02*
X2424360Y701225D01*
X2485600Y762465D01*
X2530140Y717925D01*
X2468900Y656685D01*
G37*
G36*
X2302900Y873685D02*
X2258360Y918225D01*
X2319600Y979465D01*
X2364140Y934925D01*
X2302900Y873685D01*
G37*
G54D15*
X1872580Y306505D02*
Y324225D01*
X1888330Y306505D02*
Y324225D01*
X1904080Y306505D02*
Y324225D01*
X1919820Y306505D02*
Y324225D01*
X1935570Y306505D02*
Y324225D01*
X1951320Y306505D02*
Y324225D01*
X1967070Y306505D02*
Y324225D01*
X1982820Y306505D02*
Y324225D01*
X1998560Y306505D02*
Y324225D01*
X2014310Y306505D02*
Y324225D01*
X2030060Y306505D02*
Y324225D01*
X2045810Y306505D02*
Y324225D01*
Y544695D02*
Y562415D01*
X2030060Y544695D02*
Y562415D01*
X2014310Y544695D02*
Y562415D01*
X1998560Y544695D02*
Y562415D01*
X1982820Y544695D02*
Y562415D01*
X1967070Y544695D02*
Y562415D01*
X1951320Y544695D02*
Y562415D01*
X1935570Y544695D02*
Y562415D01*
X1919820Y544695D02*
Y562415D01*
X1904080Y544695D02*
Y562415D01*
X1888330Y544695D02*
Y562415D01*
X1872580Y544695D02*
Y562415D01*
X2069431Y347845D02*
X2087150D01*
X2069431Y363585D02*
X2087150D01*
X2069431Y379335D02*
X2087150D01*
X2069431Y395085D02*
X2087150D01*
X2069431Y410835D02*
X2087150D01*
X2069431Y426585D02*
X2087150D01*
X2069431Y442325D02*
X2087150D01*
X2069431Y458075D02*
X2087150D01*
X2069431Y473825D02*
X2087150D01*
X2069431Y489575D02*
X2087150D01*
X2069431Y505325D02*
X2087150D01*
X2069431Y521065D02*
X2087150D01*
X1831240D02*
X1848960D01*
X1831240Y505325D02*
X1848960D01*
X1831240Y489575D02*
X1848960D01*
X1831240Y473825D02*
X1848960D01*
X1831240Y458075D02*
X1848960D01*
X1831240Y442325D02*
X1848960D01*
X1831240Y426585D02*
X1848960D01*
X1831240Y410835D02*
X1848960D01*
X1831240Y395085D02*
X1848960D01*
X1831240Y379335D02*
X1848960D01*
X1831240Y363585D02*
X1848960D01*
X1831240Y347845D02*
X1848960D01*
G54D16*
X1959190Y434455D03*
G54D17*
X2256645Y126615D02*
X2268455D01*
X2256645Y164015D02*
X2268455D01*
X2256645Y201415D02*
X2268455D01*
X2162155Y203385D02*
X2173965D01*
X2162155Y126615D02*
X2173965D01*
G54D18*
X1867930Y747485D03*
G36*
X2227730Y827690D02*
X2202675Y852745D01*
X2227730Y877800D01*
X2252785Y852745D01*
X2227730Y827690D01*
G37*
G36*
X2181760Y781730D02*
X2156705Y806785D01*
X2181760Y831840D01*
X2206815Y806785D01*
X2181760Y781730D01*
G37*
G54D19*
X2478330Y185475D02*
G03X2495360Y186205I8165J8530D01*
G03X2630260Y471025I-428428J377274D01*
X2630250Y471015D02*
G03X2618600Y484745I-11662J1912D01*
X2600840Y496555D02*
G03X2612650Y484745I11810J0D01*
Y642225D02*
G03X2600840Y630415I0J-11810D01*
X2618600Y642225D02*
G03X2630250Y655945I-2J11808D01*
X2630260D02*
G03X2159390Y1126815I-563330J-92460D01*
Y1126805D02*
G03X2145670Y1115155I-1907J-11658D01*
X2133860Y1097395D02*
G03X2145670Y1109205I0J11810D01*
X1988190D02*
G03X2000000Y1097395I11810J0D01*
X1988190Y1115155D02*
G03X1974460Y1126805I-11809J-1D01*
X1974470Y1126815D02*
G03X1689650Y991915I92456J-563332D01*
G03X1688920Y974885I7810J-8865D01*
X1655520Y941485D02*
G03X1688920Y974885I16330J17070D01*
X1655520Y941485D02*
G03X1638500Y940755I-8160J-8530D01*
G03X1503600Y655945I428427J-377277D01*
G03X1515250Y642225I11658J-1907D01*
X1533010Y630415D02*
G03X1521200Y642225I-11810J0D01*
Y484745D02*
G03X1533010Y496555I0J11810D01*
X1515250Y484745D02*
G03X1503600Y471015I1J-11809D01*
Y471025D02*
G03X1974470Y155I563330J92460D01*
X1974460D02*
G03X1988190Y11805I1912J11662D01*
X2000000Y29565D02*
G03X1988190Y17755I0J-11810D01*
X2145670D02*
G03X2133860Y29565I-11810J0D01*
X2145670Y11805D02*
G03X2159390Y155I11808J2D01*
G03X2444200Y135055I-92467J563327D01*
G03X2444930Y152075I-7810J8861D01*
X2478330Y185475D02*
G03X2444930Y152075I-16330J-17070D01*
X2612650Y484745D02*
G01X2618600D01*
X2600840Y496555D02*
Y630415D01*
X2612650Y642225D02*
X2618600D01*
X2145670Y1109205D02*
Y1115155D01*
X2000000Y1097395D02*
X2133860D01*
X1988190Y1109205D02*
Y1115155D01*
X1515250Y642225D02*
X1521200D01*
X1533010Y496555D02*
Y630415D01*
X1515250Y484745D02*
X1521200D01*
X1988190Y11805D02*
Y17755D01*
X2000000Y29565D02*
X2133860D01*
X2145670Y11805D02*
Y17755D01*
G36*
X2292135Y2036068D02*
X2267080Y2011013D01*
X2242025Y2036068D01*
X2267080Y2061123D01*
X2292135Y2036068D01*
G37*
G36*
X2338095Y1990108D02*
X2313040Y1965053D01*
X2287985Y1990108D01*
X2313040Y2015163D01*
X2338095Y1990108D01*
G37*
G36*
X2222135Y1971068D02*
X2197080Y1946013D01*
X2172025Y1971068D01*
X2197080Y1996123D01*
X2222135Y1971068D01*
G37*
G36*
X2268095Y1925108D02*
X2243040Y1900053D01*
X2217985Y1925108D01*
X2243040Y1950163D01*
X2268095Y1925108D01*
G37*
G54D10*
X2375415Y1583088D02*
X2379345D01*
X2414785D02*
X2418715D01*
X1905645Y1462958D02*
X1909575D01*
X1866275D02*
X1870205D01*
X2309806Y1505268D02*
X2313735D01*
X2270435D02*
X2274365D01*
X2035835Y1952658D02*
X2039765D01*
X2075206D02*
X2079135D01*
X1994206Y1951658D02*
X1998135D01*
X1954835D02*
X1958765D01*
X1721535Y2033908D02*
X1725465D01*
X1760906D02*
X1764835D01*
X1801906Y1934908D02*
X1805835D01*
X1762535D02*
X1766465D01*
X1747525Y1834528D02*
X1751455D01*
X1708156D02*
X1712085D01*
X1889525D02*
X1893455D01*
X1850156D02*
X1854085D01*
X1803835Y1499658D02*
X1807765D01*
X1843206D02*
X1847135D01*
X1740535Y1782908D02*
X1744465D01*
X1779906D02*
X1783835D01*
X2069206Y1844658D02*
X2073135D01*
X2029835D02*
X2033765D01*
X2030156Y1872528D02*
X2034085D01*
X2069525D02*
X2073455D01*
X2293415Y1821088D02*
X2297345D01*
X2332785D02*
X2336715D01*
X2075195Y2002088D02*
X2079125D01*
X2035825D02*
X2039755D01*
G54D11*
X2425560Y1630088D03*
X2360560D03*
X2348560Y1878088D03*
X2283560D03*
G54D12*
X1908215Y1293898D02*
X1943645D01*
X1908215Y1412008D02*
X1943645D01*
G54D13*
X2249055Y1559578D02*
X2250045D01*
X2249055Y1579258D02*
X2250045D01*
X2308115D02*
X2309105D01*
X2308115Y1559578D02*
X2309105D01*
X2249560Y1598453D02*
Y1599443D01*
X2269240Y1598453D02*
Y1599443D01*
X2288930Y1598453D02*
Y1599443D01*
X2308610Y1598453D02*
Y1599443D01*
Y1539393D02*
Y1540383D01*
X2288930Y1539393D02*
Y1540383D01*
X2269240Y1539393D02*
Y1540383D01*
X2249560Y1539393D02*
Y1540383D01*
G54D14*
X1628250Y1958048D03*
G54D10*
X2114930Y1992363D02*
Y1996293D01*
Y1952993D02*
Y1956923D01*
X1764180Y1963263D02*
Y1967193D01*
Y2002633D02*
Y2006563D01*
Y1864263D02*
Y1868193D01*
Y1903633D02*
Y1907563D01*
X1853250Y1858393D02*
Y1862323D01*
Y1897763D02*
Y1901693D01*
X2051930Y1456453D02*
Y1460383D01*
Y1495823D02*
Y1499753D01*
X2214080Y1586623D02*
Y1590553D01*
Y1625993D02*
Y1629923D01*
X2350930Y1543933D02*
Y1547863D01*
Y1504563D02*
Y1508493D01*
X2297060Y1366433D02*
Y1370363D01*
Y1405803D02*
Y1409733D01*
X2128060Y1375443D02*
Y1379373D01*
Y1414813D02*
Y1418743D01*
X2008930Y1492673D02*
Y1496603D01*
Y1453303D02*
Y1457233D01*
X1816550Y1834528D02*
X1822450D01*
X1779150D02*
X1785050D01*
X1996550Y1862528D02*
X2002450D01*
X1959150D02*
X1965050D01*
X1958550Y1834528D02*
X1964450D01*
X1921150D02*
X1927050D01*
G36*
X1690570Y1664508D02*
X1707270Y1681208D01*
X1721190Y1667288D01*
X1704490Y1650588D01*
X1690570Y1664508D01*
G37*
G36*
X1718410Y1692348D02*
X1735110Y1709048D01*
X1749031Y1695128D01*
X1732331Y1678428D01*
X1718410Y1692348D01*
G37*
G36*
X1741410Y1668348D02*
X1758110Y1685048D01*
X1772031Y1671128D01*
X1755331Y1654428D01*
X1741410Y1668348D01*
G37*
G36*
X1713570Y1640508D02*
X1730270Y1657208D01*
X1744190Y1643288D01*
X1727490Y1626588D01*
X1713570Y1640508D01*
G37*
G36*
X1587410Y1824348D02*
X1604110Y1841048D01*
X1618031Y1827128D01*
X1601331Y1810428D01*
X1587410Y1824348D01*
G37*
G36*
X1559570Y1796508D02*
X1576270Y1813208D01*
X1590190Y1799288D01*
X1573490Y1782588D01*
X1559570Y1796508D01*
G37*
G36*
X2149520Y2071228D02*
X2166220Y2087928D01*
X2180140Y2074008D01*
X2163440Y2057308D01*
X2149520Y2071228D01*
G37*
G36*
X2177360Y2099068D02*
X2194060Y2115768D01*
X2207981Y2101848D01*
X2191281Y2085148D01*
X2177360Y2099068D01*
G37*
G36*
X1560990Y1748688D02*
X1594400Y1782098D01*
X1633370Y1743128D01*
X1599960Y1709718D01*
X1560990Y1748688D01*
G37*
G36*
X1619450Y1690228D02*
X1652860Y1723638D01*
X1691830Y1684668D01*
X1658420Y1651258D01*
X1619450Y1690228D01*
G37*
G36*
X1661210Y1731988D02*
X1694620Y1765398D01*
X1733590Y1726428D01*
X1700180Y1693018D01*
X1661210Y1731988D01*
G37*
G36*
X1602750Y1790448D02*
X1636160Y1823858D01*
X1675130Y1784888D01*
X1641720Y1751478D01*
X1602750Y1790448D01*
G37*
G54D11*
X2340060Y1388588D03*
Y1453588D03*
X2085060Y1347588D03*
Y1412588D03*
G36*
X2421140Y1967088D02*
X2387730Y2000498D01*
X2448980Y2061748D01*
X2482390Y2028338D01*
X2421140Y1967088D01*
G37*
G36*
X2366140Y2024758D02*
X2332730Y2058168D01*
X2393980Y2119418D01*
X2427390Y2086008D01*
X2366140Y2024758D01*
G37*
G36*
X1702680Y1472938D02*
X1658140Y1517478D01*
X1713820Y1573158D01*
X1758360Y1528618D01*
X1702680Y1472938D01*
G37*
G36*
X1795900Y1377158D02*
X1751360Y1421698D01*
X1812600Y1482938D01*
X1857140Y1438398D01*
X1795900Y1377158D01*
G37*
G36*
X2468900Y1877158D02*
X2424360Y1921698D01*
X2485600Y1982938D01*
X2530140Y1938398D01*
X2468900Y1877158D01*
G37*
G36*
X2302900Y2094158D02*
X2258360Y2138698D01*
X2319600Y2199938D01*
X2364140Y2155398D01*
X2302900Y2094158D01*
G37*
G54D15*
X1872580Y1526978D02*
Y1544698D01*
X1888330Y1526978D02*
Y1544698D01*
X1904080Y1526978D02*
Y1544698D01*
X1919820Y1526978D02*
Y1544698D01*
X1935570Y1526978D02*
Y1544698D01*
X1951320Y1526978D02*
Y1544698D01*
X1967070Y1526978D02*
Y1544698D01*
X1982820Y1526978D02*
Y1544698D01*
X1998560Y1526978D02*
Y1544698D01*
X2014310Y1526978D02*
Y1544698D01*
X2030060Y1526978D02*
Y1544698D01*
X2045810Y1526978D02*
Y1544698D01*
Y1765168D02*
Y1782888D01*
X2030060Y1765168D02*
Y1782888D01*
X2014310Y1765168D02*
Y1782888D01*
X1998560Y1765168D02*
Y1782888D01*
X1982820Y1765168D02*
Y1782888D01*
X1967070Y1765168D02*
Y1782888D01*
X1951320Y1765168D02*
Y1782888D01*
X1935570Y1765168D02*
Y1782888D01*
X1919820Y1765168D02*
Y1782888D01*
X1904080Y1765168D02*
Y1782888D01*
X1888330Y1765168D02*
Y1782888D01*
X1872580Y1765168D02*
Y1782888D01*
X2069431Y1568318D02*
X2087150D01*
X2069431Y1584058D02*
X2087150D01*
X2069431Y1599808D02*
X2087150D01*
X2069431Y1615558D02*
X2087150D01*
X2069431Y1631308D02*
X2087150D01*
X2069431Y1647058D02*
X2087150D01*
X2069431Y1662798D02*
X2087150D01*
X2069431Y1678548D02*
X2087150D01*
X2069431Y1694298D02*
X2087150D01*
X2069431Y1710048D02*
X2087150D01*
X2069431Y1725798D02*
X2087150D01*
X2069431Y1741538D02*
X2087150D01*
X1831240D02*
X1848960D01*
X1831240Y1725798D02*
X1848960D01*
X1831240Y1710048D02*
X1848960D01*
X1831240Y1694298D02*
X1848960D01*
X1831240Y1678548D02*
X1848960D01*
X1831240Y1662798D02*
X1848960D01*
X1831240Y1647058D02*
X1848960D01*
X1831240Y1631308D02*
X1848960D01*
X1831240Y1615558D02*
X1848960D01*
X1831240Y1599808D02*
X1848960D01*
X1831240Y1584058D02*
X1848960D01*
X1831240Y1568318D02*
X1848960D01*
G54D16*
X1959190Y1654928D03*
G54D17*
X2256645Y1347088D02*
X2268455D01*
X2256645Y1384488D02*
X2268455D01*
X2256645Y1421888D02*
X2268455D01*
X2162155Y1423858D02*
X2173965D01*
X2162155Y1347088D02*
X2173965D01*
G54D18*
X1867930Y1967958D03*
G36*
X2227730Y2048163D02*
X2202675Y2073218D01*
X2227730Y2098273D01*
X2252785Y2073218D01*
X2227730Y2048163D01*
G37*
G36*
X2181760Y2002203D02*
X2156705Y2027258D01*
X2181760Y2052313D01*
X2206815Y2027258D01*
X2181760Y2002203D01*
G37*
G54D19*
X2478330Y1405948D02*
G03X2495360Y1406678I8165J8530D01*
G03X2630260Y1691498I-428428J377274D01*
X2630250Y1691488D02*
G03X2618600Y1705218I-11662J1912D01*
X2600840Y1717028D02*
G03X2612650Y1705218I11810J0D01*
Y1862698D02*
G03X2600840Y1850888I0J-11810D01*
X2618600Y1862698D02*
G03X2630250Y1876418I-2J11808D01*
X2630260D02*
G03X2159390Y2347288I-563330J-92460D01*
Y2347278D02*
G03X2145670Y2335628I-1907J-11658D01*
X2133860Y2317868D02*
G03X2145670Y2329678I0J11810D01*
X1988190D02*
G03X2000000Y2317868I11810J0D01*
X1988190Y2335628D02*
G03X1974460Y2347278I-11809J-1D01*
X1974470Y2347288D02*
G03X1689650Y2212388I92456J-563332D01*
G03X1688920Y2195358I7810J-8865D01*
X1655520Y2161958D02*
G03X1688920Y2195358I16330J17070D01*
X1655520Y2161958D02*
G03X1638500Y2161228I-8160J-8530D01*
G03X1503600Y1876418I428427J-377277D01*
G03X1515250Y1862698I11658J-1907D01*
X1533010Y1850888D02*
G03X1521200Y1862698I-11810J0D01*
Y1705218D02*
G03X1533010Y1717028I0J11810D01*
X1515250Y1705218D02*
G03X1503600Y1691488I1J-11809D01*
Y1691498D02*
G03X1974470Y1220628I563330J92460D01*
X1974460D02*
G03X1988190Y1232278I1912J11662D01*
X2000000Y1250038D02*
G03X1988190Y1238228I0J-11810D01*
X2145670D02*
G03X2133860Y1250038I-11810J0D01*
X2145670Y1232278D02*
G03X2159390Y1220628I11808J2D01*
G03X2444200Y1355528I-92467J563327D01*
G03X2444930Y1372548I-7810J8861D01*
X2478330Y1405948D02*
G03X2444930Y1372548I-16330J-17070D01*
X2612650Y1705218D02*
G01X2618600D01*
X2600840Y1717028D02*
Y1850888D01*
X2612650Y1862698D02*
X2618600D01*
X2145670Y2329678D02*
Y2335628D01*
X2000000Y2317868D02*
X2133860D01*
X1988190Y2329678D02*
Y2335628D01*
X1515250Y1862698D02*
X1521200D01*
X1533010Y1717028D02*
Y1850888D01*
X1515250Y1705218D02*
X1521200D01*
X1988190Y1232278D02*
Y1238228D01*
X2000000Y1250038D02*
X2133860D01*
X2145670Y1232278D02*
Y1238228D01*
G36*
X2292135Y3256540D02*
X2267080Y3231485D01*
X2242025Y3256540D01*
X2267080Y3281595D01*
X2292135Y3256540D01*
G37*
G36*
X2338095Y3210580D02*
X2313040Y3185525D01*
X2287985Y3210580D01*
X2313040Y3235635D01*
X2338095Y3210580D01*
G37*
G36*
X2222135Y3191540D02*
X2197080Y3166485D01*
X2172025Y3191540D01*
X2197080Y3216595D01*
X2222135Y3191540D01*
G37*
G36*
X2268095Y3145580D02*
X2243040Y3120525D01*
X2217985Y3145580D01*
X2243040Y3170635D01*
X2268095Y3145580D01*
G37*
G54D10*
X2375415Y2803560D02*
X2379345D01*
X2414785D02*
X2418715D01*
X1905645Y2683430D02*
X1909575D01*
X1866275D02*
X1870205D01*
X2309806Y2725740D02*
X2313735D01*
X2270435D02*
X2274365D01*
X2035835Y3173130D02*
X2039765D01*
X2075206D02*
X2079135D01*
X1994206Y3172130D02*
X1998135D01*
X1954835D02*
X1958765D01*
X1721535Y3254380D02*
X1725465D01*
X1760906D02*
X1764835D01*
X1801906Y3155380D02*
X1805835D01*
X1762535D02*
X1766465D01*
X1747525Y3055000D02*
X1751455D01*
X1708156D02*
X1712085D01*
X1889525D02*
X1893455D01*
X1850156D02*
X1854085D01*
X1803835Y2720130D02*
X1807765D01*
X1843206D02*
X1847135D01*
X1740535Y3003380D02*
X1744465D01*
X1779906D02*
X1783835D01*
X2069206Y3065130D02*
X2073135D01*
X2029835D02*
X2033765D01*
X2030156Y3093000D02*
X2034085D01*
X2069525D02*
X2073455D01*
X2293415Y3041560D02*
X2297345D01*
X2332785D02*
X2336715D01*
X2075195Y3222560D02*
X2079125D01*
X2035825D02*
X2039755D01*
G54D11*
X2425560Y2850560D03*
X2360560D03*
X2348560Y3098560D03*
X2283560D03*
G54D12*
X1908215Y2514370D02*
X1943645D01*
X1908215Y2632480D02*
X1943645D01*
G54D13*
X2249055Y2780050D02*
X2250045D01*
X2249055Y2799730D02*
X2250045D01*
X2308115D02*
X2309105D01*
X2308115Y2780050D02*
X2309105D01*
X2249560Y2818925D02*
Y2819915D01*
X2269240Y2818925D02*
Y2819915D01*
X2288930Y2818925D02*
Y2819915D01*
X2308610Y2818925D02*
Y2819915D01*
Y2759865D02*
Y2760855D01*
X2288930Y2759865D02*
Y2760855D01*
X2269240Y2759865D02*
Y2760855D01*
X2249560Y2759865D02*
Y2760855D01*
G54D14*
X1628250Y3178520D03*
G54D10*
X2114930Y3212835D02*
Y3216765D01*
Y3173465D02*
Y3177395D01*
X1764180Y3183735D02*
Y3187665D01*
Y3223105D02*
Y3227035D01*
Y3084735D02*
Y3088665D01*
Y3124105D02*
Y3128035D01*
X1853250Y3078865D02*
Y3082795D01*
Y3118235D02*
Y3122165D01*
X2051930Y2676925D02*
Y2680855D01*
Y2716295D02*
Y2720225D01*
X2214080Y2807095D02*
Y2811025D01*
Y2846465D02*
Y2850395D01*
X2350930Y2764405D02*
Y2768335D01*
Y2725035D02*
Y2728965D01*
X2297060Y2586905D02*
Y2590835D01*
Y2626275D02*
Y2630205D01*
X2128060Y2595915D02*
Y2599845D01*
Y2635285D02*
Y2639215D01*
X2008930Y2713145D02*
Y2717075D01*
Y2673775D02*
Y2677705D01*
X1816550Y3055000D02*
X1822450D01*
X1779150D02*
X1785050D01*
X1996550Y3083000D02*
X2002450D01*
X1959150D02*
X1965050D01*
X1958550Y3055000D02*
X1964450D01*
X1921150D02*
X1927050D01*
G36*
X1690570Y2884980D02*
X1707270Y2901680D01*
X1721190Y2887760D01*
X1704490Y2871060D01*
X1690570Y2884980D01*
G37*
G36*
X1718410Y2912820D02*
X1735110Y2929520D01*
X1749031Y2915600D01*
X1732331Y2898900D01*
X1718410Y2912820D01*
G37*
G36*
X1741410Y2888820D02*
X1758110Y2905520D01*
X1772031Y2891600D01*
X1755331Y2874900D01*
X1741410Y2888820D01*
G37*
G36*
X1713570Y2860980D02*
X1730270Y2877680D01*
X1744190Y2863760D01*
X1727490Y2847060D01*
X1713570Y2860980D01*
G37*
G36*
X1587410Y3044820D02*
X1604110Y3061520D01*
X1618031Y3047600D01*
X1601331Y3030900D01*
X1587410Y3044820D01*
G37*
G36*
X1559570Y3016980D02*
X1576270Y3033680D01*
X1590190Y3019760D01*
X1573490Y3003060D01*
X1559570Y3016980D01*
G37*
G36*
X2149520Y3291700D02*
X2166220Y3308400D01*
X2180140Y3294480D01*
X2163440Y3277780D01*
X2149520Y3291700D01*
G37*
G36*
X2177360Y3319540D02*
X2194060Y3336240D01*
X2207981Y3322320D01*
X2191281Y3305620D01*
X2177360Y3319540D01*
G37*
G36*
X1560990Y2969160D02*
X1594400Y3002570D01*
X1633370Y2963600D01*
X1599960Y2930190D01*
X1560990Y2969160D01*
G37*
G36*
X1619450Y2910700D02*
X1652860Y2944110D01*
X1691830Y2905140D01*
X1658420Y2871730D01*
X1619450Y2910700D01*
G37*
G36*
X1661210Y2952460D02*
X1694620Y2985870D01*
X1733590Y2946900D01*
X1700180Y2913490D01*
X1661210Y2952460D01*
G37*
G36*
X1602750Y3010920D02*
X1636160Y3044330D01*
X1675130Y3005360D01*
X1641720Y2971950D01*
X1602750Y3010920D01*
G37*
G54D11*
X2340060Y2609060D03*
Y2674060D03*
X2085060Y2568060D03*
Y2633060D03*
G36*
X2421140Y3187560D02*
X2387730Y3220970D01*
X2448980Y3282220D01*
X2482390Y3248810D01*
X2421140Y3187560D01*
G37*
G36*
X2366140Y3245230D02*
X2332730Y3278640D01*
X2393980Y3339890D01*
X2427390Y3306480D01*
X2366140Y3245230D01*
G37*
G36*
X1702680Y2693410D02*
X1658140Y2737950D01*
X1713820Y2793630D01*
X1758360Y2749090D01*
X1702680Y2693410D01*
G37*
G36*
X1795900Y2597630D02*
X1751360Y2642170D01*
X1812600Y2703410D01*
X1857140Y2658870D01*
X1795900Y2597630D01*
G37*
G36*
X2468900Y3097630D02*
X2424360Y3142170D01*
X2485600Y3203410D01*
X2530140Y3158870D01*
X2468900Y3097630D01*
G37*
G36*
X2302900Y3314630D02*
X2258360Y3359170D01*
X2319600Y3420410D01*
X2364140Y3375870D01*
X2302900Y3314630D01*
G37*
G54D15*
X1872580Y2747450D02*
Y2765170D01*
X1888330Y2747450D02*
Y2765170D01*
X1904080Y2747450D02*
Y2765170D01*
X1919820Y2747450D02*
Y2765170D01*
X1935570Y2747450D02*
Y2765170D01*
X1951320Y2747450D02*
Y2765170D01*
X1967070Y2747450D02*
Y2765170D01*
X1982820Y2747450D02*
Y2765170D01*
X1998560Y2747450D02*
Y2765170D01*
X2014310Y2747450D02*
Y2765170D01*
X2030060Y2747450D02*
Y2765170D01*
X2045810Y2747450D02*
Y2765170D01*
Y2985640D02*
Y3003360D01*
X2030060Y2985640D02*
Y3003360D01*
X2014310Y2985640D02*
Y3003360D01*
X1998560Y2985640D02*
Y3003360D01*
X1982820Y2985640D02*
Y3003360D01*
X1967070Y2985640D02*
Y3003360D01*
X1951320Y2985640D02*
Y3003360D01*
X1935570Y2985640D02*
Y3003360D01*
X1919820Y2985640D02*
Y3003360D01*
X1904080Y2985640D02*
Y3003360D01*
X1888330Y2985640D02*
Y3003360D01*
X1872580Y2985640D02*
Y3003360D01*
X2069431Y2788790D02*
X2087150D01*
X2069431Y2804530D02*
X2087150D01*
X2069431Y2820280D02*
X2087150D01*
X2069431Y2836030D02*
X2087150D01*
X2069431Y2851780D02*
X2087150D01*
X2069431Y2867530D02*
X2087150D01*
X2069431Y2883270D02*
X2087150D01*
X2069431Y2899020D02*
X2087150D01*
X2069431Y2914770D02*
X2087150D01*
X2069431Y2930520D02*
X2087150D01*
X2069431Y2946270D02*
X2087150D01*
X2069431Y2962010D02*
X2087150D01*
X1831240D02*
X1848960D01*
X1831240Y2946270D02*
X1848960D01*
X1831240Y2930520D02*
X1848960D01*
X1831240Y2914770D02*
X1848960D01*
X1831240Y2899020D02*
X1848960D01*
X1831240Y2883270D02*
X1848960D01*
X1831240Y2867530D02*
X1848960D01*
X1831240Y2851780D02*
X1848960D01*
X1831240Y2836030D02*
X1848960D01*
X1831240Y2820280D02*
X1848960D01*
X1831240Y2804530D02*
X1848960D01*
X1831240Y2788790D02*
X1848960D01*
G54D16*
X1959190Y2875400D03*
G54D17*
X2256645Y2567560D02*
X2268455D01*
X2256645Y2604960D02*
X2268455D01*
X2256645Y2642360D02*
X2268455D01*
X2162155Y2644330D02*
X2173965D01*
X2162155Y2567560D02*
X2173965D01*
G54D18*
X1867930Y3188430D03*
G36*
X2227730Y3268635D02*
X2202675Y3293690D01*
X2227730Y3318745D01*
X2252785Y3293690D01*
X2227730Y3268635D01*
G37*
G36*
X2181760Y3222675D02*
X2156705Y3247730D01*
X2181760Y3272785D01*
X2206815Y3247730D01*
X2181760Y3222675D01*
G37*
G54D19*
X2478330Y2626420D02*
G03X2495360Y2627150I8165J8530D01*
G03X2630260Y2911970I-428428J377274D01*
X2630250Y2911960D02*
G03X2618600Y2925690I-11662J1912D01*
X2600840Y2937500D02*
G03X2612650Y2925690I11810J0D01*
Y3083170D02*
G03X2600840Y3071360I0J-11810D01*
X2618600Y3083170D02*
G03X2630250Y3096890I-2J11808D01*
X2630260D02*
G03X2159390Y3567760I-563330J-92460D01*
Y3567750D02*
G03X2145670Y3556100I-1907J-11658D01*
X2133860Y3538340D02*
G03X2145670Y3550150I0J11810D01*
X1988190D02*
G03X2000000Y3538340I11810J0D01*
X1988190Y3556100D02*
G03X1974460Y3567750I-11809J-1D01*
X1974470Y3567760D02*
G03X1689650Y3432860I92456J-563332D01*
G03X1688920Y3415830I7810J-8865D01*
X1655520Y3382430D02*
G03X1688920Y3415830I16330J17070D01*
X1655520Y3382430D02*
G03X1638500Y3381700I-8160J-8530D01*
G03X1503600Y3096890I428427J-377277D01*
G03X1515250Y3083170I11658J-1907D01*
X1533010Y3071360D02*
G03X1521200Y3083170I-11810J0D01*
Y2925690D02*
G03X1533010Y2937500I0J11810D01*
X1515250Y2925690D02*
G03X1503600Y2911960I1J-11809D01*
Y2911970D02*
G03X1974470Y2441100I563330J92460D01*
X1974460D02*
G03X1988190Y2452750I1912J11662D01*
X2000000Y2470510D02*
G03X1988190Y2458700I0J-11810D01*
X2145670D02*
G03X2133860Y2470510I-11810J0D01*
X2145670Y2452750D02*
G03X2159390Y2441100I11808J2D01*
G03X2444200Y2576000I-92467J563327D01*
G03X2444930Y2593020I-7810J8861D01*
X2478330Y2626420D02*
G03X2444930Y2593020I-16330J-17070D01*
X2612650Y2925690D02*
G01X2618600D01*
X2600840Y2937500D02*
Y3071360D01*
X2612650Y3083170D02*
X2618600D01*
X2145670Y3550150D02*
Y3556100D01*
X2000000Y3538340D02*
X2133860D01*
X1988190Y3550150D02*
Y3556100D01*
X1515250Y3083170D02*
X1521200D01*
X1533010Y2937500D02*
Y3071360D01*
X1515250Y2925690D02*
X1521200D01*
X1988190Y2452750D02*
Y2458700D01*
X2000000Y2470510D02*
X2133860D01*
X2145670Y2452750D02*
Y2458700D01*
G36*
X2292135Y4477013D02*
X2267080Y4451958D01*
X2242025Y4477013D01*
X2267080Y4502068D01*
X2292135Y4477013D01*
G37*
G36*
X2338095Y4431053D02*
X2313040Y4405998D01*
X2287985Y4431053D01*
X2313040Y4456108D01*
X2338095Y4431053D01*
G37*
G36*
X2222135Y4412013D02*
X2197080Y4386958D01*
X2172025Y4412013D01*
X2197080Y4437068D01*
X2222135Y4412013D01*
G37*
G36*
X2268095Y4366053D02*
X2243040Y4340998D01*
X2217985Y4366053D01*
X2243040Y4391108D01*
X2268095Y4366053D01*
G37*
G54D10*
X2375415Y4024033D02*
X2379345D01*
X2414785D02*
X2418715D01*
X1905645Y3903903D02*
X1909575D01*
X1866275D02*
X1870205D01*
X2309806Y3946213D02*
X2313735D01*
X2270435D02*
X2274365D01*
X2035835Y4393603D02*
X2039765D01*
X2075206D02*
X2079135D01*
X1994206Y4392603D02*
X1998135D01*
X1954835D02*
X1958765D01*
X1721535Y4474853D02*
X1725465D01*
X1760906D02*
X1764835D01*
X1801906Y4375853D02*
X1805835D01*
X1762535D02*
X1766465D01*
X1747525Y4275473D02*
X1751455D01*
X1708156D02*
X1712085D01*
X1889525D02*
X1893455D01*
X1850156D02*
X1854085D01*
X1803835Y3940603D02*
X1807765D01*
X1843206D02*
X1847135D01*
X1740535Y4223853D02*
X1744465D01*
X1779906D02*
X1783835D01*
X2069206Y4285603D02*
X2073135D01*
X2029835D02*
X2033765D01*
X2030156Y4313473D02*
X2034085D01*
X2069525D02*
X2073455D01*
X2293415Y4262033D02*
X2297345D01*
X2332785D02*
X2336715D01*
X2075195Y4443033D02*
X2079125D01*
X2035825D02*
X2039755D01*
G54D11*
X2425560Y4071033D03*
X2360560D03*
X2348560Y4319033D03*
X2283560D03*
G54D12*
X1908215Y3734843D02*
X1943645D01*
X1908215Y3852953D02*
X1943645D01*
G54D13*
X2249055Y4000523D02*
X2250045D01*
X2249055Y4020203D02*
X2250045D01*
X2308115D02*
X2309105D01*
X2308115Y4000523D02*
X2309105D01*
X2249560Y4039398D02*
Y4040388D01*
X2269240Y4039398D02*
Y4040388D01*
X2288930Y4039398D02*
Y4040388D01*
X2308610Y4039398D02*
Y4040388D01*
Y3980338D02*
Y3981328D01*
X2288930Y3980338D02*
Y3981328D01*
X2269240Y3980338D02*
Y3981328D01*
X2249560Y3980338D02*
Y3981328D01*
G54D14*
X1628250Y4398993D03*
G54D10*
X2114930Y4433308D02*
Y4437238D01*
Y4393938D02*
Y4397868D01*
X1764180Y4404208D02*
Y4408138D01*
Y4443578D02*
Y4447508D01*
Y4305208D02*
Y4309138D01*
Y4344578D02*
Y4348508D01*
X1853250Y4299338D02*
Y4303268D01*
Y4338708D02*
Y4342638D01*
X2051930Y3897398D02*
Y3901328D01*
Y3936768D02*
Y3940698D01*
X2214080Y4027568D02*
Y4031498D01*
Y4066938D02*
Y4070868D01*
X2350930Y3984878D02*
Y3988808D01*
Y3945508D02*
Y3949438D01*
X2297060Y3807378D02*
Y3811308D01*
Y3846748D02*
Y3850678D01*
X2128060Y3816388D02*
Y3820318D01*
Y3855758D02*
Y3859688D01*
X2008930Y3933618D02*
Y3937548D01*
Y3894248D02*
Y3898178D01*
X1816550Y4275473D02*
X1822450D01*
X1779150D02*
X1785050D01*
X1996550Y4303473D02*
X2002450D01*
X1959150D02*
X1965050D01*
X1958550Y4275473D02*
X1964450D01*
X1921150D02*
X1927050D01*
G36*
X1690570Y4105453D02*
X1707270Y4122153D01*
X1721190Y4108233D01*
X1704490Y4091533D01*
X1690570Y4105453D01*
G37*
G36*
X1718410Y4133293D02*
X1735110Y4149993D01*
X1749031Y4136073D01*
X1732331Y4119373D01*
X1718410Y4133293D01*
G37*
G36*
X1741410Y4109293D02*
X1758110Y4125993D01*
X1772031Y4112073D01*
X1755331Y4095373D01*
X1741410Y4109293D01*
G37*
G36*
X1713570Y4081453D02*
X1730270Y4098153D01*
X1744190Y4084233D01*
X1727490Y4067533D01*
X1713570Y4081453D01*
G37*
G36*
X1587410Y4265293D02*
X1604110Y4281993D01*
X1618031Y4268073D01*
X1601331Y4251373D01*
X1587410Y4265293D01*
G37*
G36*
X1559570Y4237453D02*
X1576270Y4254153D01*
X1590190Y4240233D01*
X1573490Y4223533D01*
X1559570Y4237453D01*
G37*
G36*
X2149520Y4512173D02*
X2166220Y4528873D01*
X2180140Y4514953D01*
X2163440Y4498253D01*
X2149520Y4512173D01*
G37*
G36*
X2177360Y4540013D02*
X2194060Y4556713D01*
X2207981Y4542793D01*
X2191281Y4526093D01*
X2177360Y4540013D01*
G37*
G36*
X1560990Y4189633D02*
X1594400Y4223043D01*
X1633370Y4184073D01*
X1599960Y4150663D01*
X1560990Y4189633D01*
G37*
G36*
X1619450Y4131173D02*
X1652860Y4164583D01*
X1691830Y4125613D01*
X1658420Y4092203D01*
X1619450Y4131173D01*
G37*
G36*
X1661210Y4172933D02*
X1694620Y4206343D01*
X1733590Y4167373D01*
X1700180Y4133963D01*
X1661210Y4172933D01*
G37*
G36*
X1602750Y4231393D02*
X1636160Y4264803D01*
X1675130Y4225833D01*
X1641720Y4192423D01*
X1602750Y4231393D01*
G37*
G54D11*
X2340060Y3829533D03*
Y3894533D03*
X2085060Y3788533D03*
Y3853533D03*
G36*
X2421140Y4408033D02*
X2387730Y4441443D01*
X2448980Y4502693D01*
X2482390Y4469283D01*
X2421140Y4408033D01*
G37*
G36*
X2366140Y4465703D02*
X2332730Y4499113D01*
X2393980Y4560363D01*
X2427390Y4526953D01*
X2366140Y4465703D01*
G37*
G36*
X1702680Y3913883D02*
X1658140Y3958423D01*
X1713820Y4014103D01*
X1758360Y3969563D01*
X1702680Y3913883D01*
G37*
G36*
X1795900Y3818103D02*
X1751360Y3862643D01*
X1812600Y3923883D01*
X1857140Y3879343D01*
X1795900Y3818103D01*
G37*
G36*
X2468900Y4318103D02*
X2424360Y4362643D01*
X2485600Y4423883D01*
X2530140Y4379343D01*
X2468900Y4318103D01*
G37*
G36*
X2302900Y4535103D02*
X2258360Y4579643D01*
X2319600Y4640883D01*
X2364140Y4596343D01*
X2302900Y4535103D01*
G37*
G54D15*
X1872580Y3967923D02*
Y3985643D01*
X1888330Y3967923D02*
Y3985643D01*
X1904080Y3967923D02*
Y3985643D01*
X1919820Y3967923D02*
Y3985643D01*
X1935570Y3967923D02*
Y3985643D01*
X1951320Y3967923D02*
Y3985643D01*
X1967070Y3967923D02*
Y3985643D01*
X1982820Y3967923D02*
Y3985643D01*
X1998560Y3967923D02*
Y3985643D01*
X2014310Y3967923D02*
Y3985643D01*
X2030060Y3967923D02*
Y3985643D01*
X2045810Y3967923D02*
Y3985643D01*
Y4206113D02*
Y4223833D01*
X2030060Y4206113D02*
Y4223833D01*
X2014310Y4206113D02*
Y4223833D01*
X1998560Y4206113D02*
Y4223833D01*
X1982820Y4206113D02*
Y4223833D01*
X1967070Y4206113D02*
Y4223833D01*
X1951320Y4206113D02*
Y4223833D01*
X1935570Y4206113D02*
Y4223833D01*
X1919820Y4206113D02*
Y4223833D01*
X1904080Y4206113D02*
Y4223833D01*
X1888330Y4206113D02*
Y4223833D01*
X1872580Y4206113D02*
Y4223833D01*
X2069431Y4009263D02*
X2087150D01*
X2069431Y4025003D02*
X2087150D01*
X2069431Y4040753D02*
X2087150D01*
X2069431Y4056503D02*
X2087150D01*
X2069431Y4072253D02*
X2087150D01*
X2069431Y4088003D02*
X2087150D01*
X2069431Y4103743D02*
X2087150D01*
X2069431Y4119493D02*
X2087150D01*
X2069431Y4135243D02*
X2087150D01*
X2069431Y4150993D02*
X2087150D01*
X2069431Y4166743D02*
X2087150D01*
X2069431Y4182483D02*
X2087150D01*
X1831240D02*
X1848960D01*
X1831240Y4166743D02*
X1848960D01*
X1831240Y4150993D02*
X1848960D01*
X1831240Y4135243D02*
X1848960D01*
X1831240Y4119493D02*
X1848960D01*
X1831240Y4103743D02*
X1848960D01*
X1831240Y4088003D02*
X1848960D01*
X1831240Y4072253D02*
X1848960D01*
X1831240Y4056503D02*
X1848960D01*
X1831240Y4040753D02*
X1848960D01*
X1831240Y4025003D02*
X1848960D01*
X1831240Y4009263D02*
X1848960D01*
G54D16*
X1959190Y4095873D03*
G54D17*
X2256645Y3788033D02*
X2268455D01*
X2256645Y3825433D02*
X2268455D01*
X2256645Y3862833D02*
X2268455D01*
X2162155Y3864803D02*
X2173965D01*
X2162155Y3788033D02*
X2173965D01*
G54D18*
X1867930Y4408903D03*
G36*
X2227730Y4489108D02*
X2202675Y4514163D01*
X2227730Y4539218D01*
X2252785Y4514163D01*
X2227730Y4489108D01*
G37*
G36*
X2181760Y4443148D02*
X2156705Y4468203D01*
X2181760Y4493258D01*
X2206815Y4468203D01*
X2181760Y4443148D01*
G37*
G54D19*
X2478330Y3846893D02*
G03X2495360Y3847623I8165J8530D01*
G03X2630260Y4132443I-428428J377274D01*
X2630250Y4132433D02*
G03X2618600Y4146163I-11662J1912D01*
X2600840Y4157973D02*
G03X2612650Y4146163I11810J0D01*
Y4303643D02*
G03X2600840Y4291833I0J-11810D01*
X2618600Y4303643D02*
G03X2630250Y4317363I-2J11808D01*
X2630260D02*
G03X2159390Y4788233I-563330J-92460D01*
Y4788223D02*
G03X2145670Y4776573I-1907J-11658D01*
X2133860Y4758813D02*
G03X2145670Y4770623I0J11810D01*
X1988190D02*
G03X2000000Y4758813I11810J0D01*
X1988190Y4776573D02*
G03X1974460Y4788223I-11809J-1D01*
X1974470Y4788233D02*
G03X1689650Y4653333I92456J-563332D01*
G03X1688920Y4636303I7810J-8865D01*
X1655520Y4602903D02*
G03X1688920Y4636303I16330J17070D01*
X1655520Y4602903D02*
G03X1638500Y4602173I-8160J-8530D01*
G03X1503600Y4317363I428427J-377277D01*
G03X1515250Y4303643I11658J-1907D01*
X1533010Y4291833D02*
G03X1521200Y4303643I-11810J0D01*
Y4146163D02*
G03X1533010Y4157973I0J11810D01*
X1515250Y4146163D02*
G03X1503600Y4132433I1J-11809D01*
Y4132443D02*
G03X1974470Y3661573I563330J92460D01*
X1974460D02*
G03X1988190Y3673223I1912J11662D01*
X2000000Y3690983D02*
G03X1988190Y3679173I0J-11810D01*
X2145670D02*
G03X2133860Y3690983I-11810J0D01*
X2145670Y3673223D02*
G03X2159390Y3661573I11808J2D01*
G03X2444200Y3796473I-92467J563327D01*
G03X2444930Y3813493I-7810J8861D01*
X2478330Y3846893D02*
G03X2444930Y3813493I-16330J-17070D01*
X2612650Y4146163D02*
G01X2618600D01*
X2600840Y4157973D02*
Y4291833D01*
X2612650Y4303643D02*
X2618600D01*
X2145670Y4770623D02*
Y4776573D01*
X2000000Y4758813D02*
X2133860D01*
X1988190Y4770623D02*
Y4776573D01*
X1515250Y4303643D02*
X1521200D01*
X1533010Y4157973D02*
Y4291833D01*
X1515250Y4146163D02*
X1521200D01*
X1988190Y3673223D02*
Y3679173D01*
X2000000Y3690983D02*
X2133860D01*
X2145670Y3673223D02*
Y3679173D01*
G36*
X2292135Y5697485D02*
X2267080Y5672430D01*
X2242025Y5697485D01*
X2267080Y5722540D01*
X2292135Y5697485D01*
G37*
G36*
X2338095Y5651525D02*
X2313040Y5626470D01*
X2287985Y5651525D01*
X2313040Y5676580D01*
X2338095Y5651525D01*
G37*
G36*
X2222135Y5632485D02*
X2197080Y5607430D01*
X2172025Y5632485D01*
X2197080Y5657540D01*
X2222135Y5632485D01*
G37*
G36*
X2268095Y5586525D02*
X2243040Y5561470D01*
X2217985Y5586525D01*
X2243040Y5611580D01*
X2268095Y5586525D01*
G37*
G54D10*
X2375415Y5244505D02*
X2379345D01*
X2414785D02*
X2418715D01*
X1905645Y5124375D02*
X1909575D01*
X1866275D02*
X1870205D01*
X2309806Y5166685D02*
X2313735D01*
X2270435D02*
X2274365D01*
X2035835Y5614075D02*
X2039765D01*
X2075206D02*
X2079135D01*
X1994206Y5613075D02*
X1998135D01*
X1954835D02*
X1958765D01*
X1721535Y5695325D02*
X1725465D01*
X1760906D02*
X1764835D01*
X1801906Y5596325D02*
X1805835D01*
X1762535D02*
X1766465D01*
X1747525Y5495945D02*
X1751455D01*
X1708156D02*
X1712085D01*
X1889525D02*
X1893455D01*
X1850156D02*
X1854085D01*
X1803835Y5161075D02*
X1807765D01*
X1843206D02*
X1847135D01*
X1740535Y5444325D02*
X1744465D01*
X1779906D02*
X1783835D01*
X2069206Y5506075D02*
X2073135D01*
X2029835D02*
X2033765D01*
X2030156Y5533945D02*
X2034085D01*
X2069525D02*
X2073455D01*
X2293415Y5482505D02*
X2297345D01*
X2332785D02*
X2336715D01*
X2075195Y5663505D02*
X2079125D01*
X2035825D02*
X2039755D01*
G54D11*
X2425560Y5291505D03*
X2360560D03*
X2348560Y5539505D03*
X2283560D03*
G54D12*
X1908215Y4955315D02*
X1943645D01*
X1908215Y5073425D02*
X1943645D01*
G54D13*
X2249055Y5220995D02*
X2250045D01*
X2249055Y5240675D02*
X2250045D01*
X2308115D02*
X2309105D01*
X2308115Y5220995D02*
X2309105D01*
X2249560Y5259870D02*
Y5260860D01*
X2269240Y5259870D02*
Y5260860D01*
X2288930Y5259870D02*
Y5260860D01*
X2308610Y5259870D02*
Y5260860D01*
Y5200810D02*
Y5201800D01*
X2288930Y5200810D02*
Y5201800D01*
X2269240Y5200810D02*
Y5201800D01*
X2249560Y5200810D02*
Y5201800D01*
G54D14*
X1628250Y5619465D03*
G54D10*
X2114930Y5653780D02*
Y5657710D01*
Y5614410D02*
Y5618340D01*
X1764180Y5624680D02*
Y5628610D01*
Y5664050D02*
Y5667980D01*
Y5525680D02*
Y5529610D01*
Y5565050D02*
Y5568980D01*
X1853250Y5519810D02*
Y5523740D01*
Y5559180D02*
Y5563110D01*
X2051930Y5117870D02*
Y5121800D01*
Y5157240D02*
Y5161170D01*
X2214080Y5248040D02*
Y5251970D01*
Y5287410D02*
Y5291340D01*
X2350930Y5205350D02*
Y5209280D01*
Y5165980D02*
Y5169910D01*
X2297060Y5027850D02*
Y5031780D01*
Y5067220D02*
Y5071150D01*
X2128060Y5036860D02*
Y5040790D01*
Y5076230D02*
Y5080160D01*
X2008930Y5154090D02*
Y5158020D01*
Y5114720D02*
Y5118650D01*
X1816550Y5495945D02*
X1822450D01*
X1779150D02*
X1785050D01*
X1996550Y5523945D02*
X2002450D01*
X1959150D02*
X1965050D01*
X1958550Y5495945D02*
X1964450D01*
X1921150D02*
X1927050D01*
G36*
X1690570Y5325925D02*
X1707270Y5342625D01*
X1721190Y5328705D01*
X1704490Y5312005D01*
X1690570Y5325925D01*
G37*
G36*
X1718410Y5353765D02*
X1735110Y5370465D01*
X1749031Y5356545D01*
X1732331Y5339845D01*
X1718410Y5353765D01*
G37*
G36*
X1741410Y5329765D02*
X1758110Y5346465D01*
X1772031Y5332545D01*
X1755331Y5315845D01*
X1741410Y5329765D01*
G37*
G36*
X1713570Y5301925D02*
X1730270Y5318625D01*
X1744190Y5304705D01*
X1727490Y5288005D01*
X1713570Y5301925D01*
G37*
G36*
X1587410Y5485765D02*
X1604110Y5502465D01*
X1618031Y5488545D01*
X1601331Y5471845D01*
X1587410Y5485765D01*
G37*
G36*
X1559570Y5457925D02*
X1576270Y5474625D01*
X1590190Y5460705D01*
X1573490Y5444005D01*
X1559570Y5457925D01*
G37*
G36*
X2149520Y5732645D02*
X2166220Y5749345D01*
X2180140Y5735425D01*
X2163440Y5718725D01*
X2149520Y5732645D01*
G37*
G36*
X2177360Y5760485D02*
X2194060Y5777185D01*
X2207981Y5763265D01*
X2191281Y5746565D01*
X2177360Y5760485D01*
G37*
G36*
X1560990Y5410105D02*
X1594400Y5443515D01*
X1633370Y5404545D01*
X1599960Y5371135D01*
X1560990Y5410105D01*
G37*
G36*
X1619450Y5351645D02*
X1652860Y5385055D01*
X1691830Y5346085D01*
X1658420Y5312675D01*
X1619450Y5351645D01*
G37*
G36*
X1661210Y5393405D02*
X1694620Y5426815D01*
X1733590Y5387845D01*
X1700180Y5354435D01*
X1661210Y5393405D01*
G37*
G36*
X1602750Y5451865D02*
X1636160Y5485275D01*
X1675130Y5446305D01*
X1641720Y5412895D01*
X1602750Y5451865D01*
G37*
G54D11*
X2340060Y5050005D03*
Y5115005D03*
X2085060Y5009005D03*
Y5074005D03*
G36*
X2421140Y5628505D02*
X2387730Y5661915D01*
X2448980Y5723165D01*
X2482390Y5689755D01*
X2421140Y5628505D01*
G37*
G36*
X2366140Y5686175D02*
X2332730Y5719585D01*
X2393980Y5780835D01*
X2427390Y5747425D01*
X2366140Y5686175D01*
G37*
G36*
X1702680Y5134355D02*
X1658140Y5178895D01*
X1713820Y5234575D01*
X1758360Y5190035D01*
X1702680Y5134355D01*
G37*
G36*
X1795900Y5038575D02*
X1751360Y5083115D01*
X1812600Y5144355D01*
X1857140Y5099815D01*
X1795900Y5038575D01*
G37*
G36*
X2468900Y5538575D02*
X2424360Y5583115D01*
X2485600Y5644355D01*
X2530140Y5599815D01*
X2468900Y5538575D01*
G37*
G36*
X2302900Y5755575D02*
X2258360Y5800115D01*
X2319600Y5861355D01*
X2364140Y5816815D01*
X2302900Y5755575D01*
G37*
G54D15*
X1872580Y5188395D02*
Y5206115D01*
X1888330Y5188395D02*
Y5206115D01*
X1904080Y5188395D02*
Y5206115D01*
X1919820Y5188395D02*
Y5206115D01*
X1935570Y5188395D02*
Y5206115D01*
X1951320Y5188395D02*
Y5206115D01*
X1967070Y5188395D02*
Y5206115D01*
X1982820Y5188395D02*
Y5206115D01*
X1998560Y5188395D02*
Y5206115D01*
X2014310Y5188395D02*
Y5206115D01*
X2030060Y5188395D02*
Y5206115D01*
X2045810Y5188395D02*
Y5206115D01*
Y5426585D02*
Y5444305D01*
X2030060Y5426585D02*
Y5444305D01*
X2014310Y5426585D02*
Y5444305D01*
X1998560Y5426585D02*
Y5444305D01*
X1982820Y5426585D02*
Y5444305D01*
X1967070Y5426585D02*
Y5444305D01*
X1951320Y5426585D02*
Y5444305D01*
X1935570Y5426585D02*
Y5444305D01*
X1919820Y5426585D02*
Y5444305D01*
X1904080Y5426585D02*
Y5444305D01*
X1888330Y5426585D02*
Y5444305D01*
X1872580Y5426585D02*
Y5444305D01*
X2069431Y5229735D02*
X2087150D01*
X2069431Y5245475D02*
X2087150D01*
X2069431Y5261225D02*
X2087150D01*
X2069431Y5276975D02*
X2087150D01*
X2069431Y5292725D02*
X2087150D01*
X2069431Y5308475D02*
X2087150D01*
X2069431Y5324215D02*
X2087150D01*
X2069431Y5339965D02*
X2087150D01*
X2069431Y5355715D02*
X2087150D01*
X2069431Y5371465D02*
X2087150D01*
X2069431Y5387215D02*
X2087150D01*
X2069431Y5402955D02*
X2087150D01*
X1831240D02*
X1848960D01*
X1831240Y5387215D02*
X1848960D01*
X1831240Y5371465D02*
X1848960D01*
X1831240Y5355715D02*
X1848960D01*
X1831240Y5339965D02*
X1848960D01*
X1831240Y5324215D02*
X1848960D01*
X1831240Y5308475D02*
X1848960D01*
X1831240Y5292725D02*
X1848960D01*
X1831240Y5276975D02*
X1848960D01*
X1831240Y5261225D02*
X1848960D01*
X1831240Y5245475D02*
X1848960D01*
X1831240Y5229735D02*
X1848960D01*
G54D16*
X1959190Y5316345D03*
G54D17*
X2256645Y5008505D02*
X2268455D01*
X2256645Y5045905D02*
X2268455D01*
X2256645Y5083305D02*
X2268455D01*
X2162155Y5085275D02*
X2173965D01*
X2162155Y5008505D02*
X2173965D01*
G54D18*
X1867930Y5629375D03*
G36*
X2227730Y5709580D02*
X2202675Y5734635D01*
X2227730Y5759690D01*
X2252785Y5734635D01*
X2227730Y5709580D01*
G37*
G36*
X2181760Y5663620D02*
X2156705Y5688675D01*
X2181760Y5713730D01*
X2206815Y5688675D01*
X2181760Y5663620D01*
G37*
G54D19*
X2478330Y5067365D02*
G03X2495360Y5068095I8165J8530D01*
G03X2630260Y5352915I-428428J377274D01*
X2630250Y5352905D02*
G03X2618600Y5366635I-11662J1912D01*
X2600840Y5378445D02*
G03X2612650Y5366635I11810J0D01*
Y5524115D02*
G03X2600840Y5512305I0J-11810D01*
X2618600Y5524115D02*
G03X2630250Y5537835I-2J11808D01*
X2630260D02*
G03X2159390Y6008705I-563330J-92460D01*
Y6008695D02*
G03X2145670Y5997045I-1907J-11658D01*
X2133860Y5979285D02*
G03X2145670Y5991095I0J11810D01*
X1988190D02*
G03X2000000Y5979285I11810J0D01*
X1988190Y5997045D02*
G03X1974460Y6008695I-11809J-1D01*
X1974470Y6008705D02*
G03X1689650Y5873805I92456J-563332D01*
G03X1688920Y5856775I7810J-8865D01*
X1655520Y5823375D02*
G03X1688920Y5856775I16330J17070D01*
X1655520Y5823375D02*
G03X1638500Y5822645I-8160J-8530D01*
G03X1503600Y5537835I428427J-377277D01*
G03X1515250Y5524115I11658J-1907D01*
X1533010Y5512305D02*
G03X1521200Y5524115I-11810J0D01*
Y5366635D02*
G03X1533010Y5378445I0J11810D01*
X1515250Y5366635D02*
G03X1503600Y5352905I1J-11809D01*
Y5352915D02*
G03X1974470Y4882045I563330J92460D01*
X1974460D02*
G03X1988190Y4893695I1912J11662D01*
X2000000Y4911455D02*
G03X1988190Y4899645I0J-11810D01*
X2145670D02*
G03X2133860Y4911455I-11810J0D01*
X2145670Y4893695D02*
G03X2159390Y4882045I11808J2D01*
G03X2444200Y5016945I-92467J563327D01*
G03X2444930Y5033965I-7810J8861D01*
X2478330Y5067365D02*
G03X2444930Y5033965I-16330J-17070D01*
X2612650Y5366635D02*
G01X2618600D01*
X2600840Y5378445D02*
Y5512305D01*
X2612650Y5524115D02*
X2618600D01*
X2145670Y5991095D02*
Y5997045D01*
X2000000Y5979285D02*
X2133860D01*
X1988190Y5991095D02*
Y5997045D01*
X1515250Y5524115D02*
X1521200D01*
X1533010Y5378445D02*
Y5512305D01*
X1515250Y5366635D02*
X1521200D01*
X1988190Y4893695D02*
Y4899645D01*
X2000000Y4911455D02*
X2133860D01*
X2145670Y4893695D02*
Y4899645D01*
G36*
X3512608Y815595D02*
X3487553Y790540D01*
X3462498Y815595D01*
X3487553Y840650D01*
X3512608Y815595D01*
G37*
G36*
X3558568Y769635D02*
X3533513Y744580D01*
X3508458Y769635D01*
X3533513Y794690D01*
X3558568Y769635D01*
G37*
G36*
X3442608Y750595D02*
X3417553Y725540D01*
X3392498Y750595D01*
X3417553Y775650D01*
X3442608Y750595D01*
G37*
G36*
X3488568Y704635D02*
X3463513Y679580D01*
X3438458Y704635D01*
X3463513Y729690D01*
X3488568Y704635D01*
G37*
G54D10*
X3595888Y362615D02*
X3599818D01*
X3635258D02*
X3639188D01*
X3126118Y242485D02*
X3130048D01*
X3086748D02*
X3090678D01*
X3530278Y284795D02*
X3534208D01*
X3490908D02*
X3494838D01*
X3256308Y732185D02*
X3260238D01*
X3295678D02*
X3299608D01*
X3214678Y731185D02*
X3218608D01*
X3175308D02*
X3179238D01*
X2942008Y813435D02*
X2945938D01*
X2981378D02*
X2985308D01*
X3022378Y714435D02*
X3026308D01*
X2983008D02*
X2986938D01*
X2967998Y614055D02*
X2971928D01*
X2928628D02*
X2932558D01*
X3109998D02*
X3113928D01*
X3070628D02*
X3074558D01*
X3024308Y279185D02*
X3028238D01*
X3063678D02*
X3067608D01*
X2961008Y562435D02*
X2964938D01*
X3000378D02*
X3004308D01*
X3289678Y624185D02*
X3293608D01*
X3250308D02*
X3254238D01*
X3250628Y652055D02*
X3254558D01*
X3289998D02*
X3293928D01*
X3513888Y600615D02*
X3517818D01*
X3553258D02*
X3557188D01*
X3295668Y781615D02*
X3299598D01*
X3256298D02*
X3260228D01*
G54D11*
X3646033Y409615D03*
X3581033D03*
X3569033Y657615D03*
X3504033D03*
G54D12*
X3128688Y73425D02*
X3164118D01*
X3128688Y191535D02*
X3164118D01*
G54D13*
X3469528Y339105D02*
X3470518D01*
X3469528Y358785D02*
X3470518D01*
X3528588D02*
X3529578D01*
X3528588Y339105D02*
X3529578D01*
X3470033Y377980D02*
Y378970D01*
X3489713Y377980D02*
Y378970D01*
X3509403Y377980D02*
Y378970D01*
X3529083Y377980D02*
Y378970D01*
Y318920D02*
Y319910D01*
X3509403Y318920D02*
Y319910D01*
X3489713Y318920D02*
Y319910D01*
X3470033Y318920D02*
Y319910D01*
G54D14*
X2848723Y737575D03*
G54D10*
X3335403Y771890D02*
Y775820D01*
Y732520D02*
Y736450D01*
X2984653Y742790D02*
Y746720D01*
Y782160D02*
Y786090D01*
Y643790D02*
Y647720D01*
Y683160D02*
Y687090D01*
X3073723Y637920D02*
Y641850D01*
Y677290D02*
Y681220D01*
X3272403Y235980D02*
Y239910D01*
Y275350D02*
Y279280D01*
X3434553Y366150D02*
Y370080D01*
Y405520D02*
Y409450D01*
X3571403Y323460D02*
Y327390D01*
Y284090D02*
Y288020D01*
X3517533Y145960D02*
Y149890D01*
Y185330D02*
Y189260D01*
X3348533Y154970D02*
Y158900D01*
Y194340D02*
Y198270D01*
X3229403Y272200D02*
Y276130D01*
Y232830D02*
Y236760D01*
X3037023Y614055D02*
X3042923D01*
X2999623D02*
X3005523D01*
X3217023Y642055D02*
X3222923D01*
X3179623D02*
X3185523D01*
X3179023Y614055D02*
X3184923D01*
X3141623D02*
X3147523D01*
G36*
X2911043Y444035D02*
X2927743Y460735D01*
X2941663Y446815D01*
X2924963Y430115D01*
X2911043Y444035D01*
G37*
G36*
X2938883Y471875D02*
X2955583Y488575D01*
X2969503Y474655D01*
X2952803Y457955D01*
X2938883Y471875D01*
G37*
G36*
X2961883Y447875D02*
X2978583Y464575D01*
X2992503Y450655D01*
X2975803Y433955D01*
X2961883Y447875D01*
G37*
G36*
X2934043Y420035D02*
X2950743Y436735D01*
X2964663Y422815D01*
X2947963Y406115D01*
X2934043Y420035D01*
G37*
G36*
X2807883Y603875D02*
X2824583Y620575D01*
X2838503Y606655D01*
X2821803Y589955D01*
X2807883Y603875D01*
G37*
G36*
X2780043Y576035D02*
X2796743Y592735D01*
X2810663Y578815D01*
X2793963Y562115D01*
X2780043Y576035D01*
G37*
G36*
X3369993Y850755D02*
X3386693Y867455D01*
X3400613Y853535D01*
X3383913Y836835D01*
X3369993Y850755D01*
G37*
G36*
X3397833Y878595D02*
X3414533Y895295D01*
X3428453Y881375D01*
X3411753Y864675D01*
X3397833Y878595D01*
G37*
G36*
X2781463Y528215D02*
X2814873Y561625D01*
X2853843Y522655D01*
X2820433Y489245D01*
X2781463Y528215D01*
G37*
G36*
X2839923Y469755D02*
X2873333Y503165D01*
X2912303Y464195D01*
X2878893Y430785D01*
X2839923Y469755D01*
G37*
G36*
X2881683Y511515D02*
X2915093Y544925D01*
X2954063Y505955D01*
X2920653Y472545D01*
X2881683Y511515D01*
G37*
G36*
X2823223Y569975D02*
X2856633Y603385D01*
X2895603Y564415D01*
X2862193Y531005D01*
X2823223Y569975D01*
G37*
G54D11*
X3560533Y168115D03*
Y233115D03*
X3305533Y127115D03*
Y192115D03*
G36*
X3641613Y746615D02*
X3608203Y780025D01*
X3669453Y841275D01*
X3702863Y807865D01*
X3641613Y746615D01*
G37*
G36*
X3586613Y804285D02*
X3553203Y837695D01*
X3614453Y898945D01*
X3647863Y865535D01*
X3586613Y804285D01*
G37*
G36*
X2923153Y252465D02*
X2878613Y297005D01*
X2934293Y352685D01*
X2978833Y308145D01*
X2923153Y252465D01*
G37*
G36*
X3016373Y156685D02*
X2971833Y201225D01*
X3033073Y262465D01*
X3077613Y217925D01*
X3016373Y156685D01*
G37*
G36*
X3689373Y656685D02*
X3644833Y701225D01*
X3706073Y762465D01*
X3750613Y717925D01*
X3689373Y656685D01*
G37*
G36*
X3523373Y873685D02*
X3478833Y918225D01*
X3540073Y979465D01*
X3584613Y934925D01*
X3523373Y873685D01*
G37*
G54D15*
X3093053Y306505D02*
Y324225D01*
X3108803Y306505D02*
Y324225D01*
X3124553Y306505D02*
Y324225D01*
X3140293Y306505D02*
Y324225D01*
X3156043Y306505D02*
Y324225D01*
X3171793Y306505D02*
Y324225D01*
X3187543Y306505D02*
Y324225D01*
X3203293Y306505D02*
Y324225D01*
X3219033Y306505D02*
Y324225D01*
X3234783Y306505D02*
Y324225D01*
X3250533Y306505D02*
Y324225D01*
X3266283Y306505D02*
Y324225D01*
Y544695D02*
Y562415D01*
X3250533Y544695D02*
Y562415D01*
X3234783Y544695D02*
Y562415D01*
X3219033Y544695D02*
Y562415D01*
X3203293Y544695D02*
Y562415D01*
X3187543Y544695D02*
Y562415D01*
X3171793Y544695D02*
Y562415D01*
X3156043Y544695D02*
Y562415D01*
X3140293Y544695D02*
Y562415D01*
X3124553Y544695D02*
Y562415D01*
X3108803Y544695D02*
Y562415D01*
X3093053Y544695D02*
Y562415D01*
X3289903Y347845D02*
X3307623D01*
X3289903Y363585D02*
X3307623D01*
X3289903Y379335D02*
X3307623D01*
X3289903Y395085D02*
X3307623D01*
X3289903Y410835D02*
X3307623D01*
X3289903Y426585D02*
X3307623D01*
X3289903Y442325D02*
X3307623D01*
X3289903Y458075D02*
X3307623D01*
X3289903Y473825D02*
X3307623D01*
X3289903Y489575D02*
X3307623D01*
X3289903Y505325D02*
X3307623D01*
X3289903Y521065D02*
X3307623D01*
X3051713D02*
X3069433D01*
X3051713Y505325D02*
X3069433D01*
X3051713Y489575D02*
X3069433D01*
X3051713Y473825D02*
X3069433D01*
X3051713Y458075D02*
X3069433D01*
X3051713Y442325D02*
X3069433D01*
X3051713Y426585D02*
X3069433D01*
X3051713Y410835D02*
X3069433D01*
X3051713Y395085D02*
X3069433D01*
X3051713Y379335D02*
X3069433D01*
X3051713Y363585D02*
X3069433D01*
X3051713Y347845D02*
X3069433D01*
G54D16*
X3179663Y434455D03*
G54D17*
X3477118Y126615D02*
X3488928D01*
X3477118Y164015D02*
X3488928D01*
X3477118Y201415D02*
X3488928D01*
X3382628Y203385D02*
X3394438D01*
X3382628Y126615D02*
X3394438D01*
G54D18*
X3088403Y747485D03*
G36*
X3448203Y827690D02*
X3423148Y852745D01*
X3448203Y877800D01*
X3473258Y852745D01*
X3448203Y827690D01*
G37*
G36*
X3402233Y781730D02*
X3377178Y806785D01*
X3402233Y831840D01*
X3427288Y806785D01*
X3402233Y781730D01*
G37*
G54D19*
X3698803Y185475D02*
G03X3715833Y186205I8165J8530D01*
G03X3850733Y471025I-428428J377274D01*
X3850723Y471015D02*
G03X3839073Y484745I-11662J1912D01*
X3821313Y496555D02*
G03X3833123Y484745I11810J0D01*
Y642225D02*
G03X3821313Y630415I0J-11810D01*
X3839073Y642225D02*
G03X3850723Y655945I-2J11808D01*
X3850733D02*
G03X3379863Y1126815I-563330J-92460D01*
Y1126805D02*
G03X3366143Y1115155I-1907J-11658D01*
X3354333Y1097395D02*
G03X3366143Y1109205I0J11810D01*
X3208663D02*
G03X3220473Y1097395I11810J0D01*
X3208663Y1115155D02*
G03X3194933Y1126805I-11809J-1D01*
X3194943Y1126815D02*
G03X2910123Y991915I92456J-563332D01*
G03X2909393Y974885I7810J-8865D01*
X2875993Y941485D02*
G03X2909393Y974885I16330J17070D01*
X2875993Y941485D02*
G03X2858973Y940755I-8160J-8530D01*
G03X2724073Y655945I428427J-377277D01*
G03X2735723Y642225I11658J-1907D01*
X2753483Y630415D02*
G03X2741673Y642225I-11810J0D01*
Y484745D02*
G03X2753483Y496555I0J11810D01*
X2735723Y484745D02*
G03X2724073Y471015I1J-11809D01*
Y471025D02*
G03X3194943Y155I563330J92460D01*
X3194933D02*
G03X3208663Y11805I1912J11662D01*
X3220473Y29565D02*
G03X3208663Y17755I0J-11810D01*
X3366143D02*
G03X3354333Y29565I-11810J0D01*
X3366143Y11805D02*
G03X3379863Y155I11808J2D01*
G03X3664673Y135055I-92467J563327D01*
G03X3665403Y152075I-7810J8861D01*
X3698803Y185475D02*
G03X3665403Y152075I-16330J-17070D01*
X3833123Y484745D02*
G01X3839073D01*
X3821313Y496555D02*
Y630415D01*
X3833123Y642225D02*
X3839073D01*
X3366143Y1109205D02*
Y1115155D01*
X3220473Y1097395D02*
X3354333D01*
X3208663Y1109205D02*
Y1115155D01*
X2735723Y642225D02*
X2741673D01*
X2753483Y496555D02*
Y630415D01*
X2735723Y484745D02*
X2741673D01*
X3208663Y11805D02*
Y17755D01*
X3220473Y29565D02*
X3354333D01*
X3366143Y11805D02*
Y17755D01*
G36*
X3512608Y2036068D02*
X3487553Y2011013D01*
X3462498Y2036068D01*
X3487553Y2061123D01*
X3512608Y2036068D01*
G37*
G36*
X3558568Y1990108D02*
X3533513Y1965053D01*
X3508458Y1990108D01*
X3533513Y2015163D01*
X3558568Y1990108D01*
G37*
G36*
X3442608Y1971068D02*
X3417553Y1946013D01*
X3392498Y1971068D01*
X3417553Y1996123D01*
X3442608Y1971068D01*
G37*
G36*
X3488568Y1925108D02*
X3463513Y1900053D01*
X3438458Y1925108D01*
X3463513Y1950163D01*
X3488568Y1925108D01*
G37*
G54D10*
X3595888Y1583088D02*
X3599818D01*
X3635258D02*
X3639188D01*
X3126118Y1462958D02*
X3130048D01*
X3086748D02*
X3090678D01*
X3530278Y1505268D02*
X3534208D01*
X3490908D02*
X3494838D01*
X3256308Y1952658D02*
X3260238D01*
X3295678D02*
X3299608D01*
X3214678Y1951658D02*
X3218608D01*
X3175308D02*
X3179238D01*
X2942008Y2033908D02*
X2945938D01*
X2981378D02*
X2985308D01*
X3022378Y1934908D02*
X3026308D01*
X2983008D02*
X2986938D01*
X2967998Y1834528D02*
X2971928D01*
X2928628D02*
X2932558D01*
X3109998D02*
X3113928D01*
X3070628D02*
X3074558D01*
X3024308Y1499658D02*
X3028238D01*
X3063678D02*
X3067608D01*
X2961008Y1782908D02*
X2964938D01*
X3000378D02*
X3004308D01*
X3289678Y1844658D02*
X3293608D01*
X3250308D02*
X3254238D01*
X3250628Y1872528D02*
X3254558D01*
X3289998D02*
X3293928D01*
X3513888Y1821088D02*
X3517818D01*
X3553258D02*
X3557188D01*
X3295668Y2002088D02*
X3299598D01*
X3256298D02*
X3260228D01*
G54D11*
X3646033Y1630088D03*
X3581033D03*
X3569033Y1878088D03*
X3504033D03*
G54D12*
X3128688Y1293898D02*
X3164118D01*
X3128688Y1412008D02*
X3164118D01*
G54D13*
X3469528Y1559578D02*
X3470518D01*
X3469528Y1579258D02*
X3470518D01*
X3528588D02*
X3529578D01*
X3528588Y1559578D02*
X3529578D01*
X3470033Y1598453D02*
Y1599443D01*
X3489713Y1598453D02*
Y1599443D01*
X3509403Y1598453D02*
Y1599443D01*
X3529083Y1598453D02*
Y1599443D01*
Y1539393D02*
Y1540383D01*
X3509403Y1539393D02*
Y1540383D01*
X3489713Y1539393D02*
Y1540383D01*
X3470033Y1539393D02*
Y1540383D01*
G54D14*
X2848723Y1958048D03*
G54D10*
X3335403Y1992363D02*
Y1996293D01*
Y1952993D02*
Y1956923D01*
X2984653Y1963263D02*
Y1967193D01*
Y2002633D02*
Y2006563D01*
Y1864263D02*
Y1868193D01*
Y1903633D02*
Y1907563D01*
X3073723Y1858393D02*
Y1862323D01*
Y1897763D02*
Y1901693D01*
X3272403Y1456453D02*
Y1460383D01*
Y1495823D02*
Y1499753D01*
X3434553Y1586623D02*
Y1590553D01*
Y1625993D02*
Y1629923D01*
X3571403Y1543933D02*
Y1547863D01*
Y1504563D02*
Y1508493D01*
X3517533Y1366433D02*
Y1370363D01*
Y1405803D02*
Y1409733D01*
X3348533Y1375443D02*
Y1379373D01*
Y1414813D02*
Y1418743D01*
X3229403Y1492673D02*
Y1496603D01*
Y1453303D02*
Y1457233D01*
X3037023Y1834528D02*
X3042923D01*
X2999623D02*
X3005523D01*
X3217023Y1862528D02*
X3222923D01*
X3179623D02*
X3185523D01*
X3179023Y1834528D02*
X3184923D01*
X3141623D02*
X3147523D01*
G36*
X2911043Y1664508D02*
X2927743Y1681208D01*
X2941663Y1667288D01*
X2924963Y1650588D01*
X2911043Y1664508D01*
G37*
G36*
X2938883Y1692348D02*
X2955583Y1709048D01*
X2969503Y1695128D01*
X2952803Y1678428D01*
X2938883Y1692348D01*
G37*
G36*
X2961883Y1668348D02*
X2978583Y1685048D01*
X2992503Y1671128D01*
X2975803Y1654428D01*
X2961883Y1668348D01*
G37*
G36*
X2934043Y1640508D02*
X2950743Y1657208D01*
X2964663Y1643288D01*
X2947963Y1626588D01*
X2934043Y1640508D01*
G37*
G36*
X2807883Y1824348D02*
X2824583Y1841048D01*
X2838503Y1827128D01*
X2821803Y1810428D01*
X2807883Y1824348D01*
G37*
G36*
X2780043Y1796508D02*
X2796743Y1813208D01*
X2810663Y1799288D01*
X2793963Y1782588D01*
X2780043Y1796508D01*
G37*
G36*
X3369993Y2071228D02*
X3386693Y2087928D01*
X3400613Y2074008D01*
X3383913Y2057308D01*
X3369993Y2071228D01*
G37*
G36*
X3397833Y2099068D02*
X3414533Y2115768D01*
X3428453Y2101848D01*
X3411753Y2085148D01*
X3397833Y2099068D01*
G37*
G36*
X2781463Y1748688D02*
X2814873Y1782098D01*
X2853843Y1743128D01*
X2820433Y1709718D01*
X2781463Y1748688D01*
G37*
G36*
X2839923Y1690228D02*
X2873333Y1723638D01*
X2912303Y1684668D01*
X2878893Y1651258D01*
X2839923Y1690228D01*
G37*
G36*
X2881683Y1731988D02*
X2915093Y1765398D01*
X2954063Y1726428D01*
X2920653Y1693018D01*
X2881683Y1731988D01*
G37*
G36*
X2823223Y1790448D02*
X2856633Y1823858D01*
X2895603Y1784888D01*
X2862193Y1751478D01*
X2823223Y1790448D01*
G37*
G54D11*
X3560533Y1388588D03*
Y1453588D03*
X3305533Y1347588D03*
Y1412588D03*
G36*
X3641613Y1967088D02*
X3608203Y2000498D01*
X3669453Y2061748D01*
X3702863Y2028338D01*
X3641613Y1967088D01*
G37*
G36*
X3586613Y2024758D02*
X3553203Y2058168D01*
X3614453Y2119418D01*
X3647863Y2086008D01*
X3586613Y2024758D01*
G37*
G36*
X2923153Y1472938D02*
X2878613Y1517478D01*
X2934293Y1573158D01*
X2978833Y1528618D01*
X2923153Y1472938D01*
G37*
G36*
X3016373Y1377158D02*
X2971833Y1421698D01*
X3033073Y1482938D01*
X3077613Y1438398D01*
X3016373Y1377158D01*
G37*
G36*
X3689373Y1877158D02*
X3644833Y1921698D01*
X3706073Y1982938D01*
X3750613Y1938398D01*
X3689373Y1877158D01*
G37*
G36*
X3523373Y2094158D02*
X3478833Y2138698D01*
X3540073Y2199938D01*
X3584613Y2155398D01*
X3523373Y2094158D01*
G37*
G54D15*
X3093053Y1526978D02*
Y1544698D01*
X3108803Y1526978D02*
Y1544698D01*
X3124553Y1526978D02*
Y1544698D01*
X3140293Y1526978D02*
Y1544698D01*
X3156043Y1526978D02*
Y1544698D01*
X3171793Y1526978D02*
Y1544698D01*
X3187543Y1526978D02*
Y1544698D01*
X3203293Y1526978D02*
Y1544698D01*
X3219033Y1526978D02*
Y1544698D01*
X3234783Y1526978D02*
Y1544698D01*
X3250533Y1526978D02*
Y1544698D01*
X3266283Y1526978D02*
Y1544698D01*
Y1765168D02*
Y1782888D01*
X3250533Y1765168D02*
Y1782888D01*
X3234783Y1765168D02*
Y1782888D01*
X3219033Y1765168D02*
Y1782888D01*
X3203293Y1765168D02*
Y1782888D01*
X3187543Y1765168D02*
Y1782888D01*
X3171793Y1765168D02*
Y1782888D01*
X3156043Y1765168D02*
Y1782888D01*
X3140293Y1765168D02*
Y1782888D01*
X3124553Y1765168D02*
Y1782888D01*
X3108803Y1765168D02*
Y1782888D01*
X3093053Y1765168D02*
Y1782888D01*
X3289903Y1568318D02*
X3307623D01*
X3289903Y1584058D02*
X3307623D01*
X3289903Y1599808D02*
X3307623D01*
X3289903Y1615558D02*
X3307623D01*
X3289903Y1631308D02*
X3307623D01*
X3289903Y1647058D02*
X3307623D01*
X3289903Y1662798D02*
X3307623D01*
X3289903Y1678548D02*
X3307623D01*
X3289903Y1694298D02*
X3307623D01*
X3289903Y1710048D02*
X3307623D01*
X3289903Y1725798D02*
X3307623D01*
X3289903Y1741538D02*
X3307623D01*
X3051713D02*
X3069433D01*
X3051713Y1725798D02*
X3069433D01*
X3051713Y1710048D02*
X3069433D01*
X3051713Y1694298D02*
X3069433D01*
X3051713Y1678548D02*
X3069433D01*
X3051713Y1662798D02*
X3069433D01*
X3051713Y1647058D02*
X3069433D01*
X3051713Y1631308D02*
X3069433D01*
X3051713Y1615558D02*
X3069433D01*
X3051713Y1599808D02*
X3069433D01*
X3051713Y1584058D02*
X3069433D01*
X3051713Y1568318D02*
X3069433D01*
G54D16*
X3179663Y1654928D03*
G54D17*
X3477118Y1347088D02*
X3488928D01*
X3477118Y1384488D02*
X3488928D01*
X3477118Y1421888D02*
X3488928D01*
X3382628Y1423858D02*
X3394438D01*
X3382628Y1347088D02*
X3394438D01*
G54D18*
X3088403Y1967958D03*
G36*
X3448203Y2048163D02*
X3423148Y2073218D01*
X3448203Y2098273D01*
X3473258Y2073218D01*
X3448203Y2048163D01*
G37*
G36*
X3402233Y2002203D02*
X3377178Y2027258D01*
X3402233Y2052313D01*
X3427288Y2027258D01*
X3402233Y2002203D01*
G37*
G54D19*
X3698803Y1405948D02*
G03X3715833Y1406678I8165J8530D01*
G03X3850733Y1691498I-428428J377274D01*
X3850723Y1691488D02*
G03X3839073Y1705218I-11662J1912D01*
X3821313Y1717028D02*
G03X3833123Y1705218I11810J0D01*
Y1862698D02*
G03X3821313Y1850888I0J-11810D01*
X3839073Y1862698D02*
G03X3850723Y1876418I-2J11808D01*
X3850733D02*
G03X3379863Y2347288I-563330J-92460D01*
Y2347278D02*
G03X3366143Y2335628I-1907J-11658D01*
X3354333Y2317868D02*
G03X3366143Y2329678I0J11810D01*
X3208663D02*
G03X3220473Y2317868I11810J0D01*
X3208663Y2335628D02*
G03X3194933Y2347278I-11809J-1D01*
X3194943Y2347288D02*
G03X2910123Y2212388I92456J-563332D01*
G03X2909393Y2195358I7810J-8865D01*
X2875993Y2161958D02*
G03X2909393Y2195358I16330J17070D01*
X2875993Y2161958D02*
G03X2858973Y2161228I-8160J-8530D01*
G03X2724073Y1876418I428427J-377277D01*
G03X2735723Y1862698I11658J-1907D01*
X2753483Y1850888D02*
G03X2741673Y1862698I-11810J0D01*
Y1705218D02*
G03X2753483Y1717028I0J11810D01*
X2735723Y1705218D02*
G03X2724073Y1691488I1J-11809D01*
Y1691498D02*
G03X3194943Y1220628I563330J92460D01*
X3194933D02*
G03X3208663Y1232278I1912J11662D01*
X3220473Y1250038D02*
G03X3208663Y1238228I0J-11810D01*
X3366143D02*
G03X3354333Y1250038I-11810J0D01*
X3366143Y1232278D02*
G03X3379863Y1220628I11808J2D01*
G03X3664673Y1355528I-92467J563327D01*
G03X3665403Y1372548I-7810J8861D01*
X3698803Y1405948D02*
G03X3665403Y1372548I-16330J-17070D01*
X3833123Y1705218D02*
G01X3839073D01*
X3821313Y1717028D02*
Y1850888D01*
X3833123Y1862698D02*
X3839073D01*
X3366143Y2329678D02*
Y2335628D01*
X3220473Y2317868D02*
X3354333D01*
X3208663Y2329678D02*
Y2335628D01*
X2735723Y1862698D02*
X2741673D01*
X2753483Y1717028D02*
Y1850888D01*
X2735723Y1705218D02*
X2741673D01*
X3208663Y1232278D02*
Y1238228D01*
X3220473Y1250038D02*
X3354333D01*
X3366143Y1232278D02*
Y1238228D01*
G36*
X3512608Y3256540D02*
X3487553Y3231485D01*
X3462498Y3256540D01*
X3487553Y3281595D01*
X3512608Y3256540D01*
G37*
G36*
X3558568Y3210580D02*
X3533513Y3185525D01*
X3508458Y3210580D01*
X3533513Y3235635D01*
X3558568Y3210580D01*
G37*
G36*
X3442608Y3191540D02*
X3417553Y3166485D01*
X3392498Y3191540D01*
X3417553Y3216595D01*
X3442608Y3191540D01*
G37*
G36*
X3488568Y3145580D02*
X3463513Y3120525D01*
X3438458Y3145580D01*
X3463513Y3170635D01*
X3488568Y3145580D01*
G37*
G54D10*
X3595888Y2803560D02*
X3599818D01*
X3635258D02*
X3639188D01*
X3126118Y2683430D02*
X3130048D01*
X3086748D02*
X3090678D01*
X3530278Y2725740D02*
X3534208D01*
X3490908D02*
X3494838D01*
X3256308Y3173130D02*
X3260238D01*
X3295678D02*
X3299608D01*
X3214678Y3172130D02*
X3218608D01*
X3175308D02*
X3179238D01*
X2942008Y3254380D02*
X2945938D01*
X2981378D02*
X2985308D01*
X3022378Y3155380D02*
X3026308D01*
X2983008D02*
X2986938D01*
X2967998Y3055000D02*
X2971928D01*
X2928628D02*
X2932558D01*
X3109998D02*
X3113928D01*
X3070628D02*
X3074558D01*
X3024308Y2720130D02*
X3028238D01*
X3063678D02*
X3067608D01*
X2961008Y3003380D02*
X2964938D01*
X3000378D02*
X3004308D01*
X3289678Y3065130D02*
X3293608D01*
X3250308D02*
X3254238D01*
X3250628Y3093000D02*
X3254558D01*
X3289998D02*
X3293928D01*
X3513888Y3041560D02*
X3517818D01*
X3553258D02*
X3557188D01*
X3295668Y3222560D02*
X3299598D01*
X3256298D02*
X3260228D01*
G54D11*
X3646033Y2850560D03*
X3581033D03*
X3569033Y3098560D03*
X3504033D03*
G54D12*
X3128688Y2514370D02*
X3164118D01*
X3128688Y2632480D02*
X3164118D01*
G54D13*
X3469528Y2780050D02*
X3470518D01*
X3469528Y2799730D02*
X3470518D01*
X3528588D02*
X3529578D01*
X3528588Y2780050D02*
X3529578D01*
X3470033Y2818925D02*
Y2819915D01*
X3489713Y2818925D02*
Y2819915D01*
X3509403Y2818925D02*
Y2819915D01*
X3529083Y2818925D02*
Y2819915D01*
Y2759865D02*
Y2760855D01*
X3509403Y2759865D02*
Y2760855D01*
X3489713Y2759865D02*
Y2760855D01*
X3470033Y2759865D02*
Y2760855D01*
G54D14*
X2848723Y3178520D03*
G54D10*
X3335403Y3212835D02*
Y3216765D01*
Y3173465D02*
Y3177395D01*
X2984653Y3183735D02*
Y3187665D01*
Y3223105D02*
Y3227035D01*
Y3084735D02*
Y3088665D01*
Y3124105D02*
Y3128035D01*
X3073723Y3078865D02*
Y3082795D01*
Y3118235D02*
Y3122165D01*
X3272403Y2676925D02*
Y2680855D01*
Y2716295D02*
Y2720225D01*
X3434553Y2807095D02*
Y2811025D01*
Y2846465D02*
Y2850395D01*
X3571403Y2764405D02*
Y2768335D01*
Y2725035D02*
Y2728965D01*
X3517533Y2586905D02*
Y2590835D01*
Y2626275D02*
Y2630205D01*
X3348533Y2595915D02*
Y2599845D01*
Y2635285D02*
Y2639215D01*
X3229403Y2713145D02*
Y2717075D01*
Y2673775D02*
Y2677705D01*
X3037023Y3055000D02*
X3042923D01*
X2999623D02*
X3005523D01*
X3217023Y3083000D02*
X3222923D01*
X3179623D02*
X3185523D01*
X3179023Y3055000D02*
X3184923D01*
X3141623D02*
X3147523D01*
G36*
X2911043Y2884980D02*
X2927743Y2901680D01*
X2941663Y2887760D01*
X2924963Y2871060D01*
X2911043Y2884980D01*
G37*
G36*
X2938883Y2912820D02*
X2955583Y2929520D01*
X2969503Y2915600D01*
X2952803Y2898900D01*
X2938883Y2912820D01*
G37*
G36*
X2961883Y2888820D02*
X2978583Y2905520D01*
X2992503Y2891600D01*
X2975803Y2874900D01*
X2961883Y2888820D01*
G37*
G36*
X2934043Y2860980D02*
X2950743Y2877680D01*
X2964663Y2863760D01*
X2947963Y2847060D01*
X2934043Y2860980D01*
G37*
G36*
X2807883Y3044820D02*
X2824583Y3061520D01*
X2838503Y3047600D01*
X2821803Y3030900D01*
X2807883Y3044820D01*
G37*
G36*
X2780043Y3016980D02*
X2796743Y3033680D01*
X2810663Y3019760D01*
X2793963Y3003060D01*
X2780043Y3016980D01*
G37*
G36*
X3369993Y3291700D02*
X3386693Y3308400D01*
X3400613Y3294480D01*
X3383913Y3277780D01*
X3369993Y3291700D01*
G37*
G36*
X3397833Y3319540D02*
X3414533Y3336240D01*
X3428453Y3322320D01*
X3411753Y3305620D01*
X3397833Y3319540D01*
G37*
G36*
X2781463Y2969160D02*
X2814873Y3002570D01*
X2853843Y2963600D01*
X2820433Y2930190D01*
X2781463Y2969160D01*
G37*
G36*
X2839923Y2910700D02*
X2873333Y2944110D01*
X2912303Y2905140D01*
X2878893Y2871730D01*
X2839923Y2910700D01*
G37*
G36*
X2881683Y2952460D02*
X2915093Y2985870D01*
X2954063Y2946900D01*
X2920653Y2913490D01*
X2881683Y2952460D01*
G37*
G36*
X2823223Y3010920D02*
X2856633Y3044330D01*
X2895603Y3005360D01*
X2862193Y2971950D01*
X2823223Y3010920D01*
G37*
G54D11*
X3560533Y2609060D03*
Y2674060D03*
X3305533Y2568060D03*
Y2633060D03*
G36*
X3641613Y3187560D02*
X3608203Y3220970D01*
X3669453Y3282220D01*
X3702863Y3248810D01*
X3641613Y3187560D01*
G37*
G36*
X3586613Y3245230D02*
X3553203Y3278640D01*
X3614453Y3339890D01*
X3647863Y3306480D01*
X3586613Y3245230D01*
G37*
G36*
X2923153Y2693410D02*
X2878613Y2737950D01*
X2934293Y2793630D01*
X2978833Y2749090D01*
X2923153Y2693410D01*
G37*
G36*
X3016373Y2597630D02*
X2971833Y2642170D01*
X3033073Y2703410D01*
X3077613Y2658870D01*
X3016373Y2597630D01*
G37*
G36*
X3689373Y3097630D02*
X3644833Y3142170D01*
X3706073Y3203410D01*
X3750613Y3158870D01*
X3689373Y3097630D01*
G37*
G36*
X3523373Y3314630D02*
X3478833Y3359170D01*
X3540073Y3420410D01*
X3584613Y3375870D01*
X3523373Y3314630D01*
G37*
G54D15*
X3093053Y2747450D02*
Y2765170D01*
X3108803Y2747450D02*
Y2765170D01*
X3124553Y2747450D02*
Y2765170D01*
X3140293Y2747450D02*
Y2765170D01*
X3156043Y2747450D02*
Y2765170D01*
X3171793Y2747450D02*
Y2765170D01*
X3187543Y2747450D02*
Y2765170D01*
X3203293Y2747450D02*
Y2765170D01*
X3219033Y2747450D02*
Y2765170D01*
X3234783Y2747450D02*
Y2765170D01*
X3250533Y2747450D02*
Y2765170D01*
X3266283Y2747450D02*
Y2765170D01*
Y2985640D02*
Y3003360D01*
X3250533Y2985640D02*
Y3003360D01*
X3234783Y2985640D02*
Y3003360D01*
X3219033Y2985640D02*
Y3003360D01*
X3203293Y2985640D02*
Y3003360D01*
X3187543Y2985640D02*
Y3003360D01*
X3171793Y2985640D02*
Y3003360D01*
X3156043Y2985640D02*
Y3003360D01*
X3140293Y2985640D02*
Y3003360D01*
X3124553Y2985640D02*
Y3003360D01*
X3108803Y2985640D02*
Y3003360D01*
X3093053Y2985640D02*
Y3003360D01*
X3289903Y2788790D02*
X3307623D01*
X3289903Y2804530D02*
X3307623D01*
X3289903Y2820280D02*
X3307623D01*
X3289903Y2836030D02*
X3307623D01*
X3289903Y2851780D02*
X3307623D01*
X3289903Y2867530D02*
X3307623D01*
X3289903Y2883270D02*
X3307623D01*
X3289903Y2899020D02*
X3307623D01*
X3289903Y2914770D02*
X3307623D01*
X3289903Y2930520D02*
X3307623D01*
X3289903Y2946270D02*
X3307623D01*
X3289903Y2962010D02*
X3307623D01*
X3051713D02*
X3069433D01*
X3051713Y2946270D02*
X3069433D01*
X3051713Y2930520D02*
X3069433D01*
X3051713Y2914770D02*
X3069433D01*
X3051713Y2899020D02*
X3069433D01*
X3051713Y2883270D02*
X3069433D01*
X3051713Y2867530D02*
X3069433D01*
X3051713Y2851780D02*
X3069433D01*
X3051713Y2836030D02*
X3069433D01*
X3051713Y2820280D02*
X3069433D01*
X3051713Y2804530D02*
X3069433D01*
X3051713Y2788790D02*
X3069433D01*
G54D16*
X3179663Y2875400D03*
G54D17*
X3477118Y2567560D02*
X3488928D01*
X3477118Y2604960D02*
X3488928D01*
X3477118Y2642360D02*
X3488928D01*
X3382628Y2644330D02*
X3394438D01*
X3382628Y2567560D02*
X3394438D01*
G54D18*
X3088403Y3188430D03*
G36*
X3448203Y3268635D02*
X3423148Y3293690D01*
X3448203Y3318745D01*
X3473258Y3293690D01*
X3448203Y3268635D01*
G37*
G36*
X3402233Y3222675D02*
X3377178Y3247730D01*
X3402233Y3272785D01*
X3427288Y3247730D01*
X3402233Y3222675D01*
G37*
G54D19*
X3698803Y2626420D02*
G03X3715833Y2627150I8165J8530D01*
G03X3850733Y2911970I-428428J377274D01*
X3850723Y2911960D02*
G03X3839073Y2925690I-11662J1912D01*
X3821313Y2937500D02*
G03X3833123Y2925690I11810J0D01*
Y3083170D02*
G03X3821313Y3071360I0J-11810D01*
X3839073Y3083170D02*
G03X3850723Y3096890I-2J11808D01*
X3850733D02*
G03X3379863Y3567760I-563330J-92460D01*
Y3567750D02*
G03X3366143Y3556100I-1907J-11658D01*
X3354333Y3538340D02*
G03X3366143Y3550150I0J11810D01*
X3208663D02*
G03X3220473Y3538340I11810J0D01*
X3208663Y3556100D02*
G03X3194933Y3567750I-11809J-1D01*
X3194943Y3567760D02*
G03X2910123Y3432860I92456J-563332D01*
G03X2909393Y3415830I7810J-8865D01*
X2875993Y3382430D02*
G03X2909393Y3415830I16330J17070D01*
X2875993Y3382430D02*
G03X2858973Y3381700I-8160J-8530D01*
G03X2724073Y3096890I428427J-377277D01*
G03X2735723Y3083170I11658J-1907D01*
X2753483Y3071360D02*
G03X2741673Y3083170I-11810J0D01*
Y2925690D02*
G03X2753483Y2937500I0J11810D01*
X2735723Y2925690D02*
G03X2724073Y2911960I1J-11809D01*
Y2911970D02*
G03X3194943Y2441100I563330J92460D01*
X3194933D02*
G03X3208663Y2452750I1912J11662D01*
X3220473Y2470510D02*
G03X3208663Y2458700I0J-11810D01*
X3366143D02*
G03X3354333Y2470510I-11810J0D01*
X3366143Y2452750D02*
G03X3379863Y2441100I11808J2D01*
G03X3664673Y2576000I-92467J563327D01*
G03X3665403Y2593020I-7810J8861D01*
X3698803Y2626420D02*
G03X3665403Y2593020I-16330J-17070D01*
X3833123Y2925690D02*
G01X3839073D01*
X3821313Y2937500D02*
Y3071360D01*
X3833123Y3083170D02*
X3839073D01*
X3366143Y3550150D02*
Y3556100D01*
X3220473Y3538340D02*
X3354333D01*
X3208663Y3550150D02*
Y3556100D01*
X2735723Y3083170D02*
X2741673D01*
X2753483Y2937500D02*
Y3071360D01*
X2735723Y2925690D02*
X2741673D01*
X3208663Y2452750D02*
Y2458700D01*
X3220473Y2470510D02*
X3354333D01*
X3366143Y2452750D02*
Y2458700D01*
G36*
X3512608Y4477013D02*
X3487553Y4451958D01*
X3462498Y4477013D01*
X3487553Y4502068D01*
X3512608Y4477013D01*
G37*
G36*
X3558568Y4431053D02*
X3533513Y4405998D01*
X3508458Y4431053D01*
X3533513Y4456108D01*
X3558568Y4431053D01*
G37*
G36*
X3442608Y4412013D02*
X3417553Y4386958D01*
X3392498Y4412013D01*
X3417553Y4437068D01*
X3442608Y4412013D01*
G37*
G36*
X3488568Y4366053D02*
X3463513Y4340998D01*
X3438458Y4366053D01*
X3463513Y4391108D01*
X3488568Y4366053D01*
G37*
G54D10*
X3595888Y4024033D02*
X3599818D01*
X3635258D02*
X3639188D01*
X3126118Y3903903D02*
X3130048D01*
X3086748D02*
X3090678D01*
X3530278Y3946213D02*
X3534208D01*
X3490908D02*
X3494838D01*
X3256308Y4393603D02*
X3260238D01*
X3295678D02*
X3299608D01*
X3214678Y4392603D02*
X3218608D01*
X3175308D02*
X3179238D01*
X2942008Y4474853D02*
X2945938D01*
X2981378D02*
X2985308D01*
X3022378Y4375853D02*
X3026308D01*
X2983008D02*
X2986938D01*
X2967998Y4275473D02*
X2971928D01*
X2928628D02*
X2932558D01*
X3109998D02*
X3113928D01*
X3070628D02*
X3074558D01*
X3024308Y3940603D02*
X3028238D01*
X3063678D02*
X3067608D01*
X2961008Y4223853D02*
X2964938D01*
X3000378D02*
X3004308D01*
X3289678Y4285603D02*
X3293608D01*
X3250308D02*
X3254238D01*
X3250628Y4313473D02*
X3254558D01*
X3289998D02*
X3293928D01*
X3513888Y4262033D02*
X3517818D01*
X3553258D02*
X3557188D01*
X3295668Y4443033D02*
X3299598D01*
X3256298D02*
X3260228D01*
G54D11*
X3646033Y4071033D03*
X3581033D03*
X3569033Y4319033D03*
X3504033D03*
G54D12*
X3128688Y3734843D02*
X3164118D01*
X3128688Y3852953D02*
X3164118D01*
G54D13*
X3469528Y4000523D02*
X3470518D01*
X3469528Y4020203D02*
X3470518D01*
X3528588D02*
X3529578D01*
X3528588Y4000523D02*
X3529578D01*
X3470033Y4039398D02*
Y4040388D01*
X3489713Y4039398D02*
Y4040388D01*
X3509403Y4039398D02*
Y4040388D01*
X3529083Y4039398D02*
Y4040388D01*
Y3980338D02*
Y3981328D01*
X3509403Y3980338D02*
Y3981328D01*
X3489713Y3980338D02*
Y3981328D01*
X3470033Y3980338D02*
Y3981328D01*
G54D14*
X2848723Y4398993D03*
G54D10*
X3335403Y4433308D02*
Y4437238D01*
Y4393938D02*
Y4397868D01*
X2984653Y4404208D02*
Y4408138D01*
Y4443578D02*
Y4447508D01*
Y4305208D02*
Y4309138D01*
Y4344578D02*
Y4348508D01*
X3073723Y4299338D02*
Y4303268D01*
Y4338708D02*
Y4342638D01*
X3272403Y3897398D02*
Y3901328D01*
Y3936768D02*
Y3940698D01*
X3434553Y4027568D02*
Y4031498D01*
Y4066938D02*
Y4070868D01*
X3571403Y3984878D02*
Y3988808D01*
Y3945508D02*
Y3949438D01*
X3517533Y3807378D02*
Y3811308D01*
Y3846748D02*
Y3850678D01*
X3348533Y3816388D02*
Y3820318D01*
Y3855758D02*
Y3859688D01*
X3229403Y3933618D02*
Y3937548D01*
Y3894248D02*
Y3898178D01*
X3037023Y4275473D02*
X3042923D01*
X2999623D02*
X3005523D01*
X3217023Y4303473D02*
X3222923D01*
X3179623D02*
X3185523D01*
X3179023Y4275473D02*
X3184923D01*
X3141623D02*
X3147523D01*
G36*
X2911043Y4105453D02*
X2927743Y4122153D01*
X2941663Y4108233D01*
X2924963Y4091533D01*
X2911043Y4105453D01*
G37*
G36*
X2938883Y4133293D02*
X2955583Y4149993D01*
X2969503Y4136073D01*
X2952803Y4119373D01*
X2938883Y4133293D01*
G37*
G36*
X2961883Y4109293D02*
X2978583Y4125993D01*
X2992503Y4112073D01*
X2975803Y4095373D01*
X2961883Y4109293D01*
G37*
G36*
X2934043Y4081453D02*
X2950743Y4098153D01*
X2964663Y4084233D01*
X2947963Y4067533D01*
X2934043Y4081453D01*
G37*
G36*
X2807883Y4265293D02*
X2824583Y4281993D01*
X2838503Y4268073D01*
X2821803Y4251373D01*
X2807883Y4265293D01*
G37*
G36*
X2780043Y4237453D02*
X2796743Y4254153D01*
X2810663Y4240233D01*
X2793963Y4223533D01*
X2780043Y4237453D01*
G37*
G36*
X3369993Y4512173D02*
X3386693Y4528873D01*
X3400613Y4514953D01*
X3383913Y4498253D01*
X3369993Y4512173D01*
G37*
G36*
X3397833Y4540013D02*
X3414533Y4556713D01*
X3428453Y4542793D01*
X3411753Y4526093D01*
X3397833Y4540013D01*
G37*
G36*
X2781463Y4189633D02*
X2814873Y4223043D01*
X2853843Y4184073D01*
X2820433Y4150663D01*
X2781463Y4189633D01*
G37*
G36*
X2839923Y4131173D02*
X2873333Y4164583D01*
X2912303Y4125613D01*
X2878893Y4092203D01*
X2839923Y4131173D01*
G37*
G36*
X2881683Y4172933D02*
X2915093Y4206343D01*
X2954063Y4167373D01*
X2920653Y4133963D01*
X2881683Y4172933D01*
G37*
G36*
X2823223Y4231393D02*
X2856633Y4264803D01*
X2895603Y4225833D01*
X2862193Y4192423D01*
X2823223Y4231393D01*
G37*
G54D11*
X3560533Y3829533D03*
Y3894533D03*
X3305533Y3788533D03*
Y3853533D03*
G36*
X3641613Y4408033D02*
X3608203Y4441443D01*
X3669453Y4502693D01*
X3702863Y4469283D01*
X3641613Y4408033D01*
G37*
G36*
X3586613Y4465703D02*
X3553203Y4499113D01*
X3614453Y4560363D01*
X3647863Y4526953D01*
X3586613Y4465703D01*
G37*
G36*
X2923153Y3913883D02*
X2878613Y3958423D01*
X2934293Y4014103D01*
X2978833Y3969563D01*
X2923153Y3913883D01*
G37*
G36*
X3016373Y3818103D02*
X2971833Y3862643D01*
X3033073Y3923883D01*
X3077613Y3879343D01*
X3016373Y3818103D01*
G37*
G36*
X3689373Y4318103D02*
X3644833Y4362643D01*
X3706073Y4423883D01*
X3750613Y4379343D01*
X3689373Y4318103D01*
G37*
G36*
X3523373Y4535103D02*
X3478833Y4579643D01*
X3540073Y4640883D01*
X3584613Y4596343D01*
X3523373Y4535103D01*
G37*
G54D15*
X3093053Y3967923D02*
Y3985643D01*
X3108803Y3967923D02*
Y3985643D01*
X3124553Y3967923D02*
Y3985643D01*
X3140293Y3967923D02*
Y3985643D01*
X3156043Y3967923D02*
Y3985643D01*
X3171793Y3967923D02*
Y3985643D01*
X3187543Y3967923D02*
Y3985643D01*
X3203293Y3967923D02*
Y3985643D01*
X3219033Y3967923D02*
Y3985643D01*
X3234783Y3967923D02*
Y3985643D01*
X3250533Y3967923D02*
Y3985643D01*
X3266283Y3967923D02*
Y3985643D01*
Y4206113D02*
Y4223833D01*
X3250533Y4206113D02*
Y4223833D01*
X3234783Y4206113D02*
Y4223833D01*
X3219033Y4206113D02*
Y4223833D01*
X3203293Y4206113D02*
Y4223833D01*
X3187543Y4206113D02*
Y4223833D01*
X3171793Y4206113D02*
Y4223833D01*
X3156043Y4206113D02*
Y4223833D01*
X3140293Y4206113D02*
Y4223833D01*
X3124553Y4206113D02*
Y4223833D01*
X3108803Y4206113D02*
Y4223833D01*
X3093053Y4206113D02*
Y4223833D01*
X3289903Y4009263D02*
X3307623D01*
X3289903Y4025003D02*
X3307623D01*
X3289903Y4040753D02*
X3307623D01*
X3289903Y4056503D02*
X3307623D01*
X3289903Y4072253D02*
X3307623D01*
X3289903Y4088003D02*
X3307623D01*
X3289903Y4103743D02*
X3307623D01*
X3289903Y4119493D02*
X3307623D01*
X3289903Y4135243D02*
X3307623D01*
X3289903Y4150993D02*
X3307623D01*
X3289903Y4166743D02*
X3307623D01*
X3289903Y4182483D02*
X3307623D01*
X3051713D02*
X3069433D01*
X3051713Y4166743D02*
X3069433D01*
X3051713Y4150993D02*
X3069433D01*
X3051713Y4135243D02*
X3069433D01*
X3051713Y4119493D02*
X3069433D01*
X3051713Y4103743D02*
X3069433D01*
X3051713Y4088003D02*
X3069433D01*
X3051713Y4072253D02*
X3069433D01*
X3051713Y4056503D02*
X3069433D01*
X3051713Y4040753D02*
X3069433D01*
X3051713Y4025003D02*
X3069433D01*
X3051713Y4009263D02*
X3069433D01*
G54D16*
X3179663Y4095873D03*
G54D17*
X3477118Y3788033D02*
X3488928D01*
X3477118Y3825433D02*
X3488928D01*
X3477118Y3862833D02*
X3488928D01*
X3382628Y3864803D02*
X3394438D01*
X3382628Y3788033D02*
X3394438D01*
G54D18*
X3088403Y4408903D03*
G36*
X3448203Y4489108D02*
X3423148Y4514163D01*
X3448203Y4539218D01*
X3473258Y4514163D01*
X3448203Y4489108D01*
G37*
G36*
X3402233Y4443148D02*
X3377178Y4468203D01*
X3402233Y4493258D01*
X3427288Y4468203D01*
X3402233Y4443148D01*
G37*
G54D19*
X3698803Y3846893D02*
G03X3715833Y3847623I8165J8530D01*
G03X3850733Y4132443I-428428J377274D01*
X3850723Y4132433D02*
G03X3839073Y4146163I-11662J1912D01*
X3821313Y4157973D02*
G03X3833123Y4146163I11810J0D01*
Y4303643D02*
G03X3821313Y4291833I0J-11810D01*
X3839073Y4303643D02*
G03X3850723Y4317363I-2J11808D01*
X3850733D02*
G03X3379863Y4788233I-563330J-92460D01*
Y4788223D02*
G03X3366143Y4776573I-1907J-11658D01*
X3354333Y4758813D02*
G03X3366143Y4770623I0J11810D01*
X3208663D02*
G03X3220473Y4758813I11810J0D01*
X3208663Y4776573D02*
G03X3194933Y4788223I-11809J-1D01*
X3194943Y4788233D02*
G03X2910123Y4653333I92456J-563332D01*
G03X2909393Y4636303I7810J-8865D01*
X2875993Y4602903D02*
G03X2909393Y4636303I16330J17070D01*
X2875993Y4602903D02*
G03X2858973Y4602173I-8160J-8530D01*
G03X2724073Y4317363I428427J-377277D01*
G03X2735723Y4303643I11658J-1907D01*
X2753483Y4291833D02*
G03X2741673Y4303643I-11810J0D01*
Y4146163D02*
G03X2753483Y4157973I0J11810D01*
X2735723Y4146163D02*
G03X2724073Y4132433I1J-11809D01*
Y4132443D02*
G03X3194943Y3661573I563330J92460D01*
X3194933D02*
G03X3208663Y3673223I1912J11662D01*
X3220473Y3690983D02*
G03X3208663Y3679173I0J-11810D01*
X3366143D02*
G03X3354333Y3690983I-11810J0D01*
X3366143Y3673223D02*
G03X3379863Y3661573I11808J2D01*
G03X3664673Y3796473I-92467J563327D01*
G03X3665403Y3813493I-7810J8861D01*
X3698803Y3846893D02*
G03X3665403Y3813493I-16330J-17070D01*
X3833123Y4146163D02*
G01X3839073D01*
X3821313Y4157973D02*
Y4291833D01*
X3833123Y4303643D02*
X3839073D01*
X3366143Y4770623D02*
Y4776573D01*
X3220473Y4758813D02*
X3354333D01*
X3208663Y4770623D02*
Y4776573D01*
X2735723Y4303643D02*
X2741673D01*
X2753483Y4157973D02*
Y4291833D01*
X2735723Y4146163D02*
X2741673D01*
X3208663Y3673223D02*
Y3679173D01*
X3220473Y3690983D02*
X3354333D01*
X3366143Y3673223D02*
Y3679173D01*
G36*
X3512608Y5697485D02*
X3487553Y5672430D01*
X3462498Y5697485D01*
X3487553Y5722540D01*
X3512608Y5697485D01*
G37*
G36*
X3558568Y5651525D02*
X3533513Y5626470D01*
X3508458Y5651525D01*
X3533513Y5676580D01*
X3558568Y5651525D01*
G37*
G36*
X3442608Y5632485D02*
X3417553Y5607430D01*
X3392498Y5632485D01*
X3417553Y5657540D01*
X3442608Y5632485D01*
G37*
G36*
X3488568Y5586525D02*
X3463513Y5561470D01*
X3438458Y5586525D01*
X3463513Y5611580D01*
X3488568Y5586525D01*
G37*
G54D10*
X3595888Y5244505D02*
X3599818D01*
X3635258D02*
X3639188D01*
X3126118Y5124375D02*
X3130048D01*
X3086748D02*
X3090678D01*
X3530278Y5166685D02*
X3534208D01*
X3490908D02*
X3494838D01*
X3256308Y5614075D02*
X3260238D01*
X3295678D02*
X3299608D01*
X3214678Y5613075D02*
X3218608D01*
X3175308D02*
X3179238D01*
X2942008Y5695325D02*
X2945938D01*
X2981378D02*
X2985308D01*
X3022378Y5596325D02*
X3026308D01*
X2983008D02*
X2986938D01*
X2967998Y5495945D02*
X2971928D01*
X2928628D02*
X2932558D01*
X3109998D02*
X3113928D01*
X3070628D02*
X3074558D01*
X3024308Y5161075D02*
X3028238D01*
X3063678D02*
X3067608D01*
X2961008Y5444325D02*
X2964938D01*
X3000378D02*
X3004308D01*
X3289678Y5506075D02*
X3293608D01*
X3250308D02*
X3254238D01*
X3250628Y5533945D02*
X3254558D01*
X3289998D02*
X3293928D01*
X3513888Y5482505D02*
X3517818D01*
X3553258D02*
X3557188D01*
X3295668Y5663505D02*
X3299598D01*
X3256298D02*
X3260228D01*
G54D11*
X3646033Y5291505D03*
X3581033D03*
X3569033Y5539505D03*
X3504033D03*
G54D12*
X3128688Y4955315D02*
X3164118D01*
X3128688Y5073425D02*
X3164118D01*
G54D13*
X3469528Y5220995D02*
X3470518D01*
X3469528Y5240675D02*
X3470518D01*
X3528588D02*
X3529578D01*
X3528588Y5220995D02*
X3529578D01*
X3470033Y5259870D02*
Y5260860D01*
X3489713Y5259870D02*
Y5260860D01*
X3509403Y5259870D02*
Y5260860D01*
X3529083Y5259870D02*
Y5260860D01*
Y5200810D02*
Y5201800D01*
X3509403Y5200810D02*
Y5201800D01*
X3489713Y5200810D02*
Y5201800D01*
X3470033Y5200810D02*
Y5201800D01*
G54D14*
X2848723Y5619465D03*
G54D10*
X3335403Y5653780D02*
Y5657710D01*
Y5614410D02*
Y5618340D01*
X2984653Y5624680D02*
Y5628610D01*
Y5664050D02*
Y5667980D01*
Y5525680D02*
Y5529610D01*
Y5565050D02*
Y5568980D01*
X3073723Y5519810D02*
Y5523740D01*
Y5559180D02*
Y5563110D01*
X3272403Y5117870D02*
Y5121800D01*
Y5157240D02*
Y5161170D01*
X3434553Y5248040D02*
Y5251970D01*
Y5287410D02*
Y5291340D01*
X3571403Y5205350D02*
Y5209280D01*
Y5165980D02*
Y5169910D01*
X3517533Y5027850D02*
Y5031780D01*
Y5067220D02*
Y5071150D01*
X3348533Y5036860D02*
Y5040790D01*
Y5076230D02*
Y5080160D01*
X3229403Y5154090D02*
Y5158020D01*
Y5114720D02*
Y5118650D01*
X3037023Y5495945D02*
X3042923D01*
X2999623D02*
X3005523D01*
X3217023Y5523945D02*
X3222923D01*
X3179623D02*
X3185523D01*
X3179023Y5495945D02*
X3184923D01*
X3141623D02*
X3147523D01*
G36*
X2911043Y5325925D02*
X2927743Y5342625D01*
X2941663Y5328705D01*
X2924963Y5312005D01*
X2911043Y5325925D01*
G37*
G36*
X2938883Y5353765D02*
X2955583Y5370465D01*
X2969503Y5356545D01*
X2952803Y5339845D01*
X2938883Y5353765D01*
G37*
G36*
X2961883Y5329765D02*
X2978583Y5346465D01*
X2992503Y5332545D01*
X2975803Y5315845D01*
X2961883Y5329765D01*
G37*
G36*
X2934043Y5301925D02*
X2950743Y5318625D01*
X2964663Y5304705D01*
X2947963Y5288005D01*
X2934043Y5301925D01*
G37*
G36*
X2807883Y5485765D02*
X2824583Y5502465D01*
X2838503Y5488545D01*
X2821803Y5471845D01*
X2807883Y5485765D01*
G37*
G36*
X2780043Y5457925D02*
X2796743Y5474625D01*
X2810663Y5460705D01*
X2793963Y5444005D01*
X2780043Y5457925D01*
G37*
G36*
X3369993Y5732645D02*
X3386693Y5749345D01*
X3400613Y5735425D01*
X3383913Y5718725D01*
X3369993Y5732645D01*
G37*
G36*
X3397833Y5760485D02*
X3414533Y5777185D01*
X3428453Y5763265D01*
X3411753Y5746565D01*
X3397833Y5760485D01*
G37*
G36*
X2781463Y5410105D02*
X2814873Y5443515D01*
X2853843Y5404545D01*
X2820433Y5371135D01*
X2781463Y5410105D01*
G37*
G36*
X2839923Y5351645D02*
X2873333Y5385055D01*
X2912303Y5346085D01*
X2878893Y5312675D01*
X2839923Y5351645D01*
G37*
G36*
X2881683Y5393405D02*
X2915093Y5426815D01*
X2954063Y5387845D01*
X2920653Y5354435D01*
X2881683Y5393405D01*
G37*
G36*
X2823223Y5451865D02*
X2856633Y5485275D01*
X2895603Y5446305D01*
X2862193Y5412895D01*
X2823223Y5451865D01*
G37*
G54D11*
X3560533Y5050005D03*
Y5115005D03*
X3305533Y5009005D03*
Y5074005D03*
G36*
X3641613Y5628505D02*
X3608203Y5661915D01*
X3669453Y5723165D01*
X3702863Y5689755D01*
X3641613Y5628505D01*
G37*
G36*
X3586613Y5686175D02*
X3553203Y5719585D01*
X3614453Y5780835D01*
X3647863Y5747425D01*
X3586613Y5686175D01*
G37*
G36*
X2923153Y5134355D02*
X2878613Y5178895D01*
X2934293Y5234575D01*
X2978833Y5190035D01*
X2923153Y5134355D01*
G37*
G36*
X3016373Y5038575D02*
X2971833Y5083115D01*
X3033073Y5144355D01*
X3077613Y5099815D01*
X3016373Y5038575D01*
G37*
G36*
X3689373Y5538575D02*
X3644833Y5583115D01*
X3706073Y5644355D01*
X3750613Y5599815D01*
X3689373Y5538575D01*
G37*
G36*
X3523373Y5755575D02*
X3478833Y5800115D01*
X3540073Y5861355D01*
X3584613Y5816815D01*
X3523373Y5755575D01*
G37*
G54D15*
X3093053Y5188395D02*
Y5206115D01*
X3108803Y5188395D02*
Y5206115D01*
X3124553Y5188395D02*
Y5206115D01*
X3140293Y5188395D02*
Y5206115D01*
X3156043Y5188395D02*
Y5206115D01*
X3171793Y5188395D02*
Y5206115D01*
X3187543Y5188395D02*
Y5206115D01*
X3203293Y5188395D02*
Y5206115D01*
X3219033Y5188395D02*
Y5206115D01*
X3234783Y5188395D02*
Y5206115D01*
X3250533Y5188395D02*
Y5206115D01*
X3266283Y5188395D02*
Y5206115D01*
Y5426585D02*
Y5444305D01*
X3250533Y5426585D02*
Y5444305D01*
X3234783Y5426585D02*
Y5444305D01*
X3219033Y5426585D02*
Y5444305D01*
X3203293Y5426585D02*
Y5444305D01*
X3187543Y5426585D02*
Y5444305D01*
X3171793Y5426585D02*
Y5444305D01*
X3156043Y5426585D02*
Y5444305D01*
X3140293Y5426585D02*
Y5444305D01*
X3124553Y5426585D02*
Y5444305D01*
X3108803Y5426585D02*
Y5444305D01*
X3093053Y5426585D02*
Y5444305D01*
X3289903Y5229735D02*
X3307623D01*
X3289903Y5245475D02*
X3307623D01*
X3289903Y5261225D02*
X3307623D01*
X3289903Y5276975D02*
X3307623D01*
X3289903Y5292725D02*
X3307623D01*
X3289903Y5308475D02*
X3307623D01*
X3289903Y5324215D02*
X3307623D01*
X3289903Y5339965D02*
X3307623D01*
X3289903Y5355715D02*
X3307623D01*
X3289903Y5371465D02*
X3307623D01*
X3289903Y5387215D02*
X3307623D01*
X3289903Y5402955D02*
X3307623D01*
X3051713D02*
X3069433D01*
X3051713Y5387215D02*
X3069433D01*
X3051713Y5371465D02*
X3069433D01*
X3051713Y5355715D02*
X3069433D01*
X3051713Y5339965D02*
X3069433D01*
X3051713Y5324215D02*
X3069433D01*
X3051713Y5308475D02*
X3069433D01*
X3051713Y5292725D02*
X3069433D01*
X3051713Y5276975D02*
X3069433D01*
X3051713Y5261225D02*
X3069433D01*
X3051713Y5245475D02*
X3069433D01*
X3051713Y5229735D02*
X3069433D01*
G54D16*
X3179663Y5316345D03*
G54D17*
X3477118Y5008505D02*
X3488928D01*
X3477118Y5045905D02*
X3488928D01*
X3477118Y5083305D02*
X3488928D01*
X3382628Y5085275D02*
X3394438D01*
X3382628Y5008505D02*
X3394438D01*
G54D18*
X3088403Y5629375D03*
G36*
X3448203Y5709580D02*
X3423148Y5734635D01*
X3448203Y5759690D01*
X3473258Y5734635D01*
X3448203Y5709580D01*
G37*
G36*
X3402233Y5663620D02*
X3377178Y5688675D01*
X3402233Y5713730D01*
X3427288Y5688675D01*
X3402233Y5663620D01*
G37*
G54D19*
X3698803Y5067365D02*
G03X3715833Y5068095I8165J8530D01*
G03X3850733Y5352915I-428428J377274D01*
X3850723Y5352905D02*
G03X3839073Y5366635I-11662J1912D01*
X3821313Y5378445D02*
G03X3833123Y5366635I11810J0D01*
Y5524115D02*
G03X3821313Y5512305I0J-11810D01*
X3839073Y5524115D02*
G03X3850723Y5537835I-2J11808D01*
X3850733D02*
G03X3379863Y6008705I-563330J-92460D01*
Y6008695D02*
G03X3366143Y5997045I-1907J-11658D01*
X3354333Y5979285D02*
G03X3366143Y5991095I0J11810D01*
X3208663D02*
G03X3220473Y5979285I11810J0D01*
X3208663Y5997045D02*
G03X3194933Y6008695I-11809J-1D01*
X3194943Y6008705D02*
G03X2910123Y5873805I92456J-563332D01*
G03X2909393Y5856775I7810J-8865D01*
X2875993Y5823375D02*
G03X2909393Y5856775I16330J17070D01*
X2875993Y5823375D02*
G03X2858973Y5822645I-8160J-8530D01*
G03X2724073Y5537835I428427J-377277D01*
G03X2735723Y5524115I11658J-1907D01*
X2753483Y5512305D02*
G03X2741673Y5524115I-11810J0D01*
Y5366635D02*
G03X2753483Y5378445I0J11810D01*
X2735723Y5366635D02*
G03X2724073Y5352905I1J-11809D01*
Y5352915D02*
G03X3194943Y4882045I563330J92460D01*
X3194933D02*
G03X3208663Y4893695I1912J11662D01*
X3220473Y4911455D02*
G03X3208663Y4899645I0J-11810D01*
X3366143D02*
G03X3354333Y4911455I-11810J0D01*
X3366143Y4893695D02*
G03X3379863Y4882045I11808J2D01*
G03X3664673Y5016945I-92467J563327D01*
G03X3665403Y5033965I-7810J8861D01*
X3698803Y5067365D02*
G03X3665403Y5033965I-16330J-17070D01*
X3833123Y5366635D02*
G01X3839073D01*
X3821313Y5378445D02*
Y5512305D01*
X3833123Y5524115D02*
X3839073D01*
X3366143Y5991095D02*
Y5997045D01*
X3220473Y5979285D02*
X3354333D01*
X3208663Y5991095D02*
Y5997045D01*
X2735723Y5524115D02*
X2741673D01*
X2753483Y5378445D02*
Y5512305D01*
X2735723Y5366635D02*
X2741673D01*
X3208663Y4893695D02*
Y4899645D01*
X3220473Y4911455D02*
X3354333D01*
X3366143Y4893695D02*
Y4899645D01*
G36*
X4733080Y815595D02*
X4708025Y790540D01*
X4682970Y815595D01*
X4708025Y840650D01*
X4733080Y815595D01*
G37*
G36*
X4779040Y769635D02*
X4753985Y744580D01*
X4728930Y769635D01*
X4753985Y794690D01*
X4779040Y769635D01*
G37*
G36*
X4663080Y750595D02*
X4638025Y725540D01*
X4612970Y750595D01*
X4638025Y775650D01*
X4663080Y750595D01*
G37*
G36*
X4709040Y704635D02*
X4683985Y679580D01*
X4658930Y704635D01*
X4683985Y729690D01*
X4709040Y704635D01*
G37*
G54D10*
X4816360Y362615D02*
X4820290D01*
X4855730D02*
X4859660D01*
X4346590Y242485D02*
X4350520D01*
X4307220D02*
X4311150D01*
X4750750Y284795D02*
X4754680D01*
X4711380D02*
X4715310D01*
X4476780Y732185D02*
X4480710D01*
X4516150D02*
X4520080D01*
X4435150Y731185D02*
X4439080D01*
X4395780D02*
X4399710D01*
X4162480Y813435D02*
X4166410D01*
X4201850D02*
X4205780D01*
X4242850Y714435D02*
X4246780D01*
X4203480D02*
X4207410D01*
X4188470Y614055D02*
X4192400D01*
X4149100D02*
X4153030D01*
X4330470D02*
X4334400D01*
X4291100D02*
X4295030D01*
X4244780Y279185D02*
X4248710D01*
X4284150D02*
X4288080D01*
X4181480Y562435D02*
X4185410D01*
X4220850D02*
X4224780D01*
X4510150Y624185D02*
X4514080D01*
X4470780D02*
X4474710D01*
X4471100Y652055D02*
X4475030D01*
X4510470D02*
X4514400D01*
X4734360Y600615D02*
X4738290D01*
X4773730D02*
X4777660D01*
X4516140Y781615D02*
X4520070D01*
X4476770D02*
X4480700D01*
G54D11*
X4866505Y409615D03*
X4801505D03*
X4789505Y657615D03*
X4724505D03*
G54D12*
X4349160Y73425D02*
X4384590D01*
X4349160Y191535D02*
X4384590D01*
G54D13*
X4690000Y339105D02*
X4690990D01*
X4690000Y358785D02*
X4690990D01*
X4749060D02*
X4750050D01*
X4749060Y339105D02*
X4750050D01*
X4690505Y377980D02*
Y378970D01*
X4710185Y377980D02*
Y378970D01*
X4729875Y377980D02*
Y378970D01*
X4749555Y377980D02*
Y378970D01*
Y318920D02*
Y319910D01*
X4729875Y318920D02*
Y319910D01*
X4710185Y318920D02*
Y319910D01*
X4690505Y318920D02*
Y319910D01*
G54D14*
X4069195Y737575D03*
G54D10*
X4555875Y771890D02*
Y775820D01*
Y732520D02*
Y736450D01*
X4205125Y742790D02*
Y746720D01*
Y782160D02*
Y786090D01*
Y643790D02*
Y647720D01*
Y683160D02*
Y687090D01*
X4294195Y637920D02*
Y641850D01*
Y677290D02*
Y681220D01*
X4492875Y235980D02*
Y239910D01*
Y275350D02*
Y279280D01*
X4655025Y366150D02*
Y370080D01*
Y405520D02*
Y409450D01*
X4791875Y323460D02*
Y327390D01*
Y284090D02*
Y288020D01*
X4738005Y145960D02*
Y149890D01*
Y185330D02*
Y189260D01*
X4569005Y154970D02*
Y158900D01*
Y194340D02*
Y198270D01*
X4449875Y272200D02*
Y276130D01*
Y232830D02*
Y236760D01*
X4257495Y614055D02*
X4263395D01*
X4220095D02*
X4225995D01*
X4437495Y642055D02*
X4443395D01*
X4400095D02*
X4405995D01*
X4399495Y614055D02*
X4405395D01*
X4362095D02*
X4367995D01*
G36*
X4131515Y444035D02*
X4148215Y460735D01*
X4162135Y446815D01*
X4145435Y430115D01*
X4131515Y444035D01*
G37*
G36*
X4159355Y471875D02*
X4176055Y488575D01*
X4189975Y474655D01*
X4173275Y457955D01*
X4159355Y471875D01*
G37*
G36*
X4182355Y447875D02*
X4199055Y464575D01*
X4212975Y450655D01*
X4196275Y433955D01*
X4182355Y447875D01*
G37*
G36*
X4154515Y420035D02*
X4171215Y436735D01*
X4185135Y422815D01*
X4168435Y406115D01*
X4154515Y420035D01*
G37*
G36*
X4028355Y603875D02*
X4045055Y620575D01*
X4058975Y606655D01*
X4042275Y589955D01*
X4028355Y603875D01*
G37*
G36*
X4000515Y576035D02*
X4017215Y592735D01*
X4031135Y578815D01*
X4014435Y562115D01*
X4000515Y576035D01*
G37*
G36*
X4590465Y850755D02*
X4607165Y867455D01*
X4621085Y853535D01*
X4604385Y836835D01*
X4590465Y850755D01*
G37*
G36*
X4618305Y878595D02*
X4635005Y895295D01*
X4648925Y881375D01*
X4632225Y864675D01*
X4618305Y878595D01*
G37*
G36*
X4001935Y528215D02*
X4035345Y561625D01*
X4074315Y522655D01*
X4040905Y489245D01*
X4001935Y528215D01*
G37*
G36*
X4060395Y469755D02*
X4093805Y503165D01*
X4132775Y464195D01*
X4099365Y430785D01*
X4060395Y469755D01*
G37*
G36*
X4102155Y511515D02*
X4135565Y544925D01*
X4174535Y505955D01*
X4141125Y472545D01*
X4102155Y511515D01*
G37*
G36*
X4043695Y569975D02*
X4077105Y603385D01*
X4116075Y564415D01*
X4082665Y531005D01*
X4043695Y569975D01*
G37*
G54D11*
X4781005Y168115D03*
Y233115D03*
X4526005Y127115D03*
Y192115D03*
G36*
X4862085Y746615D02*
X4828675Y780025D01*
X4889925Y841275D01*
X4923335Y807865D01*
X4862085Y746615D01*
G37*
G36*
X4807085Y804285D02*
X4773675Y837695D01*
X4834925Y898945D01*
X4868335Y865535D01*
X4807085Y804285D01*
G37*
G36*
X4143625Y252465D02*
X4099085Y297005D01*
X4154765Y352685D01*
X4199305Y308145D01*
X4143625Y252465D01*
G37*
G36*
X4236845Y156685D02*
X4192305Y201225D01*
X4253545Y262465D01*
X4298085Y217925D01*
X4236845Y156685D01*
G37*
G36*
X4909845Y656685D02*
X4865305Y701225D01*
X4926545Y762465D01*
X4971085Y717925D01*
X4909845Y656685D01*
G37*
G36*
X4743845Y873685D02*
X4699305Y918225D01*
X4760545Y979465D01*
X4805085Y934925D01*
X4743845Y873685D01*
G37*
G54D15*
X4313525Y306505D02*
Y324225D01*
X4329275Y306505D02*
Y324225D01*
X4345025Y306505D02*
Y324225D01*
X4360765Y306505D02*
Y324225D01*
X4376515Y306505D02*
Y324225D01*
X4392265Y306505D02*
Y324225D01*
X4408015Y306505D02*
Y324225D01*
X4423765Y306505D02*
Y324225D01*
X4439505Y306505D02*
Y324225D01*
X4455255Y306505D02*
Y324225D01*
X4471005Y306505D02*
Y324225D01*
X4486755Y306505D02*
Y324225D01*
Y544695D02*
Y562415D01*
X4471005Y544695D02*
Y562415D01*
X4455255Y544695D02*
Y562415D01*
X4439505Y544695D02*
Y562415D01*
X4423765Y544695D02*
Y562415D01*
X4408015Y544695D02*
Y562415D01*
X4392265Y544695D02*
Y562415D01*
X4376515Y544695D02*
Y562415D01*
X4360765Y544695D02*
Y562415D01*
X4345025Y544695D02*
Y562415D01*
X4329275Y544695D02*
Y562415D01*
X4313525Y544695D02*
Y562415D01*
X4510375Y347845D02*
X4528095D01*
X4510375Y363585D02*
X4528095D01*
X4510375Y379335D02*
X4528095D01*
X4510375Y395085D02*
X4528095D01*
X4510375Y410835D02*
X4528095D01*
X4510375Y426585D02*
X4528095D01*
X4510375Y442325D02*
X4528095D01*
X4510375Y458075D02*
X4528095D01*
X4510375Y473825D02*
X4528095D01*
X4510375Y489575D02*
X4528095D01*
X4510375Y505325D02*
X4528095D01*
X4510375Y521065D02*
X4528095D01*
X4272185D02*
X4289905D01*
X4272185Y505325D02*
X4289905D01*
X4272185Y489575D02*
X4289905D01*
X4272185Y473825D02*
X4289905D01*
X4272185Y458075D02*
X4289905D01*
X4272185Y442325D02*
X4289905D01*
X4272185Y426585D02*
X4289905D01*
X4272185Y410835D02*
X4289905D01*
X4272185Y395085D02*
X4289905D01*
X4272185Y379335D02*
X4289905D01*
X4272185Y363585D02*
X4289905D01*
X4272185Y347845D02*
X4289905D01*
G54D16*
X4400135Y434455D03*
G54D17*
X4697590Y126615D02*
X4709400D01*
X4697590Y164015D02*
X4709400D01*
X4697590Y201415D02*
X4709400D01*
X4603100Y203385D02*
X4614910D01*
X4603100Y126615D02*
X4614910D01*
G54D18*
X4308875Y747485D03*
G36*
X4668675Y827690D02*
X4643620Y852745D01*
X4668675Y877800D01*
X4693730Y852745D01*
X4668675Y827690D01*
G37*
G36*
X4622705Y781730D02*
X4597650Y806785D01*
X4622705Y831840D01*
X4647760Y806785D01*
X4622705Y781730D01*
G37*
G54D19*
X4919275Y185475D02*
G03X4936305Y186205I8165J8530D01*
G03X5071205Y471025I-428428J377274D01*
X5071195Y471015D02*
G03X5059545Y484745I-11662J1912D01*
X5041785Y496555D02*
G03X5053595Y484745I11810J0D01*
Y642225D02*
G03X5041785Y630415I0J-11810D01*
X5059545Y642225D02*
G03X5071195Y655945I-2J11808D01*
X5071205D02*
G03X4600335Y1126815I-563330J-92460D01*
Y1126805D02*
G03X4586615Y1115155I-1907J-11658D01*
X4574805Y1097395D02*
G03X4586615Y1109205I0J11810D01*
X4429135D02*
G03X4440945Y1097395I11810J0D01*
X4429135Y1115155D02*
G03X4415405Y1126805I-11809J-1D01*
X4415415Y1126815D02*
G03X4130595Y991915I92456J-563332D01*
G03X4129865Y974885I7810J-8865D01*
X4096465Y941485D02*
G03X4129865Y974885I16330J17070D01*
X4096465Y941485D02*
G03X4079445Y940755I-8160J-8530D01*
G03X3944545Y655945I428427J-377277D01*
G03X3956195Y642225I11658J-1907D01*
X3973955Y630415D02*
G03X3962145Y642225I-11810J0D01*
Y484745D02*
G03X3973955Y496555I0J11810D01*
X3956195Y484745D02*
G03X3944545Y471015I1J-11809D01*
Y471025D02*
G03X4415415Y155I563330J92460D01*
X4415405D02*
G03X4429135Y11805I1912J11662D01*
X4440945Y29565D02*
G03X4429135Y17755I0J-11810D01*
X4586615D02*
G03X4574805Y29565I-11810J0D01*
X4586615Y11805D02*
G03X4600335Y155I11808J2D01*
G03X4885145Y135055I-92467J563327D01*
G03X4885875Y152075I-7810J8861D01*
X4919275Y185475D02*
G03X4885875Y152075I-16330J-17070D01*
X5053595Y484745D02*
G01X5059545D01*
X5041785Y496555D02*
Y630415D01*
X5053595Y642225D02*
X5059545D01*
X4586615Y1109205D02*
Y1115155D01*
X4440945Y1097395D02*
X4574805D01*
X4429135Y1109205D02*
Y1115155D01*
X3956195Y642225D02*
X3962145D01*
X3973955Y496555D02*
Y630415D01*
X3956195Y484745D02*
X3962145D01*
X4429135Y11805D02*
Y17755D01*
X4440945Y29565D02*
X4574805D01*
X4586615Y11805D02*
Y17755D01*
G36*
X4733080Y2036068D02*
X4708025Y2011013D01*
X4682970Y2036068D01*
X4708025Y2061123D01*
X4733080Y2036068D01*
G37*
G36*
X4779040Y1990108D02*
X4753985Y1965053D01*
X4728930Y1990108D01*
X4753985Y2015163D01*
X4779040Y1990108D01*
G37*
G36*
X4663080Y1971068D02*
X4638025Y1946013D01*
X4612970Y1971068D01*
X4638025Y1996123D01*
X4663080Y1971068D01*
G37*
G36*
X4709040Y1925108D02*
X4683985Y1900053D01*
X4658930Y1925108D01*
X4683985Y1950163D01*
X4709040Y1925108D01*
G37*
G54D10*
X4816360Y1583088D02*
X4820290D01*
X4855730D02*
X4859660D01*
X4346590Y1462958D02*
X4350520D01*
X4307220D02*
X4311150D01*
X4750750Y1505268D02*
X4754680D01*
X4711380D02*
X4715310D01*
X4476780Y1952658D02*
X4480710D01*
X4516150D02*
X4520080D01*
X4435150Y1951658D02*
X4439080D01*
X4395780D02*
X4399710D01*
X4162480Y2033908D02*
X4166410D01*
X4201850D02*
X4205780D01*
X4242850Y1934908D02*
X4246780D01*
X4203480D02*
X4207410D01*
X4188470Y1834528D02*
X4192400D01*
X4149100D02*
X4153030D01*
X4330470D02*
X4334400D01*
X4291100D02*
X4295030D01*
X4244780Y1499658D02*
X4248710D01*
X4284150D02*
X4288080D01*
X4181480Y1782908D02*
X4185410D01*
X4220850D02*
X4224780D01*
X4510150Y1844658D02*
X4514080D01*
X4470780D02*
X4474710D01*
X4471100Y1872528D02*
X4475030D01*
X4510470D02*
X4514400D01*
X4734360Y1821088D02*
X4738290D01*
X4773730D02*
X4777660D01*
X4516140Y2002088D02*
X4520070D01*
X4476770D02*
X4480700D01*
G54D11*
X4866505Y1630088D03*
X4801505D03*
X4789505Y1878088D03*
X4724505D03*
G54D12*
X4349160Y1293898D02*
X4384590D01*
X4349160Y1412008D02*
X4384590D01*
G54D13*
X4690000Y1559578D02*
X4690990D01*
X4690000Y1579258D02*
X4690990D01*
X4749060D02*
X4750050D01*
X4749060Y1559578D02*
X4750050D01*
X4690505Y1598453D02*
Y1599443D01*
X4710185Y1598453D02*
Y1599443D01*
X4729875Y1598453D02*
Y1599443D01*
X4749555Y1598453D02*
Y1599443D01*
Y1539393D02*
Y1540383D01*
X4729875Y1539393D02*
Y1540383D01*
X4710185Y1539393D02*
Y1540383D01*
X4690505Y1539393D02*
Y1540383D01*
G54D14*
X4069195Y1958048D03*
G54D10*
X4555875Y1992363D02*
Y1996293D01*
Y1952993D02*
Y1956923D01*
X4205125Y1963263D02*
Y1967193D01*
Y2002633D02*
Y2006563D01*
Y1864263D02*
Y1868193D01*
Y1903633D02*
Y1907563D01*
X4294195Y1858393D02*
Y1862323D01*
Y1897763D02*
Y1901693D01*
X4492875Y1456453D02*
Y1460383D01*
Y1495823D02*
Y1499753D01*
X4655025Y1586623D02*
Y1590553D01*
Y1625993D02*
Y1629923D01*
X4791875Y1543933D02*
Y1547863D01*
Y1504563D02*
Y1508493D01*
X4738005Y1366433D02*
Y1370363D01*
Y1405803D02*
Y1409733D01*
X4569005Y1375443D02*
Y1379373D01*
Y1414813D02*
Y1418743D01*
X4449875Y1492673D02*
Y1496603D01*
Y1453303D02*
Y1457233D01*
X4257495Y1834528D02*
X4263395D01*
X4220095D02*
X4225995D01*
X4437495Y1862528D02*
X4443395D01*
X4400095D02*
X4405995D01*
X4399495Y1834528D02*
X4405395D01*
X4362095D02*
X4367995D01*
G36*
X4131515Y1664508D02*
X4148215Y1681208D01*
X4162135Y1667288D01*
X4145435Y1650588D01*
X4131515Y1664508D01*
G37*
G36*
X4159355Y1692348D02*
X4176055Y1709048D01*
X4189975Y1695128D01*
X4173275Y1678428D01*
X4159355Y1692348D01*
G37*
G36*
X4182355Y1668348D02*
X4199055Y1685048D01*
X4212975Y1671128D01*
X4196275Y1654428D01*
X4182355Y1668348D01*
G37*
G36*
X4154515Y1640508D02*
X4171215Y1657208D01*
X4185135Y1643288D01*
X4168435Y1626588D01*
X4154515Y1640508D01*
G37*
G36*
X4028355Y1824348D02*
X4045055Y1841048D01*
X4058975Y1827128D01*
X4042275Y1810428D01*
X4028355Y1824348D01*
G37*
G36*
X4000515Y1796508D02*
X4017215Y1813208D01*
X4031135Y1799288D01*
X4014435Y1782588D01*
X4000515Y1796508D01*
G37*
G36*
X4590465Y2071228D02*
X4607165Y2087928D01*
X4621085Y2074008D01*
X4604385Y2057308D01*
X4590465Y2071228D01*
G37*
G36*
X4618305Y2099068D02*
X4635005Y2115768D01*
X4648925Y2101848D01*
X4632225Y2085148D01*
X4618305Y2099068D01*
G37*
G36*
X4001935Y1748688D02*
X4035345Y1782098D01*
X4074315Y1743128D01*
X4040905Y1709718D01*
X4001935Y1748688D01*
G37*
G36*
X4060395Y1690228D02*
X4093805Y1723638D01*
X4132775Y1684668D01*
X4099365Y1651258D01*
X4060395Y1690228D01*
G37*
G36*
X4102155Y1731988D02*
X4135565Y1765398D01*
X4174535Y1726428D01*
X4141125Y1693018D01*
X4102155Y1731988D01*
G37*
G36*
X4043695Y1790448D02*
X4077105Y1823858D01*
X4116075Y1784888D01*
X4082665Y1751478D01*
X4043695Y1790448D01*
G37*
G54D11*
X4781005Y1388588D03*
Y1453588D03*
X4526005Y1347588D03*
Y1412588D03*
G36*
X4862085Y1967088D02*
X4828675Y2000498D01*
X4889925Y2061748D01*
X4923335Y2028338D01*
X4862085Y1967088D01*
G37*
G36*
X4807085Y2024758D02*
X4773675Y2058168D01*
X4834925Y2119418D01*
X4868335Y2086008D01*
X4807085Y2024758D01*
G37*
G36*
X4143625Y1472938D02*
X4099085Y1517478D01*
X4154765Y1573158D01*
X4199305Y1528618D01*
X4143625Y1472938D01*
G37*
G36*
X4236845Y1377158D02*
X4192305Y1421698D01*
X4253545Y1482938D01*
X4298085Y1438398D01*
X4236845Y1377158D01*
G37*
G36*
X4909845Y1877158D02*
X4865305Y1921698D01*
X4926545Y1982938D01*
X4971085Y1938398D01*
X4909845Y1877158D01*
G37*
G36*
X4743845Y2094158D02*
X4699305Y2138698D01*
X4760545Y2199938D01*
X4805085Y2155398D01*
X4743845Y2094158D01*
G37*
G54D15*
X4313525Y1526978D02*
Y1544698D01*
X4329275Y1526978D02*
Y1544698D01*
X4345025Y1526978D02*
Y1544698D01*
X4360765Y1526978D02*
Y1544698D01*
X4376515Y1526978D02*
Y1544698D01*
X4392265Y1526978D02*
Y1544698D01*
X4408015Y1526978D02*
Y1544698D01*
X4423765Y1526978D02*
Y1544698D01*
X4439505Y1526978D02*
Y1544698D01*
X4455255Y1526978D02*
Y1544698D01*
X4471005Y1526978D02*
Y1544698D01*
X4486755Y1526978D02*
Y1544698D01*
Y1765168D02*
Y1782888D01*
X4471005Y1765168D02*
Y1782888D01*
X4455255Y1765168D02*
Y1782888D01*
X4439505Y1765168D02*
Y1782888D01*
X4423765Y1765168D02*
Y1782888D01*
X4408015Y1765168D02*
Y1782888D01*
X4392265Y1765168D02*
Y1782888D01*
X4376515Y1765168D02*
Y1782888D01*
X4360765Y1765168D02*
Y1782888D01*
X4345025Y1765168D02*
Y1782888D01*
X4329275Y1765168D02*
Y1782888D01*
X4313525Y1765168D02*
Y1782888D01*
X4510375Y1568318D02*
X4528095D01*
X4510375Y1584058D02*
X4528095D01*
X4510375Y1599808D02*
X4528095D01*
X4510375Y1615558D02*
X4528095D01*
X4510375Y1631308D02*
X4528095D01*
X4510375Y1647058D02*
X4528095D01*
X4510375Y1662798D02*
X4528095D01*
X4510375Y1678548D02*
X4528095D01*
X4510375Y1694298D02*
X4528095D01*
X4510375Y1710048D02*
X4528095D01*
X4510375Y1725798D02*
X4528095D01*
X4510375Y1741538D02*
X4528095D01*
X4272185D02*
X4289905D01*
X4272185Y1725798D02*
X4289905D01*
X4272185Y1710048D02*
X4289905D01*
X4272185Y1694298D02*
X4289905D01*
X4272185Y1678548D02*
X4289905D01*
X4272185Y1662798D02*
X4289905D01*
X4272185Y1647058D02*
X4289905D01*
X4272185Y1631308D02*
X4289905D01*
X4272185Y1615558D02*
X4289905D01*
X4272185Y1599808D02*
X4289905D01*
X4272185Y1584058D02*
X4289905D01*
X4272185Y1568318D02*
X4289905D01*
G54D16*
X4400135Y1654928D03*
G54D17*
X4697590Y1347088D02*
X4709400D01*
X4697590Y1384488D02*
X4709400D01*
X4697590Y1421888D02*
X4709400D01*
X4603100Y1423858D02*
X4614910D01*
X4603100Y1347088D02*
X4614910D01*
G54D18*
X4308875Y1967958D03*
G36*
X4668675Y2048163D02*
X4643620Y2073218D01*
X4668675Y2098273D01*
X4693730Y2073218D01*
X4668675Y2048163D01*
G37*
G36*
X4622705Y2002203D02*
X4597650Y2027258D01*
X4622705Y2052313D01*
X4647760Y2027258D01*
X4622705Y2002203D01*
G37*
G54D19*
X4919275Y1405948D02*
G03X4936305Y1406678I8165J8530D01*
G03X5071205Y1691498I-428428J377274D01*
X5071195Y1691488D02*
G03X5059545Y1705218I-11662J1912D01*
X5041785Y1717028D02*
G03X5053595Y1705218I11810J0D01*
Y1862698D02*
G03X5041785Y1850888I0J-11810D01*
X5059545Y1862698D02*
G03X5071195Y1876418I-2J11808D01*
X5071205D02*
G03X4600335Y2347288I-563330J-92460D01*
Y2347278D02*
G03X4586615Y2335628I-1907J-11658D01*
X4574805Y2317868D02*
G03X4586615Y2329678I0J11810D01*
X4429135D02*
G03X4440945Y2317868I11810J0D01*
X4429135Y2335628D02*
G03X4415405Y2347278I-11809J-1D01*
X4415415Y2347288D02*
G03X4130595Y2212388I92456J-563332D01*
G03X4129865Y2195358I7810J-8865D01*
X4096465Y2161958D02*
G03X4129865Y2195358I16330J17070D01*
X4096465Y2161958D02*
G03X4079445Y2161228I-8160J-8530D01*
G03X3944545Y1876418I428427J-377277D01*
G03X3956195Y1862698I11658J-1907D01*
X3973955Y1850888D02*
G03X3962145Y1862698I-11810J0D01*
Y1705218D02*
G03X3973955Y1717028I0J11810D01*
X3956195Y1705218D02*
G03X3944545Y1691488I1J-11809D01*
Y1691498D02*
G03X4415415Y1220628I563330J92460D01*
X4415405D02*
G03X4429135Y1232278I1912J11662D01*
X4440945Y1250038D02*
G03X4429135Y1238228I0J-11810D01*
X4586615D02*
G03X4574805Y1250038I-11810J0D01*
X4586615Y1232278D02*
G03X4600335Y1220628I11808J2D01*
G03X4885145Y1355528I-92467J563327D01*
G03X4885875Y1372548I-7810J8861D01*
X4919275Y1405948D02*
G03X4885875Y1372548I-16330J-17070D01*
X5053595Y1705218D02*
G01X5059545D01*
X5041785Y1717028D02*
Y1850888D01*
X5053595Y1862698D02*
X5059545D01*
X4586615Y2329678D02*
Y2335628D01*
X4440945Y2317868D02*
X4574805D01*
X4429135Y2329678D02*
Y2335628D01*
X3956195Y1862698D02*
X3962145D01*
X3973955Y1717028D02*
Y1850888D01*
X3956195Y1705218D02*
X3962145D01*
X4429135Y1232278D02*
Y1238228D01*
X4440945Y1250038D02*
X4574805D01*
X4586615Y1232278D02*
Y1238228D01*
G36*
X4733080Y3256540D02*
X4708025Y3231485D01*
X4682970Y3256540D01*
X4708025Y3281595D01*
X4733080Y3256540D01*
G37*
G36*
X4779040Y3210580D02*
X4753985Y3185525D01*
X4728930Y3210580D01*
X4753985Y3235635D01*
X4779040Y3210580D01*
G37*
G36*
X4663080Y3191540D02*
X4638025Y3166485D01*
X4612970Y3191540D01*
X4638025Y3216595D01*
X4663080Y3191540D01*
G37*
G36*
X4709040Y3145580D02*
X4683985Y3120525D01*
X4658930Y3145580D01*
X4683985Y3170635D01*
X4709040Y3145580D01*
G37*
G54D10*
X4816360Y2803560D02*
X4820290D01*
X4855730D02*
X4859660D01*
X4346590Y2683430D02*
X4350520D01*
X4307220D02*
X4311150D01*
X4750750Y2725740D02*
X4754680D01*
X4711380D02*
X4715310D01*
X4476780Y3173130D02*
X4480710D01*
X4516150D02*
X4520080D01*
X4435150Y3172130D02*
X4439080D01*
X4395780D02*
X4399710D01*
X4162480Y3254380D02*
X4166410D01*
X4201850D02*
X4205780D01*
X4242850Y3155380D02*
X4246780D01*
X4203480D02*
X4207410D01*
X4188470Y3055000D02*
X4192400D01*
X4149100D02*
X4153030D01*
X4330470D02*
X4334400D01*
X4291100D02*
X4295030D01*
X4244780Y2720130D02*
X4248710D01*
X4284150D02*
X4288080D01*
X4181480Y3003380D02*
X4185410D01*
X4220850D02*
X4224780D01*
X4510150Y3065130D02*
X4514080D01*
X4470780D02*
X4474710D01*
X4471100Y3093000D02*
X4475030D01*
X4510470D02*
X4514400D01*
X4734360Y3041560D02*
X4738290D01*
X4773730D02*
X4777660D01*
X4516140Y3222560D02*
X4520070D01*
X4476770D02*
X4480700D01*
G54D11*
X4866505Y2850560D03*
X4801505D03*
X4789505Y3098560D03*
X4724505D03*
G54D12*
X4349160Y2514370D02*
X4384590D01*
X4349160Y2632480D02*
X4384590D01*
G54D13*
X4690000Y2780050D02*
X4690990D01*
X4690000Y2799730D02*
X4690990D01*
X4749060D02*
X4750050D01*
X4749060Y2780050D02*
X4750050D01*
X4690505Y2818925D02*
Y2819915D01*
X4710185Y2818925D02*
Y2819915D01*
X4729875Y2818925D02*
Y2819915D01*
X4749555Y2818925D02*
Y2819915D01*
Y2759865D02*
Y2760855D01*
X4729875Y2759865D02*
Y2760855D01*
X4710185Y2759865D02*
Y2760855D01*
X4690505Y2759865D02*
Y2760855D01*
G54D14*
X4069195Y3178520D03*
G54D10*
X4555875Y3212835D02*
Y3216765D01*
Y3173465D02*
Y3177395D01*
X4205125Y3183735D02*
Y3187665D01*
Y3223105D02*
Y3227035D01*
Y3084735D02*
Y3088665D01*
Y3124105D02*
Y3128035D01*
X4294195Y3078865D02*
Y3082795D01*
Y3118235D02*
Y3122165D01*
X4492875Y2676925D02*
Y2680855D01*
Y2716295D02*
Y2720225D01*
X4655025Y2807095D02*
Y2811025D01*
Y2846465D02*
Y2850395D01*
X4791875Y2764405D02*
Y2768335D01*
Y2725035D02*
Y2728965D01*
X4738005Y2586905D02*
Y2590835D01*
Y2626275D02*
Y2630205D01*
X4569005Y2595915D02*
Y2599845D01*
Y2635285D02*
Y2639215D01*
X4449875Y2713145D02*
Y2717075D01*
Y2673775D02*
Y2677705D01*
X4257495Y3055000D02*
X4263395D01*
X4220095D02*
X4225995D01*
X4437495Y3083000D02*
X4443395D01*
X4400095D02*
X4405995D01*
X4399495Y3055000D02*
X4405395D01*
X4362095D02*
X4367995D01*
G36*
X4131515Y2884980D02*
X4148215Y2901680D01*
X4162135Y2887760D01*
X4145435Y2871060D01*
X4131515Y2884980D01*
G37*
G36*
X4159355Y2912820D02*
X4176055Y2929520D01*
X4189975Y2915600D01*
X4173275Y2898900D01*
X4159355Y2912820D01*
G37*
G36*
X4182355Y2888820D02*
X4199055Y2905520D01*
X4212975Y2891600D01*
X4196275Y2874900D01*
X4182355Y2888820D01*
G37*
G36*
X4154515Y2860980D02*
X4171215Y2877680D01*
X4185135Y2863760D01*
X4168435Y2847060D01*
X4154515Y2860980D01*
G37*
G36*
X4028355Y3044820D02*
X4045055Y3061520D01*
X4058975Y3047600D01*
X4042275Y3030900D01*
X4028355Y3044820D01*
G37*
G36*
X4000515Y3016980D02*
X4017215Y3033680D01*
X4031135Y3019760D01*
X4014435Y3003060D01*
X4000515Y3016980D01*
G37*
G36*
X4590465Y3291700D02*
X4607165Y3308400D01*
X4621085Y3294480D01*
X4604385Y3277780D01*
X4590465Y3291700D01*
G37*
G36*
X4618305Y3319540D02*
X4635005Y3336240D01*
X4648925Y3322320D01*
X4632225Y3305620D01*
X4618305Y3319540D01*
G37*
G36*
X4001935Y2969160D02*
X4035345Y3002570D01*
X4074315Y2963600D01*
X4040905Y2930190D01*
X4001935Y2969160D01*
G37*
G36*
X4060395Y2910700D02*
X4093805Y2944110D01*
X4132775Y2905140D01*
X4099365Y2871730D01*
X4060395Y2910700D01*
G37*
G36*
X4102155Y2952460D02*
X4135565Y2985870D01*
X4174535Y2946900D01*
X4141125Y2913490D01*
X4102155Y2952460D01*
G37*
G36*
X4043695Y3010920D02*
X4077105Y3044330D01*
X4116075Y3005360D01*
X4082665Y2971950D01*
X4043695Y3010920D01*
G37*
G54D11*
X4781005Y2609060D03*
Y2674060D03*
X4526005Y2568060D03*
Y2633060D03*
G36*
X4862085Y3187560D02*
X4828675Y3220970D01*
X4889925Y3282220D01*
X4923335Y3248810D01*
X4862085Y3187560D01*
G37*
G36*
X4807085Y3245230D02*
X4773675Y3278640D01*
X4834925Y3339890D01*
X4868335Y3306480D01*
X4807085Y3245230D01*
G37*
G36*
X4143625Y2693410D02*
X4099085Y2737950D01*
X4154765Y2793630D01*
X4199305Y2749090D01*
X4143625Y2693410D01*
G37*
G36*
X4236845Y2597630D02*
X4192305Y2642170D01*
X4253545Y2703410D01*
X4298085Y2658870D01*
X4236845Y2597630D01*
G37*
G36*
X4909845Y3097630D02*
X4865305Y3142170D01*
X4926545Y3203410D01*
X4971085Y3158870D01*
X4909845Y3097630D01*
G37*
G36*
X4743845Y3314630D02*
X4699305Y3359170D01*
X4760545Y3420410D01*
X4805085Y3375870D01*
X4743845Y3314630D01*
G37*
G54D15*
X4313525Y2747450D02*
Y2765170D01*
X4329275Y2747450D02*
Y2765170D01*
X4345025Y2747450D02*
Y2765170D01*
X4360765Y2747450D02*
Y2765170D01*
X4376515Y2747450D02*
Y2765170D01*
X4392265Y2747450D02*
Y2765170D01*
X4408015Y2747450D02*
Y2765170D01*
X4423765Y2747450D02*
Y2765170D01*
X4439505Y2747450D02*
Y2765170D01*
X4455255Y2747450D02*
Y2765170D01*
X4471005Y2747450D02*
Y2765170D01*
X4486755Y2747450D02*
Y2765170D01*
Y2985640D02*
Y3003360D01*
X4471005Y2985640D02*
Y3003360D01*
X4455255Y2985640D02*
Y3003360D01*
X4439505Y2985640D02*
Y3003360D01*
X4423765Y2985640D02*
Y3003360D01*
X4408015Y2985640D02*
Y3003360D01*
X4392265Y2985640D02*
Y3003360D01*
X4376515Y2985640D02*
Y3003360D01*
X4360765Y2985640D02*
Y3003360D01*
X4345025Y2985640D02*
Y3003360D01*
X4329275Y2985640D02*
Y3003360D01*
X4313525Y2985640D02*
Y3003360D01*
X4510375Y2788790D02*
X4528095D01*
X4510375Y2804530D02*
X4528095D01*
X4510375Y2820280D02*
X4528095D01*
X4510375Y2836030D02*
X4528095D01*
X4510375Y2851780D02*
X4528095D01*
X4510375Y2867530D02*
X4528095D01*
X4510375Y2883270D02*
X4528095D01*
X4510375Y2899020D02*
X4528095D01*
X4510375Y2914770D02*
X4528095D01*
X4510375Y2930520D02*
X4528095D01*
X4510375Y2946270D02*
X4528095D01*
X4510375Y2962010D02*
X4528095D01*
X4272185D02*
X4289905D01*
X4272185Y2946270D02*
X4289905D01*
X4272185Y2930520D02*
X4289905D01*
X4272185Y2914770D02*
X4289905D01*
X4272185Y2899020D02*
X4289905D01*
X4272185Y2883270D02*
X4289905D01*
X4272185Y2867530D02*
X4289905D01*
X4272185Y2851780D02*
X4289905D01*
X4272185Y2836030D02*
X4289905D01*
X4272185Y2820280D02*
X4289905D01*
X4272185Y2804530D02*
X4289905D01*
X4272185Y2788790D02*
X4289905D01*
G54D16*
X4400135Y2875400D03*
G54D17*
X4697590Y2567560D02*
X4709400D01*
X4697590Y2604960D02*
X4709400D01*
X4697590Y2642360D02*
X4709400D01*
X4603100Y2644330D02*
X4614910D01*
X4603100Y2567560D02*
X4614910D01*
G54D18*
X4308875Y3188430D03*
G36*
X4668675Y3268635D02*
X4643620Y3293690D01*
X4668675Y3318745D01*
X4693730Y3293690D01*
X4668675Y3268635D01*
G37*
G36*
X4622705Y3222675D02*
X4597650Y3247730D01*
X4622705Y3272785D01*
X4647760Y3247730D01*
X4622705Y3222675D01*
G37*
G54D19*
X4919275Y2626420D02*
G03X4936305Y2627150I8165J8530D01*
G03X5071205Y2911970I-428428J377274D01*
X5071195Y2911960D02*
G03X5059545Y2925690I-11662J1912D01*
X5041785Y2937500D02*
G03X5053595Y2925690I11810J0D01*
Y3083170D02*
G03X5041785Y3071360I0J-11810D01*
X5059545Y3083170D02*
G03X5071195Y3096890I-2J11808D01*
X5071205D02*
G03X4600335Y3567760I-563330J-92460D01*
Y3567750D02*
G03X4586615Y3556100I-1907J-11658D01*
X4574805Y3538340D02*
G03X4586615Y3550150I0J11810D01*
X4429135D02*
G03X4440945Y3538340I11810J0D01*
X4429135Y3556100D02*
G03X4415405Y3567750I-11809J-1D01*
X4415415Y3567760D02*
G03X4130595Y3432860I92456J-563332D01*
G03X4129865Y3415830I7810J-8865D01*
X4096465Y3382430D02*
G03X4129865Y3415830I16330J17070D01*
X4096465Y3382430D02*
G03X4079445Y3381700I-8160J-8530D01*
G03X3944545Y3096890I428427J-377277D01*
G03X3956195Y3083170I11658J-1907D01*
X3973955Y3071360D02*
G03X3962145Y3083170I-11810J0D01*
Y2925690D02*
G03X3973955Y2937500I0J11810D01*
X3956195Y2925690D02*
G03X3944545Y2911960I1J-11809D01*
Y2911970D02*
G03X4415415Y2441100I563330J92460D01*
X4415405D02*
G03X4429135Y2452750I1912J11662D01*
X4440945Y2470510D02*
G03X4429135Y2458700I0J-11810D01*
X4586615D02*
G03X4574805Y2470510I-11810J0D01*
X4586615Y2452750D02*
G03X4600335Y2441100I11808J2D01*
G03X4885145Y2576000I-92467J563327D01*
G03X4885875Y2593020I-7810J8861D01*
X4919275Y2626420D02*
G03X4885875Y2593020I-16330J-17070D01*
X5053595Y2925690D02*
G01X5059545D01*
X5041785Y2937500D02*
Y3071360D01*
X5053595Y3083170D02*
X5059545D01*
X4586615Y3550150D02*
Y3556100D01*
X4440945Y3538340D02*
X4574805D01*
X4429135Y3550150D02*
Y3556100D01*
X3956195Y3083170D02*
X3962145D01*
X3973955Y2937500D02*
Y3071360D01*
X3956195Y2925690D02*
X3962145D01*
X4429135Y2452750D02*
Y2458700D01*
X4440945Y2470510D02*
X4574805D01*
X4586615Y2452750D02*
Y2458700D01*
G36*
X4733080Y4477013D02*
X4708025Y4451958D01*
X4682970Y4477013D01*
X4708025Y4502068D01*
X4733080Y4477013D01*
G37*
G36*
X4779040Y4431053D02*
X4753985Y4405998D01*
X4728930Y4431053D01*
X4753985Y4456108D01*
X4779040Y4431053D01*
G37*
G36*
X4663080Y4412013D02*
X4638025Y4386958D01*
X4612970Y4412013D01*
X4638025Y4437068D01*
X4663080Y4412013D01*
G37*
G36*
X4709040Y4366053D02*
X4683985Y4340998D01*
X4658930Y4366053D01*
X4683985Y4391108D01*
X4709040Y4366053D01*
G37*
G54D10*
X4816360Y4024033D02*
X4820290D01*
X4855730D02*
X4859660D01*
X4346590Y3903903D02*
X4350520D01*
X4307220D02*
X4311150D01*
X4750750Y3946213D02*
X4754680D01*
X4711380D02*
X4715310D01*
X4476780Y4393603D02*
X4480710D01*
X4516150D02*
X4520080D01*
X4435150Y4392603D02*
X4439080D01*
X4395780D02*
X4399710D01*
X4162480Y4474853D02*
X4166410D01*
X4201850D02*
X4205780D01*
X4242850Y4375853D02*
X4246780D01*
X4203480D02*
X4207410D01*
X4188470Y4275473D02*
X4192400D01*
X4149100D02*
X4153030D01*
X4330470D02*
X4334400D01*
X4291100D02*
X4295030D01*
X4244780Y3940603D02*
X4248710D01*
X4284150D02*
X4288080D01*
X4181480Y4223853D02*
X4185410D01*
X4220850D02*
X4224780D01*
X4510150Y4285603D02*
X4514080D01*
X4470780D02*
X4474710D01*
X4471100Y4313473D02*
X4475030D01*
X4510470D02*
X4514400D01*
X4734360Y4262033D02*
X4738290D01*
X4773730D02*
X4777660D01*
X4516140Y4443033D02*
X4520070D01*
X4476770D02*
X4480700D01*
G54D11*
X4866505Y4071033D03*
X4801505D03*
X4789505Y4319033D03*
X4724505D03*
G54D12*
X4349160Y3734843D02*
X4384590D01*
X4349160Y3852953D02*
X4384590D01*
G54D13*
X4690000Y4000523D02*
X4690990D01*
X4690000Y4020203D02*
X4690990D01*
X4749060D02*
X4750050D01*
X4749060Y4000523D02*
X4750050D01*
X4690505Y4039398D02*
Y4040388D01*
X4710185Y4039398D02*
Y4040388D01*
X4729875Y4039398D02*
Y4040388D01*
X4749555Y4039398D02*
Y4040388D01*
Y3980338D02*
Y3981328D01*
X4729875Y3980338D02*
Y3981328D01*
X4710185Y3980338D02*
Y3981328D01*
X4690505Y3980338D02*
Y3981328D01*
G54D14*
X4069195Y4398993D03*
G54D10*
X4555875Y4433308D02*
Y4437238D01*
Y4393938D02*
Y4397868D01*
X4205125Y4404208D02*
Y4408138D01*
Y4443578D02*
Y4447508D01*
Y4305208D02*
Y4309138D01*
Y4344578D02*
Y4348508D01*
X4294195Y4299338D02*
Y4303268D01*
Y4338708D02*
Y4342638D01*
X4492875Y3897398D02*
Y3901328D01*
Y3936768D02*
Y3940698D01*
X4655025Y4027568D02*
Y4031498D01*
Y4066938D02*
Y4070868D01*
X4791875Y3984878D02*
Y3988808D01*
Y3945508D02*
Y3949438D01*
X4738005Y3807378D02*
Y3811308D01*
Y3846748D02*
Y3850678D01*
X4569005Y3816388D02*
Y3820318D01*
Y3855758D02*
Y3859688D01*
X4449875Y3933618D02*
Y3937548D01*
Y3894248D02*
Y3898178D01*
X4257495Y4275473D02*
X4263395D01*
X4220095D02*
X4225995D01*
X4437495Y4303473D02*
X4443395D01*
X4400095D02*
X4405995D01*
X4399495Y4275473D02*
X4405395D01*
X4362095D02*
X4367995D01*
G36*
X4131515Y4105453D02*
X4148215Y4122153D01*
X4162135Y4108233D01*
X4145435Y4091533D01*
X4131515Y4105453D01*
G37*
G36*
X4159355Y4133293D02*
X4176055Y4149993D01*
X4189975Y4136073D01*
X4173275Y4119373D01*
X4159355Y4133293D01*
G37*
G36*
X4182355Y4109293D02*
X4199055Y4125993D01*
X4212975Y4112073D01*
X4196275Y4095373D01*
X4182355Y4109293D01*
G37*
G36*
X4154515Y4081453D02*
X4171215Y4098153D01*
X4185135Y4084233D01*
X4168435Y4067533D01*
X4154515Y4081453D01*
G37*
G36*
X4028355Y4265293D02*
X4045055Y4281993D01*
X4058975Y4268073D01*
X4042275Y4251373D01*
X4028355Y4265293D01*
G37*
G36*
X4000515Y4237453D02*
X4017215Y4254153D01*
X4031135Y4240233D01*
X4014435Y4223533D01*
X4000515Y4237453D01*
G37*
G36*
X4590465Y4512173D02*
X4607165Y4528873D01*
X4621085Y4514953D01*
X4604385Y4498253D01*
X4590465Y4512173D01*
G37*
G36*
X4618305Y4540013D02*
X4635005Y4556713D01*
X4648925Y4542793D01*
X4632225Y4526093D01*
X4618305Y4540013D01*
G37*
G36*
X4001935Y4189633D02*
X4035345Y4223043D01*
X4074315Y4184073D01*
X4040905Y4150663D01*
X4001935Y4189633D01*
G37*
G36*
X4060395Y4131173D02*
X4093805Y4164583D01*
X4132775Y4125613D01*
X4099365Y4092203D01*
X4060395Y4131173D01*
G37*
G36*
X4102155Y4172933D02*
X4135565Y4206343D01*
X4174535Y4167373D01*
X4141125Y4133963D01*
X4102155Y4172933D01*
G37*
G36*
X4043695Y4231393D02*
X4077105Y4264803D01*
X4116075Y4225833D01*
X4082665Y4192423D01*
X4043695Y4231393D01*
G37*
G54D11*
X4781005Y3829533D03*
Y3894533D03*
X4526005Y3788533D03*
Y3853533D03*
G36*
X4862085Y4408033D02*
X4828675Y4441443D01*
X4889925Y4502693D01*
X4923335Y4469283D01*
X4862085Y4408033D01*
G37*
G36*
X4807085Y4465703D02*
X4773675Y4499113D01*
X4834925Y4560363D01*
X4868335Y4526953D01*
X4807085Y4465703D01*
G37*
G36*
X4143625Y3913883D02*
X4099085Y3958423D01*
X4154765Y4014103D01*
X4199305Y3969563D01*
X4143625Y3913883D01*
G37*
G36*
X4236845Y3818103D02*
X4192305Y3862643D01*
X4253545Y3923883D01*
X4298085Y3879343D01*
X4236845Y3818103D01*
G37*
G36*
X4909845Y4318103D02*
X4865305Y4362643D01*
X4926545Y4423883D01*
X4971085Y4379343D01*
X4909845Y4318103D01*
G37*
G36*
X4743845Y4535103D02*
X4699305Y4579643D01*
X4760545Y4640883D01*
X4805085Y4596343D01*
X4743845Y4535103D01*
G37*
G54D15*
X4313525Y3967923D02*
Y3985643D01*
X4329275Y3967923D02*
Y3985643D01*
X4345025Y3967923D02*
Y3985643D01*
X4360765Y3967923D02*
Y3985643D01*
X4376515Y3967923D02*
Y3985643D01*
X4392265Y3967923D02*
Y3985643D01*
X4408015Y3967923D02*
Y3985643D01*
X4423765Y3967923D02*
Y3985643D01*
X4439505Y3967923D02*
Y3985643D01*
X4455255Y3967923D02*
Y3985643D01*
X4471005Y3967923D02*
Y3985643D01*
X4486755Y3967923D02*
Y3985643D01*
Y4206113D02*
Y4223833D01*
X4471005Y4206113D02*
Y4223833D01*
X4455255Y4206113D02*
Y4223833D01*
X4439505Y4206113D02*
Y4223833D01*
X4423765Y4206113D02*
Y4223833D01*
X4408015Y4206113D02*
Y4223833D01*
X4392265Y4206113D02*
Y4223833D01*
X4376515Y4206113D02*
Y4223833D01*
X4360765Y4206113D02*
Y4223833D01*
X4345025Y4206113D02*
Y4223833D01*
X4329275Y4206113D02*
Y4223833D01*
X4313525Y4206113D02*
Y4223833D01*
X4510375Y4009263D02*
X4528095D01*
X4510375Y4025003D02*
X4528095D01*
X4510375Y4040753D02*
X4528095D01*
X4510375Y4056503D02*
X4528095D01*
X4510375Y4072253D02*
X4528095D01*
X4510375Y4088003D02*
X4528095D01*
X4510375Y4103743D02*
X4528095D01*
X4510375Y4119493D02*
X4528095D01*
X4510375Y4135243D02*
X4528095D01*
X4510375Y4150993D02*
X4528095D01*
X4510375Y4166743D02*
X4528095D01*
X4510375Y4182483D02*
X4528095D01*
X4272185D02*
X4289905D01*
X4272185Y4166743D02*
X4289905D01*
X4272185Y4150993D02*
X4289905D01*
X4272185Y4135243D02*
X4289905D01*
X4272185Y4119493D02*
X4289905D01*
X4272185Y4103743D02*
X4289905D01*
X4272185Y4088003D02*
X4289905D01*
X4272185Y4072253D02*
X4289905D01*
X4272185Y4056503D02*
X4289905D01*
X4272185Y4040753D02*
X4289905D01*
X4272185Y4025003D02*
X4289905D01*
X4272185Y4009263D02*
X4289905D01*
G54D16*
X4400135Y4095873D03*
G54D17*
X4697590Y3788033D02*
X4709400D01*
X4697590Y3825433D02*
X4709400D01*
X4697590Y3862833D02*
X4709400D01*
X4603100Y3864803D02*
X4614910D01*
X4603100Y3788033D02*
X4614910D01*
G54D18*
X4308875Y4408903D03*
G36*
X4668675Y4489108D02*
X4643620Y4514163D01*
X4668675Y4539218D01*
X4693730Y4514163D01*
X4668675Y4489108D01*
G37*
G36*
X4622705Y4443148D02*
X4597650Y4468203D01*
X4622705Y4493258D01*
X4647760Y4468203D01*
X4622705Y4443148D01*
G37*
G54D19*
X4919275Y3846893D02*
G03X4936305Y3847623I8165J8530D01*
G03X5071205Y4132443I-428428J377274D01*
X5071195Y4132433D02*
G03X5059545Y4146163I-11662J1912D01*
X5041785Y4157973D02*
G03X5053595Y4146163I11810J0D01*
Y4303643D02*
G03X5041785Y4291833I0J-11810D01*
X5059545Y4303643D02*
G03X5071195Y4317363I-2J11808D01*
X5071205D02*
G03X4600335Y4788233I-563330J-92460D01*
Y4788223D02*
G03X4586615Y4776573I-1907J-11658D01*
X4574805Y4758813D02*
G03X4586615Y4770623I0J11810D01*
X4429135D02*
G03X4440945Y4758813I11810J0D01*
X4429135Y4776573D02*
G03X4415405Y4788223I-11809J-1D01*
X4415415Y4788233D02*
G03X4130595Y4653333I92456J-563332D01*
G03X4129865Y4636303I7810J-8865D01*
X4096465Y4602903D02*
G03X4129865Y4636303I16330J17070D01*
X4096465Y4602903D02*
G03X4079445Y4602173I-8160J-8530D01*
G03X3944545Y4317363I428427J-377277D01*
G03X3956195Y4303643I11658J-1907D01*
X3973955Y4291833D02*
G03X3962145Y4303643I-11810J0D01*
Y4146163D02*
G03X3973955Y4157973I0J11810D01*
X3956195Y4146163D02*
G03X3944545Y4132433I1J-11809D01*
Y4132443D02*
G03X4415415Y3661573I563330J92460D01*
X4415405D02*
G03X4429135Y3673223I1912J11662D01*
X4440945Y3690983D02*
G03X4429135Y3679173I0J-11810D01*
X4586615D02*
G03X4574805Y3690983I-11810J0D01*
X4586615Y3673223D02*
G03X4600335Y3661573I11808J2D01*
G03X4885145Y3796473I-92467J563327D01*
G03X4885875Y3813493I-7810J8861D01*
X4919275Y3846893D02*
G03X4885875Y3813493I-16330J-17070D01*
X5053595Y4146163D02*
G01X5059545D01*
X5041785Y4157973D02*
Y4291833D01*
X5053595Y4303643D02*
X5059545D01*
X4586615Y4770623D02*
Y4776573D01*
X4440945Y4758813D02*
X4574805D01*
X4429135Y4770623D02*
Y4776573D01*
X3956195Y4303643D02*
X3962145D01*
X3973955Y4157973D02*
Y4291833D01*
X3956195Y4146163D02*
X3962145D01*
X4429135Y3673223D02*
Y3679173D01*
X4440945Y3690983D02*
X4574805D01*
X4586615Y3673223D02*
Y3679173D01*
G36*
X4733080Y5697485D02*
X4708025Y5672430D01*
X4682970Y5697485D01*
X4708025Y5722540D01*
X4733080Y5697485D01*
G37*
G36*
X4779040Y5651525D02*
X4753985Y5626470D01*
X4728930Y5651525D01*
X4753985Y5676580D01*
X4779040Y5651525D01*
G37*
G36*
X4663080Y5632485D02*
X4638025Y5607430D01*
X4612970Y5632485D01*
X4638025Y5657540D01*
X4663080Y5632485D01*
G37*
G36*
X4709040Y5586525D02*
X4683985Y5561470D01*
X4658930Y5586525D01*
X4683985Y5611580D01*
X4709040Y5586525D01*
G37*
G54D10*
X4816360Y5244505D02*
X4820290D01*
X4855730D02*
X4859660D01*
X4346590Y5124375D02*
X4350520D01*
X4307220D02*
X4311150D01*
X4750750Y5166685D02*
X4754680D01*
X4711380D02*
X4715310D01*
X4476780Y5614075D02*
X4480710D01*
X4516150D02*
X4520080D01*
X4435150Y5613075D02*
X4439080D01*
X4395780D02*
X4399710D01*
X4162480Y5695325D02*
X4166410D01*
X4201850D02*
X4205780D01*
X4242850Y5596325D02*
X4246780D01*
X4203480D02*
X4207410D01*
X4188470Y5495945D02*
X4192400D01*
X4149100D02*
X4153030D01*
X4330470D02*
X4334400D01*
X4291100D02*
X4295030D01*
X4244780Y5161075D02*
X4248710D01*
X4284150D02*
X4288080D01*
X4181480Y5444325D02*
X4185410D01*
X4220850D02*
X4224780D01*
X4510150Y5506075D02*
X4514080D01*
X4470780D02*
X4474710D01*
X4471100Y5533945D02*
X4475030D01*
X4510470D02*
X4514400D01*
X4734360Y5482505D02*
X4738290D01*
X4773730D02*
X4777660D01*
X4516140Y5663505D02*
X4520070D01*
X4476770D02*
X4480700D01*
G54D11*
X4866505Y5291505D03*
X4801505D03*
X4789505Y5539505D03*
X4724505D03*
G54D12*
X4349160Y4955315D02*
X4384590D01*
X4349160Y5073425D02*
X4384590D01*
G54D13*
X4690000Y5220995D02*
X4690990D01*
X4690000Y5240675D02*
X4690990D01*
X4749060D02*
X4750050D01*
X4749060Y5220995D02*
X4750050D01*
X4690505Y5259870D02*
Y5260860D01*
X4710185Y5259870D02*
Y5260860D01*
X4729875Y5259870D02*
Y5260860D01*
X4749555Y5259870D02*
Y5260860D01*
Y5200810D02*
Y5201800D01*
X4729875Y5200810D02*
Y5201800D01*
X4710185Y5200810D02*
Y5201800D01*
X4690505Y5200810D02*
Y5201800D01*
G54D14*
X4069195Y5619465D03*
G54D10*
X4555875Y5653780D02*
Y5657710D01*
Y5614410D02*
Y5618340D01*
X4205125Y5624680D02*
Y5628610D01*
Y5664050D02*
Y5667980D01*
Y5525680D02*
Y5529610D01*
Y5565050D02*
Y5568980D01*
X4294195Y5519810D02*
Y5523740D01*
Y5559180D02*
Y5563110D01*
X4492875Y5117870D02*
Y5121800D01*
Y5157240D02*
Y5161170D01*
X4655025Y5248040D02*
Y5251970D01*
Y5287410D02*
Y5291340D01*
X4791875Y5205350D02*
Y5209280D01*
Y5165980D02*
Y5169910D01*
X4738005Y5027850D02*
Y5031780D01*
Y5067220D02*
Y5071150D01*
X4569005Y5036860D02*
Y5040790D01*
Y5076230D02*
Y5080160D01*
X4449875Y5154090D02*
Y5158020D01*
Y5114720D02*
Y5118650D01*
X4257495Y5495945D02*
X4263395D01*
X4220095D02*
X4225995D01*
X4437495Y5523945D02*
X4443395D01*
X4400095D02*
X4405995D01*
X4399495Y5495945D02*
X4405395D01*
X4362095D02*
X4367995D01*
G36*
X4131515Y5325925D02*
X4148215Y5342625D01*
X4162135Y5328705D01*
X4145435Y5312005D01*
X4131515Y5325925D01*
G37*
G36*
X4159355Y5353765D02*
X4176055Y5370465D01*
X4189975Y5356545D01*
X4173275Y5339845D01*
X4159355Y5353765D01*
G37*
G36*
X4182355Y5329765D02*
X4199055Y5346465D01*
X4212975Y5332545D01*
X4196275Y5315845D01*
X4182355Y5329765D01*
G37*
G36*
X4154515Y5301925D02*
X4171215Y5318625D01*
X4185135Y5304705D01*
X4168435Y5288005D01*
X4154515Y5301925D01*
G37*
G36*
X4028355Y5485765D02*
X4045055Y5502465D01*
X4058975Y5488545D01*
X4042275Y5471845D01*
X4028355Y5485765D01*
G37*
G36*
X4000515Y5457925D02*
X4017215Y5474625D01*
X4031135Y5460705D01*
X4014435Y5444005D01*
X4000515Y5457925D01*
G37*
G36*
X4590465Y5732645D02*
X4607165Y5749345D01*
X4621085Y5735425D01*
X4604385Y5718725D01*
X4590465Y5732645D01*
G37*
G36*
X4618305Y5760485D02*
X4635005Y5777185D01*
X4648925Y5763265D01*
X4632225Y5746565D01*
X4618305Y5760485D01*
G37*
G36*
X4001935Y5410105D02*
X4035345Y5443515D01*
X4074315Y5404545D01*
X4040905Y5371135D01*
X4001935Y5410105D01*
G37*
G36*
X4060395Y5351645D02*
X4093805Y5385055D01*
X4132775Y5346085D01*
X4099365Y5312675D01*
X4060395Y5351645D01*
G37*
G36*
X4102155Y5393405D02*
X4135565Y5426815D01*
X4174535Y5387845D01*
X4141125Y5354435D01*
X4102155Y5393405D01*
G37*
G36*
X4043695Y5451865D02*
X4077105Y5485275D01*
X4116075Y5446305D01*
X4082665Y5412895D01*
X4043695Y5451865D01*
G37*
G54D11*
X4781005Y5050005D03*
Y5115005D03*
X4526005Y5009005D03*
Y5074005D03*
G36*
X4862085Y5628505D02*
X4828675Y5661915D01*
X4889925Y5723165D01*
X4923335Y5689755D01*
X4862085Y5628505D01*
G37*
G36*
X4807085Y5686175D02*
X4773675Y5719585D01*
X4834925Y5780835D01*
X4868335Y5747425D01*
X4807085Y5686175D01*
G37*
G36*
X4143625Y5134355D02*
X4099085Y5178895D01*
X4154765Y5234575D01*
X4199305Y5190035D01*
X4143625Y5134355D01*
G37*
G36*
X4236845Y5038575D02*
X4192305Y5083115D01*
X4253545Y5144355D01*
X4298085Y5099815D01*
X4236845Y5038575D01*
G37*
G36*
X4909845Y5538575D02*
X4865305Y5583115D01*
X4926545Y5644355D01*
X4971085Y5599815D01*
X4909845Y5538575D01*
G37*
G36*
X4743845Y5755575D02*
X4699305Y5800115D01*
X4760545Y5861355D01*
X4805085Y5816815D01*
X4743845Y5755575D01*
G37*
G54D15*
X4313525Y5188395D02*
Y5206115D01*
X4329275Y5188395D02*
Y5206115D01*
X4345025Y5188395D02*
Y5206115D01*
X4360765Y5188395D02*
Y5206115D01*
X4376515Y5188395D02*
Y5206115D01*
X4392265Y5188395D02*
Y5206115D01*
X4408015Y5188395D02*
Y5206115D01*
X4423765Y5188395D02*
Y5206115D01*
X4439505Y5188395D02*
Y5206115D01*
X4455255Y5188395D02*
Y5206115D01*
X4471005Y5188395D02*
Y5206115D01*
X4486755Y5188395D02*
Y5206115D01*
Y5426585D02*
Y5444305D01*
X4471005Y5426585D02*
Y5444305D01*
X4455255Y5426585D02*
Y5444305D01*
X4439505Y5426585D02*
Y5444305D01*
X4423765Y5426585D02*
Y5444305D01*
X4408015Y5426585D02*
Y5444305D01*
X4392265Y5426585D02*
Y5444305D01*
X4376515Y5426585D02*
Y5444305D01*
X4360765Y5426585D02*
Y5444305D01*
X4345025Y5426585D02*
Y5444305D01*
X4329275Y5426585D02*
Y5444305D01*
X4313525Y5426585D02*
Y5444305D01*
X4510375Y5229735D02*
X4528095D01*
X4510375Y5245475D02*
X4528095D01*
X4510375Y5261225D02*
X4528095D01*
X4510375Y5276975D02*
X4528095D01*
X4510375Y5292725D02*
X4528095D01*
X4510375Y5308475D02*
X4528095D01*
X4510375Y5324215D02*
X4528095D01*
X4510375Y5339965D02*
X4528095D01*
X4510375Y5355715D02*
X4528095D01*
X4510375Y5371465D02*
X4528095D01*
X4510375Y5387215D02*
X4528095D01*
X4510375Y5402955D02*
X4528095D01*
X4272185D02*
X4289905D01*
X4272185Y5387215D02*
X4289905D01*
X4272185Y5371465D02*
X4289905D01*
X4272185Y5355715D02*
X4289905D01*
X4272185Y5339965D02*
X4289905D01*
X4272185Y5324215D02*
X4289905D01*
X4272185Y5308475D02*
X4289905D01*
X4272185Y5292725D02*
X4289905D01*
X4272185Y5276975D02*
X4289905D01*
X4272185Y5261225D02*
X4289905D01*
X4272185Y5245475D02*
X4289905D01*
X4272185Y5229735D02*
X4289905D01*
G54D16*
X4400135Y5316345D03*
G54D17*
X4697590Y5008505D02*
X4709400D01*
X4697590Y5045905D02*
X4709400D01*
X4697590Y5083305D02*
X4709400D01*
X4603100Y5085275D02*
X4614910D01*
X4603100Y5008505D02*
X4614910D01*
G54D18*
X4308875Y5629375D03*
G36*
X4668675Y5709580D02*
X4643620Y5734635D01*
X4668675Y5759690D01*
X4693730Y5734635D01*
X4668675Y5709580D01*
G37*
G36*
X4622705Y5663620D02*
X4597650Y5688675D01*
X4622705Y5713730D01*
X4647760Y5688675D01*
X4622705Y5663620D01*
G37*
G54D19*
X4919275Y5067365D02*
G03X4936305Y5068095I8165J8530D01*
G03X5071205Y5352915I-428428J377274D01*
X5071195Y5352905D02*
G03X5059545Y5366635I-11662J1912D01*
X5041785Y5378445D02*
G03X5053595Y5366635I11810J0D01*
Y5524115D02*
G03X5041785Y5512305I0J-11810D01*
X5059545Y5524115D02*
G03X5071195Y5537835I-2J11808D01*
X5071205D02*
G03X4600335Y6008705I-563330J-92460D01*
Y6008695D02*
G03X4586615Y5997045I-1907J-11658D01*
X4574805Y5979285D02*
G03X4586615Y5991095I0J11810D01*
X4429135D02*
G03X4440945Y5979285I11810J0D01*
X4429135Y5997045D02*
G03X4415405Y6008695I-11809J-1D01*
X4415415Y6008705D02*
G03X4130595Y5873805I92456J-563332D01*
G03X4129865Y5856775I7810J-8865D01*
X4096465Y5823375D02*
G03X4129865Y5856775I16330J17070D01*
X4096465Y5823375D02*
G03X4079445Y5822645I-8160J-8530D01*
G03X3944545Y5537835I428427J-377277D01*
G03X3956195Y5524115I11658J-1907D01*
X3973955Y5512305D02*
G03X3962145Y5524115I-11810J0D01*
Y5366635D02*
G03X3973955Y5378445I0J11810D01*
X3956195Y5366635D02*
G03X3944545Y5352905I1J-11809D01*
Y5352915D02*
G03X4415415Y4882045I563330J92460D01*
X4415405D02*
G03X4429135Y4893695I1912J11662D01*
X4440945Y4911455D02*
G03X4429135Y4899645I0J-11810D01*
X4586615D02*
G03X4574805Y4911455I-11810J0D01*
X4586615Y4893695D02*
G03X4600335Y4882045I11808J2D01*
G03X4885145Y5016945I-92467J563327D01*
G03X4885875Y5033965I-7810J8861D01*
X4919275Y5067365D02*
G03X4885875Y5033965I-16330J-17070D01*
X5053595Y5366635D02*
G01X5059545D01*
X5041785Y5378445D02*
Y5512305D01*
X5053595Y5524115D02*
X5059545D01*
X4586615Y5991095D02*
Y5997045D01*
X4440945Y5979285D02*
X4574805D01*
X4429135Y5991095D02*
Y5997045D01*
X3956195Y5524115D02*
X3962145D01*
X3973955Y5378445D02*
Y5512305D01*
X3956195Y5366635D02*
X3962145D01*
X4429135Y4893695D02*
Y4899645D01*
X4440945Y4911455D02*
X4574805D01*
X4586615Y4893695D02*
Y4899645D01*
G54D20*
X256700Y1511606D02*
G03X326212Y1548942I34756J18667D01*
X450778Y1372465D02*
G03X392319Y1319470I-29229J-26497D01*
X209077Y1909398D02*
G03X256700Y1511606I637381J-125440D01*
X1391413Y1613924D02*
G03X1453724Y1569554I36767J-14305D01*
X1353535Y1377930D02*
G03X1289085Y1423450I-32225J22760D01*
X1333983Y1354652D02*
G01X1353535Y1377930D01*
X1300667Y2129765D02*
G03X1366575Y2173146I32954J21691D01*
X1455891Y1982024D02*
G03X1396653Y1936191I-22025J-32731D01*
X296642Y1937551D02*
G03X222281Y1963940I-37180J13194D01*
X327232Y2174329D02*
G03X393039Y2130796I32904J-21766D01*
X358932Y2213263D02*
G01X327232Y2174330D01*
X392320Y1319470D02*
G03X545053Y1208506I454138J464487D01*
X1148024Y1208593D02*
G03X1275766Y1296434I-301570J575363D01*
G03X1299897Y1330514I-59847J67960D01*
Y1330515D02*
G03X1333983Y1354652I-33874J83973D01*
X1366575Y2173146D02*
G03X1148025Y2359325I-520118J-389189D01*
X544892Y2359322D02*
G03X358933Y2213263I301572J-575362D01*
X222283Y1963940D02*
G03X205433Y1889205I624173J-179992D01*
X1477172Y1511606D02*
G03X1546684Y1548942I34756J18667D01*
X1671250Y1372465D02*
G03X1612791Y1319470I-29229J-26497D01*
X1453726Y1569554D02*
G03X1477172Y1511606I613206J214399D01*
X2611886Y1613924D02*
G03X2674197Y1569554I36767J-14305D01*
X2574007Y1377930D02*
G03X2509557Y1423450I-32225J22760D01*
X2554456Y1354652D02*
G01X2574007Y1377930D01*
X2521140Y2129765D02*
G03X2587047Y2173146I32954J21691D01*
X2676363Y1982024D02*
G03X2617125Y1936191I-22025J-32731D01*
X1517114Y1937551D02*
G03X1455891Y1982024I-37180J13194D01*
X1547705Y2174329D02*
G03X1613512Y2130796I32904J-21766D01*
X1579405Y2213263D02*
G01X1547705Y2174330D01*
X1612793Y1319470D02*
G03X1765363Y1208591I454139J464486D01*
X2368496Y1208593D02*
G03X2496238Y1296434I-301570J575363D01*
G03X2520369Y1330514I-59847J67960D01*
Y1330515D02*
G03X2554456Y1354652I-33874J83973D01*
X2587047Y2173146D02*
G03X2368497Y2359325I-520118J-389189D01*
X1765364Y2359322D02*
G03X1579406Y2213263I301572J-575362D01*
X2697645Y1511606D02*
G03X2767157Y1548942I34756J18667D01*
X2891722Y1372465D02*
G03X2833264Y1319470I-29229J-26497D01*
X2674198Y1569554D02*
G03X2697645Y1511606I613206J214399D01*
X3832358Y1613924D02*
G03X3894669Y1569554I36767J-14305D01*
X3794480Y1377930D02*
G03X3730030Y1423450I-32225J22760D01*
X3774928Y1354652D02*
G01X3794480Y1377930D01*
X3741612Y2129765D02*
G03X3807520Y2173146I32954J21691D01*
X3896836Y1982024D02*
G03X3837598Y1936191I-22025J-32731D01*
X2737587Y1937551D02*
G03X2676363Y1982024I-37180J13194D01*
X2768177Y2174329D02*
G03X2833984Y2130796I32904J-21766D01*
X2799877Y2213263D02*
G01X2768177Y2174330D01*
X2833265Y1319470D02*
G03X2985836Y1208591I454139J464486D01*
X3588969Y1208593D02*
G03X3716711Y1296434I-301570J575363D01*
G03X3740842Y1330514I-59847J67960D01*
Y1330515D02*
G03X3774928Y1354652I-33874J83973D01*
X3807520Y2173146D02*
G03X3588970Y2359325I-520118J-389189D01*
X2985837Y2359322D02*
G03X2799878Y2213263I301572J-575362D01*
X256700Y2732079D02*
G03X326212Y2769414I34756J18667D01*
X450778Y2592937D02*
G03X392319Y2539943I-29229J-26497D01*
X209077Y3129871D02*
G03X256700Y2732079I637381J-125440D01*
X1391413Y2834396D02*
G03X1453724Y2790026I36767J-14305D01*
X1353535Y2598403D02*
G03X1289085Y2643922I-32225J22760D01*
X1333983Y2575125D02*
G01X1353535Y2598403D01*
X1300667Y3350237D02*
G03X1366575Y3393619I32954J21691D01*
X1455891Y3202496D02*
G03X1396653Y3156663I-22025J-32731D01*
X296642Y3158024D02*
G03X222281Y3184412I-37180J13194D01*
X327232Y3394801D02*
G03X393039Y3351269I32904J-21766D01*
X358932Y3433735D02*
G01X327232Y3394802D01*
X392320Y2539943D02*
G03X544891Y2429063I454139J464486D01*
X1148024Y2429066D02*
G03X1275766Y2516906I-301570J575363D01*
G03X1299897Y2550986I-59847J67960D01*
Y2550987D02*
G03X1333983Y2575125I-33874J83973D01*
X1366575Y3393619D02*
G03X1148025Y3579797I-520117J-389189D01*
X544892Y3579794D02*
G03X358933Y3433735I301572J-575362D01*
X222283Y3184412D02*
G03X205433Y3109677I624173J-179992D01*
X1477172Y2732079D02*
G03X1546684Y2769414I34756J18667D01*
X1671250Y2592937D02*
G03X1612791Y2539943I-29229J-26497D01*
X1453726Y2790026D02*
G03X1477172Y2732079I613206J214399D01*
X2611886Y2834396D02*
G03X2674197Y2790026I36767J-14305D01*
X2574007Y2598403D02*
G03X2509557Y2643922I-32225J22760D01*
X2554456Y2575125D02*
G01X2574007Y2598403D01*
X2521140Y3350237D02*
G03X2587047Y3393619I32954J21691D01*
X2676363Y3202496D02*
G03X2617125Y3156663I-22025J-32731D01*
X1517114Y3158024D02*
G03X1455891Y3202496I-37180J13194D01*
X1547705Y3394801D02*
G03X1613512Y3351269I32904J-21766D01*
X1579405Y3433735D02*
G01X1547705Y3394802D01*
X1612793Y2539943D02*
G03X1765363Y2429063I454139J464486D01*
X2368496Y2429066D02*
G03X2496238Y2516906I-301570J575363D01*
G03X2520369Y2550986I-59847J67960D01*
Y2550987D02*
G03X2554456Y2575125I-33874J83973D01*
X2587047Y3393619D02*
G03X2368497Y3579797I-520117J-389189D01*
X1765364Y3579794D02*
G03X1579406Y3433735I301572J-575362D01*
X2697645Y2732079D02*
G03X2767157Y2769414I34756J18667D01*
X2891722Y2592937D02*
G03X2833264Y2539943I-29229J-26497D01*
X2674198Y2790026D02*
G03X2697645Y2732079I613206J214399D01*
X3832358Y2834396D02*
G03X3894669Y2790026I36767J-14305D01*
X3794480Y2598403D02*
G03X3730030Y2643922I-32225J22760D01*
X3774928Y2575125D02*
G01X3794480Y2598403D01*
X3741612Y3350237D02*
G03X3807520Y3393619I32954J21691D01*
X3896836Y3202496D02*
G03X3837598Y3156663I-22025J-32731D01*
X2737587Y3158024D02*
G03X2676363Y3202496I-37180J13194D01*
X2768177Y3394801D02*
G03X2833984Y3351269I32904J-21766D01*
X2799877Y3433735D02*
G01X2768177Y3394802D01*
X2833265Y2539943D02*
G03X2985836Y2429063I454139J464486D01*
X3588969Y2429066D02*
G03X3716711Y2516906I-301570J575363D01*
G03X3740842Y2550986I-59847J67960D01*
Y2550987D02*
G03X3774928Y2575125I-33874J83973D01*
X3807520Y3393619D02*
G03X3588970Y3579797I-520117J-389189D01*
X2985837Y3579794D02*
G03X2799878Y3433735I301572J-575362D01*
X256700Y3952551D02*
G03X326212Y3989887I34756J18667D01*
X450778Y3813409D02*
G03X392319Y3760415I-29229J-26497D01*
X209077Y4350344D02*
G03X256700Y3952551I637381J-125441D01*
X1391413Y4054869D02*
G03X1453724Y4010499I36766J-14305D01*
X1353535Y3818875D02*
G03X1289085Y3864395I-32225J22760D01*
X1333983Y3795598D02*
G01X1353535Y3818875D01*
X1300667Y4570710D02*
G03X1366575Y4614092I32954J21691D01*
X1455891Y4422969D02*
G03X1396653Y4377136I-22025J-32731D01*
X296642Y4378496D02*
G03X222281Y4404885I-37180J13194D01*
X327232Y4615274D02*
G03X393039Y4571741I32904J-21766D01*
X358932Y4654208D02*
G01X327232Y4615275D01*
X392320Y3760415D02*
G03X544891Y3649535I454139J464486D01*
X1148024Y3649539D02*
G03X1275766Y3737379I-301570J575363D01*
G03X1299897Y3771459I-59847J67960D01*
Y3771460D02*
G03X1333983Y3795598I-33874J83973D01*
X1366575Y4614092D02*
G03X1148025Y4800270I-520117J-389189D01*
X544892Y4800267D02*
G03X358933Y4654208I301571J-575363D01*
X222283Y4404885D02*
G03X205433Y4330150I624173J-179991D01*
X1477172Y3952551D02*
G03X1546684Y3989887I34756J18667D01*
X1671250Y3813409D02*
G03X1612791Y3760415I-29229J-26497D01*
X1453726Y4010499D02*
G03X1477172Y3952551I613207J214397D01*
X2611886Y4054869D02*
G03X2674197Y4010499I36766J-14305D01*
X2574007Y3818875D02*
G03X2509557Y3864395I-32225J22760D01*
X2554456Y3795598D02*
G01X2574007Y3818875D01*
X2521140Y4570710D02*
G03X2587047Y4614092I32954J21691D01*
X2676363Y4422969D02*
G03X2617125Y4377136I-22025J-32731D01*
X1517114Y4378496D02*
G03X1455891Y4422969I-37180J13194D01*
X1547705Y4615274D02*
G03X1613512Y4571741I32904J-21766D01*
X1579405Y4654208D02*
G01X1547705Y4615275D01*
X1612793Y3760415D02*
G03X1765363Y3649535I454139J464486D01*
X2368496Y3649539D02*
G03X2496238Y3737379I-301570J575363D01*
G03X2520369Y3771459I-59847J67960D01*
Y3771460D02*
G03X2554456Y3795598I-33874J83973D01*
X2587047Y4614092D02*
G03X2368497Y4800270I-520117J-389189D01*
X1765364Y4800267D02*
G03X1579406Y4654208I301571J-575363D01*
X2697645Y3952551D02*
G03X2767157Y3989887I34756J18667D01*
X2891722Y3813409D02*
G03X2833264Y3760415I-29229J-26497D01*
X2674198Y4010499D02*
G03X2697645Y3952551I613207J214397D01*
X3832358Y4054869D02*
G03X3894669Y4010499I36766J-14305D01*
X3794480Y3818875D02*
G03X3730030Y3864395I-32225J22760D01*
X3774928Y3795598D02*
G01X3794480Y3818875D01*
X3741612Y4570710D02*
G03X3807520Y4614092I32954J21691D01*
X3896836Y4422969D02*
G03X3837598Y4377136I-22025J-32731D01*
X2737587Y4378496D02*
G03X2676363Y4422969I-37180J13194D01*
X2768177Y4615274D02*
G03X2833984Y4571741I32904J-21766D01*
X2799877Y4654208D02*
G01X2768177Y4615275D01*
X2833265Y3760415D02*
G03X2985836Y3649535I454139J464486D01*
X3588969Y3649539D02*
G03X3716711Y3737379I-301570J575363D01*
G03X3740842Y3771459I-59847J67960D01*
Y3771460D02*
G03X3774928Y3795598I-33874J83973D01*
X3807520Y4614092D02*
G03X3588970Y4800270I-520117J-389189D01*
X2985837Y4800267D02*
G03X2799878Y4654208I301571J-575363D01*
X2368497Y3649537D02*
G03X2368498Y3579796I18278J-34870D01*
X544892Y3579795D02*
G03X544891Y3649537I-18278J34870D01*
X1148025Y3649537D02*
G03X1148026Y3579796I18278J-34870D01*
X1765364Y3579795D02*
G03X1765363Y3649537I-18278J34870D01*
X2985837Y3579795D02*
G03X2985836Y3649537I-18278J34870D01*
X3588970Y3649537D02*
G03X3588970Y3579796I18278J-34870D01*
X3588970Y2429065D02*
G03X3588970Y2359324I18278J-34870D01*
X2985837Y2359323D02*
G03X2985836Y2429064I-18278J34870D01*
X2368497Y2429065D02*
G03X2368498Y2359324I18278J-34870D01*
X1765364Y2359323D02*
G03X1765363Y2429064I-18278J34870D01*
X1148025Y2429065D02*
G03X1148026Y2359324I18278J-34870D01*
X544892Y2359323D02*
G03X544891Y2429064I-18278J34870D01*
X256700Y291134D02*
G03X326212Y328470I34756J18667D01*
X209077Y688926D02*
G03X256700Y291134I637381J-125441D01*
X1391413Y393452D02*
G03X1444889Y343407I36767J-14306D01*
X1300667Y909293D02*
G03X1366575Y952674I32954J21691D01*
X1455891Y761551D02*
G03X1396653Y715719I-22025J-32731D01*
X296642Y717079D02*
G03X222281Y743467I-37180J13194D01*
X327232Y953856D02*
G03X393039Y910324I32904J-21766D01*
X358932Y992790D02*
G01X327232Y953857D01*
X1366575Y952674D02*
G03X1148025Y1138852I-520118J-389189D01*
X544892Y1138849D02*
G03X358933Y992790I301572J-575362D01*
X222283Y743467D02*
G03X205433Y668732I624173J-179992D01*
X1464497Y341713D02*
G03X1521842Y392726I22589J32345D01*
X2611886Y393452D02*
G03X2665361Y343407I36767J-14306D01*
X2521140Y909293D02*
G03X2587047Y952674I32954J21691D01*
X2676363Y761551D02*
G03X2617125Y715719I-22025J-32731D01*
X1517114Y717079D02*
G03X1455891Y761551I-37180J13194D01*
X1547705Y953856D02*
G03X1613512Y910324I32904J-21766D01*
X1579405Y992790D02*
G01X1547705Y953857D01*
X2587047Y952674D02*
G03X2368497Y1138852I-520118J-389189D01*
X1765364Y1138849D02*
G03X1579406Y992790I301572J-575362D01*
X3741612Y909293D02*
G03X3807520Y952674I32954J21691D01*
X3896836Y761551D02*
G03X3837598Y715719I-22025J-32731D01*
X2737587Y717079D02*
G03X2676363Y761551I-37180J13194D01*
X2768177Y953856D02*
G03X2833984Y910324I32904J-21766D01*
X2799877Y992790D02*
G01X2768177Y953857D01*
X3807520Y952674D02*
G03X3588970Y1138852I-520118J-389189D01*
X2985837Y1138849D02*
G03X2799878Y992790I301572J-575362D01*
X3588970Y1208593D02*
G03X3588970Y1138852I18278J-34870D01*
X2985837Y1138850D02*
G03X2985836Y1208592I-18278J34870D01*
X2368497Y1208593D02*
G03X2368498Y1138852I18278J-34870D01*
X1765364Y1138850D02*
G03X1765363Y1208592I-18278J34870D01*
X1148025Y1208593D02*
G03X1148026Y1138852I18278J-34870D01*
X544892Y1138850D02*
G03X544891Y1208592I-18278J34870D01*
X256700Y5173024D02*
G03X326212Y5210359I34756J18667D01*
X450778Y5033882D02*
G03X392319Y4980888I-29229J-26497D01*
X209077Y5570816D02*
G03X256700Y5173024I637381J-125440D01*
X1391413Y5275341D02*
G03X1453724Y5230972I36766J-14305D01*
X1353535Y5039348D02*
G03X1289085Y5084867I-32225J22760D01*
X1333983Y5016070D02*
G01X1353535Y5039348D01*
X1455891Y5643441D02*
G03X1396653Y5597608I-22025J-32731D01*
X296642Y5598969D02*
G03X222281Y5625357I-37180J13194D01*
X392320Y4980888D02*
G03X544891Y4870008I454139J464486D01*
X1148024Y4870011D02*
G03X1275766Y4957852I-301570J575363D01*
G03X1299897Y4991931I-59847J67960D01*
Y4991932D02*
G03X1333983Y5016070I-33875J83973D01*
X222283Y5625357D02*
G03X205433Y5550622I624173J-179991D01*
X1477172Y5173024D02*
G03X1546684Y5210359I34756J18667D01*
X1671250Y5033882D02*
G03X1612791Y4980888I-29229J-26497D01*
X1453726Y5230972D02*
G03X1477172Y5173024I613207J214397D01*
X2611886Y5275341D02*
G03X2674197Y5230972I36766J-14305D01*
X2574007Y5039348D02*
G03X2509557Y5084867I-32225J22760D01*
X2554456Y5016070D02*
G01X2574007Y5039348D01*
X2676363Y5643441D02*
G03X2617125Y5597608I-22025J-32731D01*
X1517114Y5598969D02*
G03X1455891Y5643441I-37180J13194D01*
X1612793Y4980888D02*
G03X1765363Y4870008I454139J464486D01*
X2368496Y4870011D02*
G03X2496238Y4957852I-301570J575363D01*
G03X2520369Y4991931I-59847J67960D01*
Y4991932D02*
G03X2554456Y5016070I-33875J83973D01*
X2697645Y5173024D02*
G03X2767157Y5210359I34756J18667D01*
X2891722Y5033882D02*
G03X2833264Y4980888I-29229J-26497D01*
X2674198Y5230972D02*
G03X2697645Y5173024I613207J214397D01*
X3832358Y5275341D02*
G03X3894669Y5230972I36766J-14305D01*
X3794480Y5039348D02*
G03X3730030Y5084867I-32225J22760D01*
X3774928Y5016070D02*
G01X3794480Y5039348D01*
X3896836Y5643441D02*
G03X3837598Y5597608I-22025J-32731D01*
X2737587Y5598969D02*
G03X2676363Y5643441I-37180J13194D01*
X2833265Y4980888D02*
G03X2985836Y4870008I454139J464486D01*
X3588969Y4870011D02*
G03X3716711Y4957852I-301570J575363D01*
G03X3740842Y4991931I-59847J67960D01*
Y4991932D02*
G03X3774928Y5016070I-33875J83973D01*
X2368497Y4870010D02*
G03X2368498Y4800269I18278J-34870D01*
X544892Y4800268D02*
G03X544891Y4870009I-18278J34870D01*
X1148025Y4870010D02*
G03X1148026Y4800269I18278J-34870D01*
X1765364Y4800268D02*
G03X1765363Y4870009I-18278J34870D01*
X2985837Y4800268D02*
G03X2985836Y4870009I-18278J34870D01*
X3588970Y4870010D02*
G03X3588970Y4800269I18278J-34870D01*
X0Y39370D02*
G01Y5969485D01*
X196850Y6008855D02*
X39370D01*
X3832358Y4054869D02*
G03X3894669Y4010499I36766J-14305D01*
X3896836Y4422969D02*
G03X3837598Y4377136I-22025J-32731D01*
X3832358Y2834396D02*
G03X3894669Y2790026I36767J-14305D01*
X3896836Y3202496D02*
G03X3837598Y3156663I-22025J-32731D01*
X3832358Y1613924D02*
G03X3894669Y1569554I36767J-14305D01*
X3896836Y1982024D02*
G03X3837598Y1936191I-22025J-32731D01*
X3832358Y393452D02*
G03X3885834Y343407I36767J-14306D01*
X3896836Y761551D02*
G03X3837598Y715719I-22025J-32731D01*
X196850Y0D02*
G01X39370D01*
X3918117Y1511606D02*
G03X3987629Y1548942I34756J18667D01*
X4112195Y1372465D02*
G03X4053736Y1319470I-29229J-26497D01*
X3894670Y1569554D02*
G03X3918117Y1511606I613206J214399D01*
X5052831Y1613924D02*
G03X5115142Y1569554I36767J-14305D01*
X5014952Y1377930D02*
G03X4950502Y1423450I-32225J22760D01*
X4995401Y1354652D02*
G01X5014952Y1377930D01*
X4962085Y2129765D02*
G03X5027992Y2173146I32954J21691D01*
X5117308Y1982024D02*
G03X5058070Y1936191I-22025J-32731D01*
X3958059Y1937551D02*
G03X3896836Y1982024I-37180J13194D01*
X3988650Y2174329D02*
G03X4054457Y2130796I32904J-21766D01*
X4020350Y2213263D02*
G01X3988650Y2174330D01*
X4053737Y1319470D02*
G03X4206308Y1208591I454139J464486D01*
X4809441Y1208593D02*
G03X4937183Y1296434I-301570J575363D01*
G03X4961314Y1330514I-59847J67960D01*
Y1330515D02*
G03X4995401Y1354652I-33874J83973D01*
X5027992Y2173146D02*
G03X4809442Y2359325I-520118J-389189D01*
X4206309Y2359322D02*
G03X4020350Y2213263I301572J-575362D01*
X3918117Y2732079D02*
G03X3987629Y2769414I34756J18667D01*
X4112195Y2592937D02*
G03X4053736Y2539943I-29229J-26497D01*
X3894670Y2790026D02*
G03X3918117Y2732079I613206J214399D01*
X5052831Y2834396D02*
G03X5115142Y2790026I36767J-14305D01*
X5014952Y2598403D02*
G03X4950502Y2643922I-32225J22760D01*
X4995401Y2575125D02*
G01X5014952Y2598403D01*
X4962085Y3350237D02*
G03X5027992Y3393619I32954J21691D01*
X5117308Y3202496D02*
G03X5058070Y3156663I-22025J-32731D01*
X3958059Y3158024D02*
G03X3896836Y3202496I-37180J13194D01*
X3988650Y3394801D02*
G03X4054457Y3351269I32904J-21766D01*
X4020350Y3433735D02*
G01X3988650Y3394802D01*
X4053737Y2539943D02*
G03X4206308Y2429063I454139J464486D01*
X4809441Y2429066D02*
G03X4937183Y2516906I-301570J575363D01*
G03X4961314Y2550986I-59847J67960D01*
Y2550987D02*
G03X4995401Y2575125I-33874J83973D01*
X5027992Y3393619D02*
G03X4809442Y3579797I-520117J-389189D01*
X4206309Y3579794D02*
G03X4020350Y3433735I301572J-575362D01*
X3918117Y3952551D02*
G03X3987629Y3989887I34756J18667D01*
X4112195Y3813409D02*
G03X4053736Y3760415I-29229J-26497D01*
X3894670Y4010499D02*
G03X3918117Y3952551I613207J214397D01*
X5052831Y4054869D02*
G03X5115142Y4010499I36766J-14305D01*
X5014952Y3818875D02*
G03X4950502Y3864395I-32225J22760D01*
X4995401Y3795598D02*
G01X5014952Y3818875D01*
X4962085Y4570710D02*
G03X5027992Y4614092I32954J21691D01*
X5117308Y4422969D02*
G03X5058070Y4377136I-22025J-32731D01*
X3958059Y4378496D02*
G03X3896836Y4422969I-37180J13194D01*
X3988650Y4615274D02*
G03X4054457Y4571741I32904J-21766D01*
X4020350Y4654208D02*
G01X3988650Y4615275D01*
X4053737Y3760415D02*
G03X4206308Y3649535I454139J464486D01*
X4809441Y3649539D02*
G03X4937183Y3737379I-301570J575363D01*
G03X4961314Y3771459I-59847J67960D01*
Y3771460D02*
G03X4995401Y3795598I-33874J83973D01*
X5027992Y4614092D02*
G03X4809442Y4800270I-520117J-389189D01*
X4206309Y4800267D02*
G03X4020350Y4654208I301571J-575363D01*
X4206309Y3579795D02*
G03X4206308Y3649537I-18278J34870D01*
X4809442Y3649537D02*
G03X4809443Y3579796I18278J-34870D01*
X4809442Y2429065D02*
G03X4809443Y2359324I18278J-34870D01*
X4206309Y2359323D02*
G03X4206308Y2429064I-18278J34870D01*
X5052831Y393452D02*
G03X5115142Y349082I36767J-14305D01*
X4962085Y909293D02*
G03X5027992Y952674I32954J21691D01*
X5117308Y761551D02*
G03X5058070Y715719I-22025J-32731D01*
X3958059Y717079D02*
G03X3896836Y761551I-37180J13194D01*
X3988650Y953856D02*
G03X4054457Y910324I32904J-21766D01*
X4020350Y992790D02*
G01X3988650Y953857D01*
X5027992Y952674D02*
G03X4809442Y1138852I-520118J-389189D01*
X4206309Y1138849D02*
G03X4020350Y992790I301572J-575362D01*
X4809442Y1208593D02*
G03X4809443Y1138852I18278J-34870D01*
X4206309Y1138850D02*
G03X4206308Y1208592I-18278J34870D01*
X3918117Y5173024D02*
G03X3987629Y5210359I34756J18667D01*
X4112195Y5033882D02*
G03X4053736Y4980888I-29229J-26497D01*
X3894670Y5230972D02*
G03X3918117Y5173024I613207J214397D01*
X5052831Y5275341D02*
G03X5127896Y5251565I36767J-14305D01*
X5014952Y5039348D02*
G03X4950502Y5084867I-32225J22760D01*
X4995401Y5016070D02*
G01X5014952Y5039348D01*
X5133865Y5618945D02*
G03X5058070Y5597608I-38583J-8235D01*
X3958059Y5598969D02*
G03X3896836Y5643441I-37180J13194D01*
X4053737Y4980888D02*
G03X4206308Y4870008I454139J464486D01*
X4809441Y4870011D02*
G03X4937183Y4957852I-301570J575363D01*
G03X4961314Y4991931I-59847J67960D01*
Y4991932D02*
G03X4995401Y5016070I-33875J83973D01*
X5127896Y5251565D02*
G03X5133960Y5618606I-620021J193815D01*
X4206309Y4800268D02*
G03X4206308Y4870009I-18278J34870D01*
X4809442Y4870010D02*
G03X4809443Y4800269I18278J-34870D01*
X5354333Y39370D02*
G01Y5969485D01*
X5157482Y6008855D02*
X5314963D01*
Y0D02*
X5157482D01*
X5127896Y4031093D02*
G03X5133960Y4398134I-620021J193815D01*
X5052831Y4054869D02*
G03X5127896Y4031093I36767J-14305D01*
X5133865Y4398472D02*
G03X5058070Y4377136I-38583J-8235D01*
X5127896Y4031093D02*
G03X5133960Y4398134I-620021J193815D01*
X5052831Y2834396D02*
G03X5127896Y2810620I36767J-14305D01*
X5133865Y3178000D02*
G03X5058070Y3156663I-38583J-8235D01*
X5127896Y2810620D02*
G03X5133960Y3177661I-620021J193815D01*
X5052831Y1613924D02*
G03X5127896Y1590148I36767J-14305D01*
X5133865Y1957528D02*
G03X5058070Y1936191I-38583J-8235D01*
X5127896Y1590148D02*
G03X5133960Y1957189I-620021J193815D01*
X5052831Y393452D02*
G03X5127896Y369675I36767J-14305D01*
X5133865Y737055D02*
G03X5058070Y715719I-38583J-8235D01*
X5127896Y369675D02*
G03X5133960Y736717I-620021J193815D01*
X4971285Y227514D02*
G01X5157482D01*
X430647Y172346D02*
X196850D01*
X3760232Y5765253D02*
X4032318D01*
X2539760D02*
X2811846D01*
X1319287D02*
X1591373D01*
X196850D02*
X370901D01*
X4980705D02*
X5157482D01*
Y227514D02*
Y0D01*
Y5765253D02*
Y6008855D01*
X196850Y5765253D02*
Y6008855D01*
Y0D02*
Y172346D01*
X1464496Y341713D02*
G03X1444889Y343407I-11271J-16139D01*
X1309044Y227514D02*
G01X1604128D01*
X2684970Y341713D02*
G03X2742314Y392726I22589J32345D01*
X3905442Y341713D02*
G03X3962787Y392726I22589J32345D01*
X3905441Y341713D02*
G03X3885834Y343407I-11271J-16139D01*
X2684969Y341713D02*
G03X2665361Y343407I-11271J-16139D01*
X2529556Y227514D02*
G01X2824931D01*
X3749489D02*
X4045154D01*
X0Y39370D02*
G03X39370Y0I39370J0D01*
X5314963D02*
G03X5354333Y39370I0J39370D01*
Y5969485D02*
G03X5314963Y6008855I-39370J0D01*
X39370D02*
G03X0Y5969485I0J-39370D01*
G54D21*
X98425Y5615154D03*
X5255907D03*
X98425Y590551D03*
X5255907Y393701D03*
M02*
